<?xml version="1.0" encoding="UTF-8" standalone="no"?>
<!-- Created with Inkscape (http://www.inkscape.org/) -->

<svg
   xmlns:dc="http://purl.org/dc/elements/1.1/"
   xmlns:cc="http://creativecommons.org/ns#"
   xmlns:rdf="http://www.w3.org/1999/02/22-rdf-syntax-ns#"
   xmlns:svg="http://www.w3.org/2000/svg"
   xmlns="http://www.w3.org/2000/svg"
   xmlns:xlink="http://www.w3.org/1999/xlink"
   version="1.1"
   width="100%"
   height="100%"
   viewBox="0 0 631.38399 149.59974"
   id="svg8864"
   style="fill:none;stroke:none">
  <metadata
     id="metadata9300">
    <rdf:RDF>
      <cc:Work
         rdf:about="">
        <dc:format>image/svg+xml</dc:format>
        <dc:type
           rdf:resource="http://purl.org/dc/dcmitype/StillImage" />
        <dc:title></dc:title>
      </cc:Work>
    </rdf:RDF>
  </metadata>
  <defs
     id="defs9298" />
  <clipPath
     id="g9ea697d1d_1_12.0">
    <path
       d="M 0,0 960,0 960,540 0,540 0,0 z"
       id="path8867" />
  </clipPath>
  <path
     d="m 66.953506,42.484566 29.927438,0 0,31.792749 -29.927438,0 z"
     id="path9042"
     style="fill:#000000;fill-opacity:0;fill-rule:nonzero" />
  <path
     d="m 66.953506,42.484566 29.927438,0 0,31.79275 -29.927438,0 z"
     id="path9044"
     style="stroke:#000000;stroke-width:1.99999988;stroke-linecap:butt;stroke-linejoin:round" />
  <path
     d="m 84.538741,58.519728 q 0,2.025535 -0.635515,2.984285 -0.635523,0.945251 -1.974167,0.945251 -1.365694,0 -2.001209,-0.95875 -0.621999,-0.972258 -0.621999,-2.970786 0,-2.012038 0.635516,-2.970788 0.635523,-0.958758 1.987692,-0.958758 1.352169,0 1.974167,0.985765 0.635515,0.972258 0.635515,2.943781 z m -1.338643,2.295607 q 0.175778,-0.418615 0.243391,-0.972257 0.06759,-0.553651 0.06759,-1.32335 0,-0.769709 -0.06759,-1.336859 -0.06759,-0.56715 -0.243391,-0.972258 -0.175786,-0.391599 -0.48678,-0.580649 -0.311004,-0.202558 -0.784259,-0.202558 -0.48678,0 -0.797784,0.202558 -0.310994,0.18905 -0.48678,0.594157 -0.175778,0.378101 -0.243391,0.985757 -0.05409,0.594157 -0.05409,1.309852 0,0.796706 0.05409,1.336849 0.05409,0.526644 0.229873,0.94525 0.175777,0.391608 0.473255,0.607665 0.311004,0.202549 0.824827,0.202549 0.473255,0 0.784259,-0.202549 0.310994,-0.202557 0.48678,-0.594157 z"
     id="path9046"
     style="fill:#000000;fill-rule:nonzero" />
  <path
     d="m 96.443264,42.484566 29.927456,0 0,31.792749 -29.927456,0 z"
     id="path9048"
     style="fill:#000000;fill-opacity:0;fill-rule:nonzero" />
  <path
     d="m 96.443264,42.484566 29.927446,0 0,31.79275 -29.927446,0 z"
     id="path9050"
     style="stroke:#000000;stroke-width:1.99999988;stroke-linecap:butt;stroke-linejoin:round" />
  <path
     d="m 114.02851,58.519728 q 0,2.025535 -0.63552,2.984285 -0.63552,0.945251 -1.97416,0.945251 -1.3657,0 -2.00122,-0.95875 -0.62199,-0.972258 -0.62199,-2.970786 0,-2.012038 0.63552,-2.970788 0.63552,-0.958758 1.98769,-0.958758 1.35216,0 1.97416,0.985765 0.63552,0.972258 0.63552,2.943781 z m -1.33865,2.295607 q 0.17578,-0.418615 0.24339,-0.972257 0.0676,-0.553651 0.0676,-1.32335 0,-0.769709 -0.0676,-1.336859 -0.0676,-0.56715 -0.24339,-0.972258 -0.17577,-0.391599 -0.48678,-0.580649 -0.31099,-0.202558 -0.78425,-0.202558 -0.48679,0 -0.79778,0.202558 -0.31101,0.18905 -0.48678,0.594157 -0.17579,0.378101 -0.24339,0.985757 -0.0541,0.594157 -0.0541,1.309852 0,0.796706 0.0541,1.336849 0.0541,0.526644 0.22986,0.94525 0.17579,0.391608 0.47326,0.607665 0.311,0.202549 0.82483,0.202549 0.47326,0 0.78425,-0.202549 0.31101,-0.202557 0.48678,-0.594157 z"
     id="path9052"
     style="fill:#000000;fill-rule:nonzero" />
  <path
     d="m 126.37001,42.484566 29.92744,0 0,31.792749 -29.92744,0 z"
     id="path9054"
     style="fill:#d9d9d9;fill-rule:nonzero" />
  <path
     d="m 126.37001,42.484566 29.92744,0 0,31.79275 -29.92744,0 z"
     id="path9056"
     style="stroke:#000000;stroke-width:1.99999988;stroke-linecap:butt;stroke-linejoin:round" />
  <path
     d="m 143.53608,62.287246 -4.09708,0 0,-0.769708 1.58205,0 0,-5.050337 -1.58205,0 0,-0.688678 q 0.32452,0 0.68961,-0.05402 0.36508,-0.05402 0.55439,-0.162043 0.22987,-0.121536 0.36509,-0.310587 0.13521,-0.20255 0.14873,-0.526635 l 0.79778,0 0,6.792294 1.54148,0 0,0.769708 z"
     id="path9058"
     style="fill:#000000;fill-rule:nonzero" />
  <path
     d="m 155.85976,42.484566 29.92745,0 0,31.792749 -29.92745,0 z"
     id="path9060"
     style="fill:#d9d9d9;fill-rule:nonzero" />
  <path
     d="m 155.85976,42.484566 29.92745,0 0,31.79275 -29.92745,0 z"
     id="path9062"
     style="stroke:#000000;stroke-width:1.99999988;stroke-linecap:butt;stroke-linejoin:round" />
  <path
     d="m 173.02584,62.287246 -4.09707,0 0,-0.769708 1.58204,0 0,-5.050337 -1.58204,0 0,-0.688678 q 0.32452,0 0.68961,-0.05402 0.36508,-0.05402 0.55438,-0.162043 0.22987,-0.121536 0.36509,-0.310587 0.13521,-0.20255 0.14873,-0.526635 l 0.79779,0 0,6.792294 1.54147,0 0,0.769708 z"
     id="path9064"
     style="fill:#000000;fill-rule:nonzero" />
  <path
     d="m 185.24539,42.484566 29.92745,0 0,31.792749 -29.92745,0 z"
     id="path9066"
     style="fill:#d9d9d9;fill-rule:nonzero" />
  <path
     d="m 185.24539,42.484566 29.92745,0 0,31.79275 -29.92745,0 z"
     id="path9068"
     style="stroke:#000000;stroke-width:1.99999988;stroke-linecap:butt;stroke-linejoin:round" />
  <path
     d="m 202.41146,62.287246 -4.09708,0 0,-0.769708 1.58204,0 0,-5.050337 -1.58204,0 0,-0.688678 q 0.32451,0 0.6896,-0.05402 0.36509,-0.05402 0.5544,-0.162043 0.22987,-0.121536 0.36508,-0.310587 0.13522,-0.20255 0.14874,-0.526635 l 0.79778,0 0,6.792294 1.54148,0 0,0.769708 z"
     id="path9070"
     style="fill:#000000;fill-rule:nonzero" />
  <path
     d="m 214.73518,42.484566 29.92743,0 0,31.792749 -29.92743,0 z"
     id="path9072"
     style="fill:#000000;fill-opacity:0;fill-rule:nonzero" />
  <path
     d="m 214.73518,42.484566 29.92743,0 0,31.79275 -29.92743,0 z"
     id="path9074"
     style="stroke:#000000;stroke-width:1.99999988;stroke-linecap:butt;stroke-linejoin:round" />
  <path
     d="m 232.3204,58.519728 q 0,2.025535 -0.63551,2.984285 -0.63553,0.945251 -1.97417,0.945251 -1.3657,0 -2.00121,-0.95875 -0.622,-0.972258 -0.622,-2.970786 0,-2.012038 0.63551,-2.970788 0.63553,-0.958758 1.9877,-0.958758 1.35217,0 1.97417,0.985765 0.63551,0.972258 0.63551,2.943781 z m -1.33864,2.295607 q 0.17577,-0.418615 0.24339,-0.972257 0.0676,-0.553651 0.0676,-1.32335 0,-0.769709 -0.0676,-1.336859 -0.0676,-0.56715 -0.24339,-0.972258 -0.17578,-0.391599 -0.48678,-0.580649 -0.311,-0.202558 -0.78426,-0.202558 -0.48678,0 -0.79778,0.202558 -0.311,0.18905 -0.48678,0.594157 -0.17578,0.378101 -0.24339,0.985757 -0.0541,0.594157 -0.0541,1.309852 0,0.796706 0.0541,1.336849 0.0541,0.526644 0.22987,0.94525 0.17577,0.391608 0.47325,0.607665 0.31101,0.202549 0.82483,0.202549 0.47326,0 0.78426,-0.202549 0.311,-0.202557 0.48678,-0.594157 z"
     id="path9076"
     style="fill:#000000;fill-rule:nonzero" />
  <path
     d="m 274.15167,42.484566 29.92744,0 0,31.792749 -29.92744,0 z"
     id="path9078"
     style="fill:#d9d9d9;fill-rule:nonzero" />
  <path
     d="m 274.15167,42.484566 29.92743,0 0,31.79275 -29.92743,0 z"
     id="path9080"
     style="stroke:#000000;stroke-width:1.99999988;stroke-linecap:butt;stroke-linejoin:round" />
  <path
     d="m 291.31776,62.287246 -4.09708,0 0,-0.769708 1.58204,0 0,-5.050337 -1.58204,0 0,-0.688678 q 0.32452,0 0.68961,-0.05402 0.36509,-0.05402 0.55439,-0.162043 0.22987,-0.121536 0.36509,-0.310587 0.13521,-0.20255 0.14873,-0.526635 l 0.79779,0 0,6.792294 1.54147,0 0,0.769708 z"
     id="path9082"
     style="fill:#000000;fill-rule:nonzero" />
  <path
     d="m 304.46926,42.484566 29.92744,0 0,31.792749 -29.92744,0 z"
     id="path9084"
     style="fill:#d9d9d9;fill-rule:nonzero" />
  <path
     d="m 304.46926,42.484566 29.92743,0 0,31.79275 -29.92743,0 z"
     id="path9086"
     style="stroke:#000000;stroke-width:1.99999988;stroke-linecap:butt;stroke-linejoin:round" />
  <path
     d="m 321.63534,62.287246 -4.09708,0 0,-0.769708 1.58205,0 0,-5.050337 -1.58205,0 0,-0.688678 q 0.32452,0 0.68961,-0.05402 0.36508,-0.05402 0.55439,-0.162043 0.22988,-0.121536 0.36509,-0.310587 0.13522,-0.20255 0.14873,-0.526635 l 0.79779,0 0,6.792294 1.54147,0 0,0.769708 z"
     id="path9088"
     style="fill:#000000;fill-rule:nonzero" />
  <path
     d="m 333.95905,42.484566 29.92743,0 0,31.792749 -29.92743,0 z"
     id="path9090"
     style="fill:#d9d9d9;fill-rule:nonzero" />
  <path
     d="m 333.95905,42.484566 29.92743,0 0,31.79275 -29.92743,0 z"
     id="path9092"
     style="stroke:#000000;stroke-width:1.99999988;stroke-linecap:butt;stroke-linejoin:round" />
  <path
     d="m 351.12512,62.287246 -4.09708,0 0,-0.769708 1.58204,0 0,-5.050337 -1.58204,0 0,-0.688678 q 0.32452,0 0.6896,-0.05402 0.36509,-0.05402 0.5544,-0.162043 0.22987,-0.121536 0.36508,-0.310587 0.13522,-0.20255 0.14875,-0.526635 l 0.79777,0 0,6.792294 1.54148,0 0,0.769708 z"
     id="path9094"
     style="fill:#000000;fill-rule:nonzero" />
  <path
     d="m 363.88575,42.484566 29.92744,0 0,31.792749 -29.92744,0 z"
     id="path9096"
     style="fill:#d9d9d9;fill-rule:nonzero" />
  <path
     d="m 363.88575,42.484566 29.92744,0 0,31.79275 -29.92744,0 z"
     id="path9098"
     style="stroke:#000000;stroke-width:1.99999988;stroke-linecap:butt;stroke-linejoin:round" />
  <path
     d="m 381.05183,62.287246 -4.09707,0 0,-0.769708 1.58203,0 0,-5.050337 -1.58203,0 0,-0.688678 q 0.32452,0 0.6896,-0.05402 0.36509,-0.05402 0.5544,-0.162043 0.22986,-0.121536 0.36508,-0.310587 0.13521,-0.20255 0.14874,-0.526635 l 0.79777,0 0,6.792294 1.54148,0 0,0.769708 z"
     id="path9100"
     style="fill:#000000;fill-rule:nonzero" />
  <path
     d="m 393.37553,42.484566 29.92746,0 0,31.792749 -29.92746,0 z"
     id="path9102"
     style="fill:#d9d9d9;fill-rule:nonzero" />
  <path
     d="m 393.37553,42.484566 29.92746,0 0,31.79275 -29.92746,0 z"
     id="path9104"
     style="stroke:#000000;stroke-width:1.99999988;stroke-linecap:butt;stroke-linejoin:round" />
  <path
     d="m 410.54161,62.287246 -4.09708,0 0,-0.769708 1.58204,0 0,-5.050337 -1.58204,0 0,-0.688678 q 0.32453,0 0.68962,-0.05402 0.36508,-0.05402 0.55438,-0.162043 0.22987,-0.121536 0.36509,-0.310587 0.13521,-0.20255 0.14873,-0.526635 l 0.79779,0 0,6.792294 1.54147,0 0,0.769708 z"
     id="path9106"
     style="fill:#000000;fill-rule:nonzero" />
  <path
     d="m 422.7612,42.484566 29.92741,0 0,31.792749 -29.92741,0 z"
     id="path9108"
     style="fill:#000000;fill-opacity:0;fill-rule:nonzero" />
  <path
     d="m 422.7612,42.484566 29.92741,0 0,31.79275 -29.92741,0 z"
     id="path9110"
     style="stroke:#000000;stroke-width:1.99999988;stroke-linecap:butt;stroke-linejoin:round" />
  <path
     d="m 440.34641,58.519728 q 0,2.025535 -0.63552,2.984285 -0.63552,0.945251 -1.97417,0.945251 -1.36569,0 -2.00121,-0.95875 -0.622,-0.972258 -0.622,-2.970786 0,-2.012038 0.63552,-2.970788 0.63552,-0.958758 1.98769,-0.958758 1.35217,0 1.97417,0.985765 0.63552,0.972258 0.63552,2.943781 z m -1.33866,2.295607 q 0.17579,-0.418615 0.2434,-0.972257 0.0676,-0.553651 0.0676,-1.32335 0,-0.769709 -0.0676,-1.336859 -0.0676,-0.56715 -0.2434,-0.972258 -0.17577,-0.391599 -0.48678,-0.580649 -0.31099,-0.202558 -0.78425,-0.202558 -0.48679,0 -0.79778,0.202558 -0.311,0.18905 -0.48678,0.594157 -0.17578,0.378101 -0.24339,0.985757 -0.0541,0.594157 -0.0541,1.309852 0,0.796706 0.0541,1.336849 0.0541,0.526644 0.22986,0.94525 0.17579,0.391608 0.47327,0.607665 0.31099,0.202549 0.82482,0.202549 0.47326,0 0.78425,-0.202549 0.31101,-0.202557 0.48678,-0.594157 z"
     id="path9112"
     style="fill:#000000;fill-rule:nonzero" />
  <path
     d="m 452.25094,42.484566 29.92747,0 0,31.792749 -29.92747,0 z"
     id="path9114"
     style="fill:#000000;fill-opacity:0;fill-rule:nonzero" />
  <path
     d="m 452.25094,42.484566 29.92747,0 0,31.79275 -29.92747,0 z"
     id="path9116"
     style="stroke:#000000;stroke-width:1.99999988;stroke-linecap:butt;stroke-linejoin:round" />
  <path
     d="m 469.83615,58.519728 q 0,2.025535 -0.63552,2.984285 -0.63551,0.945251 -1.97417,0.945251 -1.36568,0 -2.00121,-0.95875 -0.622,-0.972258 -0.622,-2.970786 0,-2.012038 0.63553,-2.970788 0.63551,-0.958758 1.98768,-0.958758 1.35217,0 1.97417,0.985765 0.63552,0.972258 0.63552,2.943781 z m -1.33865,2.295607 q 0.17579,-0.418615 0.24339,-0.972257 0.0676,-0.553651 0.0676,-1.32335 0,-0.769709 -0.0676,-1.336859 -0.0676,-0.56715 -0.24339,-0.972258 -0.17577,-0.391599 -0.48678,-0.580649 -0.31099,-0.202558 -0.78426,-0.202558 -0.48677,0 -0.79777,0.202558 -0.311,0.18905 -0.48678,0.594157 -0.17579,0.378101 -0.24339,0.985757 -0.0541,0.594157 -0.0541,1.309852 0,0.796706 0.0541,1.336849 0.0541,0.526644 0.22986,0.94525 0.17578,0.391608 0.47326,0.607665 0.311,0.202549 0.82482,0.202549 0.47327,0 0.78426,-0.202549 0.31101,-0.202557 0.48678,-0.594157 z"
     id="path9118"
     style="fill:#000000;fill-rule:nonzero" />
  <path
     d="m 482.17762,42.484566 29.92747,0 0,31.792749 -29.92747,0 z"
     id="path9120"
     style="fill:#000000;fill-opacity:0;fill-rule:nonzero" />
  <path
     d="m 482.17762,42.484566 29.92746,0 0,31.79275 -29.92746,0 z"
     id="path9122"
     style="stroke:#000000;stroke-width:1.99999988;stroke-linecap:butt;stroke-linejoin:round" />
  <path
     d="m 499.76292,58.519728 q 0,2.025535 -0.63552,2.984285 -0.63552,0.945251 -1.97417,0.945251 -1.36569,0 -2.00121,-0.95875 -0.622,-0.972258 -0.622,-2.970786 0,-2.012038 0.63552,-2.970788 0.63552,-0.958758 1.98769,-0.958758 1.35217,0 1.97417,0.985765 0.63552,0.972258 0.63552,2.943781 z m -1.33865,2.295607 q 0.17578,-0.418615 0.24339,-0.972257 0.0676,-0.553651 0.0676,-1.32335 0,-0.769709 -0.0676,-1.336859 -0.0676,-0.56715 -0.24339,-0.972258 -0.17578,-0.391599 -0.48678,-0.580649 -0.31099,-0.202558 -0.78426,-0.202558 -0.48679,0 -0.79777,0.202558 -0.31101,0.18905 -0.48678,0.594157 -0.17579,0.378101 -0.2434,0.985757 -0.0541,0.594157 -0.0541,1.309852 0,0.796706 0.0541,1.336849 0.0541,0.526644 0.22987,0.94525 0.17578,0.391608 0.47326,0.607665 0.311,0.202549 0.82482,0.202549 0.47327,0 0.78426,-0.202549 0.311,-0.202557 0.48678,-0.594157 z"
     id="path9124"
     style="fill:#000000;fill-rule:nonzero" />
  <path
     d="m 511.66746,42.484566 29.9274,0 0,31.792749 -29.9274,0 z"
     id="path9126"
     style="fill:#000000;fill-opacity:0;fill-rule:nonzero" />
  <path
     d="m 511.66745,42.484566 29.92741,0 0,31.79275 -29.92741,0 z"
     id="path9128"
     style="stroke:#000000;stroke-width:1.99999988;stroke-linecap:butt;stroke-linejoin:round" />
  <path
     d="m 529.25266,58.519728 q 0,2.025535 -0.63551,2.984285 -0.63552,0.945251 -1.97417,0.945251 -1.36569,0 -2.00121,-0.95875 -0.622,-0.972258 -0.622,-2.970786 0,-2.012038 0.63552,-2.970788 0.63552,-0.958758 1.98769,-0.958758 1.35217,0 1.97417,0.985765 0.63551,0.972258 0.63551,2.943781 z m -1.33863,2.295607 q 0.17577,-0.418615 0.24338,-0.972257 0.0676,-0.553651 0.0676,-1.32335 0,-0.769709 -0.0676,-1.336859 -0.0676,-0.56715 -0.24338,-0.972258 -0.17579,-0.391599 -0.48679,-0.580649 -0.311,-0.202558 -0.78426,-0.202558 -0.48677,0 -0.79778,0.202558 -0.31099,0.18905 -0.48678,0.594157 -0.17578,0.378101 -0.24339,0.985757 -0.0541,0.594157 -0.0541,1.309852 0,0.796706 0.0541,1.336849 0.0541,0.526644 0.22987,0.94525 0.17578,0.391608 0.47325,0.607665 0.31101,0.202549 0.82483,0.202549 0.47326,0 0.78426,-0.202549 0.311,-0.202557 0.48679,-0.594157 z"
     id="path9130"
     style="fill:#000000;fill-rule:nonzero" />
  <path
     d="m 542.09018,42.484566 58.38307,0 0,31.792749 -58.38307,0 z"
     id="path9132"
     style="fill:#000000;fill-opacity:0;fill-rule:nonzero" />
  <path
     d="m 542.09017,42.484566 58.38308,0 0,31.79275 -58.38308,0 z"
     id="path9134"
     style="stroke:#000000;stroke-width:1.99999988;stroke-linecap:butt;stroke-linejoin:round" />
  <path
     d="m 568.11682,62.287246 -1.21696,0 0,-1.444886 1.21696,0 0,1.444886 z m 3.77762,0 -1.21696,0 0,-1.444886 1.21696,0 0,1.444886 z m 3.77762,0 -1.21695,0 0,-1.444886 1.21695,0 0,1.444886 z"
     id="path9136"
     style="fill:#000000;fill-rule:nonzero" />
  <path
     d="m 600.46957,42.484566 29.9274,0 0,31.792749 -29.9274,0 z"
     id="path9138"
     style="fill:#000000;fill-opacity:0;fill-rule:nonzero" />
  <path
     d="m 600.46956,42.484566 29.92741,0 0,31.79275 -29.92741,0 z"
     id="path9140"
     style="stroke:#000000;stroke-width:1.99999988;stroke-linecap:butt;stroke-linejoin:round" />
  <path
     d="m 618.05479,58.519728 q 0,2.025535 -0.63552,2.984285 -0.63551,0.945251 -1.97417,0.945251 -1.36568,0 -2.00121,-0.95875 -0.622,-0.972258 -0.622,-2.970786 0,-2.012038 0.63553,-2.970788 0.63551,-0.958758 1.98768,-0.958758 1.35217,0 1.97417,0.985765 0.63552,0.972258 0.63552,2.943781 z m -1.33865,2.295607 q 0.17579,-0.418615 0.24339,-0.972257 0.0676,-0.553651 0.0676,-1.32335 0,-0.769709 -0.0676,-1.336859 -0.0676,-0.56715 -0.24339,-0.972258 -0.17578,-0.391599 -0.48678,-0.580649 -0.31099,-0.202558 -0.78426,-0.202558 -0.48678,0 -0.79777,0.202558 -0.311,0.18905 -0.48678,0.594157 -0.17579,0.378101 -0.2434,0.985757 -0.0541,0.594157 -0.0541,1.309852 0,0.796706 0.0541,1.336849 0.0541,0.526644 0.22987,0.94525 0.17578,0.391608 0.47326,0.607665 0.311,0.202549 0.82482,0.202549 0.47327,0 0.78426,-0.202549 0.311,-0.202557 0.48678,-0.594157 z"
     id="path9142"
     style="fill:#000000;fill-rule:nonzero" />
  <path
     d="m 66.953506,1.0015798 29.927438,0 0,31.7927502 -29.927438,0 z"
     id="path9144"
     style="fill:#000000;fill-opacity:0;fill-rule:nonzero" />
  <path
     d="m 66.953506,1.0015808 29.927438,0 0,31.7927502 -29.927438,0 z"
     id="path9146"
     style="stroke:#000000;stroke-width:1.99999988;stroke-linecap:butt;stroke-linejoin:round" />
  <path
     d="m 84.538741,17.036742 q 0,2.025537 -0.635515,2.984286 -0.635523,0.94525 -1.974167,0.94525 -1.365694,0 -2.001209,-0.958749 -0.621999,-0.972257 -0.621999,-2.970787 0,-2.012037 0.635516,-2.970787 0.635523,-0.958758 1.987692,-0.958758 1.352169,0 1.974167,0.985765 0.635515,0.972258 0.635515,2.94378 z m -1.338643,2.295608 q 0.175778,-0.418615 0.243391,-0.972257 0.06759,-0.553651 0.06759,-1.323351 0,-0.769708 -0.06759,-1.336858 -0.06759,-0.567151 -0.243391,-0.972258 -0.175786,-0.391599 -0.48678,-0.580649 -0.311004,-0.202558 -0.784259,-0.202558 -0.48678,0 -0.797784,0.202558 -0.310994,0.18905 -0.48678,0.594157 -0.175778,0.378101 -0.243391,0.985757 -0.05409,0.594158 -0.05409,1.309851 0,0.796707 0.05409,1.33685 0.05409,0.526644 0.229873,0.94525 0.175777,0.391608 0.473255,0.607665 0.311004,0.202549 0.824827,0.202549 0.473255,0 0.784259,-0.202549 0.310994,-0.202557 0.48678,-0.594157 z"
     id="path9148"
     style="fill:#000000;fill-rule:nonzero" />
  <path
     d="m 96.443264,1.0015798 29.927456,0 0,31.7927502 -29.927456,0 z"
     id="path9150"
     style="fill:#000000;fill-opacity:0;fill-rule:nonzero" />
  <path
     d="m 96.443264,1.0015808 29.927446,0 0,31.7927502 -29.927446,0 z"
     id="path9152"
     style="stroke:#000000;stroke-width:1.99999988;stroke-linecap:butt;stroke-linejoin:round" />
  <path
     d="m 114.02851,17.036742 q 0,2.025537 -0.63552,2.984286 -0.63552,0.94525 -1.97416,0.94525 -1.3657,0 -2.00122,-0.958749 -0.62199,-0.972257 -0.62199,-2.970787 0,-2.012037 0.63552,-2.970787 0.63552,-0.958758 1.98769,-0.958758 1.35216,0 1.97416,0.985765 0.63552,0.972258 0.63552,2.94378 z m -1.33865,2.295608 q 0.17578,-0.418615 0.24339,-0.972257 0.0676,-0.553651 0.0676,-1.323351 0,-0.769708 -0.0676,-1.336858 -0.0676,-0.567151 -0.24339,-0.972258 -0.17577,-0.391599 -0.48678,-0.580649 -0.31099,-0.202558 -0.78425,-0.202558 -0.48679,0 -0.79778,0.202558 -0.31101,0.18905 -0.48678,0.594157 -0.17579,0.378101 -0.24339,0.985757 -0.0541,0.594158 -0.0541,1.309851 0,0.796707 0.0541,1.33685 0.0541,0.526644 0.22986,0.94525 0.17579,0.391608 0.47326,0.607665 0.311,0.202549 0.82483,0.202549 0.47326,0 0.78425,-0.202549 0.31101,-0.202557 0.48678,-0.594157 z"
     id="path9154"
     style="fill:#000000;fill-rule:nonzero" />
  <path
     d="m 126.37001,1.0015798 29.92744,0 0,31.7927502 -29.92744,0 z"
     id="path9156"
     style="fill:#d9d9d9;fill-rule:nonzero" />
  <path
     d="m 126.37001,1.0015808 29.92744,0 0,31.7927502 -29.92744,0 z"
     id="path9158"
     style="stroke:#000000;stroke-width:1.99999988;stroke-linecap:butt;stroke-linejoin:round" />
  <path
     d="m 143.53608,20.804262 -4.09708,0 0,-0.769709 1.58205,0 0,-5.050337 -1.58205,0 0,-0.688678 q 0.32452,0 0.68961,-0.05402 0.36508,-0.05402 0.55439,-0.162042 0.22987,-0.121537 0.36509,-0.310587 0.13521,-0.202549 0.14873,-0.526635 l 0.79778,0 0,6.792294 1.54148,0 0,0.769709 z"
     id="path9160"
     style="fill:#000000;fill-rule:nonzero" />
  <path
     d="m 155.85976,1.0015798 29.92745,0 0,31.7927502 -29.92745,0 z"
     id="path9162"
     style="fill:#d9d9d9;fill-rule:nonzero" />
  <path
     d="m 155.85976,1.0015808 29.92745,0 0,31.7927502 -29.92745,0 z"
     id="path9164"
     style="stroke:#000000;stroke-width:1.99999988;stroke-linecap:butt;stroke-linejoin:round" />
  <path
     d="m 173.02584,20.804262 -4.09707,0 0,-0.769709 1.58204,0 0,-5.050337 -1.58204,0 0,-0.688678 q 0.32452,0 0.68961,-0.05402 0.36508,-0.05402 0.55438,-0.162042 0.22987,-0.121537 0.36509,-0.310587 0.13521,-0.202549 0.14873,-0.526635 l 0.79779,0 0,6.792294 1.54147,0 0,0.769709 z"
     id="path9166"
     style="fill:#000000;fill-rule:nonzero" />
  <path
     d="m 185.24539,1.0015798 29.92745,0 0,31.7927502 -29.92745,0 z"
     id="path9168"
     style="fill:#d9d9d9;fill-rule:nonzero" />
  <path
     d="m 185.24539,1.0015808 29.92745,0 0,31.7927502 -29.92745,0 z"
     id="path9170"
     style="stroke:#000000;stroke-width:1.99999988;stroke-linecap:butt;stroke-linejoin:round" />
  <path
     d="m 202.41146,20.804262 -4.09708,0 0,-0.769709 1.58204,0 0,-5.050337 -1.58204,0 0,-0.688678 q 0.32451,0 0.6896,-0.05402 0.36509,-0.05402 0.5544,-0.162042 0.22987,-0.121537 0.36508,-0.310587 0.13522,-0.202549 0.14874,-0.526635 l 0.79778,0 0,6.792294 1.54148,0 0,0.769709 z"
     id="path9172"
     style="fill:#000000;fill-rule:nonzero" />
  <path
     d="m 214.73518,1.0015798 29.92743,0 0,31.7927502 -29.92743,0 z"
     id="path9174"
     style="fill:#d9d9d9;fill-rule:nonzero" />
  <path
     d="m 214.73518,1.0015808 29.92743,0 0,31.7927502 -29.92743,0 z"
     id="path9176"
     style="stroke:#000000;stroke-width:1.99999988;stroke-linecap:butt;stroke-linejoin:round" />
  <path
     d="m 231.90123,20.804262 -4.09708,0 0,-0.769709 1.58204,0 0,-5.050337 -1.58204,0 0,-0.688678 q 0.32452,0 0.68961,-0.05402 0.36509,-0.05402 0.55439,-0.162042 0.22987,-0.121537 0.36509,-0.310587 0.13521,-0.202549 0.14873,-0.526635 l 0.79779,0 0,6.792294 1.54147,0 0,0.769709 z"
     id="path9178"
     style="fill:#000000;fill-rule:nonzero" />
  <path
     d="m 244.66189,1.0015798 29.92744,0 0,31.7927502 -29.92744,0 z"
     id="path9180"
     style="fill:#d9d9d9;fill-rule:nonzero" />
  <path
     d="m 244.66189,1.0015808 29.92744,0 0,31.7927502 -29.92744,0 z"
     id="path9182"
     style="stroke:#000000;stroke-width:1.99999988;stroke-linecap:butt;stroke-linejoin:round" />
  <path
     d="m 261.82798,20.804262 -4.09708,0 0,-0.769709 1.58204,0 0,-5.050337 -1.58204,0 0,-0.688678 q 0.32452,0 0.68961,-0.05402 0.36508,-0.05402 0.55439,-0.162042 0.22987,-0.121537 0.36509,-0.310587 0.13521,-0.202549 0.14873,-0.526635 l 0.79778,0 0,6.792294 1.54148,0 0,0.769709 z"
     id="path9184"
     style="fill:#000000;fill-rule:nonzero" />
  <path
     d="m 274.15167,1.0015798 29.92744,0 0,31.7927502 -29.92744,0 z"
     id="path9186"
     style="fill:#d9d9d9;fill-rule:nonzero" />
  <path
     d="m 274.15167,1.0015808 29.92743,0 0,31.7927502 -29.92743,0 z"
     id="path9188"
     style="stroke:#000000;stroke-width:1.99999988;stroke-linecap:butt;stroke-linejoin:round" />
  <path
     d="m 291.31776,20.804262 -4.09708,0 0,-0.769709 1.58204,0 0,-5.050337 -1.58204,0 0,-0.688678 q 0.32452,0 0.68961,-0.05402 0.36509,-0.05402 0.55439,-0.162042 0.22987,-0.121537 0.36509,-0.310587 0.13521,-0.202549 0.14873,-0.526635 l 0.79779,0 0,6.792294 1.54147,0 0,0.769709 z"
     id="path9190"
     style="fill:#000000;fill-rule:nonzero" />
  <path
     d="m 304.46926,1.0015798 29.92744,0 0,31.7927502 -29.92744,0 z"
     id="path9192"
     style="fill:#d9d9d9;fill-rule:nonzero" />
  <path
     d="m 304.46926,1.0015808 29.92743,0 0,31.7927502 -29.92743,0 z"
     id="path9194"
     style="stroke:#000000;stroke-width:1.99999988;stroke-linecap:butt;stroke-linejoin:round" />
  <path
     d="m 321.63534,20.804262 -4.09708,0 0,-0.769709 1.58205,0 0,-5.050337 -1.58205,0 0,-0.688678 q 0.32452,0 0.68961,-0.05402 0.36508,-0.05402 0.55439,-0.162042 0.22988,-0.121537 0.36509,-0.310587 0.13522,-0.202549 0.14873,-0.526635 l 0.79779,0 0,6.792294 1.54147,0 0,0.769709 z"
     id="path9196"
     style="fill:#000000;fill-rule:nonzero" />
  <path
     d="m 333.95905,1.0015798 29.92743,0 0,31.7927502 -29.92743,0 z"
     id="path9198"
     style="fill:#d9d9d9;fill-rule:nonzero" />
  <path
     d="m 333.95905,1.0015808 29.92743,0 0,31.7927502 -29.92743,0 z"
     id="path9200"
     style="stroke:#000000;stroke-width:1.99999988;stroke-linecap:butt;stroke-linejoin:round" />
  <path
     d="m 351.12512,20.804262 -4.09708,0 0,-0.769709 1.58204,0 0,-5.050337 -1.58204,0 0,-0.688678 q 0.32452,0 0.6896,-0.05402 0.36509,-0.05402 0.5544,-0.162042 0.22987,-0.121537 0.36508,-0.310587 0.13522,-0.202549 0.14875,-0.526635 l 0.79777,0 0,6.792294 1.54148,0 0,0.769709 z"
     id="path9202"
     style="fill:#000000;fill-rule:nonzero" />
  <path
     d="m 363.88575,1.0015798 29.92744,0 0,31.7927502 -29.92744,0 z"
     id="path9204"
     style="fill:#d9d9d9;fill-rule:nonzero" />
  <path
     d="m 363.88575,1.0015808 29.92744,0 0,31.7927502 -29.92744,0 z"
     id="path9206"
     style="stroke:#000000;stroke-width:1.99999988;stroke-linecap:butt;stroke-linejoin:round" />
  <path
     d="m 381.05183,20.804262 -4.09707,0 0,-0.769709 1.58203,0 0,-5.050337 -1.58203,0 0,-0.688678 q 0.32452,0 0.6896,-0.05402 0.36509,-0.05402 0.5544,-0.162042 0.22986,-0.121537 0.36508,-0.310587 0.13521,-0.202549 0.14874,-0.526635 l 0.79777,0 0,6.792294 1.54148,0 0,0.769709 z"
     id="path9208"
     style="fill:#000000;fill-rule:nonzero" />
  <path
     d="m 393.37553,1.0015798 29.92746,0 0,31.7927502 -29.92746,0 z"
     id="path9210"
     style="fill:#d9d9d9;fill-rule:nonzero" />
  <path
     d="m 393.37553,1.0015808 29.92746,0 0,31.7927502 -29.92746,0 z"
     id="path9212"
     style="stroke:#000000;stroke-width:1.99999988;stroke-linecap:butt;stroke-linejoin:round" />
  <path
     d="m 410.54161,20.804262 -4.09708,0 0,-0.769709 1.58204,0 0,-5.050337 -1.58204,0 0,-0.688678 q 0.32453,0 0.68962,-0.05402 0.36508,-0.05402 0.55438,-0.162042 0.22987,-0.121537 0.36509,-0.310587 0.13521,-0.202549 0.14873,-0.526635 l 0.79779,0 0,6.792294 1.54147,0 0,0.769709 z"
     id="path9214"
     style="fill:#000000;fill-rule:nonzero" />
  <path
     d="m 422.7612,1.0015798 29.92741,0 0,31.7927502 -29.92741,0 z"
     id="path9216"
     style="fill:#000000;fill-opacity:0;fill-rule:nonzero" />
  <path
     d="m 422.7612,1.0015808 29.92741,0 0,31.7927502 -29.92741,0 z"
     id="path9218"
     style="stroke:#000000;stroke-width:1.99999988;stroke-linecap:butt;stroke-linejoin:round" />
  <path
     d="m 440.34641,17.036742 q 0,2.025537 -0.63552,2.984286 -0.63552,0.94525 -1.97417,0.94525 -1.36569,0 -2.00121,-0.958749 -0.622,-0.972257 -0.622,-2.970787 0,-2.012037 0.63552,-2.970787 0.63552,-0.958758 1.98769,-0.958758 1.35217,0 1.97417,0.985765 0.63552,0.972258 0.63552,2.94378 z m -1.33866,2.295608 q 0.17579,-0.418615 0.2434,-0.972257 0.0676,-0.553651 0.0676,-1.323351 0,-0.769708 -0.0676,-1.336858 -0.0676,-0.567151 -0.2434,-0.972258 -0.17577,-0.391599 -0.48678,-0.580649 -0.31099,-0.202558 -0.78425,-0.202558 -0.48679,0 -0.79778,0.202558 -0.311,0.18905 -0.48678,0.594157 -0.17578,0.378101 -0.24339,0.985757 -0.0541,0.594158 -0.0541,1.309851 0,0.796707 0.0541,1.33685 0.0541,0.526644 0.22986,0.94525 0.17579,0.391608 0.47327,0.607665 0.31099,0.202549 0.82482,0.202549 0.47326,0 0.78425,-0.202549 0.31101,-0.202557 0.48678,-0.594157 z"
     id="path9220"
     style="fill:#000000;fill-rule:nonzero" />
  <path
     d="m 452.25094,1.0015798 29.92747,0 0,31.7927502 -29.92747,0 z"
     id="path9222"
     style="fill:#000000;fill-opacity:0;fill-rule:nonzero" />
  <path
     d="m 452.25094,1.0015808 29.92747,0 0,31.7927502 -29.92747,0 z"
     id="path9224"
     style="stroke:#000000;stroke-width:1.99999988;stroke-linecap:butt;stroke-linejoin:round" />
  <path
     d="m 469.83615,17.036742 q 0,2.025537 -0.63552,2.984286 -0.63551,0.94525 -1.97417,0.94525 -1.36568,0 -2.00121,-0.958749 -0.622,-0.972257 -0.622,-2.970787 0,-2.012037 0.63553,-2.970787 0.63551,-0.958758 1.98768,-0.958758 1.35217,0 1.97417,0.985765 0.63552,0.972258 0.63552,2.94378 z m -1.33865,2.295608 q 0.17579,-0.418615 0.24339,-0.972257 0.0676,-0.553651 0.0676,-1.323351 0,-0.769708 -0.0676,-1.336858 -0.0676,-0.567151 -0.24339,-0.972258 -0.17577,-0.391599 -0.48678,-0.580649 -0.31099,-0.202558 -0.78426,-0.202558 -0.48677,0 -0.79777,0.202558 -0.311,0.18905 -0.48678,0.594157 -0.17579,0.378101 -0.24339,0.985757 -0.0541,0.594158 -0.0541,1.309851 0,0.796707 0.0541,1.33685 0.0541,0.526644 0.22986,0.94525 0.17578,0.391608 0.47326,0.607665 0.311,0.202549 0.82482,0.202549 0.47327,0 0.78426,-0.202549 0.31101,-0.202557 0.48678,-0.594157 z"
     id="path9226"
     style="fill:#000000;fill-rule:nonzero" />
  <path
     d="m 482.17762,1.0015798 29.92747,0 0,31.7927502 -29.92747,0 z"
     id="path9228"
     style="fill:#000000;fill-opacity:0;fill-rule:nonzero" />
  <path
     d="m 482.17762,1.0015808 29.92746,0 0,31.7927502 -29.92746,0 z"
     id="path9230"
     style="stroke:#000000;stroke-width:1.99999988;stroke-linecap:butt;stroke-linejoin:round" />
  <path
     d="m 499.76292,17.036742 q 0,2.025537 -0.63552,2.984286 -0.63552,0.94525 -1.97417,0.94525 -1.36569,0 -2.00121,-0.958749 -0.622,-0.972257 -0.622,-2.970787 0,-2.012037 0.63552,-2.970787 0.63552,-0.958758 1.98769,-0.958758 1.35217,0 1.97417,0.985765 0.63552,0.972258 0.63552,2.94378 z m -1.33865,2.295608 q 0.17578,-0.418615 0.24339,-0.972257 0.0676,-0.553651 0.0676,-1.323351 0,-0.769708 -0.0676,-1.336858 -0.0676,-0.567151 -0.24339,-0.972258 -0.17578,-0.391599 -0.48678,-0.580649 -0.31099,-0.202558 -0.78426,-0.202558 -0.48679,0 -0.79777,0.202558 -0.31101,0.18905 -0.48678,0.594157 -0.17579,0.378101 -0.2434,0.985757 -0.0541,0.594158 -0.0541,1.309851 0,0.796707 0.0541,1.33685 0.0541,0.526644 0.22987,0.94525 0.17578,0.391608 0.47326,0.607665 0.311,0.202549 0.82482,0.202549 0.47327,0 0.78426,-0.202549 0.311,-0.202557 0.48678,-0.594157 z"
     id="path9232"
     style="fill:#000000;fill-rule:nonzero" />
  <path
     d="m 511.66746,1.0015798 29.9274,0 0,31.7927502 -29.9274,0 z"
     id="path9234"
     style="fill:#000000;fill-opacity:0;fill-rule:nonzero" />
  <path
     d="m 511.66745,1.0015808 29.92741,0 0,31.7927502 -29.92741,0 z"
     id="path9236"
     style="stroke:#000000;stroke-width:1.99999988;stroke-linecap:butt;stroke-linejoin:round" />
  <path
     d="m 529.25266,17.036742 q 0,2.025537 -0.63551,2.984286 -0.63552,0.94525 -1.97417,0.94525 -1.36569,0 -2.00121,-0.958749 -0.622,-0.972257 -0.622,-2.970787 0,-2.012037 0.63552,-2.970787 0.63552,-0.958758 1.98769,-0.958758 1.35217,0 1.97417,0.985765 0.63551,0.972258 0.63551,2.94378 z m -1.33863,2.295608 q 0.17577,-0.418615 0.24338,-0.972257 0.0676,-0.553651 0.0676,-1.323351 0,-0.769708 -0.0676,-1.336858 -0.0676,-0.567151 -0.24338,-0.972258 -0.17579,-0.391599 -0.48679,-0.580649 -0.311,-0.202558 -0.78426,-0.202558 -0.48677,0 -0.79778,0.202558 -0.31099,0.18905 -0.48678,0.594157 -0.17578,0.378101 -0.24339,0.985757 -0.0541,0.594158 -0.0541,1.309851 0,0.796707 0.0541,1.33685 0.0541,0.526644 0.22987,0.94525 0.17578,0.391608 0.47325,0.607665 0.31101,0.202549 0.82483,0.202549 0.47326,0 0.78426,-0.202549 0.311,-0.202557 0.48679,-0.594157 z"
     id="path9238"
     style="fill:#000000;fill-rule:nonzero" />
  <path
     d="m 542.09018,1.0015798 58.38307,0 0,31.7927502 -58.38307,0 z"
     id="path9240"
     style="fill:#000000;fill-opacity:0;fill-rule:nonzero" />
  <path
     d="m 542.09017,1.0015808 58.38308,0 0,31.7927502 -58.38308,0 z"
     id="path9242"
     style="stroke:#000000;stroke-width:1.99999988;stroke-linecap:butt;stroke-linejoin:round" />
  <path
     d="m 568.11682,20.804262 -1.21696,0 0,-1.444887 1.21696,0 0,1.444887 z m 3.77762,0 -1.21696,0 0,-1.444887 1.21696,0 0,1.444887 z m 3.77762,0 -1.21695,0 0,-1.444887 1.21695,0 0,1.444887 z"
     id="path9244"
     style="fill:#000000;fill-rule:nonzero" />
  <path
     d="m 600.46957,1.0015798 29.9274,0 0,31.7927502 -29.9274,0 z"
     id="path9246"
     style="fill:#000000;fill-opacity:0;fill-rule:nonzero" />
  <path
     d="m 600.46956,1.0015808 29.92741,0 0,31.7927502 -29.92741,0 z"
     id="path9248"
     style="stroke:#000000;stroke-width:1.99999988;stroke-linecap:butt;stroke-linejoin:round" />
  <path
     d="m 618.05479,17.036742 q 0,2.025537 -0.63552,2.984286 -0.63551,0.94525 -1.97417,0.94525 -1.36568,0 -2.00121,-0.958749 -0.622,-0.972257 -0.622,-2.970787 0,-2.012037 0.63553,-2.970787 0.63551,-0.958758 1.98768,-0.958758 1.35217,0 1.97417,0.985765 0.63552,0.972258 0.63552,2.94378 z m -1.33865,2.295608 q 0.17579,-0.418615 0.24339,-0.972257 0.0676,-0.553651 0.0676,-1.323351 0,-0.769708 -0.0676,-1.336858 -0.0676,-0.567151 -0.24339,-0.972258 -0.17578,-0.391599 -0.48678,-0.580649 -0.31099,-0.202558 -0.78426,-0.202558 -0.48678,0 -0.79777,0.202558 -0.311,0.18905 -0.48678,0.594157 -0.17579,0.378101 -0.2434,0.985757 -0.0541,0.594158 -0.0541,1.309851 0,0.796707 0.0541,1.33685 0.0541,0.526644 0.22987,0.94525 0.17578,0.391608 0.47326,0.607665 0.311,0.202549 0.82482,0.202549 0.47327,0 0.78426,-0.202549 0.311,-0.202557 0.48678,-0.594157 z"
     id="path9250"
     style="fill:#000000;fill-rule:nonzero" />
  <path
     d="m 244.66189,42.484566 29.92744,0 0,31.792749 -29.92744,0 z"
     id="path9260"
     style="fill:#000000;fill-opacity:0;fill-rule:nonzero" />
  <path
     d="m 244.66189,42.484566 29.92744,0 0,31.79275 -29.92744,0 z"
     id="path9262"
     style="stroke:#000000;stroke-width:1.99999988;stroke-linecap:butt;stroke-linejoin:round" />
  <path
     d="m 262.24715,58.519728 q 0,2.025535 -0.63552,2.984285 -0.63552,0.945251 -1.97417,0.945251 -1.36569,0 -2.00121,-0.95875 -0.622,-0.972258 -0.622,-2.970786 0,-2.012038 0.63552,-2.970788 0.63553,-0.958758 1.98769,-0.958758 1.35217,0 1.97417,0.985765 0.63552,0.972258 0.63552,2.943781 z m -1.33865,2.295607 q 0.17578,-0.418615 0.24339,-0.972257 0.0676,-0.553651 0.0676,-1.32335 0,-0.769709 -0.0676,-1.336859 -0.0676,-0.56715 -0.24339,-0.972258 -0.17577,-0.391599 -0.48678,-0.580649 -0.31099,-0.202558 -0.78426,-0.202558 -0.48678,0 -0.79777,0.202558 -0.31101,0.18905 -0.48678,0.594157 -0.17579,0.378101 -0.24339,0.985757 -0.0541,0.594157 -0.0541,1.309852 0,0.796706 0.0541,1.336849 0.0541,0.526644 0.22986,0.94525 0.17579,0.391608 0.47326,0.607665 0.311,0.202549 0.82482,0.202549 0.47327,0 0.78426,-0.202549 0.31101,-0.202557 0.48678,-0.594157 z"
     id="path9264"
     style="fill:#000000;fill-rule:nonzero" />
  <path
     d="m 214.73518,116.80825 29.92743,0 0,31.79275 -29.92743,0 z"
     id="path9266"
     style="fill:#d9d9d9;fill-rule:nonzero" />
  <path
     d="m 214.73518,116.80825 29.92743,0 0,31.79275 -29.92743,0 z"
     id="path9268"
     style="stroke:#000000;stroke-width:1.99999988;stroke-linecap:butt;stroke-linejoin:round" />
  <path
     d="m 231.90123,136.61093 -4.09708,0 0,-0.76971 1.58204,0 0,-5.05033 -1.58204,0 0,-0.68869 q 0.32452,0 0.68961,-0.054 0.36509,-0.0541 0.55439,-0.16205 0.22987,-0.12153 0.36509,-0.31058 0.13521,-0.20255 0.14873,-0.52664 l 0.79779,0 0,6.7923 1.54147,0 0,0.76971 z"
     id="path9270"
     style="fill:#000000;fill-rule:nonzero" />
  <path
     d="m 244.66189,116.80825 29.92744,0 0,31.79275 -29.92744,0 z"
     id="path9272"
     style="fill:#d9d9d9;fill-rule:nonzero" />
  <path
     d="m 244.66189,116.80825 29.92744,0 0,31.79275 -29.92744,0 z"
     id="path9274"
     style="stroke:#000000;stroke-width:1.99999988;stroke-linecap:butt;stroke-linejoin:round" />
  <path
     d="m 261.82798,136.61093 -4.09708,0 0,-0.76971 1.58204,0 0,-5.05033 -1.58204,0 0,-0.68869 q 0.32452,0 0.68961,-0.054 0.36508,-0.0541 0.55439,-0.16205 0.22987,-0.12153 0.36509,-0.31058 0.13521,-0.20255 0.14873,-0.52664 l 0.79778,0 0,6.7923 1.54148,0 0,0.76971 z"
     id="path9276"
     style="fill:#000000;fill-rule:nonzero" />
  <path
     d="m 229.69888,74.277298 0,71.914722"
     id="path9278"
     style="fill:#000000;fill-opacity:0;fill-rule:nonzero" />
  <path
     d="m 229.69888,73.927216 0,39.259224"
     id="path9280"
     style="stroke:#000000;stroke-width:1.99999988;stroke-linecap:butt;stroke-linejoin:round" />
  <path
     d="m 229.69888,110.88465 -1.94639,-1.94378 1.94639,5.34054 1.94642,-5.34054 z"
     id="path9282"
     style="fill:#000000;fill-rule:evenodd;stroke:#000000;stroke-width:1.99999988;stroke-linecap:butt" />
  <path
     d="m 259.62563,74.277298 0,71.914722"
     id="path9284"
     style="fill:#000000;fill-opacity:0;fill-rule:nonzero" />
  <path
     d="m 259.62563,73.919464 0,38.667376"
     id="path9286"
     style="stroke:#000000;stroke-width:1.99999988;stroke-linecap:butt;stroke-linejoin:round" />
  <path
     d="m 259.62563,110.88465 -1.94642,-1.94378 1.94642,5.34054 1.94639,-5.34054 z"
     id="path9288"
     style="fill:#000000;fill-rule:evenodd;stroke:#000000;stroke-width:1.99999988;stroke-linecap:butt" />
  <g
     transform="matrix(1.5,0,0,1.5,-316.8544,-181.30243)"
     id="g9643">
    <defs
       id="defs9645">
      <g
         id="g9647">
        <symbol
           id="textext-11d5dfab-0"
           style="overflow:visible">
          <path
             d=""
             id="path9650"
             style="stroke:none" />
        </symbol>
        <symbol
           id="textext-11d5dfab-1"
           style="overflow:visible">
          <path
             d="m 3.96875,-6.9375 c -0.046875,-0.125 -0.078125,-0.203125 -0.234375,-0.203125 -0.15625,0 -0.1875,0.0625 -0.234375,0.203125 L 1.4375,-0.984375 C 1.25,-0.46875 0.859375,-0.3125 0.3125,-0.3125 l 0,0.3125 c 0.234375,-0.015625 0.671875,-0.03125 1.015625,-0.03125 0.3125,0 0.828125,0.015625 1.15625,0.03125 l 0,-0.3125 c -0.5,0 -0.75,-0.25 -0.75,-0.5 0,-0.03125 0.015625,-0.140625 0.015625,-0.15625 l 0.46875,-1.296875 2.453125,0 0.53125,1.515625 c 0.015625,0.046875 0.03125,0.109375 0.03125,0.140625 0,0.296875 -0.5625,0.296875 -0.828125,0.296875 l 0,0.3125 c 0.359375,-0.03125 1.0625,-0.03125 1.4375,-0.03125 0.421875,0 0.890625,0.015625 1.296875,0.03125 l 0,-0.3125 -0.171875,0 C 6.375,-0.3125 6.234375,-0.375 6.125,-0.703125 z m -0.53125,1.109375 1.125,3.25 -2.234375,0 z m 0,0"
             id="path9653"
             style="stroke:none" />
        </symbol>
        <symbol
           id="textext-11d5dfab-2"
           style="overflow:visible">
          <path
             d="m 1.171875,-2.171875 c 0,-1.625 0.8125,-2.046875 1.34375,-2.046875 0.09375,0 0.71875,0.015625 1.0625,0.375 -0.40625,0.03125 -0.46875,0.328125 -0.46875,0.453125 0,0.265625 0.1875,0.453125 0.453125,0.453125 0.265625,0 0.46875,-0.15625 0.46875,-0.46875 0,-0.671875 -0.765625,-1.0625 -1.53125,-1.0625 -1.25,0 -2.15625,1.078125 -2.15625,2.3125 0,1.28125 0.984375,2.265625 2.140625,2.265625 1.328125,0 1.65625,-1.203125 1.65625,-1.296875 0,-0.09375 -0.109375,-0.09375 -0.140625,-0.09375 -0.078125,0 -0.109375,0.03125 -0.125,0.09375 -0.28125,0.921875 -0.9375,1.046875 -1.296875,1.046875 -0.53125,0 -1.40625,-0.421875 -1.40625,-2.03125 z m 0,0"
             id="path9656"
             style="stroke:none" />
        </symbol>
        <symbol
           id="textext-11d5dfab-3"
           style="overflow:visible">
          <path
             d="m 1.71875,-3.984375 1.4375,0 0,-0.3125 -1.4375,0 0,-1.828125 -0.25,0 c 0,0.8125 -0.296875,1.875 -1.28125,1.921875 l 0,0.21875 0.84375,0 0,2.75 c 0,1.21875 0.9375,1.34375 1.296875,1.34375 0.703125,0 0.984375,-0.703125 0.984375,-1.34375 l 0,-0.5625 -0.25,0 0,0.546875 c 0,0.734375 -0.296875,1.109375 -0.671875,1.109375 -0.671875,0 -0.671875,-0.90625 -0.671875,-1.078125 z m 0,0"
             id="path9659"
             style="stroke:none" />
        </symbol>
        <symbol
           id="textext-11d5dfab-4"
           style="overflow:visible">
          <path
             d="m 3.890625,-0.78125 0,0.890625 L 5.328125,0 l 0,-0.3125 C 4.640625,-0.3125 4.5625,-0.375 4.5625,-0.875 l 0,-3.53125 -1.46875,0.109375 0,0.3125 c 0.6875,0 0.78125,0.0625 0.78125,0.5625 l 0,1.765625 c 0,0.875 -0.484375,1.546875 -1.21875,1.546875 -0.828125,0 -0.875,-0.46875 -0.875,-0.984375 l 0,-3.3125 -1.46875,0.109375 0,0.3125 c 0.78125,0 0.78125,0.03125 0.78125,0.90625 l 0,1.5 c 0,0.78125 0,1.6875 1.515625,1.6875 0.5625,0 1,-0.28125 1.28125,-0.890625 z m 0,0"
             id="path9662"
             style="stroke:none" />
        </symbol>
        <symbol
           id="textext-11d5dfab-5"
           style="overflow:visible">
          <path
             d="m 3.3125,-0.75 c 0.046875,0.390625 0.3125,0.8125 0.78125,0.8125 0.21875,0 0.828125,-0.140625 0.828125,-0.953125 l 0,-0.5625 -0.25,0 0,0.5625 c 0,0.578125 -0.25,0.640625 -0.359375,0.640625 -0.328125,0 -0.375,-0.453125 -0.375,-0.5 l 0,-1.984375 c 0,-0.421875 0,-0.8125 -0.359375,-1.1875 C 3.1875,-4.3125 2.6875,-4.46875 2.21875,-4.46875 c -0.828125,0 -1.515625,0.46875 -1.515625,1.125 0,0.296875 0.203125,0.46875 0.46875,0.46875 0.28125,0 0.453125,-0.203125 0.453125,-0.453125 0,-0.125 -0.046875,-0.453125 -0.515625,-0.453125 C 1.390625,-4.140625 1.875,-4.25 2.1875,-4.25 c 0.5,0 1.0625,0.390625 1.0625,1.28125 l 0,0.359375 c -0.515625,0.03125 -1.203125,0.0625 -1.828125,0.359375 -0.75,0.34375 -1,0.859375 -1,1.296875 0,0.8125 0.96875,1.0625 1.59375,1.0625 0.65625,0 1.109375,-0.40625 1.296875,-0.859375 z M 3.25,-2.390625 l 0,1 c 0,0.9375 -0.71875,1.28125 -1.171875,1.28125 -0.484375,0 -0.890625,-0.34375 -0.890625,-0.84375 0,-0.546875 0.421875,-1.375 2.0625,-1.4375 z m 0,0"
             id="path9665"
             style="stroke:none" />
        </symbol>
        <symbol
           id="textext-11d5dfab-6"
           style="overflow:visible">
          <path
             d="m 1.765625,-6.921875 -1.4375,0.109375 0,0.3125 c 0.703125,0 0.78125,0.0625 0.78125,0.5625 l 0,5.1875 c 0,0.4375 -0.109375,0.4375 -0.78125,0.4375 l 0,0.3125 C 0.65625,-0.015625 1.1875,-0.03125 1.4375,-0.03125 c 0.25,0 0.734375,0.015625 1.109375,0.03125 l 0,-0.3125 c -0.671875,0 -0.78125,0 -0.78125,-0.4375 z m 0,0"
             id="path9668"
             style="stroke:none" />
        </symbol>
      </g>
    </defs>
    <g
       id="textext-11d5dfab-7">
      <g
         id="g9671"
         style="fill:#000000;fill-opacity:1">
        <use
           id="use9673"
           x="223.43201"
           y="134.765"
           width="960"
           height="540"
           xlink:href="#textext-11d5dfab-1" />
        <use
           id="use9675"
           x="230.90395"
           y="134.765"
           width="960"
           height="540"
           xlink:href="#textext-11d5dfab-2" />
        <use
           id="use9677"
           x="235.33133"
           y="134.765"
           width="960"
           height="540"
           xlink:href="#textext-11d5dfab-3" />
        <use
           id="use9679"
           x="239.20578"
           y="134.765"
           width="960"
           height="540"
           xlink:href="#textext-11d5dfab-4" />
        <use
           id="use9681"
           x="244.74101"
           y="134.765"
           width="960"
           height="540"
           xlink:href="#textext-11d5dfab-5" />
        <use
           id="use9683"
           x="249.72231"
           y="134.765"
           width="960"
           height="540"
           xlink:href="#textext-11d5dfab-6" />
      </g>
    </g>
  </g>
  <g
     transform="matrix(1.5,0,0,1.5,-335.66366,-139.7174)"
     id="g9989">
    <defs
       id="defs9991">
      <g
         id="g9993">
        <symbol
           id="textext-70055289-0"
           style="overflow:visible">
          <path
             d=""
             id="path9996"
             style="stroke:none" />
        </symbol>
        <symbol
           id="textext-70055289-1"
           style="overflow:visible">
          <path
             d="m 2.265625,-3.15625 1.6875,0 c 1.1875,0 2.265625,-0.796875 2.265625,-1.796875 C 6.21875,-5.9375 5.234375,-6.8125 3.875,-6.8125 l -3.53125,0 0,0.3125 0.25,0 c 0.765625,0 0.78125,0.109375 0.78125,0.46875 l 0,5.25 c 0,0.359375 -0.015625,0.46875 -0.78125,0.46875 l -0.25,0 0,0.3125 c 0.359375,-0.03125 1.09375,-0.03125 1.46875,-0.03125 0.375,0 1.125,0 1.484375,0.03125 l 0,-0.3125 -0.25,0 c -0.765625,0 -0.78125,-0.109375 -0.78125,-0.46875 z m -0.03125,-0.25 0,-2.6875 C 2.234375,-6.4375 2.25,-6.5 2.71875,-6.5 l 0.890625,0 c 1.578125,0 1.578125,1.0625 1.578125,1.546875 0,0.46875 0,1.546875 -1.578125,1.546875 z m 0,0"
             id="path9999"
             style="stroke:none" />
        </symbol>
        <symbol
           id="textext-70055289-2"
           style="overflow:visible">
          <path
             d="m 1.671875,-3.3125 0,-1.09375 -1.390625,0.109375 0,0.3125 c 0.703125,0 0.78125,0.0625 0.78125,0.5625 l 0,2.671875 c 0,0.4375 -0.109375,0.4375 -0.78125,0.4375 l 0,0.3125 c 0.390625,-0.015625 0.859375,-0.03125 1.140625,-0.03125 0.390625,0 0.859375,0 1.265625,0.03125 l 0,-0.3125 -0.21875,0 c -0.734375,0 -0.75,-0.109375 -0.75,-0.46875 l 0,-1.53125 c 0,-0.984375 0.421875,-1.875 1.171875,-1.875 0.0625,0 0.09375,0 0.109375,0.015625 -0.03125,0 -0.234375,0.125 -0.234375,0.390625 0,0.265625 0.21875,0.421875 0.4375,0.421875 0.171875,0 0.421875,-0.125 0.421875,-0.4375 0,-0.3125 -0.3125,-0.609375 -0.734375,-0.609375 -0.734375,0 -1.09375,0.671875 -1.21875,1.09375 z m 0,0"
             id="path10002"
             style="stroke:none" />
        </symbol>
        <symbol
           id="textext-70055289-3"
           style="overflow:visible">
          <path
             d="M 1.109375,-2.515625 C 1.171875,-4 2.015625,-4.25 2.359375,-4.25 c 1.015625,0 1.125,1.34375 1.125,1.734375 z m 0,0.21875 2.78125,0 c 0.21875,0 0.25,0 0.25,-0.21875 0,-0.984375 -0.546875,-1.953125 -1.78125,-1.953125 -1.15625,0 -2.078125,1.03125 -2.078125,2.28125 0,1.328125 1.046875,2.296875 2.1875,2.296875 C 3.6875,0.109375 4.140625,-1 4.140625,-1.1875 4.140625,-1.28125 4.0625,-1.3125 4,-1.3125 c -0.078125,0 -0.109375,0.0625 -0.125,0.140625 -0.34375,1.03125 -1.25,1.03125 -1.34375,1.03125 -0.5,0 -0.890625,-0.296875 -1.125,-0.671875 -0.296875,-0.46875 -0.296875,-1.125 -0.296875,-1.484375 z m 0,0"
             id="path10005"
             style="stroke:none" />
        </symbol>
        <symbol
           id="textext-70055289-4"
           style="overflow:visible">
          <path
             d="m 3.78125,-0.546875 0,0.65625 L 5.25,0 l 0,-0.3125 c -0.6875,0 -0.78125,-0.0625 -0.78125,-0.5625 l 0,-6.046875 -1.421875,0.109375 0,0.3125 c 0.6875,0 0.765625,0.0625 0.765625,0.5625 l 0,2.15625 c -0.28125,-0.359375 -0.71875,-0.625 -1.25,-0.625 -1.171875,0 -2.21875,0.984375 -2.21875,2.265625 0,1.265625 0.96875,2.25 2.109375,2.25 0.640625,0 1.078125,-0.34375 1.328125,-0.65625 z m 0,-2.671875 0,2.046875 c 0,0.171875 0,0.1875 -0.109375,0.359375 C 3.375,-0.328125 2.9375,-0.109375 2.5,-0.109375 2.046875,-0.109375 1.6875,-0.375 1.453125,-0.75 1.203125,-1.15625 1.171875,-1.71875 1.171875,-2.140625 1.171875,-2.5 1.1875,-3.09375 1.46875,-3.546875 1.6875,-3.859375 2.0625,-4.1875 2.609375,-4.1875 c 0.34375,0 0.765625,0.15625 1.0625,0.59375 0.109375,0.171875 0.109375,0.1875 0.109375,0.375 z m 0,0"
             id="path10008"
             style="stroke:none" />
        </symbol>
        <symbol
           id="textext-70055289-5"
           style="overflow:visible">
          <path
             d="M 1.765625,-4.40625 0.375,-4.296875 l 0,0.3125 c 0.640625,0 0.734375,0.0625 0.734375,0.546875 l 0,2.6875 c 0,0.4375 -0.109375,0.4375 -0.78125,0.4375 l 0,0.3125 C 0.640625,-0.015625 1.1875,-0.03125 1.421875,-0.03125 1.78125,-0.03125 2.125,-0.015625 2.46875,0 l 0,-0.3125 c -0.671875,0 -0.703125,-0.046875 -0.703125,-0.4375 z m 0.03125,-1.734375 c 0,-0.3125 -0.234375,-0.53125 -0.515625,-0.53125 -0.3125,0 -0.53125,0.265625 -0.53125,0.53125 0,0.265625 0.21875,0.53125 0.53125,0.53125 0.28125,0 0.515625,-0.21875 0.515625,-0.53125 z m 0,0"
             id="path10011"
             style="stroke:none" />
        </symbol>
        <symbol
           id="textext-70055289-6"
           style="overflow:visible">
          <path
             d="m 1.171875,-2.171875 c 0,-1.625 0.8125,-2.046875 1.34375,-2.046875 0.09375,0 0.71875,0.015625 1.0625,0.375 -0.40625,0.03125 -0.46875,0.328125 -0.46875,0.453125 0,0.265625 0.1875,0.453125 0.453125,0.453125 0.265625,0 0.46875,-0.15625 0.46875,-0.46875 0,-0.671875 -0.765625,-1.0625 -1.53125,-1.0625 -1.25,0 -2.15625,1.078125 -2.15625,2.3125 0,1.28125 0.984375,2.265625 2.140625,2.265625 1.328125,0 1.65625,-1.203125 1.65625,-1.296875 0,-0.09375 -0.109375,-0.09375 -0.140625,-0.09375 -0.078125,0 -0.109375,0.03125 -0.125,0.09375 -0.28125,0.921875 -0.9375,1.046875 -1.296875,1.046875 -0.53125,0 -1.40625,-0.421875 -1.40625,-2.03125 z m 0,0"
             id="path10014"
             style="stroke:none" />
        </symbol>
        <symbol
           id="textext-70055289-7"
           style="overflow:visible">
          <path
             d="m 1.71875,-3.984375 1.4375,0 0,-0.3125 -1.4375,0 0,-1.828125 -0.25,0 c 0,0.8125 -0.296875,1.875 -1.28125,1.921875 l 0,0.21875 0.84375,0 0,2.75 c 0,1.21875 0.9375,1.34375 1.296875,1.34375 0.703125,0 0.984375,-0.703125 0.984375,-1.34375 l 0,-0.5625 -0.25,0 0,0.546875 c 0,0.734375 -0.296875,1.109375 -0.671875,1.109375 -0.671875,0 -0.671875,-0.90625 -0.671875,-1.078125 z m 0,0"
             id="path10017"
             style="stroke:none" />
        </symbol>
      </g>
    </defs>
    <g
       id="textext-70055289-8">
      <g
         id="g10020"
         style="fill:#000000;fill-opacity:1">
        <use
           id="use10022"
           x="223.43201"
           y="134.765"
           width="960"
           height="540"
           xlink:href="#textext-70055289-1" />
        <use
           id="use10024"
           x="230.21254"
           y="134.765"
           width="960"
           height="540"
           xlink:href="#textext-70055289-2" />
        <use
           id="use10026"
           x="234.1149"
           y="134.765"
           width="960"
           height="540"
           xlink:href="#textext-70055289-3" />
        <use
           id="use10028"
           x="238.54228"
           y="134.765"
           width="960"
           height="540"
           xlink:href="#textext-70055289-4" />
        <use
           id="use10030"
           x="244.0775"
           y="134.765"
           width="960"
           height="540"
           xlink:href="#textext-70055289-5" />
        <use
           id="use10032"
           x="246.84511"
           y="134.765"
           width="960"
           height="540"
           xlink:href="#textext-70055289-6" />
        <use
           id="use10034"
           x="251.27249"
           y="134.765"
           width="960"
           height="540"
           xlink:href="#textext-70055289-7" />
        <use
           id="use10036"
           x="255.14694"
           y="134.765"
           width="960"
           height="540"
           xlink:href="#textext-70055289-3" />
        <use
           id="use10038"
           x="259.57431"
           y="134.765"
           width="960"
           height="540"
           xlink:href="#textext-70055289-4" />
      </g>
    </g>
  </g>
</svg>
