<?xml version="1.0" encoding="UTF-8" standalone="no"?>
<!-- Created with Inkscape (http://www.inkscape.org/) -->

<svg
   xmlns:dc="http://purl.org/dc/elements/1.1/"
   xmlns:cc="http://creativecommons.org/ns#"
   xmlns:rdf="http://www.w3.org/1999/02/22-rdf-syntax-ns#"
   xmlns:svg="http://www.w3.org/2000/svg"
   xmlns="http://www.w3.org/2000/svg"
   xmlns:xlink="http://www.w3.org/1999/xlink"
   version="1.1"
   width="100%"
   height="100%"
   viewBox="0 0 719.65623 172.81249"
   id="svg8864"
   style="fill:none;stroke:none">
  <metadata
     id="metadata9300">
    <rdf:RDF>
      <cc:Work
         rdf:about="">
        <dc:format>image/svg+xml</dc:format>
        <dc:type
           rdf:resource="http://purl.org/dc/dcmitype/StillImage" />
        <dc:title></dc:title>
      </cc:Work>
    </rdf:RDF>
  </metadata>
  <defs
     id="defs9298" />
  <clipPath
     id="g9ea697d1d_1_12.0">
    <path
       d="M 0,0 960,0 960,540 0,540 0,0 z"
       id="path8867" />
  </clipPath>
  <path
     d="m 67.553807,49.010901 34.582673,0 0,36.78742 -34.582673,0 z"
     id="path9042"
     style="fill:#000000;fill-opacity:0;fill-rule:nonzero" />
  <path
     d="m 67.553807,49.010901 34.582673,0 0,36.78742 -34.582673,0 z"
     id="path9044"
     style="stroke:#000000;stroke-width:2;stroke-linecap:butt;stroke-linejoin:round" />
  <path
     d="m 87.87444,67.565201 q 0,2.34375 -0.73437,3.45312 -0.73438,1.09375 -2.28125,1.09375 -1.57813,0 -2.3125,-1.10937 -0.71875,-1.125 -0.71875,-3.4375 0,-2.32813 0.73437,-3.4375 0.73438,-1.10938 2.29688,-1.10938 1.5625,0 2.28125,1.14063 0.73437,1.125 0.73437,3.40625 z m -1.54687,2.65625 q 0.20312,-0.48438 0.28125,-1.125 0.0781,-0.64063 0.0781,-1.53125 0,-0.89063 -0.0781,-1.54688 -0.0781,-0.65625 -0.28125,-1.125 -0.20313,-0.45312 -0.5625,-0.67187 -0.35938,-0.23438 -0.90625,-0.23438 -0.5625,0 -0.92188,0.23438 -0.35937,0.21875 -0.5625,0.6875 -0.20312,0.4375 -0.28125,1.14062 -0.0625,0.6875 -0.0625,1.51563 0,0.92187 0.0625,1.54687 0.0625,0.60938 0.26563,1.09375 0.20312,0.45313 0.54687,0.70313 0.35938,0.23437 0.95313,0.23437 0.54687,0 0.90625,-0.23437 0.35937,-0.23438 0.5625,-0.6875 z"
     id="path9046"
     style="fill:#000000;fill-rule:nonzero" />
  <path
     d="m 101.63073,49.010901 34.58269,0 0,36.78742 -34.58269,0 z"
     id="path9048"
     style="fill:#000000;fill-opacity:0;fill-rule:nonzero" />
  <path
     d="m 101.63073,49.010901 34.58269,0 0,36.78742 -34.58269,0 z"
     id="path9050"
     style="stroke:#000000;stroke-width:2;stroke-linecap:butt;stroke-linejoin:round" />
  <path
     d="m 121.95138,67.565201 q 0,2.34375 -0.73438,3.45312 -0.73437,1.09375 -2.28125,1.09375 -1.57812,0 -2.3125,-1.10937 -0.71875,-1.125 -0.71875,-3.4375 0,-2.32813 0.73438,-3.4375 0.73437,-1.10938 2.29687,-1.10938 1.5625,0 2.28125,1.14063 0.73438,1.125 0.73438,3.40625 z m -1.54688,2.65625 q 0.20313,-0.48438 0.28125,-1.125 0.0781,-0.64063 0.0781,-1.53125 0,-0.89063 -0.0781,-1.54688 -0.0781,-0.65625 -0.28125,-1.125 -0.20312,-0.45312 -0.5625,-0.67187 -0.35937,-0.23438 -0.90625,-0.23438 -0.5625,0 -0.92187,0.23438 -0.35938,0.21875 -0.5625,0.6875 -0.20313,0.4375 -0.28125,1.14062 -0.0625,0.6875 -0.0625,1.51563 0,0.92187 0.0625,1.54687 0.0625,0.60938 0.26562,1.09375 0.20313,0.45313 0.54688,0.70313 0.35937,0.23437 0.95312,0.23437 0.54688,0 0.90625,-0.23437 0.35938,-0.23438 0.5625,-0.6875 z"
     id="path9052"
     style="fill:#000000;fill-rule:nonzero" />
  <path
     d="m 136.21261,49.010901 34.58267,0 0,36.78742 -34.58267,0 z"
     id="path9054"
     style="fill:#d9d9d9;fill-rule:nonzero" />
  <path
     d="m 136.21261,49.010901 34.58267,0 0,36.78742 -34.58267,0 z"
     id="path9056"
     style="stroke:#000000;stroke-width:2;stroke-linecap:butt;stroke-linejoin:round" />
  <path
     d="m 156.04887,71.924601 -4.73438,0 0,-0.89063 1.82813,0 0,-5.84375 -1.82813,0 0,-0.79687 q 0.375,0 0.79688,-0.0625 0.42187,-0.0625 0.64062,-0.1875 0.26563,-0.14063 0.42188,-0.35938 0.15625,-0.23437 0.17187,-0.60937 l 0.92188,0 0,7.85937 1.78125,0 0,0.89063 z"
     id="path9058"
     style="fill:#000000;fill-rule:nonzero" />
  <path
     d="m 170.28951,49.010901 34.58269,0 0,36.78742 -34.58269,0 z"
     id="path9060"
     style="fill:#d9d9d9;fill-rule:nonzero" />
  <path
     d="m 170.28951,49.010901 34.58269,0 0,36.78742 -34.58269,0 z"
     id="path9062"
     style="stroke:#000000;stroke-width:2;stroke-linecap:butt;stroke-linejoin:round" />
  <path
     d="m 190.12579,71.924601 -4.73438,0 0,-0.89063 1.82813,0 0,-5.84375 -1.82813,0 0,-0.79687 q 0.375,0 0.79688,-0.0625 0.42187,-0.0625 0.64062,-0.1875 0.26563,-0.14063 0.42188,-0.35938 0.15625,-0.23437 0.17187,-0.60937 l 0.92188,0 0,7.85937 1.78125,0 0,0.89063 z"
     id="path9064"
     style="fill:#000000;fill-rule:nonzero" />
  <path
     d="m 204.2461,49.010901 34.58269,0 0,36.78742 -34.58269,0 z"
     id="path9066"
     style="fill:#d9d9d9;fill-rule:nonzero" />
  <path
     d="m 204.2461,49.010901 34.58269,0 0,36.78742 -34.58269,0 z"
     id="path9068"
     style="stroke:#000000;stroke-width:2;stroke-linecap:butt;stroke-linejoin:round" />
  <path
     d="m 224.08236,71.924601 -4.73438,0 0,-0.89063 1.82813,0 0,-5.84375 -1.82813,0 0,-0.79687 q 0.375,0 0.79688,-0.0625 0.42187,-0.0625 0.64062,-0.1875 0.26563,-0.14063 0.42188,-0.35938 0.15625,-0.23437 0.17187,-0.60937 l 0.92188,0 0,7.85937 1.78125,0 0,0.89063 z"
     id="path9070"
     style="fill:#000000;fill-rule:nonzero" />
  <path
     d="m 238.32305,49.010901 34.58267,0 0,36.78742 -34.58267,0 z"
     id="path9072"
     style="fill:#000000;fill-opacity:0;fill-rule:nonzero" />
  <path
     d="m 238.32305,49.010901 34.58267,0 0,36.78742 -34.58267,0 z"
     id="path9074"
     style="stroke:#000000;stroke-width:2;stroke-linecap:butt;stroke-linejoin:round" />
  <path
     d="m 258.64367,67.565201 q 0,2.34375 -0.73437,3.45312 -0.73438,1.09375 -2.28125,1.09375 -1.57813,0 -2.3125,-1.10937 -0.71875,-1.125 -0.71875,-3.4375 0,-2.32813 0.73437,-3.4375 0.73438,-1.10938 2.29688,-1.10938 1.5625,0 2.28125,1.14063 0.73437,1.125 0.73437,3.40625 z m -1.54687,2.65625 q 0.20312,-0.48438 0.28125,-1.125 0.0781,-0.64063 0.0781,-1.53125 0,-0.89063 -0.0781,-1.54688 -0.0781,-0.65625 -0.28125,-1.125 -0.20313,-0.45312 -0.5625,-0.67187 -0.35938,-0.23438 -0.90625,-0.23438 -0.5625,0 -0.92188,0.23438 -0.35937,0.21875 -0.5625,0.6875 -0.20312,0.4375 -0.28125,1.14062 -0.0625,0.6875 -0.0625,1.51563 0,0.92187 0.0625,1.54687 0.0625,0.60938 0.26563,1.09375 0.20312,0.45313 0.54687,0.70313 0.35938,0.23437 0.95313,0.23437 0.54687,0 0.90625,-0.23437 0.35937,-0.23438 0.5625,-0.6875 z"
     id="path9076"
     style="fill:#000000;fill-rule:nonzero" />
  <path
     d="m 306.98183,49.010901 34.58267,0 0,36.78742 -34.58267,0 z"
     id="path9078"
     style="fill:#d9d9d9;fill-rule:nonzero" />
  <path
     d="m 306.98183,49.010901 34.58267,0 0,36.78742 -34.58267,0 z"
     id="path9080"
     style="stroke:#000000;stroke-width:2;stroke-linecap:butt;stroke-linejoin:round" />
  <path
     d="m 326.81811,71.924601 -4.73438,0 0,-0.89063 1.82813,0 0,-5.84375 -1.82813,0 0,-0.79687 q 0.375,0 0.79688,-0.0625 0.42187,-0.0625 0.64062,-0.1875 0.26563,-0.14063 0.42188,-0.35938 0.15625,-0.23437 0.17187,-0.60937 l 0.92188,0 0,7.85937 1.78125,0 0,0.89063 z"
     id="path9082"
     style="fill:#000000;fill-rule:nonzero" />
  <path
     d="m 342.01534,49.010901 34.58267,0 0,36.78742 -34.58267,0 z"
     id="path9084"
     style="fill:#d9d9d9;fill-rule:nonzero" />
  <path
     d="m 342.01534,49.010901 34.58267,0 0,36.78742 -34.58267,0 z"
     id="path9086"
     style="stroke:#000000;stroke-width:2;stroke-linecap:butt;stroke-linejoin:round" />
  <path
     d="m 361.85162,71.924601 -4.73438,0 0,-0.89063 1.82813,0 0,-5.84375 -1.82813,0 0,-0.79687 q 0.375,0 0.79688,-0.0625 0.42187,-0.0625 0.64062,-0.1875 0.26563,-0.14063 0.42188,-0.35938 0.15625,-0.23437 0.17187,-0.60937 l 0.92188,0 0,7.85937 1.78125,0 0,0.89063 z"
     id="path9088"
     style="fill:#000000;fill-rule:nonzero" />
  <path
     d="m 376.09229,49.010901 34.58267,0 0,36.78742 -34.58267,0 z"
     id="path9090"
     style="fill:#d9d9d9;fill-rule:nonzero" />
  <path
     d="m 376.09229,49.010901 34.58267,0 0,36.78742 -34.58267,0 z"
     id="path9092"
     style="stroke:#000000;stroke-width:2;stroke-linecap:butt;stroke-linejoin:round" />
  <path
     d="m 395.92855,71.924601 -4.73437,0 0,-0.89063 1.82812,0 0,-5.84375 -1.82812,0 0,-0.79687 q 0.375,0 0.79687,-0.0625 0.42188,-0.0625 0.64063,-0.1875 0.26562,-0.14063 0.42187,-0.35938 0.15625,-0.23437 0.17188,-0.60937 l 0.92187,0 0,7.85937 1.78125,0 0,0.89063 z"
     id="path9094"
     style="fill:#000000;fill-rule:nonzero" />
  <path
     d="m 410.67412,49.010901 34.58267,0 0,36.78742 -34.58267,0 z"
     id="path9096"
     style="fill:#d9d9d9;fill-rule:nonzero" />
  <path
     d="m 410.67412,49.010901 34.58267,0 0,36.78742 -34.58267,0 z"
     id="path9098"
     style="stroke:#000000;stroke-width:2;stroke-linecap:butt;stroke-linejoin:round" />
  <path
     d="m 430.51039,71.924601 -4.73437,0 0,-0.89063 1.82812,0 0,-5.84375 -1.82812,0 0,-0.79687 q 0.375,0 0.79687,-0.0625 0.42188,-0.0625 0.64063,-0.1875 0.26562,-0.14063 0.42187,-0.35938 0.15625,-0.23437 0.17188,-0.60937 l 0.92187,0 0,7.85937 1.78125,0 0,0.89063 z"
     id="path9100"
     style="fill:#000000;fill-rule:nonzero" />
  <path
     d="m 444.75106,49.010901 34.5827,0 0,36.78742 -34.5827,0 z"
     id="path9102"
     style="fill:#d9d9d9;fill-rule:nonzero" />
  <path
     d="m 444.75106,49.010901 34.5827,0 0,36.78742 -34.5827,0 z"
     id="path9104"
     style="stroke:#000000;stroke-width:2;stroke-linecap:butt;stroke-linejoin:round" />
  <path
     d="m 464.58733,71.924601 -4.73438,0 0,-0.89063 1.82813,0 0,-5.84375 -1.82813,0 0,-0.79687 q 0.375,0 0.79688,-0.0625 0.42187,-0.0625 0.64062,-0.1875 0.26563,-0.14063 0.42188,-0.35938 0.15625,-0.23437 0.17187,-0.60937 l 0.92188,0 0,7.85937 1.78125,0 0,0.89063 z"
     id="path9106"
     style="fill:#000000;fill-rule:nonzero" />
  <path
     d="m 478.70769,49.010901 34.58264,0 0,36.78742 -34.58264,0 z"
     id="path9108"
     style="fill:#000000;fill-opacity:0;fill-rule:nonzero" />
  <path
     d="m 478.70769,49.010901 34.58264,0 0,36.78742 -34.58264,0 z"
     id="path9110"
     style="stroke:#000000;stroke-width:2;stroke-linecap:butt;stroke-linejoin:round" />
  <path
     d="m 499.02829,67.565201 q 0,2.34375 -0.73438,3.45312 -0.73437,1.09375 -2.28125,1.09375 -1.57812,0 -2.3125,-1.10937 -0.71875,-1.125 -0.71875,-3.4375 0,-2.32813 0.73438,-3.4375 0.73437,-1.10938 2.29687,-1.10938 1.5625,0 2.28125,1.14063 0.73438,1.125 0.73438,3.40625 z m -1.54688,2.65625 q 0.20313,-0.48438 0.28125,-1.125 0.0781,-0.64063 0.0781,-1.53125 0,-0.89063 -0.0781,-1.54688 -0.0781,-0.65625 -0.28125,-1.125 -0.20312,-0.45312 -0.5625,-0.67187 -0.35937,-0.23438 -0.90625,-0.23438 -0.5625,0 -0.92187,0.23438 -0.35938,0.21875 -0.5625,0.6875 -0.20313,0.4375 -0.28125,1.14062 -0.0625,0.6875 -0.0625,1.51563 0,0.92187 0.0625,1.54687 0.0625,0.60938 0.26562,1.09375 0.20313,0.45313 0.54688,0.70313 0.35937,0.23437 0.95312,0.23437 0.54688,0 0.90625,-0.23437 0.35938,-0.23438 0.5625,-0.6875 z"
     id="path9112"
     style="fill:#000000;fill-rule:nonzero" />
  <path
     d="m 512.78459,49.010901 34.5827,0 0,36.78742 -34.5827,0 z"
     id="path9114"
     style="fill:#000000;fill-opacity:0;fill-rule:nonzero" />
  <path
     d="m 512.78459,49.010901 34.5827,0 0,36.78742 -34.5827,0 z"
     id="path9116"
     style="stroke:#000000;stroke-width:2;stroke-linecap:butt;stroke-linejoin:round" />
  <path
     d="m 533.10519,67.565201 q 0,2.34375 -0.73438,3.45312 -0.73437,1.09375 -2.28125,1.09375 -1.57812,0 -2.3125,-1.10937 -0.71875,-1.125 -0.71875,-3.4375 0,-2.32813 0.73438,-3.4375 0.73437,-1.10938 2.29687,-1.10938 1.5625,0 2.28125,1.14063 0.73438,1.125 0.73438,3.40625 z m -1.54688,2.65625 q 0.20313,-0.48438 0.28125,-1.125 0.0781,-0.64063 0.0781,-1.53125 0,-0.89063 -0.0781,-1.54688 -0.0781,-0.65625 -0.28125,-1.125 -0.20312,-0.45312 -0.5625,-0.67187 -0.35937,-0.23438 -0.90625,-0.23438 -0.5625,0 -0.92187,0.23438 -0.35938,0.21875 -0.5625,0.6875 -0.20313,0.4375 -0.28125,1.14062 -0.0625,0.6875 -0.0625,1.51563 0,0.92187 0.0625,1.54687 0.0625,0.60938 0.26562,1.09375 0.20313,0.45313 0.54688,0.70313 0.35937,0.23437 0.95312,0.23437 0.54688,0 0.90625,-0.23437 0.35938,-0.23438 0.5625,-0.6875 z"
     id="path9118"
     style="fill:#000000;fill-rule:nonzero" />
  <path
     d="m 547.36639,49.010901 34.5827,0 0,36.78742 -34.5827,0 z"
     id="path9120"
     style="fill:#000000;fill-opacity:0;fill-rule:nonzero" />
  <path
     d="m 547.36639,49.010901 34.5827,0 0,36.78742 -34.5827,0 z"
     id="path9122"
     style="stroke:#000000;stroke-width:2;stroke-linecap:butt;stroke-linejoin:round" />
  <path
     d="m 567.68709,67.565201 q 0,2.34375 -0.73438,3.45312 -0.73437,1.09375 -2.28125,1.09375 -1.57812,0 -2.3125,-1.10937 -0.71875,-1.125 -0.71875,-3.4375 0,-2.32813 0.73438,-3.4375 0.73437,-1.10938 2.29687,-1.10938 1.5625,0 2.28125,1.14063 0.73438,1.125 0.73438,3.40625 z m -1.54688,2.65625 q 0.20313,-0.48438 0.28125,-1.125 0.0781,-0.64063 0.0781,-1.53125 0,-0.89063 -0.0781,-1.54688 -0.0781,-0.65625 -0.28125,-1.125 -0.20312,-0.45312 -0.5625,-0.67187 -0.35937,-0.23438 -0.90625,-0.23438 -0.5625,0 -0.92187,0.23438 -0.35938,0.21875 -0.5625,0.6875 -0.20313,0.4375 -0.28125,1.14062 -0.0625,0.6875 -0.0625,1.51563 0,0.92187 0.0625,1.54687 0.0625,0.60938 0.26562,1.09375 0.20313,0.45313 0.54688,0.70313 0.35937,0.23437 0.95312,0.23437 0.54688,0 0.90625,-0.23437 0.35938,-0.23438 0.5625,-0.6875 z"
     id="path9124"
     style="fill:#000000;fill-rule:nonzero" />
  <path
     d="m 581.44339,49.010901 34.58264,0 0,36.78742 -34.58264,0 z"
     id="path9126"
     style="fill:#000000;fill-opacity:0;fill-rule:nonzero" />
  <path
     d="m 581.44339,49.010901 34.58264,0 0,36.78742 -34.58264,0 z"
     id="path9128"
     style="stroke:#000000;stroke-width:2;stroke-linecap:butt;stroke-linejoin:round" />
  <path
     d="m 601.76399,67.565201 q 0,2.34375 -0.73437,3.45312 -0.73438,1.09375 -2.28125,1.09375 -1.57813,0 -2.3125,-1.10937 -0.71875,-1.125 -0.71875,-3.4375 0,-2.32813 0.73437,-3.4375 0.73438,-1.10938 2.29688,-1.10938 1.5625,0 2.28125,1.14063 0.73437,1.125 0.73437,3.40625 z m -1.54687,2.65625 q 0.20312,-0.48438 0.28125,-1.125 0.0781,-0.64063 0.0781,-1.53125 0,-0.89063 -0.0781,-1.54688 -0.0781,-0.65625 -0.28125,-1.125 -0.20313,-0.45312 -0.5625,-0.67187 -0.35938,-0.23438 -0.90625,-0.23438 -0.5625,0 -0.92188,0.23438 -0.35937,0.21875 -0.5625,0.6875 -0.20312,0.4375 -0.28125,1.14062 -0.0625,0.6875 -0.0625,1.51563 0,0.92187 0.0625,1.54687 0.0625,0.60938 0.26563,1.09375 0.20312,0.45313 0.54687,0.70313 0.35938,0.23437 0.95313,0.23437 0.54687,0 0.90625,-0.23437 0.35937,-0.23438 0.5625,-0.6875 z"
     id="path9130"
     style="fill:#000000;fill-rule:nonzero" />
  <path
     d="m 616.59839,49.010901 67.4646,0 0,36.78742 -67.4646,0 z"
     id="path9132"
     style="fill:#000000;fill-opacity:0;fill-rule:nonzero" />
  <path
     d="m 616.59839,49.010901 67.4646,0 0,36.78742 -67.4646,0 z"
     id="path9134"
     style="stroke:#000000;stroke-width:2;stroke-linecap:butt;stroke-linejoin:round" />
  <path
     d="m 646.67349,71.924601 -1.40625,0 0,-1.67188 1.40625,0 0,1.67188 z m 4.36523,0 -1.40625,0 0,-1.67188 1.40625,0 0,1.67188 z m 4.36524,0 -1.40625,0 0,-1.67188 1.40625,0 0,1.67188 z"
     id="path9136"
     style="fill:#000000;fill-rule:nonzero" />
  <path
     d="m 684.05874,49.010901 34.58264,0 0,36.78742 -34.58264,0 z"
     id="path9138"
     style="fill:#000000;fill-opacity:0;fill-rule:nonzero" />
  <path
     d="m 684.05874,49.010901 34.58264,0 0,36.78742 -34.58264,0 z"
     id="path9140"
     style="stroke:#000000;stroke-width:2;stroke-linecap:butt;stroke-linejoin:round" />
  <path
     d="m 704.37936,67.565201 q 0,2.34375 -0.73438,3.45312 -0.73437,1.09375 -2.28125,1.09375 -1.57812,0 -2.3125,-1.10937 -0.71875,-1.125 -0.71875,-3.4375 0,-2.32813 0.73438,-3.4375 0.73437,-1.10938 2.29687,-1.10938 1.5625,0 2.28125,1.14063 0.73438,1.125 0.73438,3.40625 z m -1.54688,2.65625 q 0.20313,-0.48438 0.28125,-1.125 0.0781,-0.64063 0.0781,-1.53125 0,-0.89063 -0.0781,-1.54688 -0.0781,-0.65625 -0.28125,-1.125 -0.20312,-0.45312 -0.5625,-0.67187 -0.35937,-0.23438 -0.90625,-0.23438 -0.5625,0 -0.92187,0.23438 -0.35938,0.21875 -0.5625,0.6875 -0.20313,0.4375 -0.28125,1.14062 -0.0625,0.6875 -0.0625,1.51563 0,0.92187 0.0625,1.54687 0.0625,0.60938 0.26562,1.09375 0.20313,0.45313 0.54688,0.70313 0.35937,0.23437 0.95312,0.23437 0.54688,0 0.90625,-0.23437 0.35938,-0.23438 0.5625,-0.6875 z"
     id="path9142"
     style="fill:#000000;fill-rule:nonzero" />
  <path
     d="m 67.553807,1.0109007 34.582673,0 0,36.7874203 -34.582673,0 z"
     id="path9144"
     style="fill:#000000;fill-opacity:0;fill-rule:nonzero" />
  <path
     d="m 67.553807,1.0109007 34.582673,0 0,36.7874203 -34.582673,0 z"
     id="path9146"
     style="stroke:#000000;stroke-width:2;stroke-linecap:butt;stroke-linejoin:round" />
  <path
     d="m 87.87444,19.565201 q 0,2.34375 -0.73437,3.45312 -0.73438,1.09375 -2.28125,1.09375 -1.57813,0 -2.3125,-1.10937 -0.71875,-1.125 -0.71875,-3.4375 0,-2.32813 0.73437,-3.4375 0.73438,-1.10938 2.29688,-1.10938 1.5625,0 2.28125,1.14063 0.73437,1.125 0.73437,3.40625 z m -1.54687,2.65625 q 0.20312,-0.48438 0.28125,-1.125 0.0781,-0.64063 0.0781,-1.53125 0,-0.89063 -0.0781,-1.54688 -0.0781,-0.65625 -0.28125,-1.125 -0.20313,-0.45312 -0.5625,-0.67187 -0.35938,-0.23438 -0.90625,-0.23438 -0.5625,0 -0.92188,0.23438 -0.35937,0.21875 -0.5625,0.6875 -0.20312,0.4375 -0.28125,1.14062 -0.0625,0.6875 -0.0625,1.51563 0,0.92187 0.0625,1.54687 0.0625,0.60938 0.26563,1.09375 0.20312,0.45313 0.54687,0.70313 0.35938,0.23437 0.95313,0.23437 0.54687,0 0.90625,-0.23437 0.35937,-0.23438 0.5625,-0.6875 z"
     id="path9148"
     style="fill:#000000;fill-rule:nonzero" />
  <path
     d="m 101.63073,1.0109007 34.58269,0 0,36.7874203 -34.58269,0 z"
     id="path9150"
     style="fill:#000000;fill-opacity:0;fill-rule:nonzero" />
  <path
     d="m 101.63073,1.0109007 34.58269,0 0,36.7874203 -34.58269,0 z"
     id="path9152"
     style="stroke:#000000;stroke-width:2;stroke-linecap:butt;stroke-linejoin:round" />
  <path
     d="m 121.95138,19.565201 q 0,2.34375 -0.73438,3.45312 -0.73437,1.09375 -2.28125,1.09375 -1.57812,0 -2.3125,-1.10937 -0.71875,-1.125 -0.71875,-3.4375 0,-2.32813 0.73438,-3.4375 0.73437,-1.10938 2.29687,-1.10938 1.5625,0 2.28125,1.14063 0.73438,1.125 0.73438,3.40625 z m -1.54688,2.65625 q 0.20313,-0.48438 0.28125,-1.125 0.0781,-0.64063 0.0781,-1.53125 0,-0.89063 -0.0781,-1.54688 -0.0781,-0.65625 -0.28125,-1.125 -0.20312,-0.45312 -0.5625,-0.67187 -0.35937,-0.23438 -0.90625,-0.23438 -0.5625,0 -0.92187,0.23438 -0.35938,0.21875 -0.5625,0.6875 -0.20313,0.4375 -0.28125,1.14062 -0.0625,0.6875 -0.0625,1.51563 0,0.92187 0.0625,1.54687 0.0625,0.60938 0.26562,1.09375 0.20313,0.45313 0.54688,0.70313 0.35937,0.23437 0.95312,0.23437 0.54688,0 0.90625,-0.23437 0.35938,-0.23438 0.5625,-0.6875 z"
     id="path9154"
     style="fill:#000000;fill-rule:nonzero" />
  <path
     d="m 136.21261,1.0109007 34.58267,0 0,36.7874203 -34.58267,0 z"
     id="path9156"
     style="fill:#d9d9d9;fill-rule:nonzero" />
  <path
     d="m 136.21261,1.0109007 34.58267,0 0,36.7874203 -34.58267,0 z"
     id="path9158"
     style="stroke:#000000;stroke-width:2;stroke-linecap:butt;stroke-linejoin:round" />
  <path
     d="m 156.04887,23.924601 -4.73438,0 0,-0.89063 1.82813,0 0,-5.84375 -1.82813,0 0,-0.79687 q 0.375,0 0.79688,-0.0625 0.42187,-0.0625 0.64062,-0.1875 0.26563,-0.14063 0.42188,-0.35938 0.15625,-0.23437 0.17187,-0.60937 l 0.92188,0 0,7.85937 1.78125,0 0,0.89063 z"
     id="path9160"
     style="fill:#000000;fill-rule:nonzero" />
  <path
     d="m 170.28951,1.0109007 34.58269,0 0,36.7874203 -34.58269,0 z"
     id="path9162"
     style="fill:#d9d9d9;fill-rule:nonzero" />
  <path
     d="m 170.28951,1.0109007 34.58269,0 0,36.7874203 -34.58269,0 z"
     id="path9164"
     style="stroke:#000000;stroke-width:2;stroke-linecap:butt;stroke-linejoin:round" />
  <path
     d="m 190.12579,23.924601 -4.73438,0 0,-0.89063 1.82813,0 0,-5.84375 -1.82813,0 0,-0.79687 q 0.375,0 0.79688,-0.0625 0.42187,-0.0625 0.64062,-0.1875 0.26563,-0.14063 0.42188,-0.35938 0.15625,-0.23437 0.17187,-0.60937 l 0.92188,0 0,7.85937 1.78125,0 0,0.89063 z"
     id="path9166"
     style="fill:#000000;fill-rule:nonzero" />
  <path
     d="m 204.2461,1.0109007 34.58269,0 0,36.7874203 -34.58269,0 z"
     id="path9168"
     style="fill:#d9d9d9;fill-rule:nonzero" />
  <path
     d="m 204.2461,1.0109007 34.58269,0 0,36.7874203 -34.58269,0 z"
     id="path9170"
     style="stroke:#000000;stroke-width:2;stroke-linecap:butt;stroke-linejoin:round" />
  <path
     d="m 224.08236,23.924601 -4.73438,0 0,-0.89063 1.82813,0 0,-5.84375 -1.82813,0 0,-0.79687 q 0.375,0 0.79688,-0.0625 0.42187,-0.0625 0.64062,-0.1875 0.26563,-0.14063 0.42188,-0.35938 0.15625,-0.23437 0.17187,-0.60937 l 0.92188,0 0,7.85937 1.78125,0 0,0.89063 z"
     id="path9172"
     style="fill:#000000;fill-rule:nonzero" />
  <path
     d="m 238.32305,1.0109007 34.58267,0 0,36.7874203 -34.58267,0 z"
     id="path9174"
     style="fill:#d9d9d9;fill-rule:nonzero" />
  <path
     d="m 238.32305,1.0109007 34.58267,0 0,36.7874203 -34.58267,0 z"
     id="path9176"
     style="stroke:#000000;stroke-width:2;stroke-linecap:butt;stroke-linejoin:round" />
  <path
     d="m 258.15929,23.924601 -4.73438,0 0,-0.89063 1.82813,0 0,-5.84375 -1.82813,0 0,-0.79687 q 0.375,0 0.79688,-0.0625 0.42187,-0.0625 0.64062,-0.1875 0.26563,-0.14063 0.42188,-0.35938 0.15625,-0.23437 0.17187,-0.60937 l 0.92188,0 0,7.85937 1.78125,0 0,0.89063 z"
     id="path9178"
     style="fill:#000000;fill-rule:nonzero" />
  <path
     d="m 272.90489,1.0109007 34.58267,0 0,36.7874203 -34.58267,0 z"
     id="path9180"
     style="fill:#d9d9d9;fill-rule:nonzero" />
  <path
     d="m 272.90489,1.0109007 34.58267,0 0,36.7874203 -34.58267,0 z"
     id="path9182"
     style="stroke:#000000;stroke-width:2;stroke-linecap:butt;stroke-linejoin:round" />
  <path
     d="m 292.74117,23.924601 -4.73438,0 0,-0.89063 1.82813,0 0,-5.84375 -1.82813,0 0,-0.79687 q 0.375,0 0.79688,-0.0625 0.42187,-0.0625 0.64062,-0.1875 0.26563,-0.14063 0.42188,-0.35938 0.15625,-0.23437 0.17187,-0.60937 l 0.92188,0 0,7.85937 1.78125,0 0,0.89063 z"
     id="path9184"
     style="fill:#000000;fill-rule:nonzero" />
  <path
     d="m 306.98183,1.0109007 34.58267,0 0,36.7874203 -34.58267,0 z"
     id="path9186"
     style="fill:#d9d9d9;fill-rule:nonzero" />
  <path
     d="m 306.98183,1.0109007 34.58267,0 0,36.7874203 -34.58267,0 z"
     id="path9188"
     style="stroke:#000000;stroke-width:2;stroke-linecap:butt;stroke-linejoin:round" />
  <path
     d="m 326.81811,23.924601 -4.73438,0 0,-0.89063 1.82813,0 0,-5.84375 -1.82813,0 0,-0.79687 q 0.375,0 0.79688,-0.0625 0.42187,-0.0625 0.64062,-0.1875 0.26563,-0.14063 0.42188,-0.35938 0.15625,-0.23437 0.17187,-0.60937 l 0.92188,0 0,7.85937 1.78125,0 0,0.89063 z"
     id="path9190"
     style="fill:#000000;fill-rule:nonzero" />
  <path
     d="m 342.01534,1.0109007 34.58267,0 0,36.7874203 -34.58267,0 z"
     id="path9192"
     style="fill:#d9d9d9;fill-rule:nonzero" />
  <path
     d="m 342.01534,1.0109007 34.58267,0 0,36.7874203 -34.58267,0 z"
     id="path9194"
     style="stroke:#000000;stroke-width:2;stroke-linecap:butt;stroke-linejoin:round" />
  <path
     d="m 361.85162,23.924601 -4.73438,0 0,-0.89063 1.82813,0 0,-5.84375 -1.82813,0 0,-0.79687 q 0.375,0 0.79688,-0.0625 0.42187,-0.0625 0.64062,-0.1875 0.26563,-0.14063 0.42188,-0.35938 0.15625,-0.23437 0.17187,-0.60937 l 0.92188,0 0,7.85937 1.78125,0 0,0.89063 z"
     id="path9196"
     style="fill:#000000;fill-rule:nonzero" />
  <path
     d="m 376.09229,1.0109007 34.58267,0 0,36.7874203 -34.58267,0 z"
     id="path9198"
     style="fill:#d9d9d9;fill-rule:nonzero" />
  <path
     d="m 376.09229,1.0109007 34.58267,0 0,36.7874203 -34.58267,0 z"
     id="path9200"
     style="stroke:#000000;stroke-width:2;stroke-linecap:butt;stroke-linejoin:round" />
  <path
     d="m 395.92855,23.924601 -4.73437,0 0,-0.89063 1.82812,0 0,-5.84375 -1.82812,0 0,-0.79687 q 0.375,0 0.79687,-0.0625 0.42188,-0.0625 0.64063,-0.1875 0.26562,-0.14063 0.42187,-0.35938 0.15625,-0.23437 0.17188,-0.60937 l 0.92187,0 0,7.85937 1.78125,0 0,0.89063 z"
     id="path9202"
     style="fill:#000000;fill-rule:nonzero" />
  <path
     d="m 410.67412,1.0109007 34.58267,0 0,36.7874203 -34.58267,0 z"
     id="path9204"
     style="fill:#d9d9d9;fill-rule:nonzero" />
  <path
     d="m 410.67412,1.0109007 34.58267,0 0,36.7874203 -34.58267,0 z"
     id="path9206"
     style="stroke:#000000;stroke-width:2;stroke-linecap:butt;stroke-linejoin:round" />
  <path
     d="m 430.51039,23.924601 -4.73437,0 0,-0.89063 1.82812,0 0,-5.84375 -1.82812,0 0,-0.79687 q 0.375,0 0.79687,-0.0625 0.42188,-0.0625 0.64063,-0.1875 0.26562,-0.14063 0.42187,-0.35938 0.15625,-0.23437 0.17188,-0.60937 l 0.92187,0 0,7.85937 1.78125,0 0,0.89063 z"
     id="path9208"
     style="fill:#000000;fill-rule:nonzero" />
  <path
     d="m 444.75106,1.0109007 34.5827,0 0,36.7874203 -34.5827,0 z"
     id="path9210"
     style="fill:#d9d9d9;fill-rule:nonzero" />
  <path
     d="m 444.75106,1.0109007 34.5827,0 0,36.7874203 -34.5827,0 z"
     id="path9212"
     style="stroke:#000000;stroke-width:2;stroke-linecap:butt;stroke-linejoin:round" />
  <path
     d="m 464.58733,23.924601 -4.73438,0 0,-0.89063 1.82813,0 0,-5.84375 -1.82813,0 0,-0.79687 q 0.375,0 0.79688,-0.0625 0.42187,-0.0625 0.64062,-0.1875 0.26563,-0.14063 0.42188,-0.35938 0.15625,-0.23437 0.17187,-0.60937 l 0.92188,0 0,7.85937 1.78125,0 0,0.89063 z"
     id="path9214"
     style="fill:#000000;fill-rule:nonzero" />
  <path
     d="m 478.70769,1.0109007 34.58264,0 0,36.7874203 -34.58264,0 z"
     id="path9216"
     style="fill:#000000;fill-opacity:0;fill-rule:nonzero" />
  <path
     d="m 478.70769,1.0109007 34.58264,0 0,36.7874203 -34.58264,0 z"
     id="path9218"
     style="stroke:#000000;stroke-width:2;stroke-linecap:butt;stroke-linejoin:round" />
  <path
     d="m 499.02829,19.565201 q 0,2.34375 -0.73438,3.45312 -0.73437,1.09375 -2.28125,1.09375 -1.57812,0 -2.3125,-1.10937 -0.71875,-1.125 -0.71875,-3.4375 0,-2.32813 0.73438,-3.4375 0.73437,-1.10938 2.29687,-1.10938 1.5625,0 2.28125,1.14063 0.73438,1.125 0.73438,3.40625 z m -1.54688,2.65625 q 0.20313,-0.48438 0.28125,-1.125 0.0781,-0.64063 0.0781,-1.53125 0,-0.89063 -0.0781,-1.54688 -0.0781,-0.65625 -0.28125,-1.125 -0.20312,-0.45312 -0.5625,-0.67187 -0.35937,-0.23438 -0.90625,-0.23438 -0.5625,0 -0.92187,0.23438 -0.35938,0.21875 -0.5625,0.6875 -0.20313,0.4375 -0.28125,1.14062 -0.0625,0.6875 -0.0625,1.51563 0,0.92187 0.0625,1.54687 0.0625,0.60938 0.26562,1.09375 0.20313,0.45313 0.54688,0.70313 0.35937,0.23437 0.95312,0.23437 0.54688,0 0.90625,-0.23437 0.35938,-0.23438 0.5625,-0.6875 z"
     id="path9220"
     style="fill:#000000;fill-rule:nonzero" />
  <path
     d="m 512.78459,1.0109007 34.5827,0 0,36.7874203 -34.5827,0 z"
     id="path9222"
     style="fill:#000000;fill-opacity:0;fill-rule:nonzero" />
  <path
     d="m 512.78459,1.0109007 34.5827,0 0,36.7874203 -34.5827,0 z"
     id="path9224"
     style="stroke:#000000;stroke-width:2;stroke-linecap:butt;stroke-linejoin:round" />
  <path
     d="m 533.10519,19.565201 q 0,2.34375 -0.73438,3.45312 -0.73437,1.09375 -2.28125,1.09375 -1.57812,0 -2.3125,-1.10937 -0.71875,-1.125 -0.71875,-3.4375 0,-2.32813 0.73438,-3.4375 0.73437,-1.10938 2.29687,-1.10938 1.5625,0 2.28125,1.14063 0.73438,1.125 0.73438,3.40625 z m -1.54688,2.65625 q 0.20313,-0.48438 0.28125,-1.125 0.0781,-0.64063 0.0781,-1.53125 0,-0.89063 -0.0781,-1.54688 -0.0781,-0.65625 -0.28125,-1.125 -0.20312,-0.45312 -0.5625,-0.67187 -0.35937,-0.23438 -0.90625,-0.23438 -0.5625,0 -0.92187,0.23438 -0.35938,0.21875 -0.5625,0.6875 -0.20313,0.4375 -0.28125,1.14062 -0.0625,0.6875 -0.0625,1.51563 0,0.92187 0.0625,1.54687 0.0625,0.60938 0.26562,1.09375 0.20313,0.45313 0.54688,0.70313 0.35937,0.23437 0.95312,0.23437 0.54688,0 0.90625,-0.23437 0.35938,-0.23438 0.5625,-0.6875 z"
     id="path9226"
     style="fill:#000000;fill-rule:nonzero" />
  <path
     d="m 547.36639,1.0109007 34.5827,0 0,36.7874203 -34.5827,0 z"
     id="path9228"
     style="fill:#000000;fill-opacity:0;fill-rule:nonzero" />
  <path
     d="m 547.36639,1.0109007 34.5827,0 0,36.7874203 -34.5827,0 z"
     id="path9230"
     style="stroke:#000000;stroke-width:2;stroke-linecap:butt;stroke-linejoin:round" />
  <path
     d="m 567.68709,19.565201 q 0,2.34375 -0.73438,3.45312 -0.73437,1.09375 -2.28125,1.09375 -1.57812,0 -2.3125,-1.10937 -0.71875,-1.125 -0.71875,-3.4375 0,-2.32813 0.73438,-3.4375 0.73437,-1.10938 2.29687,-1.10938 1.5625,0 2.28125,1.14063 0.73438,1.125 0.73438,3.40625 z m -1.54688,2.65625 q 0.20313,-0.48438 0.28125,-1.125 0.0781,-0.64063 0.0781,-1.53125 0,-0.89063 -0.0781,-1.54688 -0.0781,-0.65625 -0.28125,-1.125 -0.20312,-0.45312 -0.5625,-0.67187 -0.35937,-0.23438 -0.90625,-0.23438 -0.5625,0 -0.92187,0.23438 -0.35938,0.21875 -0.5625,0.6875 -0.20313,0.4375 -0.28125,1.14062 -0.0625,0.6875 -0.0625,1.51563 0,0.92187 0.0625,1.54687 0.0625,0.60938 0.26562,1.09375 0.20313,0.45313 0.54688,0.70313 0.35937,0.23437 0.95312,0.23437 0.54688,0 0.90625,-0.23437 0.35938,-0.23438 0.5625,-0.6875 z"
     id="path9232"
     style="fill:#000000;fill-rule:nonzero" />
  <path
     d="m 581.44339,1.0109007 34.58264,0 0,36.7874203 -34.58264,0 z"
     id="path9234"
     style="fill:#000000;fill-opacity:0;fill-rule:nonzero" />
  <path
     d="m 581.44339,1.0109007 34.58264,0 0,36.7874203 -34.58264,0 z"
     id="path9236"
     style="stroke:#000000;stroke-width:2;stroke-linecap:butt;stroke-linejoin:round" />
  <path
     d="m 601.76399,19.565201 q 0,2.34375 -0.73437,3.45312 -0.73438,1.09375 -2.28125,1.09375 -1.57813,0 -2.3125,-1.10937 -0.71875,-1.125 -0.71875,-3.4375 0,-2.32813 0.73437,-3.4375 0.73438,-1.10938 2.29688,-1.10938 1.5625,0 2.28125,1.14063 0.73437,1.125 0.73437,3.40625 z m -1.54687,2.65625 q 0.20312,-0.48438 0.28125,-1.125 0.0781,-0.64063 0.0781,-1.53125 0,-0.89063 -0.0781,-1.54688 -0.0781,-0.65625 -0.28125,-1.125 -0.20313,-0.45312 -0.5625,-0.67187 -0.35938,-0.23438 -0.90625,-0.23438 -0.5625,0 -0.92188,0.23438 -0.35937,0.21875 -0.5625,0.6875 -0.20312,0.4375 -0.28125,1.14062 -0.0625,0.6875 -0.0625,1.51563 0,0.92187 0.0625,1.54687 0.0625,0.60938 0.26563,1.09375 0.20312,0.45313 0.54687,0.70313 0.35938,0.23437 0.95313,0.23437 0.54687,0 0.90625,-0.23437 0.35937,-0.23438 0.5625,-0.6875 z"
     id="path9238"
     style="fill:#000000;fill-rule:nonzero" />
  <path
     d="m 616.59839,1.0109007 67.4646,0 0,36.7874203 -67.4646,0 z"
     id="path9240"
     style="fill:#000000;fill-opacity:0;fill-rule:nonzero" />
  <path
     d="m 616.59839,1.0109007 67.4646,0 0,36.7874203 -67.4646,0 z"
     id="path9242"
     style="stroke:#000000;stroke-width:2;stroke-linecap:butt;stroke-linejoin:round" />
  <path
     d="m 646.67349,23.924601 -1.40625,0 0,-1.67188 1.40625,0 0,1.67188 z m 4.36523,0 -1.40625,0 0,-1.67188 1.40625,0 0,1.67188 z m 4.36524,0 -1.40625,0 0,-1.67188 1.40625,0 0,1.67188 z"
     id="path9244"
     style="fill:#000000;fill-rule:nonzero" />
  <path
     d="m 684.05874,1.0109007 34.58264,0 0,36.7874203 -34.58264,0 z"
     id="path9246"
     style="fill:#000000;fill-opacity:0;fill-rule:nonzero" />
  <path
     d="m 684.05874,1.0109007 34.58264,0 0,36.7874203 -34.58264,0 z"
     id="path9248"
     style="stroke:#000000;stroke-width:2;stroke-linecap:butt;stroke-linejoin:round" />
  <path
     d="m 704.37936,19.565201 q 0,2.34375 -0.73438,3.45312 -0.73437,1.09375 -2.28125,1.09375 -1.57812,0 -2.3125,-1.10937 -0.71875,-1.125 -0.71875,-3.4375 0,-2.32813 0.73438,-3.4375 0.73437,-1.10938 2.29687,-1.10938 1.5625,0 2.28125,1.14063 0.73438,1.125 0.73438,3.40625 z m -1.54688,2.65625 q 0.20313,-0.48438 0.28125,-1.125 0.0781,-0.64063 0.0781,-1.53125 0,-0.89063 -0.0781,-1.54688 -0.0781,-0.65625 -0.28125,-1.125 -0.20312,-0.45312 -0.5625,-0.67187 -0.35937,-0.23438 -0.90625,-0.23438 -0.5625,0 -0.92187,0.23438 -0.35938,0.21875 -0.5625,0.6875 -0.20313,0.4375 -0.28125,1.14062 -0.0625,0.6875 -0.0625,1.51563 0,0.92187 0.0625,1.54687 0.0625,0.60938 0.26562,1.09375 0.20313,0.45313 0.54688,0.70313 0.35937,0.23437 0.95312,0.23437 0.54688,0 0.90625,-0.23437 0.35938,-0.23438 0.5625,-0.6875 z"
     id="path9250"
     style="fill:#000000;fill-rule:nonzero" />
  <path
     d="m 272.90489,49.010901 34.58267,0 0,36.78742 -34.58267,0 z"
     id="path9260"
     style="fill:#000000;fill-opacity:0;fill-rule:nonzero" />
  <path
     d="m 272.90489,49.010901 34.58267,0 0,36.78742 -34.58267,0 z"
     id="path9262"
     style="stroke:#000000;stroke-width:2;stroke-linecap:butt;stroke-linejoin:round" />
  <path
     d="m 293.22555,67.565201 q 0,2.34375 -0.73438,3.45312 -0.73437,1.09375 -2.28125,1.09375 -1.57812,0 -2.3125,-1.10937 -0.71875,-1.125 -0.71875,-3.4375 0,-2.32813 0.73438,-3.4375 0.73437,-1.10938 2.29687,-1.10938 1.5625,0 2.28125,1.14063 0.73438,1.125 0.73438,3.40625 z m -1.54688,2.65625 q 0.20313,-0.48438 0.28125,-1.125 0.0781,-0.64063 0.0781,-1.53125 0,-0.89063 -0.0781,-1.54688 -0.0781,-0.65625 -0.28125,-1.125 -0.20312,-0.45312 -0.5625,-0.67187 -0.35937,-0.23438 -0.90625,-0.23438 -0.5625,0 -0.92187,0.23438 -0.35938,0.21875 -0.5625,0.6875 -0.20313,0.4375 -0.28125,1.14062 -0.0625,0.6875 -0.0625,1.51563 0,0.92187 0.0625,1.54687 0.0625,0.60938 0.26562,1.09375 0.20313,0.45313 0.54688,0.70313 0.35937,0.23437 0.95312,0.23437 0.54688,0 0.90625,-0.23437 0.35938,-0.23438 0.5625,-0.6875 z"
     id="path9264"
     style="fill:#000000;fill-rule:nonzero" />
  <path
     d="m 238.32305,135.0109 34.58267,0 0,36.78742 -34.58267,0 z"
     id="path9266"
     style="fill:#d9d9d9;fill-rule:nonzero" />
  <path
     d="m 238.32305,135.0109 34.58267,0 0,36.78742 -34.58267,0 z"
     id="path9268"
     style="stroke:#000000;stroke-width:2;stroke-linecap:butt;stroke-linejoin:round" />
  <path
     d="m 258.15929,157.9246 -4.73438,0 0,-0.89063 1.82813,0 0,-5.84375 -1.82813,0 0,-0.79687 q 0.375,0 0.79688,-0.0625 0.42187,-0.0625 0.64062,-0.1875 0.26563,-0.14063 0.42188,-0.35938 0.15625,-0.23437 0.17187,-0.60937 l 0.92188,0 0,7.85937 1.78125,0 0,0.89063 z"
     id="path9270"
     style="fill:#000000;fill-rule:nonzero" />
  <path
     d="m 272.90489,135.0109 34.58267,0 0,36.78742 -34.58267,0 z"
     id="path9272"
     style="fill:#d9d9d9;fill-rule:nonzero" />
  <path
     d="m 272.90489,135.0109 34.58267,0 0,36.78742 -34.58267,0 z"
     id="path9274"
     style="stroke:#000000;stroke-width:2;stroke-linecap:butt;stroke-linejoin:round" />
  <path
     d="m 292.74117,157.9246 -4.73438,0 0,-0.89063 1.82813,0 0,-5.84375 -1.82813,0 0,-0.79687 q 0.375,0 0.79688,-0.0625 0.42187,-0.0625 0.64062,-0.1875 0.26563,-0.14063 0.42188,-0.35938 0.15625,-0.23437 0.17187,-0.60937 l 0.92188,0 0,7.85937 1.78125,0 0,0.89063 z"
     id="path9276"
     style="fill:#000000;fill-rule:nonzero" />
  <path
     d="m 255.61437,85.798301 0,83.212579"
     id="path9278"
     style="fill:#000000;fill-opacity:0;fill-rule:nonzero" />
  <path
     d="m 255.61437,85.393221 0,45.426879"
     id="path9280"
     style="stroke:#000000;stroke-width:2;stroke-linecap:butt;stroke-linejoin:round" />
  <path
     d="m 255.61437,128.1567 -2.24915,-2.24915 2.24915,6.17954 2.24918,-6.17954 z"
     id="path9282"
     style="fill:#000000;fill-rule:evenodd;stroke:#000000;stroke-width:2;stroke-linecap:butt" />
  <path
     d="m 290.19625,85.798301 0,83.212579"
     id="path9284"
     style="fill:#000000;fill-opacity:0;fill-rule:nonzero" />
  <path
     d="m 290.19625,85.384251 0,44.742049"
     id="path9286"
     style="stroke:#000000;stroke-width:2;stroke-linecap:butt;stroke-linejoin:round" />
  <path
     d="m 290.19625,128.1567 -2.24918,-2.24915 2.24918,6.17954 2.24915,-6.17954 z"
     id="path9288"
     style="fill:#000000;fill-rule:evenodd;stroke:#000000;stroke-width:2;stroke-linecap:butt" />
  <g
     transform="matrix(1.5,0,0,1.5,-335.61676,-177.68202)"
     id="g9643">
    <defs
       id="defs9645">
      <g
         id="g9647">
        <symbol
           id="textext-11d5dfab-0"
           style="overflow:visible">
          <path
             d=""
             id="path9650"
             style="stroke:none" />
        </symbol>
        <symbol
           id="textext-11d5dfab-1"
           style="overflow:visible">
          <path
             d="m 3.96875,-6.9375 c -0.046875,-0.125 -0.078125,-0.203125 -0.234375,-0.203125 -0.15625,0 -0.1875,0.0625 -0.234375,0.203125 L 1.4375,-0.984375 C 1.25,-0.46875 0.859375,-0.3125 0.3125,-0.3125 l 0,0.3125 c 0.234375,-0.015625 0.671875,-0.03125 1.015625,-0.03125 0.3125,0 0.828125,0.015625 1.15625,0.03125 l 0,-0.3125 c -0.5,0 -0.75,-0.25 -0.75,-0.5 0,-0.03125 0.015625,-0.140625 0.015625,-0.15625 l 0.46875,-1.296875 2.453125,0 0.53125,1.515625 c 0.015625,0.046875 0.03125,0.109375 0.03125,0.140625 0,0.296875 -0.5625,0.296875 -0.828125,0.296875 l 0,0.3125 c 0.359375,-0.03125 1.0625,-0.03125 1.4375,-0.03125 0.421875,0 0.890625,0.015625 1.296875,0.03125 l 0,-0.3125 -0.171875,0 C 6.375,-0.3125 6.234375,-0.375 6.125,-0.703125 z m -0.53125,1.109375 1.125,3.25 -2.234375,0 z m 0,0"
             id="path9653"
             style="stroke:none" />
        </symbol>
        <symbol
           id="textext-11d5dfab-2"
           style="overflow:visible">
          <path
             d="m 1.171875,-2.171875 c 0,-1.625 0.8125,-2.046875 1.34375,-2.046875 0.09375,0 0.71875,0.015625 1.0625,0.375 -0.40625,0.03125 -0.46875,0.328125 -0.46875,0.453125 0,0.265625 0.1875,0.453125 0.453125,0.453125 0.265625,0 0.46875,-0.15625 0.46875,-0.46875 0,-0.671875 -0.765625,-1.0625 -1.53125,-1.0625 -1.25,0 -2.15625,1.078125 -2.15625,2.3125 0,1.28125 0.984375,2.265625 2.140625,2.265625 1.328125,0 1.65625,-1.203125 1.65625,-1.296875 0,-0.09375 -0.109375,-0.09375 -0.140625,-0.09375 -0.078125,0 -0.109375,0.03125 -0.125,0.09375 -0.28125,0.921875 -0.9375,1.046875 -1.296875,1.046875 -0.53125,0 -1.40625,-0.421875 -1.40625,-2.03125 z m 0,0"
             id="path9656"
             style="stroke:none" />
        </symbol>
        <symbol
           id="textext-11d5dfab-3"
           style="overflow:visible">
          <path
             d="m 1.71875,-3.984375 1.4375,0 0,-0.3125 -1.4375,0 0,-1.828125 -0.25,0 c 0,0.8125 -0.296875,1.875 -1.28125,1.921875 l 0,0.21875 0.84375,0 0,2.75 c 0,1.21875 0.9375,1.34375 1.296875,1.34375 0.703125,0 0.984375,-0.703125 0.984375,-1.34375 l 0,-0.5625 -0.25,0 0,0.546875 c 0,0.734375 -0.296875,1.109375 -0.671875,1.109375 -0.671875,0 -0.671875,-0.90625 -0.671875,-1.078125 z m 0,0"
             id="path9659"
             style="stroke:none" />
        </symbol>
        <symbol
           id="textext-11d5dfab-4"
           style="overflow:visible">
          <path
             d="m 3.890625,-0.78125 0,0.890625 L 5.328125,0 l 0,-0.3125 C 4.640625,-0.3125 4.5625,-0.375 4.5625,-0.875 l 0,-3.53125 -1.46875,0.109375 0,0.3125 c 0.6875,0 0.78125,0.0625 0.78125,0.5625 l 0,1.765625 c 0,0.875 -0.484375,1.546875 -1.21875,1.546875 -0.828125,0 -0.875,-0.46875 -0.875,-0.984375 l 0,-3.3125 -1.46875,0.109375 0,0.3125 c 0.78125,0 0.78125,0.03125 0.78125,0.90625 l 0,1.5 c 0,0.78125 0,1.6875 1.515625,1.6875 0.5625,0 1,-0.28125 1.28125,-0.890625 z m 0,0"
             id="path9662"
             style="stroke:none" />
        </symbol>
        <symbol
           id="textext-11d5dfab-5"
           style="overflow:visible">
          <path
             d="m 3.3125,-0.75 c 0.046875,0.390625 0.3125,0.8125 0.78125,0.8125 0.21875,0 0.828125,-0.140625 0.828125,-0.953125 l 0,-0.5625 -0.25,0 0,0.5625 c 0,0.578125 -0.25,0.640625 -0.359375,0.640625 -0.328125,0 -0.375,-0.453125 -0.375,-0.5 l 0,-1.984375 c 0,-0.421875 0,-0.8125 -0.359375,-1.1875 C 3.1875,-4.3125 2.6875,-4.46875 2.21875,-4.46875 c -0.828125,0 -1.515625,0.46875 -1.515625,1.125 0,0.296875 0.203125,0.46875 0.46875,0.46875 0.28125,0 0.453125,-0.203125 0.453125,-0.453125 0,-0.125 -0.046875,-0.453125 -0.515625,-0.453125 C 1.390625,-4.140625 1.875,-4.25 2.1875,-4.25 c 0.5,0 1.0625,0.390625 1.0625,1.28125 l 0,0.359375 c -0.515625,0.03125 -1.203125,0.0625 -1.828125,0.359375 -0.75,0.34375 -1,0.859375 -1,1.296875 0,0.8125 0.96875,1.0625 1.59375,1.0625 0.65625,0 1.109375,-0.40625 1.296875,-0.859375 z M 3.25,-2.390625 l 0,1 c 0,0.9375 -0.71875,1.28125 -1.171875,1.28125 -0.484375,0 -0.890625,-0.34375 -0.890625,-0.84375 0,-0.546875 0.421875,-1.375 2.0625,-1.4375 z m 0,0"
             id="path9665"
             style="stroke:none" />
        </symbol>
        <symbol
           id="textext-11d5dfab-6"
           style="overflow:visible">
          <path
             d="m 1.765625,-6.921875 -1.4375,0.109375 0,0.3125 c 0.703125,0 0.78125,0.0625 0.78125,0.5625 l 0,5.1875 c 0,0.4375 -0.109375,0.4375 -0.78125,0.4375 l 0,0.3125 C 0.65625,-0.015625 1.1875,-0.03125 1.4375,-0.03125 c 0.25,0 0.734375,0.015625 1.109375,0.03125 l 0,-0.3125 c -0.671875,0 -0.78125,0 -0.78125,-0.4375 z m 0,0"
             id="path9668"
             style="stroke:none" />
        </symbol>
      </g>
    </defs>
    <g
       id="textext-11d5dfab-7">
      <g
         id="g9671"
         style="fill:#000000;fill-opacity:1">
        <use
           id="use9673"
           x="223.43201"
           y="134.765"
           width="960"
           height="540"
           xlink:href="#textext-11d5dfab-1" />
        <use
           id="use9675"
           x="230.90395"
           y="134.765"
           width="960"
           height="540"
           xlink:href="#textext-11d5dfab-2" />
        <use
           id="use9677"
           x="235.33133"
           y="134.765"
           width="960"
           height="540"
           xlink:href="#textext-11d5dfab-3" />
        <use
           id="use9679"
           x="239.20578"
           y="134.765"
           width="960"
           height="540"
           xlink:href="#textext-11d5dfab-4" />
        <use
           id="use9681"
           x="244.74101"
           y="134.765"
           width="960"
           height="540"
           xlink:href="#textext-11d5dfab-5" />
        <use
           id="use9683"
           x="249.72231"
           y="134.765"
           width="960"
           height="540"
           xlink:href="#textext-11d5dfab-6" />
      </g>
    </g>
  </g>
  <g
     transform="matrix(1.5,0,0,1.5,-335.66363,-129.80194)"
     id="g9989">
    <defs
       id="defs9991">
      <g
         id="g9993">
        <symbol
           id="textext-70055289-0"
           style="overflow:visible">
          <path
             d=""
             id="path9996"
             style="stroke:none" />
        </symbol>
        <symbol
           id="textext-70055289-1"
           style="overflow:visible">
          <path
             d="m 2.265625,-3.15625 1.6875,0 c 1.1875,0 2.265625,-0.796875 2.265625,-1.796875 C 6.21875,-5.9375 5.234375,-6.8125 3.875,-6.8125 l -3.53125,0 0,0.3125 0.25,0 c 0.765625,0 0.78125,0.109375 0.78125,0.46875 l 0,5.25 c 0,0.359375 -0.015625,0.46875 -0.78125,0.46875 l -0.25,0 0,0.3125 c 0.359375,-0.03125 1.09375,-0.03125 1.46875,-0.03125 0.375,0 1.125,0 1.484375,0.03125 l 0,-0.3125 -0.25,0 c -0.765625,0 -0.78125,-0.109375 -0.78125,-0.46875 z m -0.03125,-0.25 0,-2.6875 C 2.234375,-6.4375 2.25,-6.5 2.71875,-6.5 l 0.890625,0 c 1.578125,0 1.578125,1.0625 1.578125,1.546875 0,0.46875 0,1.546875 -1.578125,1.546875 z m 0,0"
             id="path9999"
             style="stroke:none" />
        </symbol>
        <symbol
           id="textext-70055289-2"
           style="overflow:visible">
          <path
             d="m 1.671875,-3.3125 0,-1.09375 -1.390625,0.109375 0,0.3125 c 0.703125,0 0.78125,0.0625 0.78125,0.5625 l 0,2.671875 c 0,0.4375 -0.109375,0.4375 -0.78125,0.4375 l 0,0.3125 c 0.390625,-0.015625 0.859375,-0.03125 1.140625,-0.03125 0.390625,0 0.859375,0 1.265625,0.03125 l 0,-0.3125 -0.21875,0 c -0.734375,0 -0.75,-0.109375 -0.75,-0.46875 l 0,-1.53125 c 0,-0.984375 0.421875,-1.875 1.171875,-1.875 0.0625,0 0.09375,0 0.109375,0.015625 -0.03125,0 -0.234375,0.125 -0.234375,0.390625 0,0.265625 0.21875,0.421875 0.4375,0.421875 0.171875,0 0.421875,-0.125 0.421875,-0.4375 0,-0.3125 -0.3125,-0.609375 -0.734375,-0.609375 -0.734375,0 -1.09375,0.671875 -1.21875,1.09375 z m 0,0"
             id="path10002"
             style="stroke:none" />
        </symbol>
        <symbol
           id="textext-70055289-3"
           style="overflow:visible">
          <path
             d="M 1.109375,-2.515625 C 1.171875,-4 2.015625,-4.25 2.359375,-4.25 c 1.015625,0 1.125,1.34375 1.125,1.734375 z m 0,0.21875 2.78125,0 c 0.21875,0 0.25,0 0.25,-0.21875 0,-0.984375 -0.546875,-1.953125 -1.78125,-1.953125 -1.15625,0 -2.078125,1.03125 -2.078125,2.28125 0,1.328125 1.046875,2.296875 2.1875,2.296875 C 3.6875,0.109375 4.140625,-1 4.140625,-1.1875 4.140625,-1.28125 4.0625,-1.3125 4,-1.3125 c -0.078125,0 -0.109375,0.0625 -0.125,0.140625 -0.34375,1.03125 -1.25,1.03125 -1.34375,1.03125 -0.5,0 -0.890625,-0.296875 -1.125,-0.671875 -0.296875,-0.46875 -0.296875,-1.125 -0.296875,-1.484375 z m 0,0"
             id="path10005"
             style="stroke:none" />
        </symbol>
        <symbol
           id="textext-70055289-4"
           style="overflow:visible">
          <path
             d="m 3.78125,-0.546875 0,0.65625 L 5.25,0 l 0,-0.3125 c -0.6875,0 -0.78125,-0.0625 -0.78125,-0.5625 l 0,-6.046875 -1.421875,0.109375 0,0.3125 c 0.6875,0 0.765625,0.0625 0.765625,0.5625 l 0,2.15625 c -0.28125,-0.359375 -0.71875,-0.625 -1.25,-0.625 -1.171875,0 -2.21875,0.984375 -2.21875,2.265625 0,1.265625 0.96875,2.25 2.109375,2.25 0.640625,0 1.078125,-0.34375 1.328125,-0.65625 z m 0,-2.671875 0,2.046875 c 0,0.171875 0,0.1875 -0.109375,0.359375 C 3.375,-0.328125 2.9375,-0.109375 2.5,-0.109375 2.046875,-0.109375 1.6875,-0.375 1.453125,-0.75 1.203125,-1.15625 1.171875,-1.71875 1.171875,-2.140625 1.171875,-2.5 1.1875,-3.09375 1.46875,-3.546875 1.6875,-3.859375 2.0625,-4.1875 2.609375,-4.1875 c 0.34375,0 0.765625,0.15625 1.0625,0.59375 0.109375,0.171875 0.109375,0.1875 0.109375,0.375 z m 0,0"
             id="path10008"
             style="stroke:none" />
        </symbol>
        <symbol
           id="textext-70055289-5"
           style="overflow:visible">
          <path
             d="M 1.765625,-4.40625 0.375,-4.296875 l 0,0.3125 c 0.640625,0 0.734375,0.0625 0.734375,0.546875 l 0,2.6875 c 0,0.4375 -0.109375,0.4375 -0.78125,0.4375 l 0,0.3125 C 0.640625,-0.015625 1.1875,-0.03125 1.421875,-0.03125 1.78125,-0.03125 2.125,-0.015625 2.46875,0 l 0,-0.3125 c -0.671875,0 -0.703125,-0.046875 -0.703125,-0.4375 z m 0.03125,-1.734375 c 0,-0.3125 -0.234375,-0.53125 -0.515625,-0.53125 -0.3125,0 -0.53125,0.265625 -0.53125,0.53125 0,0.265625 0.21875,0.53125 0.53125,0.53125 0.28125,0 0.515625,-0.21875 0.515625,-0.53125 z m 0,0"
             id="path10011"
             style="stroke:none" />
        </symbol>
        <symbol
           id="textext-70055289-6"
           style="overflow:visible">
          <path
             d="m 1.171875,-2.171875 c 0,-1.625 0.8125,-2.046875 1.34375,-2.046875 0.09375,0 0.71875,0.015625 1.0625,0.375 -0.40625,0.03125 -0.46875,0.328125 -0.46875,0.453125 0,0.265625 0.1875,0.453125 0.453125,0.453125 0.265625,0 0.46875,-0.15625 0.46875,-0.46875 0,-0.671875 -0.765625,-1.0625 -1.53125,-1.0625 -1.25,0 -2.15625,1.078125 -2.15625,2.3125 0,1.28125 0.984375,2.265625 2.140625,2.265625 1.328125,0 1.65625,-1.203125 1.65625,-1.296875 0,-0.09375 -0.109375,-0.09375 -0.140625,-0.09375 -0.078125,0 -0.109375,0.03125 -0.125,0.09375 -0.28125,0.921875 -0.9375,1.046875 -1.296875,1.046875 -0.53125,0 -1.40625,-0.421875 -1.40625,-2.03125 z m 0,0"
             id="path10014"
             style="stroke:none" />
        </symbol>
        <symbol
           id="textext-70055289-7"
           style="overflow:visible">
          <path
             d="m 1.71875,-3.984375 1.4375,0 0,-0.3125 -1.4375,0 0,-1.828125 -0.25,0 c 0,0.8125 -0.296875,1.875 -1.28125,1.921875 l 0,0.21875 0.84375,0 0,2.75 c 0,1.21875 0.9375,1.34375 1.296875,1.34375 0.703125,0 0.984375,-0.703125 0.984375,-1.34375 l 0,-0.5625 -0.25,0 0,0.546875 c 0,0.734375 -0.296875,1.109375 -0.671875,1.109375 -0.671875,0 -0.671875,-0.90625 -0.671875,-1.078125 z m 0,0"
             id="path10017"
             style="stroke:none" />
        </symbol>
      </g>
    </defs>
    <g
       id="textext-70055289-8">
      <g
         id="g10020"
         style="fill:#000000;fill-opacity:1">
        <use
           id="use10022"
           x="223.43201"
           y="134.765"
           width="960"
           height="540"
           xlink:href="#textext-70055289-1" />
        <use
           id="use10024"
           x="230.21254"
           y="134.765"
           width="960"
           height="540"
           xlink:href="#textext-70055289-2" />
        <use
           id="use10026"
           x="234.1149"
           y="134.765"
           width="960"
           height="540"
           xlink:href="#textext-70055289-3" />
        <use
           id="use10028"
           x="238.54228"
           y="134.765"
           width="960"
           height="540"
           xlink:href="#textext-70055289-4" />
        <use
           id="use10030"
           x="244.0775"
           y="134.765"
           width="960"
           height="540"
           xlink:href="#textext-70055289-5" />
        <use
           id="use10032"
           x="246.84511"
           y="134.765"
           width="960"
           height="540"
           xlink:href="#textext-70055289-6" />
        <use
           id="use10034"
           x="251.27249"
           y="134.765"
           width="960"
           height="540"
           xlink:href="#textext-70055289-7" />
        <use
           id="use10036"
           x="255.14694"
           y="134.765"
           width="960"
           height="540"
           xlink:href="#textext-70055289-3" />
        <use
           id="use10038"
           x="259.57431"
           y="134.765"
           width="960"
           height="540"
           xlink:href="#textext-70055289-4" />
      </g>
    </g>
  </g>
</svg>
