<?xml version="1.0" encoding="UTF-8" standalone="no"?>
<!-- Created with Inkscape (http://www.inkscape.org/) -->

<svg
   xmlns:dc="http://purl.org/dc/elements/1.1/"
   xmlns:cc="http://creativecommons.org/ns#"
   xmlns:rdf="http://www.w3.org/1999/02/22-rdf-syntax-ns#"
   xmlns:svg="http://www.w3.org/2000/svg"
   xmlns="http://www.w3.org/2000/svg"
   version="1.1"
   width="100%"
   height="100%"
   viewBox="0 0 777.09375 153.3794"
   id="svg4729"
   style="fill:none;stroke:none">
  <metadata
     id="metadata5033">
    <rdf:RDF>
      <cc:Work
         rdf:about="">
        <dc:format>image/svg+xml</dc:format>
        <dc:type
           rdf:resource="http://purl.org/dc/dcmitype/StillImage" />
        <dc:title></dc:title>
      </cc:Work>
    </rdf:RDF>
  </metadata>
  <defs
     id="defs5031" />
  <clipPath
     id="gb72c47812_1_0.0">
    <path
       d="M 0,0 960,0 960,540 0,540 0,0 z"
       id="path4732" />
  </clipPath>
  <path
     d="m 0,133.96903 7.5590558,0"
     id="path4748"
     style="fill:#000000;fill-opacity:0;fill-rule:nonzero" />
  <path
     d="m 0,133.96903 7.5590558,0"
     id="path4750"
     style="stroke:#ffffff;stroke-width:1;stroke-linecap:butt;stroke-linejoin:round" />
  <path
     d="m 0,152.88538 7.5590558,0"
     id="path4754"
     style="stroke:#ffffff;stroke-width:1;stroke-linecap:butt;stroke-linejoin:round" />
  <path
     d="m 48.343309,152.76155 722.015701,0 0,158.55118 -722.015701,0 z"
     id="path4885"
     style="fill:#000000;fill-opacity:0;fill-rule:nonzero" />
  <path
     d="m 41.369554,1.3886626 77.480316,0 0,141.4487974 -77.480316,0 z"
     id="path4915"
     style="fill:#000000;fill-opacity:0;fill-rule:nonzero" />
  <path
     d="m 41.369554,1.3886626 77.480316,0 0,141.4487974 -77.480316,0 z"
     id="path4917"
     style="stroke:#f6a800;stroke-width:2;stroke-linecap:butt;stroke-linejoin:round" />
  <path
     d="m 56.275804,25.983043 q -1.15625,0 -2.109375,-0.26562 -0.9375,-0.28125 -1.640625,-0.85938 -0.703125,-0.5625 -1.09375,-1.42187 -0.375,-0.875 -0.375,-2.04688 0,-1.21875 0.40625,-2.10937 0.421875,-0.89063 1.15625,-1.48438 0.703125,-0.54687 1.625,-0.79687 0.9375,-0.26563 1.9375,-0.26563 0.90625,0 1.65625,0.20313 0.765625,0.1875 1.421875,0.5 l 0,2.39062 -0.40625,0 q -0.15625,-0.14062 -0.390625,-0.32812 -0.234375,-0.1875 -0.5625,-0.35938 -0.328125,-0.17187 -0.71875,-0.28125 -0.375,-0.125 -0.875,-0.125 -1.125,0 -1.734375,0.71875 -0.609375,0.71875 -0.609375,1.9375 0,1.26563 0.625,1.92188 0.625,0.65625 1.765625,0.65625 0.53125,0 0.953125,-0.10938 0.421875,-0.125 0.703125,-0.29687 0.265625,-0.15625 0.46875,-0.32813 0.203125,-0.17187 0.375,-0.32812 l 0.40625,0 0,2.39062 q -0.671875,0.3125 -1.390625,0.5 -0.71875,0.1875 -1.59375,0.1875 z m 13.804687,-4.625 q 0,2.17188 -1.265625,3.42188 -1.25,1.25 -3.53125,1.25 -2.28125,0 -3.546875,-1.25 -1.265625,-1.25 -1.265625,-3.42188 0,-2.17187 1.265625,-3.40625 1.28125,-1.25 3.546875,-1.25 2.296875,0 3.546875,1.25 1.25,1.25 1.25,3.40625 z m -3.453125,2.14063 q 0.265625,-0.34375 0.40625,-0.8125 0.140625,-0.46875 0.140625,-1.3125 0,-0.76563 -0.140625,-1.28125 -0.140625,-0.53125 -0.390625,-0.84375 -0.25,-0.32813 -0.609375,-0.45313 -0.34375,-0.14062 -0.75,-0.14062 -0.40625,0 -0.734375,0.10937 -0.3125,0.10938 -0.59375,0.4375 -0.265625,0.3125 -0.421875,0.84375 -0.140625,0.53125 -0.140625,1.32813 0,0.71875 0.125,1.25 0.140625,0.53125 0.390625,0.84375 0.25,0.3125 0.59375,0.45312 0.359375,0.14063 0.796875,0.14063 0.390625,0 0.734375,-0.125 0.34375,-0.14063 0.59375,-0.4375 z m 14.281254,2.25 -2.828125,0 0,-4.35938 q 0,-0.53125 -0.0625,-1.04687 -0.04687,-0.53125 -0.171875,-0.78125 -0.15625,-0.29688 -0.46875,-0.42188 -0.296875,-0.14062 -0.828125,-0.14062 -0.390625,0 -0.78125,0.125 -0.390625,0.125 -0.859375,0.40625 l 0,6.21875 -2.812503,0 0,-8.78125 2.812503,0 0,0.96875 q 0.75,-0.57813 1.4375,-0.89063 0.703125,-0.3125 1.546875,-0.3125 1.421875,0 2.21875,0.82813 0.796875,0.82812 0.796875,2.46875 l 0,5.71875 z m 11.429688,-8.78125 -3.390625,8.78125 -3.1875,0 -3.359375,-8.78125 2.984375,0 2.03125,6.03125 2,-6.03125 2.921875,0 z"
     id="path4919"
     style="fill:#000000;fill-rule:nonzero" />
  <path
     d="m 57.260179,37.623663 -0.07813,0 q -0.328125,-0.0781 -0.640625,-0.10938 -0.296875,-0.0469 -0.71875,-0.0469 -0.6875,0 -1.328125,0.3125 -0.625,0.29687 -1.203125,0.76562 l 0,6.20313 -1.46875,0 0,-8.73438 1.46875,0 0,1.29688 q 0.875,-0.70313 1.53125,-1 0.671875,-0.29688 1.375,-0.29688 0.375,0 0.546875,0.0312 0.171875,0.0156 0.515625,0.0625 l 0,1.51563 z m 8.6875,2.90625 -6.421875,0 q 0,0.8125 0.234375,1.40625 0.25,0.59375 0.671875,0.98437 0.40625,0.375 0.953125,0.5625 0.5625,0.1875 1.234375,0.1875 0.890625,0 1.796875,-0.35937 0.90625,-0.35938 1.28125,-0.70313 l 0.07813,0 0,1.60938 q -0.734375,0.3125 -1.515625,0.53125 -0.765625,0.20312 -1.625,0.20312 -2.171875,0 -3.390625,-1.17187 -1.21875,-1.1875 -1.21875,-3.34375 0,-2.14063 1.171875,-3.39063 1.171875,-1.26562 3.078125,-1.26562 1.765625,0 2.71875,1.03125 0.953125,1.03125 0.953125,2.92187 l 0,0.79688 z m -1.421875,-1.125 q -0.01563,-1.15625 -0.59375,-1.78125 -0.5625,-0.64063 -1.734375,-0.64063 -1.1875,0 -1.890625,0.70313 -0.6875,0.6875 -0.78125,1.71875 l 5,0 z m 5.140625,5.34375 -1.46875,0 0,-12.15625 1.46875,0 0,12.15625 z m 10.140629,0 -1.46875,0 0,-0.96875 q -0.75,0.57812 -1.4375,0.90625 -0.671875,0.3125 -1.484375,0.3125 -1.375004,0 -2.140629,-0.84375 -0.765625,-0.84375 -0.765625,-2.46875 l 0,-5.67188 1.46875,0 0,4.96875 q 0,0.67188 0.0625,1.14063 0.0625,0.46875 0.265625,0.8125 0.203125,0.34375 0.531254,0.5 0.34375,0.15625 0.984375,0.15625 0.578125,0 1.25,-0.29688 0.671875,-0.29687 1.265625,-0.76562 l 0,-6.51563 1.46875,0 0,8.73438 z"
     id="path4921"
     style="fill:#000000;fill-rule:nonzero" />
  <path
     d="m 59.494554,59.279913 q 0,1.0625 -0.3125,1.9375 -0.296875,0.875 -0.84375,1.48437 -0.515625,0.57813 -1.21875,0.90625 -0.703125,0.3125 -1.484375,0.3125 -0.671875,0 -1.234375,-0.15625 -0.546875,-0.14062 -1.109375,-0.45312 l 0,3.65625 -1.46875,0 0,-11.95313 1.46875,0 0,0.92188 q 0.578125,-0.5 1.3125,-0.82813 0.734375,-0.32812 1.5625,-0.32812 1.578125,0 2.453125,1.1875 0.875,1.1875 0.875,3.3125 z m -1.515625,0.0312 q 0,-1.57813 -0.546875,-2.35938 -0.53125,-0.78125 -1.640625,-0.78125 -0.640625,0 -1.28125,0.28125 -0.640625,0.26563 -1.21875,0.71875 l 0,4.9375 q 0.625,0.28125 1.0625,0.39063 0.453125,0.0937 1.03125,0.0937 1.21875,0 1.90625,-0.82813 0.6875,-0.82812 0.6875,-2.45312 z m 11.25,0.0781 q 0,2.125 -1.09375,3.375 -1.09375,1.23438 -2.9375,1.23438 -1.84375,0 -2.9375,-1.23438 -1.09375,-1.25 -1.09375,-3.375 0,-2.14062 1.09375,-3.375 1.09375,-1.23437 2.9375,-1.23437 1.84375,0 2.9375,1.23437 1.09375,1.23438 1.09375,3.375 z m -1.515625,0 q 0,-1.70312 -0.671875,-2.51562 -0.65625,-0.82813 -1.84375,-0.82813 -1.1875,0 -1.859375,0.82813 -0.65625,0.8125 -0.65625,2.51562 0,1.64063 0.65625,2.48438 0.671875,0.84375 1.859375,0.84375 1.171875,0 1.84375,-0.82813 0.671875,-0.84375 0.671875,-2.5 z m 11.226566,0 q 0,2.125 -1.09375,3.375 -1.09375,1.23438 -2.9375,1.23438 -1.843754,0 -2.937504,-1.23438 -1.09375,-1.25 -1.09375,-3.375 0,-2.14062 1.09375,-3.375 1.09375,-1.23437 2.937504,-1.23437 1.84375,0 2.9375,1.23437 1.09375,1.23438 1.09375,3.375 z m -1.515625,0 q 0,-1.70312 -0.671875,-2.51562 -0.65625,-0.82813 -1.84375,-0.82813 -1.187504,0 -1.859379,0.82813 -0.65625,0.8125 -0.65625,2.51562 0,1.64063 0.65625,2.48438 0.671875,0.84375 1.859379,0.84375 1.171875,0 1.84375,-0.82813 0.671875,-0.84375 0.671875,-2.5 z m 5.273437,4.35938 -1.46875,0 0,-12.15625 1.46875,0 0,12.15625 z"
     id="path4923"
     style="fill:#000000;fill-rule:nonzero" />
  <path
     d="m 59.119554,82.748653 -1.46875,0 0,-4.96875 q 0,-0.60937 -0.07813,-1.125 -0.0625,-0.53125 -0.25,-0.82812 -0.203125,-0.32813 -0.578125,-0.48438 -0.359375,-0.17187 -0.9375,-0.17187 -0.609375,0 -1.265625,0.29687 -0.65625,0.29688 -1.25,0.76563 l 0,6.51562 -1.46875,0 0,-8.73437 1.46875,0 0,0.96875 q 0.6875,-0.5625 1.421875,-0.875 0.734375,-0.32813 1.5,-0.32813 1.421875,0 2.15625,0.85938 0.75,0.84375 0.75,2.4375 l 0,5.67187 z m 10.265625,-4.35937 q 0,2.125 -1.09375,3.375 -1.09375,1.23437 -2.9375,1.23437 -1.84375,0 -2.9375,-1.23437 -1.09375,-1.25 -1.09375,-3.375 0,-2.14063 1.09375,-3.375 1.09375,-1.23438 2.9375,-1.23438 1.84375,0 2.9375,1.23438 1.09375,1.23437 1.09375,3.375 z m -1.515625,0 q 0,-1.70313 -0.671875,-2.51563 -0.65625,-0.82812 -1.84375,-0.82812 -1.1875,0 -1.859375,0.82812 -0.65625,0.8125 -0.65625,2.51563 0,1.64062 0.65625,2.48437 0.671875,0.84375 1.859375,0.84375 1.171875,0 1.84375,-0.82812 0.671875,-0.84375 0.671875,-2.5 z m 9.226566,-2.76563 -0.07813,0 q -0.328125,-0.0781 -0.640625,-0.10937 -0.296875,-0.0469 -0.71875,-0.0469 -0.6875,0 -1.328129,0.3125 -0.625,0.29688 -1.203125,0.76563 l 0,6.20312 -1.46875,0 0,-8.73437 1.46875,0 0,1.29687 q 0.875,-0.70312 1.53125,-1 0.671879,-0.29687 1.375004,-0.29687 0.375,0 0.546875,0.0312 0.171875,0.0156 0.515625,0.0625 l 0,1.51562 z m 14.125,7.125 -1.46875,0 0,-4.96875 q 0,-0.5625 -0.0625,-1.07812 -0.04687,-0.53125 -0.203125,-0.84375 -0.1875,-0.34375 -0.53125,-0.51563 -0.328125,-0.17187 -0.953125,-0.17187 -0.625,0 -1.25,0.3125 -0.609375,0.3125 -1.21875,0.78125 0.01563,0.1875 0.03125,0.42187 0.01563,0.23438 0.01563,0.46875 l 0,5.59375 -1.46875,0 0,-4.96875 q 0,-0.57812 -0.04687,-1.09375 -0.04687,-0.53125 -0.21875,-0.84375 -0.171875,-0.32812 -0.515625,-0.5 -0.328125,-0.17187 -0.96875,-0.17187 -0.59375,0 -1.203125,0.29687 -0.609375,0.29688 -1.203125,0.76563 l 0,6.51562 -1.46875,0 0,-8.73437 1.46875,0 0,0.96875 q 0.6875,-0.5625 1.359375,-0.875 0.6875,-0.32813 1.46875,-0.32813 0.890625,0 1.5,0.375 0.625,0.375 0.9375,1.03125 0.890625,-0.75 1.625,-1.07812 0.734375,-0.32813 1.5625,-0.32813 1.4375,0 2.125,0.875 0.6875,0.85938 0.6875,2.42188 l 0,5.67187 z"
     id="path4925"
     style="fill:#000000;fill-rule:nonzero" />
  <path
     d="m 57.213304,112.01805 q 0,1.14062 -0.265625,2.07812 -0.265625,0.9375 -0.78125,1.59375 -0.546875,0.65625 -1.34375,1.03125 -0.796875,0.35938 -1.890625,0.35938 -0.296875,0 -0.578125,-0.0312 -0.265625,-0.0312 -0.46875,-0.10938 l 0,-1.10937 0.0625,0 q 0.15625,0.0781 0.46875,0.15625 0.3125,0.0781 0.703125,0.0781 1.28125,0 2.015625,-0.76562 0.75,-0.78125 0.859375,-2.14063 -0.546875,0.32813 -1.03125,0.46875 -0.46875,0.14063 -1.046875,0.14063 -0.53125,0 -0.96875,-0.10938 -0.4375,-0.10937 -0.875,-0.40625 -0.515625,-0.35937 -0.78125,-0.90625 -0.265625,-0.5625 -0.265625,-1.32812 0,-1.32813 0.875,-2.17188 0.890625,-0.84375 2.15625,-0.84375 0.625,0 1.15625,0.20313 0.546875,0.1875 0.953125,0.59375 0.5,0.48437 0.765625,1.25 0.28125,0.76562 0.28125,1.96875 z m -1.1875,-0.25 q 0,-0.90625 -0.1875,-1.45313 -0.1875,-0.5625 -0.515625,-0.85937 -0.28125,-0.26563 -0.59375,-0.375 -0.3125,-0.125 -0.6875,-0.125 -0.84375,0 -1.328125,0.53125 -0.484375,0.53125 -0.484375,1.48437 0,0.5625 0.15625,0.92188 0.15625,0.34375 0.53125,0.60937 0.265625,0.17188 0.578125,0.23438 0.3125,0.0625 0.703125,0.0625 0.453125,0 0.921875,-0.125 0.46875,-0.125 0.875,-0.35938 0.01563,-0.125 0.01563,-0.23437 0.01563,-0.125 0.01563,-0.3125 z m 8.957031,2.3125 q 0,1.32812 -0.875,2.17187 -0.875,0.84375 -2.15625,0.84375 -0.640625,0 -1.171875,-0.20312 -0.53125,-0.20313 -0.921875,-0.59375 -0.515625,-0.48438 -0.796875,-1.28125 -0.265625,-0.8125 -0.265625,-1.9375 0,-1.17188 0.25,-2.0625 0.25,-0.89063 0.796875,-1.59375 0.515625,-0.65625 1.328125,-1.03125 0.8125,-0.375 1.90625,-0.375 0.34375,0 0.578125,0.0312 0.234375,0.0312 0.46875,0.10937 l 0,1.10938 -0.04687,0 q -0.171875,-0.0781 -0.5,-0.15625 -0.328125,-0.0781 -0.671875,-0.0781 -1.265625,0 -2.015625,0.78125 -0.75,0.78125 -0.875,2.125 0.5,-0.29687 0.96875,-0.45312 0.484375,-0.15625 1.109375,-0.15625 0.546875,0 0.96875,0.10937 0.4375,0.0937 0.875,0.40625 0.515625,0.35938 0.78125,0.90625 0.265625,0.54688 0.265625,1.32813 z m -1.1875,0.0469 q 0,-0.54687 -0.171875,-0.90625 -0.15625,-0.35937 -0.53125,-0.625 -0.265625,-0.1875 -0.59375,-0.23437 -0.328125,-0.0625 -0.6875,-0.0625 -0.5,0 -0.921875,0.125 -0.421875,0.10937 -0.875,0.35937 -0.01563,0.125 -0.03125,0.25 0,0.10938 0,0.29688 0,0.92187 0.1875,1.46875 0.203125,0.53125 0.53125,0.84375 0.265625,0.25 0.578125,0.375 0.3125,0.10937 0.6875,0.10937 0.84375,0 1.328125,-0.51562 0.5,-0.51563 0.5,-1.48438 z m 8.582031,2.78125 -1.390625,0 -1.859375,-2.51562 -1.859375,2.51562 -1.28125,0 2.546875,-3.26562 -2.53125,-3.28125 1.390625,0 1.84375,2.46875 1.859375,-2.46875 1.28125,0 -2.578125,3.21875 2.578125,3.32812 z m 7.132816,-2.76562 q 0,0.60937 -0.234375,1.17187 -0.21875,0.54688 -0.59375,0.92188 -0.421875,0.40625 -1.015625,0.64062 -0.578125,0.21875 -1.34375,0.21875 -0.71875,0 -1.390625,-0.15625 -0.656254,-0.15625 -1.109379,-0.35937 l 0,-1.23438 0.07813,0 q 0.484375,0.29688 1.125004,0.51563 0.65625,0.21875 1.265625,0.21875 0.421875,0 0.8125,-0.10938 0.390625,-0.125 0.6875,-0.42187 0.265625,-0.25 0.390625,-0.59375 0.140625,-0.35938 0.140625,-0.82813 0,-0.45312 -0.15625,-0.75 -0.15625,-0.3125 -0.4375,-0.5 -0.296875,-0.23437 -0.734375,-0.3125 -0.4375,-0.0937 -0.984375,-0.0937 -0.515625,0 -1,0.0781 -0.468754,0.0625 -0.812504,0.125 l 0,-4.48438 5.250004,0 0,1.01563 -4.109375,0 0,2.32812 q 0.25,-0.0312 0.5,-0.0312 0.265625,-0.0156 0.46875,-0.0156 0.703125,0 1.234375,0.125 0.53125,0.10937 0.984375,0.42187 0.46875,0.3125 0.71875,0.82813 0.265625,0.5 0.265625,1.28125 z m 7.628906,0 q 0,0.60937 -0.234375,1.17187 -0.21875,0.54688 -0.59375,0.92188 -0.421875,0.40625 -1.015625,0.64062 -0.578125,0.21875 -1.34375,0.21875 -0.71875,0 -1.390625,-0.15625 -0.65625,-0.15625 -1.109375,-0.35937 l 0,-1.23438 0.07813,0 q 0.484375,0.29688 1.125,0.51563 0.65625,0.21875 1.265625,0.21875 0.421875,0 0.8125,-0.10938 0.390625,-0.125 0.6875,-0.42187 0.265625,-0.25 0.390625,-0.59375 0.140625,-0.35938 0.140625,-0.82813 0,-0.45312 -0.15625,-0.75 -0.15625,-0.3125 -0.4375,-0.5 -0.296875,-0.23437 -0.734375,-0.3125 -0.4375,-0.0937 -0.984375,-0.0937 -0.515625,0 -1,0.0781 -0.46875,0.0625 -0.8125,0.125 l 0,-4.48438 5.25,0 0,1.01563 -4.109375,0 0,2.32812 q 0.25,-0.0312 0.5,-0.0312 0.265625,-0.0156 0.46875,-0.0156 0.703125,0 1.234375,0.125 0.53125,0.10937 0.984375,0.42187 0.46875,0.3125 0.71875,0.82813 0.265625,0.5 0.265625,1.28125 z m 7.597657,2.76562 -1.390625,0 -1.859375,-2.51562 -1.859375,2.51562 -1.28125,0 2.546875,-3.26562 -2.53125,-3.28125 1.390625,0 1.84375,2.46875 1.859375,-2.46875 1.28125,0 -2.578125,3.21875 2.578125,3.32812 z"
     id="path4927"
     style="fill:#000000;fill-rule:nonzero" />
  <path
     d="m 57.150804,128.14305 q 0,0.60937 -0.234375,1.17187 -0.21875,0.54688 -0.59375,0.92188 -0.421875,0.40625 -1.015625,0.64062 -0.578125,0.21875 -1.34375,0.21875 -0.71875,0 -1.390625,-0.15625 -0.65625,-0.15625 -1.109375,-0.35937 l 0,-1.23438 0.07813,0 q 0.484375,0.29688 1.125,0.51563 0.65625,0.21875 1.265625,0.21875 0.421875,0 0.8125,-0.10938 0.390625,-0.125 0.6875,-0.42187 0.265625,-0.25 0.390625,-0.59375 0.140625,-0.35938 0.140625,-0.82813 0,-0.45312 -0.15625,-0.75 -0.15625,-0.3125 -0.4375,-0.5 -0.296875,-0.23437 -0.734375,-0.3125 -0.4375,-0.0937 -0.984375,-0.0937 -0.515625,0 -1,0.0781 -0.46875,0.0625 -0.8125,0.125 l 0,-4.48438 5.25,0 0,1.01563 -4.109375,0 0,2.32812 q 0.25,-0.0312 0.5,-0.0312 0.265625,-0.0156 0.46875,-0.0156 0.703125,0 1.234375,0.125 0.53125,0.10937 0.984375,0.42187 0.46875,0.3125 0.71875,0.82813 0.265625,0.5 0.265625,1.28125 z m 7.628906,0 q 0,0.60937 -0.234375,1.17187 -0.21875,0.54688 -0.59375,0.92188 -0.421875,0.40625 -1.015625,0.64062 -0.578125,0.21875 -1.34375,0.21875 -0.71875,0 -1.390625,-0.15625 -0.65625,-0.15625 -1.109375,-0.35937 l 0,-1.23438 0.07813,0 q 0.484375,0.29688 1.125,0.51563 0.65625,0.21875 1.265625,0.21875 0.421875,0 0.8125,-0.10938 0.390625,-0.125 0.6875,-0.42187 0.265625,-0.25 0.390625,-0.59375 0.140625,-0.35938 0.140625,-0.82813 0,-0.45312 -0.15625,-0.75 -0.15625,-0.3125 -0.4375,-0.5 -0.296875,-0.23437 -0.734375,-0.3125 -0.4375,-0.0937 -0.984375,-0.0937 -0.515625,0 -1,0.0781 -0.46875,0.0625 -0.8125,0.125 l 0,-4.48438 5.25,0 0,1.01563 -4.109375,0 0,2.32812 q 0.25,-0.0312 0.5,-0.0312 0.265625,-0.0156 0.46875,-0.0156 0.703125,0 1.234375,0.125 0.53125,0.10937 0.984375,0.42187 0.46875,0.3125 0.71875,0.82813 0.265625,0.5 0.265625,1.28125 z"
     id="path4929"
     style="fill:#000000;fill-rule:nonzero" />
  <path
     d="m 123.52562,1.3886626 77.48032,0 0,141.4487974 -77.48032,0 z"
     id="path4931"
     style="fill:#000000;fill-opacity:0;fill-rule:nonzero" />
  <path
     d="m 123.52562,1.3886626 77.48032,0 0,141.4487974 -77.48032,0 z"
     id="path4933"
     style="stroke:#f6a800;stroke-width:2;stroke-linecap:butt;stroke-linejoin:round" />
  <path
     d="m 138.43187,25.983043 q -1.15625,0 -2.10938,-0.26562 -0.9375,-0.28125 -1.64062,-0.85938 -0.70313,-0.5625 -1.09375,-1.42187 -0.375,-0.875 -0.375,-2.04688 0,-1.21875 0.40625,-2.10937 0.42187,-0.89063 1.15625,-1.48438 0.70312,-0.54687 1.625,-0.79687 0.9375,-0.26563 1.9375,-0.26563 0.90625,0 1.65625,0.20313 0.76563,0.1875 1.42188,0.5 l 0,2.39062 -0.40625,0 q -0.15625,-0.14062 -0.39063,-0.32812 -0.23437,-0.1875 -0.5625,-0.35938 -0.32812,-0.17187 -0.71875,-0.28125 -0.375,-0.125 -0.875,-0.125 -1.125,0 -1.73438,0.71875 -0.60937,0.71875 -0.60937,1.9375 0,1.26563 0.625,1.92188 0.625,0.65625 1.76562,0.65625 0.53126,0 0.95313,-0.10938 0.42188,-0.125 0.70313,-0.29687 0.26562,-0.15625 0.46875,-0.32813 0.20312,-0.17187 0.375,-0.32812 l 0.40625,0 0,2.39062 q -0.67188,0.3125 -1.39063,0.5 -0.71875,0.1875 -1.59375,0.1875 z m 13.80469,-4.625 q 0,2.17188 -1.26562,3.42188 -1.25,1.25 -3.53125,1.25 -2.28125,0 -3.54688,-1.25 -1.26562,-1.25 -1.26562,-3.42188 0,-2.17187 1.26562,-3.40625 1.28125,-1.25 3.54688,-1.25 2.29687,0 3.54687,1.25 1.25,1.25 1.25,3.40625 z m -3.45312,2.14063 q 0.26562,-0.34375 0.40625,-0.8125 0.14062,-0.46875 0.14062,-1.3125 0,-0.76563 -0.14062,-1.28125 -0.14063,-0.53125 -0.39063,-0.84375 -0.25,-0.32813 -0.60937,-0.45313 -0.34375,-0.14062 -0.75,-0.14062 -0.40625,0 -0.73438,0.10937 -0.3125,0.10938 -0.59375,0.4375 -0.26562,0.3125 -0.42187,0.84375 -0.14063,0.53125 -0.14063,1.32813 0,0.71875 0.125,1.25 0.14063,0.53125 0.39063,0.84375 0.25,0.3125 0.59375,0.45312 0.35937,0.14063 0.79687,0.14063 0.39063,0 0.73438,-0.125 0.34375,-0.14063 0.59375,-0.4375 z m 14.28125,2.25 -2.82813,0 0,-4.35938 q 0,-0.53125 -0.0625,-1.04687 -0.0469,-0.53125 -0.17187,-0.78125 -0.15625,-0.29688 -0.46875,-0.42188 -0.29688,-0.14062 -0.82813,-0.14062 -0.39062,0 -0.78125,0.125 -0.39062,0.125 -0.85937,0.40625 l 0,6.21875 -2.8125,0 0,-8.78125 2.8125,0 0,0.96875 q 0.75,-0.57813 1.4375,-0.89063 0.70312,-0.3125 1.54687,-0.3125 1.42188,0 2.21875,0.82813 0.79688,0.82812 0.79688,2.46875 l 0,5.71875 z m 11.42968,-8.78125 -3.39062,8.78125 -3.1875,0 -3.35938,-8.78125 2.98438,0 2.03125,6.03125 2,-6.03125 2.92187,0 z"
     id="path4935"
     style="fill:#000000;fill-rule:nonzero" />
  <path
     d="m 139.41625,37.623663 -0.0781,0 q -0.32812,-0.0781 -0.64062,-0.10938 -0.29688,-0.0469 -0.71876,-0.0469 -0.6875,0 -1.32812,0.3125 -0.625,0.29687 -1.20313,0.76562 l 0,6.20313 -1.46875,0 0,-8.73438 1.46875,0 0,1.29688 q 0.875,-0.70313 1.53125,-1 0.67188,-0.29688 1.375,-0.29688 0.37501,0 0.54688,0.0312 0.17188,0.0156 0.51563,0.0625 l 0,1.51563 z m 8.6875,2.90625 -6.42188,0 q 0,0.8125 0.23438,1.40625 0.25,0.59375 0.67187,0.98437 0.40625,0.375 0.95313,0.5625 0.5625,0.1875 1.23437,0.1875 0.89063,0 1.79688,-0.35937 0.90625,-0.35938 1.28125,-0.70313 l 0.0781,0 0,1.60938 q -0.73437,0.3125 -1.51562,0.53125 -0.76563,0.20312 -1.625,0.20312 -2.17188,0 -3.39063,-1.17187 -1.21875,-1.1875 -1.21875,-3.34375 0,-2.14063 1.17188,-3.39063 1.17187,-1.26562 3.07812,-1.26562 1.76563,0 2.71875,1.03125 0.95313,1.03125 0.95313,2.92187 l 0,0.79688 z m -1.42188,-1.125 q -0.0156,-1.15625 -0.59375,-1.78125 -0.5625,-0.64063 -1.73437,-0.64063 -1.1875,0 -1.89063,0.70313 -0.6875,0.6875 -0.78125,1.71875 l 5,0 z m 5.14063,5.34375 -1.46875,0 0,-12.15625 1.46875,0 0,12.15625 z m 10.14062,0 -1.46875,0 0,-0.96875 q -0.75,0.57812 -1.4375,0.90625 -0.67187,0.3125 -1.48437,0.3125 -1.375,0 -2.14063,-0.84375 -0.76562,-0.84375 -0.76562,-2.46875 l 0,-5.67188 1.46875,0 0,4.96875 q 0,0.67188 0.0625,1.14063 0.0625,0.46875 0.26562,0.8125 0.20313,0.34375 0.53125,0.5 0.34375,0.15625 0.98438,0.15625 0.57812,0 1.25,-0.29688 0.67187,-0.29687 1.26562,-0.76562 l 0,-6.51563 1.46875,0 0,8.73438 z"
     id="path4937"
     style="fill:#000000;fill-rule:nonzero" />
  <path
     d="m 141.65062,59.279913 q 0,1.0625 -0.3125,1.9375 -0.29688,0.875 -0.84375,1.48437 -0.51563,0.57813 -1.21875,0.90625 -0.70313,0.3125 -1.48438,0.3125 -0.67188,0 -1.23438,-0.15625 -0.54687,-0.14062 -1.10937,-0.45312 l 0,3.65625 -1.46875,0 0,-11.95313 1.46875,0 0,0.92188 q 0.57812,-0.5 1.3125,-0.82813 0.73437,-0.32812 1.5625,-0.32812 1.57813,0 2.45313,1.1875 0.875,1.1875 0.875,3.3125 z m -1.51563,0.0312 q 0,-1.57813 -0.54687,-2.35938 -0.53125,-0.78125 -1.64063,-0.78125 -0.64063,0 -1.28125,0.28125 -0.64063,0.26563 -1.21875,0.71875 l 0,4.9375 q 0.625,0.28125 1.0625,0.39063 0.45312,0.0937 1.03125,0.0937 1.21875,0 1.90625,-0.82813 0.6875,-0.82812 0.6875,-2.45312 z m 11.25,0.0781 q 0,2.125 -1.09375,3.375 -1.09375,1.23438 -2.9375,1.23438 -1.84375,0 -2.9375,-1.23438 -1.09375,-1.25 -1.09375,-3.375 0,-2.14062 1.09375,-3.375 1.09375,-1.23437 2.9375,-1.23437 1.84375,0 2.9375,1.23437 1.09375,1.23438 1.09375,3.375 z m -1.51562,0 q 0,-1.70312 -0.67188,-2.51562 -0.65625,-0.82813 -1.84375,-0.82813 -1.1875,0 -1.85937,0.82813 -0.65625,0.8125 -0.65625,2.51562 0,1.64063 0.65625,2.48438 0.67187,0.84375 1.85937,0.84375 1.17188,0 1.84375,-0.82813 0.67188,-0.84375 0.67188,-2.5 z m 11.22656,0 q 0,2.125 -1.09375,3.375 -1.09375,1.23438 -2.9375,1.23438 -1.84375,0 -2.9375,-1.23438 -1.09375,-1.25 -1.09375,-3.375 0,-2.14062 1.09375,-3.375 1.09375,-1.23437 2.9375,-1.23437 1.84375,0 2.9375,1.23437 1.09375,1.23438 1.09375,3.375 z m -1.51562,0 q 0,-1.70312 -0.67188,-2.51562 -0.65625,-0.82813 -1.84375,-0.82813 -1.1875,0 -1.85937,0.82813 -0.65625,0.8125 -0.65625,2.51562 0,1.64063 0.65625,2.48438 0.67187,0.84375 1.85937,0.84375 1.17188,0 1.84375,-0.82813 0.67188,-0.84375 0.67188,-2.5 z m 5.27343,4.35938 -1.46875,0 0,-12.15625 1.46875,0 0,12.15625 z"
     id="path4939"
     style="fill:#000000;fill-rule:nonzero" />
  <path
     d="m 141.27562,82.748653 -1.46875,0 0,-4.96875 q 0,-0.60937 -0.0781,-1.125 -0.0625,-0.53125 -0.25,-0.82812 -0.20312,-0.32813 -0.57812,-0.48438 -0.35938,-0.17187 -0.93751,-0.17187 -0.60937,0 -1.26562,0.29687 -0.65625,0.29688 -1.25,0.76563 l 0,6.51562 -1.46875,0 0,-8.73437 1.46875,0 0,0.96875 q 0.6875,-0.5625 1.42187,-0.875 0.73438,-0.32813 1.5,-0.32813 1.42188,0 2.15626,0.85938 0.75,0.84375 0.75,2.4375 l 0,5.67187 z m 10.26562,-4.35937 q 0,2.125 -1.09375,3.375 -1.09375,1.23437 -2.9375,1.23437 -1.84375,0 -2.9375,-1.23437 -1.09375,-1.25 -1.09375,-3.375 0,-2.14063 1.09375,-3.375 1.09375,-1.23438 2.9375,-1.23438 1.84375,0 2.9375,1.23438 1.09375,1.23437 1.09375,3.375 z m -1.51562,0 q 0,-1.70313 -0.67188,-2.51563 -0.65625,-0.82812 -1.84375,-0.82812 -1.1875,0 -1.85937,0.82812 -0.65625,0.8125 -0.65625,2.51563 0,1.64062 0.65625,2.48437 0.67187,0.84375 1.85937,0.84375 1.17188,0 1.84375,-0.82812 0.67188,-0.84375 0.67188,-2.5 z m 9.22656,-2.76563 -0.0781,0 q -0.32813,-0.0781 -0.64063,-0.10937 -0.29687,-0.0469 -0.71875,-0.0469 -0.6875,0 -1.32812,0.3125 -0.625,0.29688 -1.20313,0.76563 l 0,6.20312 -1.46875,0 0,-8.73437 1.46875,0 0,1.29687 q 0.875,-0.70312 1.53125,-1 0.67188,-0.29687 1.375,-0.29687 0.375,0 0.54688,0.0312 0.17187,0.0156 0.51562,0.0625 l 0,1.51562 z m 14.125,7.125 -1.46875,0 0,-4.96875 q 0,-0.5625 -0.0625,-1.07812 -0.0469,-0.53125 -0.20312,-0.84375 -0.1875,-0.34375 -0.53125,-0.51563 -0.32813,-0.17187 -0.95313,-0.17187 -0.625,0 -1.25,0.3125 -0.60937,0.3125 -1.21875,0.78125 0.0156,0.1875 0.0312,0.42187 0.0156,0.23438 0.0156,0.46875 l 0,5.59375 -1.46875,0 0,-4.96875 q 0,-0.57812 -0.0469,-1.09375 -0.0469,-0.53125 -0.21875,-0.84375 -0.17187,-0.32812 -0.51562,-0.5 -0.32813,-0.17187 -0.96875,-0.17187 -0.59375,0 -1.20313,0.29687 -0.60937,0.29688 -1.20312,0.76563 l 0,6.51562 -1.46875,0 0,-8.73437 1.46875,0 0,0.96875 q 0.6875,-0.5625 1.35937,-0.875 0.6875,-0.32813 1.46875,-0.32813 0.89063,0 1.5,0.375 0.625,0.375 0.9375,1.03125 0.89063,-0.75 1.625,-1.07812 0.73438,-0.32813 1.5625,-0.32813 1.4375,0 2.125,0.875 0.6875,0.85938 0.6875,2.42188 l 0,5.67187 z"
     id="path4941"
     style="fill:#000000;fill-rule:nonzero" />
  <path
     d="m 139.36937,116.90867 -5.90626,0 0,-1.21875 q 0.625,-0.53125 1.23438,-1.0625 0.625,-0.53125 1.15625,-1.04688 1.125,-1.09375 1.53125,-1.73437 0.42187,-0.64063 0.42187,-1.39063 0,-0.67187 -0.45312,-1.04687 -0.4375,-0.39063 -1.23438,-0.39063 -0.54687,0 -1.17187,0.1875 -0.60938,0.1875 -1.20313,0.57813 l -0.0625,0 0,-1.23438 q 0.42188,-0.20312 1.10938,-0.375 0.70312,-0.17187 1.34375,-0.17187 1.34375,0 2.10937,0.65625 0.76563,0.64062 0.76563,1.75 0,0.5 -0.125,0.9375 -0.125,0.42187 -0.375,0.79687 -0.23438,0.375 -0.54688,0.73438 -0.29687,0.34375 -0.73437,0.76562 -0.625,0.60938 -1.29688,1.1875 -0.67187,0.57813 -1.25,1.07813 l 4.68751,0 0,1 z m 7.56641,-2.76563 q 0,0.60938 -0.23438,1.17188 -0.21875,0.54687 -0.59375,0.92187 -0.42187,0.40625 -1.01562,0.64063 -0.57813,0.21875 -1.34375,0.21875 -0.71875,0 -1.39063,-0.15625 -0.65625,-0.15625 -1.10937,-0.35938 l 0,-1.23437 0.0781,0 q 0.48438,0.29687 1.125,0.51562 0.65625,0.21875 1.26563,0.21875 0.42187,0 0.8125,-0.10937 0.39062,-0.125 0.6875,-0.42188 0.26562,-0.25 0.39062,-0.59375 0.14063,-0.35937 0.14063,-0.82812 0,-0.45313 -0.15625,-0.75 -0.15625,-0.3125 -0.4375,-0.5 -0.29688,-0.23438 -0.73438,-0.3125 -0.4375,-0.0937 -0.98437,-0.0937 -0.51563,0 -1,0.0781 -0.46875,0.0625 -0.8125,0.125 l 0,-4.48437 5.25,0 0,1.01562 -4.10938,0 0,2.32813 q 0.25,-0.0312 0.5,-0.0312 0.26563,-0.0156 0.46875,-0.0156 0.70313,0 1.23438,0.125 0.53125,0.10938 0.98437,0.42188 0.46875,0.3125 0.71875,0.82812 0.26563,0.5 0.26563,1.28125 z m 7.83203,-0.0625 q 0,1.32813 -0.875,2.17188 -0.875,0.84375 -2.15625,0.84375 -0.64063,0 -1.17188,-0.20313 -0.53125,-0.20312 -0.92187,-0.59375 -0.51563,-0.48437 -0.79688,-1.28125 -0.26562,-0.8125 -0.26562,-1.9375 0,-1.17187 0.25,-2.0625 0.25,-0.89062 0.79687,-1.59375 0.51563,-0.65625 1.32813,-1.03125 0.8125,-0.375 1.90625,-0.375 0.34375,0 0.57812,0.0312 0.23438,0.0312 0.46875,0.10938 l 0,1.10937 -0.0469,0 q -0.17188,-0.0781 -0.5,-0.15625 -0.32813,-0.0781 -0.67188,-0.0781 -1.26562,0 -2.01562,0.78125 -0.75,0.78125 -0.875,2.125 0.5,-0.29688 0.96875,-0.45313 0.48437,-0.15625 1.10937,-0.15625 0.54688,0 0.96875,0.10938 0.4375,0.0937 0.875,0.40625 0.51563,0.35937 0.78125,0.90625 0.26563,0.54687 0.26563,1.32812 z m -1.1875,0.0469 q 0,-0.54688 -0.17188,-0.90625 -0.15625,-0.35938 -0.53125,-0.625 -0.26562,-0.1875 -0.59375,-0.23438 -0.32812,-0.0625 -0.6875,-0.0625 -0.5,0 -0.92187,0.125 -0.42188,0.10938 -0.875,0.35938 -0.0156,0.125 -0.0312,0.25 0,0.10937 0,0.29687 0,0.92188 0.1875,1.46875 0.20312,0.53125 0.53125,0.84375 0.26562,0.25 0.57812,0.375 0.3125,0.10938 0.6875,0.10938 0.84375,0 1.32813,-0.51563 0.5,-0.51562 0.5,-1.48437 z m 8.58203,2.78125 -1.39063,0 -1.85937,-2.51563 -1.85938,2.51563 -1.28125,0 2.54688,-3.26563 -2.53125,-3.28125 1.39062,0 1.84375,2.46875 1.85938,-2.46875 1.28125,0 -2.57813,3.21875 2.57813,3.32813 z m 7.19531,0 -5.90625,0 0,-1.21875 q 0.625,-0.53125 1.23438,-1.0625 0.625,-0.53125 1.15625,-1.04688 1.125,-1.09375 1.53125,-1.73437 0.42187,-0.64063 0.42187,-1.39063 0,-0.67187 -0.45312,-1.04687 -0.4375,-0.39063 -1.23438,-0.39063 -0.54687,0 -1.17187,0.1875 -0.60938,0.1875 -1.20313,0.57813 l -0.0625,0 0,-1.23438 q 0.42188,-0.20312 1.10938,-0.375 0.70312,-0.17187 1.34375,-0.17187 1.34375,0 2.10937,0.65625 0.76563,0.64062 0.76563,1.75 0,0.5 -0.125,0.9375 -0.125,0.42187 -0.375,0.79687 -0.23438,0.375 -0.54688,0.73438 -0.29687,0.34375 -0.73437,0.76562 -0.625,0.60938 -1.29688,1.1875 -0.67187,0.57813 -1.25,1.07813 l 4.6875,0 0,1 z m 7.66016,-7.42188 -3.95313,7.42188 -1.25,0 4.20313,-7.70313 -4.96875,0 0,-1.01562 5.96875,0 0,1.29687 z m 7.5039,7.42188 -1.39062,0 -1.85938,-2.51563 -1.85937,2.51563 -1.28125,0 2.54687,-3.26563 -2.53125,-3.28125 1.39063,0 1.84375,2.46875 1.85937,-2.46875 1.28125,0 -2.57812,3.21875 2.57812,3.32813 z"
     id="path4943"
     style="fill:#000000;fill-rule:nonzero" />
  <path
     d="m 139.36937,130.90867 -5.90626,0 0,-1.21875 q 0.625,-0.53125 1.23438,-1.0625 0.625,-0.53125 1.15625,-1.04688 1.125,-1.09375 1.53125,-1.73437 0.42187,-0.64063 0.42187,-1.39063 0,-0.67187 -0.45312,-1.04687 -0.4375,-0.39063 -1.23438,-0.39063 -0.54687,0 -1.17187,0.1875 -0.60938,0.1875 -1.20313,0.57813 l -0.0625,0 0,-1.23438 q 0.42188,-0.20312 1.10938,-0.375 0.70312,-0.17187 1.34375,-0.17187 1.34375,0 2.10937,0.65625 0.76563,0.64062 0.76563,1.75 0,0.5 -0.125,0.9375 -0.125,0.42187 -0.375,0.79687 -0.23438,0.375 -0.54688,0.73438 -0.29687,0.34375 -0.73437,0.76562 -0.625,0.60938 -1.29688,1.1875 -0.67187,0.57813 -1.25,1.07813 l 4.68751,0 0,1 z m 7.66016,-7.42188 -3.95313,7.42188 -1.25,0 4.20313,-7.70313 -4.96875,0 0,-1.01562 5.96875,0 0,1.29687 z"
     id="path4945"
     style="fill:#000000;fill-rule:nonzero" />
  <path
     d="m 205.67847,1.3886626 77.48032,0 0,141.4487974 -77.48032,0 z"
     id="path4947"
     style="fill:#000000;fill-opacity:0;fill-rule:nonzero" />
  <path
     d="m 205.67847,1.3886626 77.48032,0 0,141.4487974 -77.48032,0 z"
     id="path4949"
     style="stroke:#f6a800;stroke-width:2;stroke-linecap:butt;stroke-linejoin:round" />
  <path
     d="m 220.58472,25.983043 q -1.15625,0 -2.10938,-0.26562 -0.9375,-0.28125 -1.64062,-0.85938 -0.70313,-0.5625 -1.09375,-1.42187 -0.375,-0.875 -0.375,-2.04688 0,-1.21875 0.40625,-2.10937 0.42187,-0.89063 1.15625,-1.48438 0.70312,-0.54687 1.625,-0.79687 0.9375,-0.26563 1.9375,-0.26563 0.90625,0 1.65625,0.20313 0.76562,0.1875 1.42187,0.5 l 0,2.39062 -0.40625,0 q -0.15625,-0.14062 -0.39062,-0.32812 -0.23438,-0.1875 -0.5625,-0.35938 -0.32813,-0.17187 -0.71875,-0.28125 -0.375,-0.125 -0.875,-0.125 -1.125,0 -1.73438,0.71875 -0.60937,0.71875 -0.60937,1.9375 0,1.26563 0.625,1.92188 0.625,0.65625 1.76562,0.65625 0.53125,0 0.95313,-0.10938 0.42187,-0.125 0.70312,-0.29687 0.26563,-0.15625 0.46875,-0.32813 0.20313,-0.17187 0.375,-0.32812 l 0.40625,0 0,2.39062 q -0.67187,0.3125 -1.39062,0.5 -0.71875,0.1875 -1.59375,0.1875 z m 13.80469,-4.625 q 0,2.17188 -1.26563,3.42188 -1.25,1.25 -3.53125,1.25 -2.28125,0 -3.54687,-1.25 -1.26563,-1.25 -1.26563,-3.42188 0,-2.17187 1.26563,-3.40625 1.28125,-1.25 3.54687,-1.25 2.29688,0 3.54688,1.25 1.25,1.25 1.25,3.40625 z m -3.45313,2.14063 q 0.26563,-0.34375 0.40625,-0.8125 0.14063,-0.46875 0.14063,-1.3125 0,-0.76563 -0.14063,-1.28125 -0.14062,-0.53125 -0.39062,-0.84375 -0.25,-0.32813 -0.60938,-0.45313 -0.34375,-0.14062 -0.75,-0.14062 -0.40625,0 -0.73437,0.10937 -0.3125,0.10938 -0.59375,0.4375 -0.26563,0.3125 -0.42188,0.84375 -0.14062,0.53125 -0.14062,1.32813 0,0.71875 0.125,1.25 0.14062,0.53125 0.39062,0.84375 0.25,0.3125 0.59375,0.45312 0.35938,0.14063 0.79688,0.14063 0.39062,0 0.73437,-0.125 0.34375,-0.14063 0.59375,-0.4375 z m 14.28125,2.25 -2.82812,0 0,-4.35938 q 0,-0.53125 -0.0625,-1.04687 -0.0469,-0.53125 -0.17188,-0.78125 -0.15625,-0.29688 -0.46875,-0.42188 -0.29687,-0.14062 -0.82812,-0.14062 -0.39063,0 -0.78125,0.125 -0.39063,0.125 -0.85938,0.40625 l 0,6.21875 -2.8125,0 0,-8.78125 2.8125,0 0,0.96875 q 0.75,-0.57813 1.4375,-0.89063 0.70313,-0.3125 1.54688,-0.3125 1.42187,0 2.21875,0.82813 0.79687,0.82812 0.79687,2.46875 l 0,5.71875 z m 11.42969,-8.78125 -3.39063,8.78125 -3.1875,0 -3.35937,-8.78125 2.98437,0 2.03125,6.03125 2,-6.03125 2.92188,0 z"
     id="path4951"
     style="fill:#000000;fill-rule:nonzero" />
  <path
     d="m 221.5691,37.623663 -0.0781,0 q -0.32812,-0.0781 -0.64062,-0.10938 -0.29688,-0.0469 -0.71875,-0.0469 -0.6875,0 -1.32813,0.3125 -0.625,0.29687 -1.20312,0.76562 l 0,6.20313 -1.46875,0 0,-8.73438 1.46875,0 0,1.29688 q 0.875,-0.70313 1.53125,-1 0.67187,-0.29688 1.375,-0.29688 0.375,0 0.54687,0.0312 0.17188,0.0156 0.51563,0.0625 l 0,1.51563 z m 8.6875,2.90625 -6.42188,0 q 0,0.8125 0.23438,1.40625 0.25,0.59375 0.67187,0.98437 0.40625,0.375 0.95313,0.5625 0.5625,0.1875 1.23437,0.1875 0.89063,0 1.79688,-0.35937 0.90625,-0.35938 1.28125,-0.70313 l 0.0781,0 0,1.60938 q -0.73437,0.3125 -1.51562,0.53125 -0.76563,0.20312 -1.625,0.20312 -2.17188,0 -3.39063,-1.17187 -1.21875,-1.1875 -1.21875,-3.34375 0,-2.14063 1.17188,-3.39063 1.17187,-1.26562 3.07812,-1.26562 1.76563,0 2.71875,1.03125 0.95313,1.03125 0.95313,2.92187 l 0,0.79688 z m -1.42188,-1.125 q -0.0156,-1.15625 -0.59375,-1.78125 -0.5625,-0.64063 -1.73437,-0.64063 -1.1875,0 -1.89063,0.70313 -0.6875,0.6875 -0.78125,1.71875 l 5,0 z m 5.14063,5.34375 -1.46875,0 0,-12.15625 1.46875,0 0,12.15625 z m 10.14062,0 -1.46875,0 0,-0.96875 q -0.75,0.57812 -1.4375,0.90625 -0.67187,0.3125 -1.48437,0.3125 -1.375,0 -2.14063,-0.84375 -0.76562,-0.84375 -0.76562,-2.46875 l 0,-5.67188 1.46875,0 0,4.96875 q 0,0.67188 0.0625,1.14063 0.0625,0.46875 0.26562,0.8125 0.20313,0.34375 0.53125,0.5 0.34375,0.15625 0.98438,0.15625 0.57812,0 1.25,-0.29688 0.67187,-0.29687 1.26562,-0.76562 l 0,-6.51563 1.46875,0 0,8.73438 z"
     id="path4953"
     style="fill:#000000;fill-rule:nonzero" />
  <path
     d="m 220.7566,112.70555 q 0.28125,0.25 0.46875,0.64062 0.1875,0.375 0.1875,0.98438 0,0.59375 -0.21875,1.09375 -0.21875,0.5 -0.60938,0.85937 -0.4375,0.40625 -1.04687,0.60938 -0.59375,0.20312 -1.29688,0.20312 -0.71875,0 -1.42187,-0.1875 -0.70313,-0.17187 -1.15625,-0.375 l 0,-1.21875 0.0781,0 q 0.5,0.32813 1.17188,0.54688 0.67187,0.21875 1.3125,0.21875 0.35937,0 0.76562,-0.125 0.42188,-0.125 0.6875,-0.35938 0.26563,-0.26562 0.39063,-0.57812 0.14062,-0.3125 0.14062,-0.78125 0,-0.46875 -0.15625,-0.76563 -0.14062,-0.3125 -0.40625,-0.5 -0.26562,-0.17187 -0.64062,-0.23437 -0.375,-0.0781 -0.8125,-0.0781 l -0.51563,0 0,-0.96875 0.40625,0 q 0.89063,0 1.42188,-0.375 0.53125,-0.375 0.53125,-1.09375 0,-0.3125 -0.14063,-0.54687 -0.125,-0.23438 -0.375,-0.39063 -0.25,-0.15625 -0.54687,-0.20312 -0.28125,-0.0625 -0.64063,-0.0625 -0.5625,0 -1.1875,0.20312 -0.625,0.1875 -1.17187,0.5625 l -0.0625,0 0,-1.23437 q 0.40625,-0.20313 1.09375,-0.375 0.70312,-0.17188 1.35937,-0.17188 0.64063,0 1.125,0.125 0.48438,0.10938 0.875,0.35938 0.42188,0.28125 0.64063,0.6875 0.21875,0.39062 0.21875,0.9375 0,0.71875 -0.51563,1.26562 -0.51562,0.53125 -1.20312,0.67188 l 0,0.0937 q 0.28125,0.0469 0.64062,0.20312 0.35938,0.14063 0.60938,0.35938 z m 8.47266,1.76562 q 0,1.14063 -0.89063,1.89063 -0.875,0.75 -2.21875,0.75 -1.42187,0 -2.26562,-0.73438 -0.82813,-0.73437 -0.82813,-1.875 0,-0.73437 0.42188,-1.3125 0.42187,-0.59375 1.1875,-0.9375 l 0,-0.0312 q -0.70313,-0.375 -1.04688,-0.8125 -0.32812,-0.45312 -0.32812,-1.125 0,-0.98437 0.79687,-1.64062 0.8125,-0.65625 2.0625,-0.65625 1.3125,0 2.09375,0.625 0.78125,0.625 0.78125,1.59375 0,0.59375 -0.375,1.17187 -0.375,0.5625 -1.07812,0.89063 l 0,0.0312 q 0.8125,0.34375 1.25,0.85937 0.4375,0.51563 0.4375,1.3125 z m -1.39063,-4.25 q 0,-0.625 -0.48437,-1 -0.48438,-0.375 -1.23438,-0.375 -0.73437,0 -1.21875,0.35938 -0.46875,0.34375 -0.46875,0.9375 0,0.42187 0.23438,0.73437 0.25,0.3125 0.71875,0.54688 0.21875,0.10937 0.625,0.28125 0.40625,0.15625 0.79687,0.28125 0.57813,-0.39063 0.79688,-0.79688 0.23437,-0.42187 0.23437,-0.96875 z m 0.17188,4.35938 q 0,-0.53125 -0.23438,-0.85938 -0.23437,-0.32812 -0.92187,-0.65625 -0.28125,-0.125 -0.60938,-0.23437 -0.32812,-0.10938 -0.875,-0.3125 -0.53125,0.28125 -0.84375,0.78125 -0.3125,0.48437 -0.3125,1.10937 0,0.79688 0.53125,1.3125 0.54688,0.51563 1.39063,0.51563 0.85937,0 1.35937,-0.4375 0.51563,-0.4375 0.51563,-1.21875 z m 8.97265,-0.125 -1.29687,0 0,2.45312 -1.125,0 0,-2.45312 -4.17188,0 0,-1.34375 4.21875,-4.92188 1.07813,0 0,5.32813 1.29687,0 0,0.9375 z m -2.42187,-0.9375 0,-3.9375 -3.375,3.9375 3.375,0 z m 9.7539,3.39062 -1.39062,0 -1.85938,-2.51562 -1.85937,2.51562 -1.28125,0 2.54687,-3.26562 -2.53125,-3.28125 1.39063,0 1.84375,2.46875 1.85937,-2.46875 1.28125,0 -2.57812,3.21875 2.57812,3.32812 z m 6.71094,0 -4.73437,0 0,-0.89062 1.82812,0 0,-5.84375 -1.82812,0 0,-0.79688 q 0.375,0 0.79687,-0.0625 0.42188,-0.0625 0.64063,-0.1875 0.26562,-0.14062 0.42187,-0.35937 0.15625,-0.23438 0.17188,-0.60938 l 0.92187,0 0,7.85938 1.78125,0 0,0.89062 z m 7.34766,-4.20312 q 0.28125,0.25 0.46875,0.64062 0.1875,0.375 0.1875,0.98438 0,0.59375 -0.21875,1.09375 -0.21875,0.5 -0.60938,0.85937 -0.4375,0.40625 -1.04687,0.60938 -0.59375,0.20312 -1.29688,0.20312 -0.71875,0 -1.42187,-0.1875 -0.70313,-0.17187 -1.15625,-0.375 l 0,-1.21875 0.0781,0 q 0.5,0.32813 1.17188,0.54688 0.67187,0.21875 1.3125,0.21875 0.35937,0 0.76562,-0.125 0.42188,-0.125 0.6875,-0.35938 0.26563,-0.26562 0.39063,-0.57812 0.14062,-0.3125 0.14062,-0.78125 0,-0.46875 -0.15625,-0.76563 -0.14062,-0.3125 -0.40625,-0.5 -0.26562,-0.17187 -0.64062,-0.23437 -0.375,-0.0781 -0.8125,-0.0781 l -0.51563,0 0,-0.96875 0.40625,0 q 0.89063,0 1.42188,-0.375 0.53125,-0.375 0.53125,-1.09375 0,-0.3125 -0.14063,-0.54687 -0.125,-0.23438 -0.375,-0.39063 -0.25,-0.15625 -0.54687,-0.20312 -0.28125,-0.0625 -0.64063,-0.0625 -0.5625,0 -1.1875,0.20312 -0.625,0.1875 -1.17187,0.5625 l -0.0625,0 0,-1.23437 q 0.40625,-0.20313 1.09375,-0.375 0.70312,-0.17188 1.35937,-0.17188 0.64063,0 1.125,0.125 0.48438,0.10938 0.875,0.35938 0.42188,0.28125 0.64063,0.6875 0.21875,0.39062 0.21875,0.9375 0,0.71875 -0.51563,1.26562 -0.51562,0.53125 -1.20312,0.67188 l 0,0.0937 q 0.28125,0.0469 0.64062,0.20312 0.35938,0.14063 0.60938,0.35938 z m 8.30078,4.20312 -1.39063,0 -1.85937,-2.51562 -1.85938,2.51562 -1.28125,0 2.54688,-3.26562 -2.53125,-3.28125 1.39062,0 1.84375,2.46875 1.85938,-2.46875 1.28125,0 -2.57813,3.21875 2.57813,3.32812 z"
     id="path4955"
     style="fill:#000000;fill-rule:nonzero" />
  <path
     d="m 221.03784,130.90867 -4.73438,0 0,-0.89063 1.82813,0 0,-5.84375 -1.82813,0 0,-0.79687 q 0.375,0 0.79688,-0.0625 0.42187,-0.0625 0.64062,-0.1875 0.26563,-0.14063 0.42188,-0.35938 0.15625,-0.23437 0.17187,-0.60937 l 0.92188,0 0,7.85937 1.78125,0 0,0.89063 z m 7.34766,-4.20313 q 0.28125,0.25 0.46875,0.64063 0.1875,0.375 0.1875,0.98437 0,0.59375 -0.21875,1.09375 -0.21875,0.5 -0.60938,0.85938 -0.4375,0.40625 -1.04687,0.60937 -0.59375,0.20313 -1.29688,0.20313 -0.71875,0 -1.42187,-0.1875 -0.70313,-0.17188 -1.15625,-0.375 l 0,-1.21875 0.0781,0 q 0.5,0.32812 1.17188,0.54687 0.67187,0.21875 1.3125,0.21875 0.35937,0 0.76562,-0.125 0.42188,-0.125 0.6875,-0.35937 0.26563,-0.26563 0.39063,-0.57813 0.14062,-0.3125 0.14062,-0.78125 0,-0.46875 -0.15625,-0.76562 -0.14062,-0.3125 -0.40625,-0.5 -0.26562,-0.17188 -0.64062,-0.23438 -0.375,-0.0781 -0.8125,-0.0781 l -0.51563,0 0,-0.96875 0.40625,0 q 0.89063,0 1.42188,-0.375 0.53125,-0.375 0.53125,-1.09375 0,-0.3125 -0.14063,-0.54688 -0.125,-0.23437 -0.375,-0.39062 -0.25,-0.15625 -0.54687,-0.20313 -0.28125,-0.0625 -0.64063,-0.0625 -0.5625,0 -1.1875,0.20313 -0.625,0.1875 -1.17187,0.5625 l -0.0625,0 0,-1.23438 q 0.40625,-0.20312 1.09375,-0.375 0.70312,-0.17187 1.35937,-0.17187 0.64063,0 1.125,0.125 0.48438,0.10937 0.875,0.35937 0.42188,0.28125 0.64063,0.6875 0.21875,0.39063 0.21875,0.9375 0,0.71875 -0.51563,1.26563 -0.51562,0.53125 -1.20312,0.67187 l 0,0.0937 q 0.28125,0.0469 0.64062,0.20313 0.35938,0.14062 0.60938,0.35937 z"
     id="path4957"
     style="fill:#000000;fill-rule:nonzero" />
  <path
     d="m 287.83464,1.3886626 77.48032,0 0,141.4487974 -77.48032,0 z"
     id="path4959"
     style="fill:#000000;fill-opacity:0;fill-rule:nonzero" />
  <path
     d="m 287.83464,1.3886626 77.48032,0 0,141.4487974 -77.48032,0 z"
     id="path4961"
     style="stroke:#f6a800;stroke-width:2;stroke-linecap:butt;stroke-linejoin:round" />
  <path
     d="m 302.74088,25.983043 q -1.15625,0 -2.10938,-0.26562 -0.9375,-0.28125 -1.64062,-0.85938 -0.70313,-0.5625 -1.09375,-1.42187 -0.375,-0.875 -0.375,-2.04688 0,-1.21875 0.40625,-2.10937 0.42187,-0.89063 1.15625,-1.48438 0.70312,-0.54687 1.625,-0.79687 0.9375,-0.26563 1.9375,-0.26563 0.90625,0 1.65625,0.20313 0.76562,0.1875 1.42187,0.5 l 0,2.39062 -0.40625,0 q -0.15625,-0.14062 -0.39062,-0.32812 -0.23438,-0.1875 -0.5625,-0.35938 -0.32813,-0.17187 -0.71875,-0.28125 -0.375,-0.125 -0.875,-0.125 -1.125,0 -1.73438,0.71875 -0.60937,0.71875 -0.60937,1.9375 0,1.26563 0.625,1.92188 0.625,0.65625 1.76562,0.65625 0.53125,0 0.95313,-0.10938 0.42187,-0.125 0.70312,-0.29687 0.26563,-0.15625 0.46875,-0.32813 0.20313,-0.17187 0.375,-0.32812 l 0.40625,0 0,2.39062 q -0.67187,0.3125 -1.39062,0.5 -0.71875,0.1875 -1.59375,0.1875 z m 13.80469,-4.625 q 0,2.17188 -1.26563,3.42188 -1.25,1.25 -3.53125,1.25 -2.28125,0 -3.54687,-1.25 -1.26563,-1.25 -1.26563,-3.42188 0,-2.17187 1.26563,-3.40625 1.28125,-1.25 3.54687,-1.25 2.29688,0 3.54688,1.25 1.25,1.25 1.25,3.40625 z m -3.45313,2.14063 q 0.26563,-0.34375 0.40625,-0.8125 0.14063,-0.46875 0.14063,-1.3125 0,-0.76563 -0.14063,-1.28125 -0.14062,-0.53125 -0.39062,-0.84375 -0.25,-0.32813 -0.60938,-0.45313 -0.34375,-0.14062 -0.75,-0.14062 -0.40625,0 -0.73437,0.10937 -0.3125,0.10938 -0.59375,0.4375 -0.26563,0.3125 -0.42188,0.84375 -0.14062,0.53125 -0.14062,1.32813 0,0.71875 0.125,1.25 0.14062,0.53125 0.39062,0.84375 0.25,0.3125 0.59375,0.45312 0.35938,0.14063 0.79688,0.14063 0.39062,0 0.73437,-0.125 0.34375,-0.14063 0.59375,-0.4375 z m 14.28125,2.25 -2.82812,0 0,-4.35938 q 0,-0.53125 -0.0625,-1.04687 -0.0469,-0.53125 -0.17188,-0.78125 -0.15625,-0.29688 -0.46875,-0.42188 -0.29687,-0.14062 -0.82812,-0.14062 -0.39063,0 -0.78125,0.125 -0.39063,0.125 -0.85938,0.40625 l 0,6.21875 -2.8125,0 0,-8.78125 2.8125,0 0,0.96875 q 0.75,-0.57813 1.4375,-0.89063 0.70313,-0.3125 1.54688,-0.3125 1.42187,0 2.21875,0.82813 0.79687,0.82812 0.79687,2.46875 l 0,5.71875 z m 11.42969,-8.78125 -3.39063,8.78125 -3.1875,0 -3.35937,-8.78125 2.98437,0 2.03125,6.03125 2,-6.03125 2.92188,0 z"
     id="path4963"
     style="fill:#000000;fill-rule:nonzero" />
  <path
     d="m 303.72524,37.623663 -0.0781,0 q -0.32813,-0.0781 -0.64063,-0.10938 -0.29687,-0.0469 -0.71875,-0.0469 -0.6875,0 -1.32812,0.3125 -0.625,0.29687 -1.20313,0.76562 l 0,6.20313 -1.46875,0 0,-8.73438 1.46875,0 0,1.29688 q 0.875,-0.70313 1.53125,-1 0.67188,-0.29688 1.375,-0.29688 0.375,0 0.54688,0.0312 0.17187,0.0156 0.51562,0.0625 l 0,1.51563 z m 8.6875,2.90625 -6.42187,0 q 0,0.8125 0.23437,1.40625 0.25,0.59375 0.67188,0.98437 0.40625,0.375 0.95312,0.5625 0.5625,0.1875 1.23438,0.1875 0.89062,0 1.79687,-0.35937 0.90625,-0.35938 1.28125,-0.70313 l 0.0781,0 0,1.60938 q -0.73438,0.3125 -1.51563,0.53125 -0.76562,0.20312 -1.625,0.20312 -2.17187,0 -3.39062,-1.17187 -1.21875,-1.1875 -1.21875,-3.34375 0,-2.14063 1.17187,-3.39063 1.17188,-1.26562 3.07813,-1.26562 1.76562,0 2.71875,1.03125 0.95312,1.03125 0.95312,2.92187 l 0,0.79688 z m -1.42187,-1.125 q -0.0156,-1.15625 -0.59375,-1.78125 -0.5625,-0.64063 -1.73438,-0.64063 -1.1875,0 -1.89062,0.70313 -0.6875,0.6875 -0.78125,1.71875 l 5,0 z m 5.14062,5.34375 -1.46875,0 0,-12.15625 1.46875,0 0,12.15625 z m 10.14063,0 -1.46875,0 0,-0.96875 q -0.75,0.57812 -1.4375,0.90625 -0.67188,0.3125 -1.48438,0.3125 -1.375,0 -2.14062,-0.84375 -0.76563,-0.84375 -0.76563,-2.46875 l 0,-5.67188 1.46875,0 0,4.96875 q 0,0.67188 0.0625,1.14063 0.0625,0.46875 0.26563,0.8125 0.20312,0.34375 0.53125,0.5 0.34375,0.15625 0.98437,0.15625 0.57813,0 1.25,-0.29688 0.67188,-0.29687 1.26563,-0.76562 l 0,-6.51563 1.46875,0 0,8.73438 z"
     id="path4965"
     style="fill:#000000;fill-rule:nonzero" />
  <path
     d="m 302.91274,112.70555 q 0.28125,0.25 0.46875,0.64062 0.1875,0.375 0.1875,0.98438 0,0.59375 -0.21875,1.09375 -0.21875,0.5 -0.60937,0.85937 -0.4375,0.40625 -1.04688,0.60938 -0.59375,0.20312 -1.29687,0.20312 -0.71875,0 -1.42188,-0.1875 -0.70312,-0.17187 -1.15625,-0.375 l 0,-1.21875 0.0781,0 q 0.5,0.32813 1.17187,0.54688 0.67188,0.21875 1.3125,0.21875 0.35938,0 0.76563,-0.125 0.42187,-0.125 0.6875,-0.35938 0.26562,-0.26562 0.39062,-0.57812 0.14063,-0.3125 0.14063,-0.78125 0,-0.46875 -0.15625,-0.76563 -0.14063,-0.3125 -0.40625,-0.5 -0.26563,-0.17187 -0.64063,-0.23437 -0.375,-0.0781 -0.8125,-0.0781 l -0.51562,0 0,-0.96875 0.40625,0 q 0.89062,0 1.42187,-0.375 0.53125,-0.375 0.53125,-1.09375 0,-0.3125 -0.14062,-0.54687 -0.125,-0.23438 -0.375,-0.39063 -0.25,-0.15625 -0.54688,-0.20312 -0.28125,-0.0625 -0.64062,-0.0625 -0.5625,0 -1.1875,0.20312 -0.625,0.1875 -1.17188,0.5625 l -0.0625,0 0,-1.23437 q 0.40625,-0.20313 1.09375,-0.375 0.70313,-0.17188 1.35938,-0.17188 0.64062,0 1.125,0.125 0.48437,0.10938 0.875,0.35938 0.42187,0.28125 0.64062,0.6875 0.21875,0.39062 0.21875,0.9375 0,0.71875 -0.51562,1.26562 -0.51563,0.53125 -1.20313,0.67188 l 0,0.0937 q 0.28125,0.0469 0.64063,0.20312 0.35937,0.14063 0.60937,0.35938 z m 8.47266,1.76562 q 0,1.14063 -0.89063,1.89063 -0.875,0.75 -2.21875,0.75 -1.42187,0 -2.26562,-0.73438 -0.82813,-0.73437 -0.82813,-1.875 0,-0.73437 0.42188,-1.3125 0.42187,-0.59375 1.1875,-0.9375 l 0,-0.0312 q -0.70313,-0.375 -1.04688,-0.8125 -0.32812,-0.45312 -0.32812,-1.125 0,-0.98437 0.79687,-1.64062 0.8125,-0.65625 2.0625,-0.65625 1.3125,0 2.09375,0.625 0.78125,0.625 0.78125,1.59375 0,0.59375 -0.375,1.17187 -0.375,0.5625 -1.07812,0.89063 l 0,0.0312 q 0.8125,0.34375 1.25,0.85937 0.4375,0.51563 0.4375,1.3125 z m -1.39063,-4.25 q 0,-0.625 -0.48437,-1 -0.48438,-0.375 -1.23438,-0.375 -0.73437,0 -1.21875,0.35938 -0.46875,0.34375 -0.46875,0.9375 0,0.42187 0.23438,0.73437 0.25,0.3125 0.71875,0.54688 0.21875,0.10937 0.625,0.28125 0.40625,0.15625 0.79687,0.28125 0.57813,-0.39063 0.79688,-0.79688 0.23437,-0.42187 0.23437,-0.96875 z m 0.17188,4.35938 q 0,-0.53125 -0.23438,-0.85938 -0.23437,-0.32812 -0.92187,-0.65625 -0.28125,-0.125 -0.60938,-0.23437 -0.32812,-0.10938 -0.875,-0.3125 -0.53125,0.28125 -0.84375,0.78125 -0.3125,0.48437 -0.3125,1.10937 0,0.79688 0.53125,1.3125 0.54688,0.51563 1.39063,0.51563 0.85937,0 1.35937,-0.4375 0.51563,-0.4375 0.51563,-1.21875 z m 8.97265,-0.125 -1.29687,0 0,2.45312 -1.125,0 0,-2.45312 -4.17188,0 0,-1.34375 4.21875,-4.92188 1.07813,0 0,5.32813 1.29687,0 0,0.9375 z m -2.42187,-0.9375 0,-3.9375 -3.375,3.9375 3.375,0 z m 9.7539,3.39062 -1.39062,0 -1.85938,-2.51562 -1.85937,2.51562 -1.28125,0 2.54687,-3.26562 -2.53125,-3.28125 1.39063,0 1.84375,2.46875 1.85937,-2.46875 1.28125,0 -2.57812,3.21875 2.57812,3.32812 z m 6.71094,0 -4.73437,0 0,-0.89062 1.82812,0 0,-5.84375 -1.82812,0 0,-0.79688 q 0.375,0 0.79687,-0.0625 0.42188,-0.0625 0.64063,-0.1875 0.26562,-0.14062 0.42187,-0.35937 0.15625,-0.23438 0.17188,-0.60938 l 0.92187,0 0,7.85938 1.78125,0 0,0.89062 z m 7.34766,-4.20312 q 0.28125,0.25 0.46875,0.64062 0.1875,0.375 0.1875,0.98438 0,0.59375 -0.21875,1.09375 -0.21875,0.5 -0.60938,0.85937 -0.4375,0.40625 -1.04687,0.60938 -0.59375,0.20312 -1.29688,0.20312 -0.71875,0 -1.42187,-0.1875 -0.70313,-0.17187 -1.15625,-0.375 l 0,-1.21875 0.0781,0 q 0.5,0.32813 1.17188,0.54688 0.67187,0.21875 1.3125,0.21875 0.35937,0 0.76562,-0.125 0.42188,-0.125 0.6875,-0.35938 0.26563,-0.26562 0.39063,-0.57812 0.14062,-0.3125 0.14062,-0.78125 0,-0.46875 -0.15625,-0.76563 -0.14062,-0.3125 -0.40625,-0.5 -0.26562,-0.17187 -0.64062,-0.23437 -0.375,-0.0781 -0.8125,-0.0781 l -0.51563,0 0,-0.96875 0.40625,0 q 0.89063,0 1.42188,-0.375 0.53125,-0.375 0.53125,-1.09375 0,-0.3125 -0.14063,-0.54687 -0.125,-0.23438 -0.375,-0.39063 -0.25,-0.15625 -0.54687,-0.20312 -0.28125,-0.0625 -0.64063,-0.0625 -0.5625,0 -1.1875,0.20312 -0.625,0.1875 -1.17187,0.5625 l -0.0625,0 0,-1.23437 q 0.40625,-0.20313 1.09375,-0.375 0.70312,-0.17188 1.35937,-0.17188 0.64063,0 1.125,0.125 0.48438,0.10938 0.875,0.35938 0.42188,0.28125 0.64063,0.6875 0.21875,0.39062 0.21875,0.9375 0,0.71875 -0.51563,1.26562 -0.51562,0.53125 -1.20312,0.67188 l 0,0.0937 q 0.28125,0.0469 0.64062,0.20312 0.35938,0.14063 0.60938,0.35938 z m 8.30078,4.20312 -1.39063,0 -1.85937,-2.51562 -1.85938,2.51562 -1.28125,0 2.54688,-3.26562 -2.53125,-3.28125 1.39062,0 1.84375,2.46875 1.85938,-2.46875 1.28125,0 -2.57813,3.21875 2.57813,3.32812 z"
     id="path4967"
     style="fill:#000000;fill-rule:nonzero" />
  <path
     d="m 303.194,130.90867 -4.73438,0 0,-0.89063 1.82813,0 0,-5.84375 -1.82813,0 0,-0.79687 q 0.375,0 0.79688,-0.0625 0.42187,-0.0625 0.64062,-0.1875 0.26563,-0.14063 0.42188,-0.35938 0.15625,-0.23437 0.17187,-0.60937 l 0.92188,0 0,7.85937 1.78125,0 0,0.89063 z m 7.34766,-4.20313 q 0.28125,0.25 0.46875,0.64063 0.1875,0.375 0.1875,0.98437 0,0.59375 -0.21875,1.09375 -0.21875,0.5 -0.60938,0.85938 -0.4375,0.40625 -1.04687,0.60937 -0.59375,0.20313 -1.29688,0.20313 -0.71875,0 -1.42187,-0.1875 -0.70313,-0.17188 -1.15625,-0.375 l 0,-1.21875 0.0781,0 q 0.5,0.32812 1.17188,0.54687 0.67187,0.21875 1.3125,0.21875 0.35937,0 0.76562,-0.125 0.42188,-0.125 0.6875,-0.35937 0.26563,-0.26563 0.39063,-0.57813 0.14062,-0.3125 0.14062,-0.78125 0,-0.46875 -0.15625,-0.76562 -0.14062,-0.3125 -0.40625,-0.5 -0.26562,-0.17188 -0.64062,-0.23438 -0.375,-0.0781 -0.8125,-0.0781 l -0.51563,0 0,-0.96875 0.40625,0 q 0.89063,0 1.42188,-0.375 0.53125,-0.375 0.53125,-1.09375 0,-0.3125 -0.14063,-0.54688 -0.125,-0.23437 -0.375,-0.39062 -0.25,-0.15625 -0.54687,-0.20313 -0.28125,-0.0625 -0.64063,-0.0625 -0.5625,0 -1.1875,0.20313 -0.625,0.1875 -1.17187,0.5625 l -0.0625,0 0,-1.23438 q 0.40625,-0.20312 1.09375,-0.375 0.70312,-0.17187 1.35937,-0.17187 0.64063,0 1.125,0.125 0.48438,0.10937 0.875,0.35937 0.42188,0.28125 0.64063,0.6875 0.21875,0.39063 0.21875,0.9375 0,0.71875 -0.51563,1.26563 -0.51562,0.53125 -1.20312,0.67187 l 0,0.0937 q 0.28125,0.0469 0.64062,0.20313 0.35938,0.14062 0.60938,0.35937 z"
     id="path4969"
     style="fill:#000000;fill-rule:nonzero" />
  <path
     d="m 369.98899,1.3886626 77.48032,0 0,141.4487974 -77.48032,0 z"
     id="path4971"
     style="fill:#000000;fill-opacity:0;fill-rule:nonzero" />
  <path
     d="m 369.98899,1.3886626 77.48032,0 0,141.4487974 -77.48032,0 z"
     id="path4973"
     style="stroke:#f6a800;stroke-width:2;stroke-linecap:butt;stroke-linejoin:round" />
  <path
     d="m 384.89524,25.983043 q -1.15625,0 -2.10938,-0.26562 -0.9375,-0.28125 -1.64062,-0.85938 -0.70313,-0.5625 -1.09375,-1.42187 -0.375,-0.875 -0.375,-2.04688 0,-1.21875 0.40625,-2.10937 0.42187,-0.89063 1.15625,-1.48438 0.70312,-0.54687 1.625,-0.79687 0.9375,-0.26563 1.9375,-0.26563 0.90625,0 1.65625,0.20313 0.76562,0.1875 1.42187,0.5 l 0,2.39062 -0.40625,0 q -0.15625,-0.14062 -0.39062,-0.32812 -0.23438,-0.1875 -0.5625,-0.35938 -0.32813,-0.17187 -0.71875,-0.28125 -0.375,-0.125 -0.875,-0.125 -1.125,0 -1.73438,0.71875 -0.60937,0.71875 -0.60937,1.9375 0,1.26563 0.625,1.92188 0.625,0.65625 1.76562,0.65625 0.53125,0 0.95313,-0.10938 0.42187,-0.125 0.70312,-0.29687 0.26563,-0.15625 0.46875,-0.32813 0.20313,-0.17187 0.375,-0.32812 l 0.40625,0 0,2.39062 q -0.67187,0.3125 -1.39062,0.5 -0.71875,0.1875 -1.59375,0.1875 z m 13.80469,-4.625 q 0,2.17188 -1.26563,3.42188 -1.25,1.25 -3.53125,1.25 -2.28125,0 -3.54687,-1.25 -1.26563,-1.25 -1.26563,-3.42188 0,-2.17187 1.26563,-3.40625 1.28125,-1.25 3.54687,-1.25 2.29688,0 3.54688,1.25 1.25,1.25 1.25,3.40625 z m -3.45313,2.14063 q 0.26563,-0.34375 0.40625,-0.8125 0.14063,-0.46875 0.14063,-1.3125 0,-0.76563 -0.14063,-1.28125 -0.14062,-0.53125 -0.39062,-0.84375 -0.25,-0.32813 -0.60938,-0.45313 -0.34375,-0.14062 -0.75,-0.14062 -0.40625,0 -0.73437,0.10937 -0.3125,0.10938 -0.59375,0.4375 -0.26563,0.3125 -0.42188,0.84375 -0.14062,0.53125 -0.14062,1.32813 0,0.71875 0.125,1.25 0.14062,0.53125 0.39062,0.84375 0.25,0.3125 0.59375,0.45312 0.35938,0.14063 0.79688,0.14063 0.39062,0 0.73437,-0.125 0.34375,-0.14063 0.59375,-0.4375 z m 14.28125,2.25 -2.82812,0 0,-4.35938 q 0,-0.53125 -0.0625,-1.04687 -0.0469,-0.53125 -0.17188,-0.78125 -0.15625,-0.29688 -0.46875,-0.42188 -0.29687,-0.14062 -0.82812,-0.14062 -0.39063,0 -0.78125,0.125 -0.39063,0.125 -0.85938,0.40625 l 0,6.21875 -2.8125,0 0,-8.78125 2.8125,0 0,0.96875 q 0.75,-0.57813 1.4375,-0.89063 0.70313,-0.3125 1.54688,-0.3125 1.42187,0 2.21875,0.82813 0.79687,0.82812 0.79687,2.46875 l 0,5.71875 z m 11.42969,-8.78125 -3.39063,8.78125 -3.1875,0 -3.35937,-8.78125 2.98437,0 2.03125,6.03125 2,-6.03125 2.92188,0 z"
     id="path4975"
     style="fill:#000000;fill-rule:nonzero" />
  <path
     d="m 385.87961,37.623663 -0.0781,0 q -0.32812,-0.0781 -0.64062,-0.10938 -0.29688,-0.0469 -0.71875,-0.0469 -0.6875,0 -1.32813,0.3125 -0.625,0.29687 -1.20312,0.76562 l 0,6.20313 -1.46875,0 0,-8.73438 1.46875,0 0,1.29688 q 0.875,-0.70313 1.53125,-1 0.67187,-0.29688 1.375,-0.29688 0.375,0 0.54687,0.0312 0.17188,0.0156 0.51563,0.0625 l 0,1.51563 z m 8.6875,2.90625 -6.42188,0 q 0,0.8125 0.23438,1.40625 0.25,0.59375 0.67187,0.98437 0.40625,0.375 0.95313,0.5625 0.5625,0.1875 1.23437,0.1875 0.89063,0 1.79688,-0.35937 0.90625,-0.35938 1.28125,-0.70313 l 0.0781,0 0,1.60938 q -0.73437,0.3125 -1.51562,0.53125 -0.76563,0.20312 -1.625,0.20312 -2.17188,0 -3.39063,-1.17187 -1.21875,-1.1875 -1.21875,-3.34375 0,-2.14063 1.17188,-3.39063 1.17187,-1.26562 3.07812,-1.26562 1.76563,0 2.71875,1.03125 0.95313,1.03125 0.95313,2.92187 l 0,0.79688 z m -1.42188,-1.125 q -0.0156,-1.15625 -0.59375,-1.78125 -0.5625,-0.64063 -1.73437,-0.64063 -1.1875,0 -1.89063,0.70313 -0.6875,0.6875 -0.78125,1.71875 l 5,0 z m 5.14063,5.34375 -1.46875,0 0,-12.15625 1.46875,0 0,12.15625 z m 10.14062,0 -1.46875,0 0,-0.96875 q -0.75,0.57812 -1.4375,0.90625 -0.67187,0.3125 -1.48437,0.3125 -1.375,0 -2.14063,-0.84375 -0.76562,-0.84375 -0.76562,-2.46875 l 0,-5.67188 1.46875,0 0,4.96875 q 0,0.67188 0.0625,1.14063 0.0625,0.46875 0.26562,0.8125 0.20313,0.34375 0.53125,0.5 0.34375,0.15625 0.98438,0.15625 0.57812,0 1.25,-0.29688 0.67187,-0.29687 1.26562,-0.76562 l 0,-6.51563 1.46875,0 0,8.73438 z"
     id="path4977"
     style="fill:#000000;fill-rule:nonzero" />
  <path
     d="m 388.11399,59.279913 q 0,1.0625 -0.3125,1.9375 -0.29688,0.875 -0.84375,1.48437 -0.51563,0.57813 -1.21875,0.90625 -0.70313,0.3125 -1.48438,0.3125 -0.67187,0 -1.23437,-0.15625 -0.54688,-0.14062 -1.10938,-0.45312 l 0,3.65625 -1.46875,0 0,-11.95313 1.46875,0 0,0.92188 q 0.57813,-0.5 1.3125,-0.82813 0.73438,-0.32812 1.5625,-0.32812 1.57813,0 2.45313,1.1875 0.875,1.1875 0.875,3.3125 z m -1.51563,0.0312 q 0,-1.57813 -0.54687,-2.35938 -0.53125,-0.78125 -1.64063,-0.78125 -0.64062,0 -1.28125,0.28125 -0.64062,0.26563 -1.21875,0.71875 l 0,4.9375 q 0.625,0.28125 1.0625,0.39063 0.45313,0.0937 1.03125,0.0937 1.21875,0 1.90625,-0.82813 0.6875,-0.82812 0.6875,-2.45312 z m 11.25,0.0781 q 0,2.125 -1.09375,3.375 -1.09375,1.23438 -2.9375,1.23438 -1.84375,0 -2.9375,-1.23438 -1.09375,-1.25 -1.09375,-3.375 0,-2.14062 1.09375,-3.375 1.09375,-1.23437 2.9375,-1.23437 1.84375,0 2.9375,1.23437 1.09375,1.23438 1.09375,3.375 z m -1.51562,0 q 0,-1.70312 -0.67188,-2.51562 -0.65625,-0.82813 -1.84375,-0.82813 -1.1875,0 -1.85937,0.82813 -0.65625,0.8125 -0.65625,2.51562 0,1.64063 0.65625,2.48438 0.67187,0.84375 1.85937,0.84375 1.17188,0 1.84375,-0.82813 0.67188,-0.84375 0.67188,-2.5 z m 11.22656,0 q 0,2.125 -1.09375,3.375 -1.09375,1.23438 -2.9375,1.23438 -1.84375,0 -2.9375,-1.23438 -1.09375,-1.25 -1.09375,-3.375 0,-2.14062 1.09375,-3.375 1.09375,-1.23437 2.9375,-1.23437 1.84375,0 2.9375,1.23437 1.09375,1.23438 1.09375,3.375 z m -1.51562,0 q 0,-1.70312 -0.67188,-2.51562 -0.65625,-0.82813 -1.84375,-0.82813 -1.1875,0 -1.85937,0.82813 -0.65625,0.8125 -0.65625,2.51562 0,1.64063 0.65625,2.48438 0.67187,0.84375 1.85937,0.84375 1.17188,0 1.84375,-0.82813 0.67188,-0.84375 0.67188,-2.5 z m 5.27343,4.35938 -1.46875,0 0,-12.15625 1.46875,0 0,12.15625 z"
     id="path4979"
     style="fill:#000000;fill-rule:nonzero" />
  <path
     d="m 385.83274,116.90867 -5.90625,0 0,-1.21875 q 0.625,-0.53125 1.23437,-1.0625 0.625,-0.53125 1.15625,-1.04688 1.125,-1.09375 1.53125,-1.73437 0.42188,-0.64063 0.42188,-1.39063 0,-0.67187 -0.45313,-1.04687 -0.4375,-0.39063 -1.23437,-0.39063 -0.54688,0 -1.17188,0.1875 -0.60937,0.1875 -1.20312,0.57813 l -0.0625,0 0,-1.23438 q 0.42187,-0.20312 1.10937,-0.375 0.70313,-0.17187 1.34375,-0.17187 1.34375,0 2.10938,0.65625 0.76562,0.64062 0.76562,1.75 0,0.5 -0.125,0.9375 -0.125,0.42187 -0.375,0.79687 -0.23437,0.375 -0.54687,0.73438 -0.29688,0.34375 -0.73438,0.76562 -0.625,0.60938 -1.29687,1.1875 -0.67188,0.57813 -1.25,1.07813 l 4.6875,0 0,1 z m 7.56641,-2.76563 q 0,0.60938 -0.23438,1.17188 -0.21875,0.54687 -0.59375,0.92187 -0.42187,0.40625 -1.01562,0.64063 -0.57813,0.21875 -1.34375,0.21875 -0.71875,0 -1.39063,-0.15625 -0.65625,-0.15625 -1.10937,-0.35938 l 0,-1.23437 0.0781,0 q 0.48438,0.29687 1.125,0.51562 0.65625,0.21875 1.26563,0.21875 0.42187,0 0.8125,-0.10937 0.39062,-0.125 0.6875,-0.42188 0.26562,-0.25 0.39062,-0.59375 0.14063,-0.35937 0.14063,-0.82812 0,-0.45313 -0.15625,-0.75 -0.15625,-0.3125 -0.4375,-0.5 -0.29688,-0.23438 -0.73438,-0.3125 -0.4375,-0.0937 -0.98437,-0.0937 -0.51563,0 -1,0.0781 -0.46875,0.0625 -0.8125,0.125 l 0,-4.48437 5.25,0 0,1.01562 -4.10938,0 0,2.32813 q 0.25,-0.0312 0.5,-0.0312 0.26563,-0.0156 0.46875,-0.0156 0.70313,0 1.23438,0.125 0.53125,0.10938 0.98437,0.42188 0.46875,0.3125 0.71875,0.82812 0.26563,0.5 0.26563,1.28125 z m 7.83203,-0.0625 q 0,1.32813 -0.875,2.17188 -0.875,0.84375 -2.15625,0.84375 -0.64063,0 -1.17188,-0.20313 -0.53125,-0.20312 -0.92187,-0.59375 -0.51563,-0.48437 -0.79688,-1.28125 -0.26562,-0.8125 -0.26562,-1.9375 0,-1.17187 0.25,-2.0625 0.25,-0.89062 0.79687,-1.59375 0.51563,-0.65625 1.32813,-1.03125 0.8125,-0.375 1.90625,-0.375 0.34375,0 0.57812,0.0312 0.23438,0.0312 0.46875,0.10938 l 0,1.10937 -0.0469,0 q -0.17188,-0.0781 -0.5,-0.15625 -0.32813,-0.0781 -0.67188,-0.0781 -1.26562,0 -2.01562,0.78125 -0.75,0.78125 -0.875,2.125 0.5,-0.29688 0.96875,-0.45313 0.48437,-0.15625 1.10937,-0.15625 0.54688,0 0.96875,0.10938 0.4375,0.0937 0.875,0.40625 0.51563,0.35937 0.78125,0.90625 0.26563,0.54687 0.26563,1.32812 z m -1.1875,0.0469 q 0,-0.54688 -0.17188,-0.90625 -0.15625,-0.35938 -0.53125,-0.625 -0.26562,-0.1875 -0.59375,-0.23438 -0.32812,-0.0625 -0.6875,-0.0625 -0.5,0 -0.92187,0.125 -0.42188,0.10938 -0.875,0.35938 -0.0156,0.125 -0.0312,0.25 0,0.10937 0,0.29687 0,0.92188 0.1875,1.46875 0.20312,0.53125 0.53125,0.84375 0.26562,0.25 0.57812,0.375 0.3125,0.10938 0.6875,0.10938 0.84375,0 1.32813,-0.51563 0.5,-0.51562 0.5,-1.48437 z m 8.58203,2.78125 -1.39063,0 -1.85937,-2.51563 -1.85938,2.51563 -1.28125,0 2.54688,-3.26563 -2.53125,-3.28125 1.39062,0 1.84375,2.46875 1.85938,-2.46875 1.28125,0 -2.57813,3.21875 2.57813,3.32813 z m 6.71094,0 -4.73438,0 0,-0.89063 1.82813,0 0,-5.84375 -1.82813,0 0,-0.79687 q 0.375,0 0.79688,-0.0625 0.42187,-0.0625 0.64062,-0.1875 0.26563,-0.14063 0.42188,-0.35938 0.15625,-0.23437 0.17187,-0.60937 l 0.92188,0 0,7.85937 1.78125,0 0,0.89063 z m 7.34765,-4.20313 q 0.28125,0.25 0.46875,0.64063 0.1875,0.375 0.1875,0.98437 0,0.59375 -0.21875,1.09375 -0.21875,0.5 -0.60937,0.85938 -0.4375,0.40625 -1.04688,0.60937 -0.59375,0.20313 -1.29687,0.20313 -0.71875,0 -1.42188,-0.1875 -0.70312,-0.17188 -1.15625,-0.375 l 0,-1.21875 0.0781,0 q 0.5,0.32812 1.17187,0.54687 0.67188,0.21875 1.3125,0.21875 0.35938,0 0.76563,-0.125 0.42187,-0.125 0.6875,-0.35937 0.26562,-0.26563 0.39062,-0.57813 0.14063,-0.3125 0.14063,-0.78125 0,-0.46875 -0.15625,-0.76562 -0.14063,-0.3125 -0.40625,-0.5 -0.26563,-0.17188 -0.64063,-0.23438 -0.375,-0.0781 -0.8125,-0.0781 l -0.51562,0 0,-0.96875 0.40625,0 q 0.89062,0 1.42187,-0.375 0.53125,-0.375 0.53125,-1.09375 0,-0.3125 -0.14062,-0.54688 -0.125,-0.23437 -0.375,-0.39062 -0.25,-0.15625 -0.54688,-0.20313 -0.28125,-0.0625 -0.64062,-0.0625 -0.5625,0 -1.1875,0.20313 -0.625,0.1875 -1.17188,0.5625 l -0.0625,0 0,-1.23438 q 0.40625,-0.20312 1.09375,-0.375 0.70313,-0.17187 1.35938,-0.17187 0.64062,0 1.125,0.125 0.48437,0.10937 0.875,0.35937 0.42187,0.28125 0.64062,0.6875 0.21875,0.39063 0.21875,0.9375 0,0.71875 -0.51562,1.26563 -0.51563,0.53125 -1.20313,0.67187 l 0,0.0937 q 0.28125,0.0469 0.64063,0.20313 0.35937,0.14062 0.60937,0.35937 z m 8.30078,4.20313 -1.39062,0 -1.85938,-2.51563 -1.85937,2.51563 -1.28125,0 2.54687,-3.26563 -2.53125,-3.28125 1.39063,0 1.84375,2.46875 1.85937,-2.46875 1.28125,0 -2.57812,3.21875 2.57812,3.32813 z"
     id="path4981"
     style="fill:#000000;fill-rule:nonzero" />
  <path
     d="m 385.34836,130.90867 -4.73438,0 0,-0.89063 1.82813,0 0,-5.84375 -1.82813,0 0,-0.79687 q 0.375,0 0.79688,-0.0625 0.42187,-0.0625 0.64062,-0.1875 0.26563,-0.14063 0.42188,-0.35938 0.15625,-0.23437 0.17187,-0.60937 l 0.92188,0 0,7.85937 1.78125,0 0,0.89063 z m 7.34766,-4.20313 q 0.28125,0.25 0.46875,0.64063 0.1875,0.375 0.1875,0.98437 0,0.59375 -0.21875,1.09375 -0.21875,0.5 -0.60938,0.85938 -0.4375,0.40625 -1.04687,0.60937 -0.59375,0.20313 -1.29688,0.20313 -0.71875,0 -1.42187,-0.1875 -0.70313,-0.17188 -1.15625,-0.375 l 0,-1.21875 0.0781,0 q 0.5,0.32812 1.17188,0.54687 0.67187,0.21875 1.3125,0.21875 0.35937,0 0.76562,-0.125 0.42188,-0.125 0.6875,-0.35937 0.26563,-0.26563 0.39063,-0.57813 0.14062,-0.3125 0.14062,-0.78125 0,-0.46875 -0.15625,-0.76562 -0.14062,-0.3125 -0.40625,-0.5 -0.26562,-0.17188 -0.64062,-0.23438 -0.375,-0.0781 -0.8125,-0.0781 l -0.51563,0 0,-0.96875 0.40625,0 q 0.89063,0 1.42188,-0.375 0.53125,-0.375 0.53125,-1.09375 0,-0.3125 -0.14063,-0.54688 -0.125,-0.23437 -0.375,-0.39062 -0.25,-0.15625 -0.54687,-0.20313 -0.28125,-0.0625 -0.64063,-0.0625 -0.5625,0 -1.1875,0.20313 -0.625,0.1875 -1.17187,0.5625 l -0.0625,0 0,-1.23438 q 0.40625,-0.20312 1.09375,-0.375 0.70312,-0.17187 1.35937,-0.17187 0.64063,0 1.125,0.125 0.48438,0.10937 0.875,0.35937 0.42188,0.28125 0.64063,0.6875 0.21875,0.39063 0.21875,0.9375 0,0.71875 -0.51563,1.26563 -0.51562,0.53125 -1.20312,0.67187 l 0,0.0937 q 0.28125,0.0469 0.64062,0.20313 0.35938,0.14062 0.60938,0.35937 z"
     id="path4983"
     style="fill:#000000;fill-rule:nonzero" />
  <path
     d="m 452.14384,1.3886626 77.48032,0 0,141.4487974 -77.48032,0 z"
     id="path4985"
     style="fill:#000000;fill-opacity:0;fill-rule:nonzero" />
  <path
     d="m 452.14384,1.3886626 77.48032,0 0,141.4487974 -77.48032,0 z"
     id="path4987"
     style="stroke:#f6a800;stroke-width:2;stroke-linecap:butt;stroke-linejoin:round" />
  <path
     d="m 468.15946,15.654913 -0.20313,0 q -0.1875,-0.0625 -0.5,-0.125 -0.29687,-0.0781 -0.64062,-0.0781 -0.82813,0 -1.125,0.29688 -0.28125,0.29687 -0.28125,1.15625 l 0,0.0625 2.17187,0 0,1.90625 -2.07812,0 0,6.875 -2.8125,0 0,-6.875 -1.20313,0 0,-1.90625 1.20313,0 0,-0.23438 q 0,-1.60937 0.84375,-2.40625 0.85937,-0.8125 2.59375,-0.8125 0.625,0 1.125,0.0469 0.51562,0.0312 0.90625,0.10937 l 0,1.98438 z m 5.64844,10.32812 q -1.15625,0 -2.10938,-0.26562 -0.9375,-0.28125 -1.64062,-0.85938 -0.70313,-0.5625 -1.09375,-1.42187 -0.375,-0.875 -0.375,-2.04688 0,-1.21875 0.40625,-2.10937 0.42187,-0.89063 1.15625,-1.48438 0.70312,-0.54687 1.625,-0.79687 0.9375,-0.26563 1.9375,-0.26563 0.90625,0 1.65625,0.20313 0.76562,0.1875 1.42187,0.5 l 0,2.39062 -0.40625,0 q -0.15625,-0.14062 -0.39062,-0.32812 -0.23438,-0.1875 -0.5625,-0.35938 -0.32813,-0.17187 -0.71875,-0.28125 -0.375,-0.125 -0.875,-0.125 -1.125,0 -1.73438,0.71875 -0.60937,0.71875 -0.60937,1.9375 0,1.26563 0.625,1.92188 0.625,0.65625 1.76562,0.65625 0.53125,0 0.95313,-0.10938 0.42187,-0.125 0.70312,-0.29687 0.26563,-0.15625 0.46875,-0.32813 0.20313,-0.17187 0.375,-0.32812 l 0.40625,0 0,2.39062 q -0.67187,0.3125 -1.39062,0.5 -0.71875,0.1875 -1.59375,0.1875 z"
     id="path4989"
     style="fill:#000000;fill-rule:nonzero" />
  <path
     d="m 468.03446,37.623663 -0.0781,0 q -0.32812,-0.0781 -0.64062,-0.10938 -0.29688,-0.0469 -0.71875,-0.0469 -0.6875,0 -1.32813,0.3125 -0.625,0.29687 -1.20312,0.76562 l 0,6.20313 -1.46875,0 0,-8.73438 1.46875,0 0,1.29688 q 0.875,-0.70313 1.53125,-1 0.67187,-0.29688 1.375,-0.29688 0.375,0 0.54687,0.0312 0.17188,0.0156 0.51563,0.0625 l 0,1.51563 z m 8.6875,2.90625 -6.42188,0 q 0,0.8125 0.23438,1.40625 0.25,0.59375 0.67187,0.98437 0.40625,0.375 0.95313,0.5625 0.5625,0.1875 1.23437,0.1875 0.89063,0 1.79688,-0.35937 0.90625,-0.35938 1.28125,-0.70313 l 0.0781,0 0,1.60938 q -0.73437,0.3125 -1.51562,0.53125 -0.76563,0.20312 -1.625,0.20312 -2.17188,0 -3.39063,-1.17187 -1.21875,-1.1875 -1.21875,-3.34375 0,-2.14063 1.17188,-3.39063 1.17187,-1.26562 3.07812,-1.26562 1.76563,0 2.71875,1.03125 0.95313,1.03125 0.95313,2.92187 l 0,0.79688 z m -1.42188,-1.125 q -0.0156,-1.15625 -0.59375,-1.78125 -0.5625,-0.64063 -1.73437,-0.64063 -1.1875,0 -1.89063,0.70313 -0.6875,0.6875 -0.78125,1.71875 l 5,0 z m 5.14063,5.34375 -1.46875,0 0,-12.15625 1.46875,0 0,12.15625 z m 10.14062,0 -1.46875,0 0,-0.96875 q -0.75,0.57812 -1.4375,0.90625 -0.67187,0.3125 -1.48437,0.3125 -1.375,0 -2.14063,-0.84375 -0.76562,-0.84375 -0.76562,-2.46875 l 0,-5.67188 1.46875,0 0,4.96875 q 0,0.67188 0.0625,1.14063 0.0625,0.46875 0.26562,0.8125 0.20313,0.34375 0.53125,0.5 0.34375,0.15625 0.98438,0.15625 0.57812,0 1.25,-0.29688 0.67187,-0.29687 1.26562,-0.76562 l 0,-6.51563 1.46875,0 0,8.73438 z"
     id="path4991"
     style="fill:#000000;fill-rule:nonzero" />
  <path
     d="m 469.67508,63.748663 -1.46875,0 0,-0.92188 q -0.64062,0.54688 -1.32812,0.85938 -0.6875,0.3125 -1.48438,0.3125 -1.5625,0 -2.48437,-1.20313 -0.92188,-1.21875 -0.92188,-3.34375 0,-1.10937 0.3125,-1.96875 0.32813,-0.875 0.85938,-1.48437 0.53125,-0.59375 1.23437,-0.90625 0.71875,-0.3125 1.46875,-0.3125 0.6875,0 1.21875,0.14062 0.53125,0.14063 1.125,0.45313 l 0,-3.78125 1.46875,0 0,12.15625 z m -1.46875,-2.15625 0,-5 q -0.59375,-0.26563 -1.0625,-0.35938 -0.46875,-0.10937 -1.03125,-0.10937 -1.23437,0 -1.92187,0.85937 -0.6875,0.85938 -0.6875,2.4375 0,1.54688 0.53125,2.35938 0.53125,0.8125 1.70312,0.8125 0.625,0 1.26563,-0.28125 0.64062,-0.28125 1.20312,-0.71875 z m 9.79688,-4.96875 -0.0781,0 q -0.32812,-0.0781 -0.64062,-0.10938 -0.29688,-0.0469 -0.71875,-0.0469 -0.6875,0 -1.32813,0.3125 -0.625,0.29687 -1.20312,0.76562 l 0,6.20313 -1.46875,0 0,-8.73438 1.46875,0 0,1.29688 q 0.875,-0.70313 1.53125,-1 0.67187,-0.29688 1.375,-0.29688 0.375,0 0.54687,0.0312 0.17188,0.0156 0.51563,0.0625 l 0,1.51563 z m 8.82812,2.76562 q 0,2.125 -1.09375,3.375 -1.09375,1.23438 -2.9375,1.23438 -1.84375,0 -2.9375,-1.23438 -1.09375,-1.25 -1.09375,-3.375 0,-2.14062 1.09375,-3.375 1.09375,-1.23437 2.9375,-1.23437 1.84375,0 2.9375,1.23437 1.09375,1.23438 1.09375,3.375 z m -1.51562,0 q 0,-1.70312 -0.67188,-2.51562 -0.65625,-0.82813 -1.84375,-0.82813 -1.1875,0 -1.85937,0.82813 -0.65625,0.8125 -0.65625,2.51562 0,1.64063 0.65625,2.48438 0.67187,0.84375 1.85937,0.84375 1.17188,0 1.84375,-0.82813 0.67188,-0.84375 0.67188,-2.5 z m 11.46093,-0.10937 q 0,1.0625 -0.3125,1.9375 -0.29687,0.875 -0.84375,1.48437 -0.51562,0.57813 -1.21875,0.90625 -0.70312,0.3125 -1.48437,0.3125 -0.67188,0 -1.23438,-0.15625 -0.54687,-0.14062 -1.10937,-0.45312 l 0,3.65625 -1.46875,0 0,-11.95313 1.46875,0 0,0.92188 q 0.57812,-0.5 1.3125,-0.82813 0.73437,-0.32812 1.5625,-0.32812 1.57812,0 2.45312,1.1875 0.875,1.1875 0.875,3.3125 z m -1.51562,0.0312 q 0,-1.57813 -0.54688,-2.35938 -0.53125,-0.78125 -1.64062,-0.78125 -0.64063,0 -1.28125,0.28125 -0.64063,0.26563 -1.21875,0.71875 l 0,4.9375 q 0.625,0.28125 1.0625,0.39063 0.45312,0.0937 1.03125,0.0937 1.21875,0 1.90625,-0.82813 0.6875,-0.82812 0.6875,-2.45312 z"
     id="path4993"
     style="fill:#000000;fill-rule:nonzero" />
  <path
     d="m 468.19071,114.45555 -1.29688,0 0,2.45312 -1.125,0 0,-2.45312 -4.17187,0 0,-1.34375 4.21875,-4.92188 1.07812,0 0,5.32813 1.29688,0 0,0.9375 z m -2.42188,-0.9375 0,-3.9375 -3.375,3.9375 3.375,0 z m 9.84766,-0.96875 q 0,2.34375 -0.73437,3.45312 -0.73438,1.09375 -2.28125,1.09375 -1.57813,0 -2.3125,-1.10937 -0.71875,-1.125 -0.71875,-3.4375 0,-2.32813 0.73437,-3.4375 0.73438,-1.10938 2.29688,-1.10938 1.5625,0 2.28125,1.14063 0.73437,1.125 0.73437,3.40625 z m -1.54687,2.65625 q 0.20312,-0.48438 0.28125,-1.125 0.0781,-0.64063 0.0781,-1.53125 0,-0.89063 -0.0781,-1.54688 -0.0781,-0.65625 -0.28125,-1.125 -0.20313,-0.45312 -0.5625,-0.67187 -0.35938,-0.23438 -0.90625,-0.23438 -0.5625,0 -0.92188,0.23438 -0.35937,0.21875 -0.5625,0.6875 -0.20312,0.4375 -0.28125,1.14062 -0.0625,0.6875 -0.0625,1.51563 0,0.92187 0.0625,1.54687 0.0625,0.60938 0.26563,1.09375 0.20312,0.45313 0.54687,0.70313 0.35938,0.23437 0.95313,0.23437 0.54687,0 0.90625,-0.23437 0.35937,-0.23438 0.5625,-0.6875 z m 9.17578,-3.1875 q 0,1.14062 -0.26563,2.07812 -0.26562,0.9375 -0.78125,1.59375 -0.54687,0.65625 -1.34375,1.03125 -0.79687,0.35938 -1.89062,0.35938 -0.29688,0 -0.57813,-0.0312 -0.26562,-0.0312 -0.46875,-0.10938 l 0,-1.10937 0.0625,0 q 0.15625,0.0781 0.46875,0.15625 0.3125,0.0781 0.70313,0.0781 1.28125,0 2.01562,-0.76562 0.75,-0.78125 0.85938,-2.14063 -0.54688,0.32813 -1.03125,0.46875 -0.46875,0.14063 -1.04688,0.14063 -0.53125,0 -0.96875,-0.10938 -0.4375,-0.10937 -0.875,-0.40625 -0.51562,-0.35937 -0.78125,-0.90625 -0.26562,-0.5625 -0.26562,-1.32812 0,-1.32813 0.875,-2.17188 0.89062,-0.84375 2.15625,-0.84375 0.625,0 1.15625,0.20313 0.54687,0.1875 0.95312,0.59375 0.5,0.48437 0.76563,1.25 0.28125,0.76562 0.28125,1.96875 z m -1.1875,-0.25 q 0,-0.90625 -0.1875,-1.45313 -0.1875,-0.5625 -0.51563,-0.85937 -0.28125,-0.26563 -0.59375,-0.375 -0.3125,-0.125 -0.6875,-0.125 -0.84375,0 -1.32812,0.53125 -0.48438,0.53125 -0.48438,1.48437 0,0.5625 0.15625,0.92188 0.15625,0.34375 0.53125,0.60937 0.26563,0.17188 0.57813,0.23438 0.3125,0.0625 0.70312,0.0625 0.45313,0 0.92188,-0.125 0.46875,-0.125 0.875,-0.35938 0.0156,-0.125 0.0156,-0.23437 0.0156,-0.125 0.0156,-0.3125 z m 8.95703,2.3125 q 0,1.32812 -0.875,2.17187 -0.875,0.84375 -2.15625,0.84375 -0.64063,0 -1.17188,-0.20312 -0.53125,-0.20313 -0.92187,-0.59375 -0.51563,-0.48438 -0.79688,-1.28125 -0.26562,-0.8125 -0.26562,-1.9375 0,-1.17188 0.25,-2.0625 0.25,-0.89063 0.79687,-1.59375 0.51563,-0.65625 1.32813,-1.03125 0.8125,-0.375 1.90625,-0.375 0.34375,0 0.57812,0.0312 0.23438,0.0312 0.46875,0.10937 l 0,1.10938 -0.0469,0 q -0.17188,-0.0781 -0.5,-0.15625 -0.32813,-0.0781 -0.67188,-0.0781 -1.26562,0 -2.01562,0.78125 -0.75,0.78125 -0.875,2.125 0.5,-0.29687 0.96875,-0.45312 0.48437,-0.15625 1.10937,-0.15625 0.54688,0 0.96875,0.10937 0.4375,0.0937 0.875,0.40625 0.51563,0.35938 0.78125,0.90625 0.26563,0.54688 0.26563,1.32813 z m -1.1875,0.0469 q 0,-0.54687 -0.17188,-0.90625 -0.15625,-0.35937 -0.53125,-0.625 -0.26562,-0.1875 -0.59375,-0.23437 -0.32812,-0.0625 -0.6875,-0.0625 -0.5,0 -0.92187,0.125 -0.42188,0.10937 -0.875,0.35937 -0.0156,0.125 -0.0312,0.25 0,0.10938 0,0.29688 0,0.92187 0.1875,1.46875 0.20312,0.53125 0.53125,0.84375 0.26562,0.25 0.57812,0.375 0.3125,0.10937 0.6875,0.10937 0.84375,0 1.32813,-0.51562 0.5,-0.51563 0.5,-1.48438 z"
     id="path4995"
     style="fill:#000000;fill-rule:nonzero" />
  <path
     d="m 534.29874,1.3886626 77.48029,0 0,141.4487974 -77.48029,0 z"
     id="path4997"
     style="fill:#000000;fill-opacity:0;fill-rule:nonzero" />
  <path
     d="m 534.29874,1.3886626 77.48029,0 0,141.4487974 -77.48029,0 z"
     id="path4999"
     style="stroke:#f6a800;stroke-width:2;stroke-linecap:butt;stroke-linejoin:round" />
  <path
     d="m 547.43934,25.748663 -2.8125,0 0,-12.15625 2.8125,0 0,12.15625 z m 10.28125,-2.78125 q 0,1.35937 -1.21875,2.20312 -1.21875,0.82813 -3.32813,0.82813 -1.17187,0 -2.125,-0.23438 -0.95312,-0.21875 -1.53125,-0.48437 l 0,-2.3125 0.25,0 q 0.21875,0.15625 0.48438,0.32812 0.28125,0.17188 0.79687,0.375 0.4375,0.1875 0.98438,0.3125 0.5625,0.125 1.1875,0.125 0.82812,0 1.21875,-0.17187 0.40625,-0.1875 0.40625,-0.54688 0,-0.32812 -0.23438,-0.46875 -0.23437,-0.14062 -0.89062,-0.28125 -0.3125,-0.0625 -0.84375,-0.14062 -0.53125,-0.0937 -0.96875,-0.20313 -1.20313,-0.3125 -1.78125,-0.96875 -0.57813,-0.67187 -0.57813,-1.65625 0,-1.26562 1.20313,-2.09375 1.20312,-0.84375 3.28125,-0.84375 0.98437,0 1.875,0.20313 0.90625,0.1875 1.42187,0.42187 l 0,2.21875 -0.25,0 q -0.625,-0.4375 -1.42187,-0.70312 -0.79688,-0.26563 -1.625,-0.26563 -0.67188,0 -1.14063,0.1875 -0.46875,0.1875 -0.46875,0.53125 0,0.3125 0.20313,0.48438 0.21875,0.15625 1,0.3125 0.4375,0.0937 0.92187,0.17187 0.5,0.0781 1,0.20313 1.10938,0.29687 1.64063,0.92187 0.53125,0.60938 0.53125,1.54688 z m 7.47656,2.70312 q -0.45312,0.125 -0.96875,0.1875 -0.5,0.0625 -1.23437,0.0625 -1.64063,0 -2.4375,-0.65625 -0.79688,-0.67187 -0.79688,-2.28125 l 0,-4.10937 -1.15625,0 0,-1.90625 1.15625,0 0,-2.5 2.8125,0 0,2.5 2.625,0 0,1.90625 -2.625,0 0,3.10937 q 0,0.46875 0,0.8125 0.0156,0.34375 0.125,0.60938 0.10938,0.28125 0.39063,0.4375 0.28125,0.15625 0.8125,0.15625 0.21875,0 0.5625,-0.0937 0.35937,-0.0937 0.5,-0.17188 l 0.23437,0 0,1.9375 z m 10.25781,-6.14062 0,6.21875 -2.82812,0 0,-4.39063 q 0,-0.64062 -0.0312,-1.07812 -0.0312,-0.45313 -0.17188,-0.73438 -0.14062,-0.28125 -0.42187,-0.40625 -0.28125,-0.14062 -0.79688,-0.14062 -0.42187,0 -0.8125,0.17187 -0.39062,0.17188 -0.70312,0.35938 l 0,6.21875 -2.8125,0 0,-8.78125 2.8125,0 0,0.96875 q 0.73437,-0.5625 1.39062,-0.875 0.67188,-0.32813 1.46875,-0.32813 0.875,0 1.53125,0.39063 0.67188,0.375 1.04688,1.125 0.84375,-0.70313 1.64062,-1.10938 0.79688,-0.40625 1.5625,-0.40625 1.42188,0 2.15625,0.85938 0.73438,0.84375 0.73438,2.4375 l 0,5.71875 -2.82813,0 0,-4.39063 q 0,-0.64062 -0.0312,-1.07812 -0.0156,-0.45313 -0.15625,-0.73438 -0.14062,-0.28125 -0.4375,-0.40625 -0.28125,-0.14062 -0.79687,-0.14062 -0.35938,0 -0.70313,0.125 -0.32812,0.125 -0.8125,0.40625 z"
     id="path5001"
     style="fill:#000000;fill-rule:nonzero" />
  <path
     d="m 550.14244,116.90867 -5.90625,0 0,-1.21875 q 0.625,-0.53125 1.23437,-1.0625 0.625,-0.53125 1.15625,-1.04688 1.125,-1.09375 1.53125,-1.73437 0.42188,-0.64063 0.42188,-1.39063 0,-0.67187 -0.45313,-1.04687 -0.4375,-0.39063 -1.23437,-0.39063 -0.54688,0 -1.17188,0.1875 -0.60937,0.1875 -1.20312,0.57813 l -0.0625,0 0,-1.23438 q 0.42187,-0.20312 1.10937,-0.375 0.70313,-0.17187 1.34375,-0.17187 1.34375,0 2.10938,0.65625 0.76562,0.64062 0.76562,1.75 0,0.5 -0.125,0.9375 -0.125,0.42187 -0.375,0.79687 -0.23437,0.375 -0.54687,0.73438 -0.29688,0.34375 -0.73438,0.76562 -0.625,0.60938 -1.29687,1.1875 -0.67188,0.57813 -1.25,1.07813 l 4.6875,0 0,1 z m 7.14453,0 -4.73437,0 0,-0.89063 1.82812,0 0,-5.84375 -1.82812,0 0,-0.79687 q 0.375,0 0.79687,-0.0625 0.42188,-0.0625 0.64063,-0.1875 0.26562,-0.14063 0.42187,-0.35938 0.15625,-0.23437 0.17188,-0.60937 l 0.92187,0 0,7.85937 1.78125,0 0,0.89063 z m 8.01953,0 -1.39062,0 -1.85938,-2.51563 -1.85937,2.51563 -1.28125,0 2.54687,-3.26563 -2.53125,-3.28125 1.39063,0 1.84375,2.46875 1.85937,-2.46875 1.28125,0 -2.57812,3.21875 2.57812,3.32813 z m 6.71094,0 -4.73438,0 0,-0.89063 1.82813,0 0,-5.84375 -1.82813,0 0,-0.79687 q 0.375,0 0.79688,-0.0625 0.42187,-0.0625 0.64062,-0.1875 0.26563,-0.14063 0.42188,-0.35938 0.15625,-0.23437 0.17187,-0.60937 l 0.92188,0 0,7.85937 1.78125,0 0,0.89063 z m 8.11328,-4.35938 q 0,2.34375 -0.73437,3.45313 -0.73438,1.09375 -2.28125,1.09375 -1.57813,0 -2.3125,-1.10938 -0.71875,-1.125 -0.71875,-3.4375 0,-2.32812 0.73437,-3.4375 0.73438,-1.10937 2.29688,-1.10937 1.5625,0 2.28125,1.14062 0.73437,1.125 0.73437,3.40625 z m -1.54687,2.65625 q 0.20312,-0.48437 0.28125,-1.125 0.0781,-0.64062 0.0781,-1.53125 0,-0.89062 -0.0781,-1.54687 -0.0781,-0.65625 -0.28125,-1.125 -0.20313,-0.45313 -0.5625,-0.67188 -0.35938,-0.23437 -0.90625,-0.23437 -0.5625,0 -0.92188,0.23437 -0.35937,0.21875 -0.5625,0.6875 -0.20312,0.4375 -0.28125,1.14063 -0.0625,0.6875 -0.0625,1.51562 0,0.92188 0.0625,1.54688 0.0625,0.60937 0.26563,1.09375 0.20312,0.45312 0.54687,0.70312 0.35938,0.23438 0.95313,0.23438 0.54687,0 0.90625,-0.23438 0.35937,-0.23437 0.5625,-0.6875 z m 9.17578,1.70313 -5.90625,0 0,-1.21875 q 0.625,-0.53125 1.23437,-1.0625 0.625,-0.53125 1.15625,-1.04688 1.125,-1.09375 1.53125,-1.73437 0.42188,-0.64063 0.42188,-1.39063 0,-0.67187 -0.45313,-1.04687 -0.4375,-0.39063 -1.23437,-0.39063 -0.54688,0 -1.17188,0.1875 -0.60937,0.1875 -1.20312,0.57813 l -0.0625,0 0,-1.23438 q 0.42187,-0.20312 1.10937,-0.375 0.70313,-0.17187 1.34375,-0.17187 1.34375,0 2.10938,0.65625 0.76562,0.64062 0.76562,1.75 0,0.5 -0.125,0.9375 -0.125,0.42187 -0.375,0.79687 -0.23437,0.375 -0.54687,0.73438 -0.29688,0.34375 -0.73438,0.76562 -0.625,0.60938 -1.29687,1.1875 -0.67188,0.57813 -1.25,1.07813 l 4.6875,0 0,1 z m 7.83203,-2.45313 -1.29688,0 0,2.45313 -1.125,0 0,-2.45313 -4.17187,0 0,-1.34375 4.21875,-4.92187 1.07812,0 0,5.32812 1.29688,0 0,0.9375 z m -2.42188,-0.9375 0,-3.9375 -3.375,3.9375 3.375,0 z"
     id="path5003"
     style="fill:#000000;fill-rule:nonzero" />
  <path
     d="m 616.45354,1.3886626 77.48029,0 0,141.4487974 -77.48029,0 z"
     id="path5005"
     style="fill:#000000;fill-opacity:0;fill-rule:nonzero" />
  <path
     d="m 616.45354,1.3886626 77.48029,0 0,141.4487974 -77.48029,0 z"
     id="path5007"
     style="stroke:#f6a800;stroke-width:2;stroke-linecap:butt;stroke-linejoin:round" />
  <path
     d="m 629.59418,25.748663 -2.8125,0 0,-12.15625 2.8125,0 0,12.15625 z m 10.28125,-2.78125 q 0,1.35937 -1.21875,2.20312 -1.21875,0.82813 -3.32812,0.82813 -1.17188,0 -2.125,-0.23438 -0.95313,-0.21875 -1.53125,-0.48437 l 0,-2.3125 0.25,0 q 0.21875,0.15625 0.48437,0.32812 0.28125,0.17188 0.79688,0.375 0.4375,0.1875 0.98437,0.3125 0.5625,0.125 1.1875,0.125 0.82813,0 1.21875,-0.17187 0.40625,-0.1875 0.40625,-0.54688 0,-0.32812 -0.23437,-0.46875 -0.23438,-0.14062 -0.89063,-0.28125 -0.3125,-0.0625 -0.84375,-0.14062 -0.53125,-0.0937 -0.96875,-0.20313 -1.20312,-0.3125 -1.78125,-0.96875 -0.57812,-0.67187 -0.57812,-1.65625 0,-1.26562 1.20312,-2.09375 1.20313,-0.84375 3.28125,-0.84375 0.98438,0 1.875,0.20313 0.90625,0.1875 1.42188,0.42187 l 0,2.21875 -0.25,0 q -0.625,-0.4375 -1.42188,-0.70312 -0.79687,-0.26563 -1.625,-0.26563 -0.67187,0 -1.14062,0.1875 -0.46875,0.1875 -0.46875,0.53125 0,0.3125 0.20312,0.48438 0.21875,0.15625 1,0.3125 0.4375,0.0937 0.92188,0.17187 0.5,0.0781 1,0.20313 1.10937,0.29687 1.64062,0.92187 0.53125,0.60938 0.53125,1.54688 z m 7.47656,2.70312 q -0.45312,0.125 -0.96875,0.1875 -0.5,0.0625 -1.23437,0.0625 -1.64063,0 -2.4375,-0.65625 -0.79688,-0.67187 -0.79688,-2.28125 l 0,-4.10937 -1.15625,0 0,-1.90625 1.15625,0 0,-2.5 2.8125,0 0,2.5 2.625,0 0,1.90625 -2.625,0 0,3.10937 q 0,0.46875 0,0.8125 0.0156,0.34375 0.125,0.60938 0.10938,0.28125 0.39063,0.4375 0.28125,0.15625 0.8125,0.15625 0.21875,0 0.5625,-0.0937 0.35937,-0.0937 0.5,-0.17188 l 0.23437,0 0,1.9375 z m 10.25782,-6.14062 0,6.21875 -2.82813,0 0,-4.39063 q 0,-0.64062 -0.0312,-1.07812 -0.0312,-0.45313 -0.17187,-0.73438 -0.14063,-0.28125 -0.42188,-0.40625 -0.28125,-0.14062 -0.79687,-0.14062 -0.42188,0 -0.8125,0.17187 -0.39063,0.17188 -0.70313,0.35938 l 0,6.21875 -2.8125,0 0,-8.78125 2.8125,0 0,0.96875 q 0.73438,-0.5625 1.39063,-0.875 0.67187,-0.32813 1.46875,-0.32813 0.875,0 1.53125,0.39063 0.67187,0.375 1.04687,1.125 0.84375,-0.70313 1.64063,-1.10938 0.79687,-0.40625 1.5625,-0.40625 1.42187,0 2.15625,0.85938 0.73437,0.84375 0.73437,2.4375 l 0,5.71875 -2.82812,0 0,-4.39063 q 0,-0.64062 -0.0312,-1.07812 -0.0156,-0.45313 -0.15625,-0.73438 -0.14063,-0.28125 -0.4375,-0.40625 -0.28125,-0.14062 -0.79688,-0.14062 -0.35937,0 -0.70312,0.125 -0.32813,0.125 -0.8125,0.40625 z"
     id="path5009"
     style="fill:#000000;fill-rule:nonzero" />
  <path
     d="m 632.29731,116.90867 -5.90625,0 0,-1.21875 q 0.625,-0.53125 1.23438,-1.0625 0.625,-0.53125 1.15625,-1.04688 1.125,-1.09375 1.53125,-1.73437 0.42187,-0.64063 0.42187,-1.39063 0,-0.67187 -0.45312,-1.04687 -0.4375,-0.39063 -1.23438,-0.39063 -0.54687,0 -1.17187,0.1875 -0.60938,0.1875 -1.20313,0.57813 l -0.0625,0 0,-1.23438 q 0.42188,-0.20312 1.10938,-0.375 0.70312,-0.17187 1.34375,-0.17187 1.34375,0 2.10937,0.65625 0.76563,0.64062 0.76563,1.75 0,0.5 -0.125,0.9375 -0.125,0.42187 -0.375,0.79687 -0.23438,0.375 -0.54688,0.73438 -0.29687,0.34375 -0.73437,0.76562 -0.625,0.60938 -1.29688,1.1875 -0.67187,0.57813 -1.25,1.07813 l 4.6875,0 0,1 z m 7.14453,0 -4.73437,0 0,-0.89063 1.82812,0 0,-5.84375 -1.82812,0 0,-0.79687 q 0.375,0 0.79687,-0.0625 0.42188,-0.0625 0.64063,-0.1875 0.26562,-0.14063 0.42187,-0.35938 0.15625,-0.23437 0.17188,-0.60937 l 0.92187,0 0,7.85937 1.78125,0 0,0.89063 z m 8.01953,0 -1.39062,0 -1.85938,-2.51563 -1.85937,2.51563 -1.28125,0 2.54687,-3.26563 -2.53125,-3.28125 1.39063,0 1.84375,2.46875 1.85937,-2.46875 1.28125,0 -2.57812,3.21875 2.57812,3.32813 z m 7.13281,-2.76563 q 0,0.60938 -0.23437,1.17188 -0.21875,0.54687 -0.59375,0.92187 -0.42188,0.40625 -1.01563,0.64063 -0.57812,0.21875 -1.34375,0.21875 -0.71875,0 -1.39062,-0.15625 -0.65625,-0.15625 -1.10938,-0.35938 l 0,-1.23437 0.0781,0 q 0.48437,0.29687 1.125,0.51562 0.65625,0.21875 1.26562,0.21875 0.42188,0 0.8125,-0.10937 0.39063,-0.125 0.6875,-0.42188 0.26563,-0.25 0.39063,-0.59375 0.14062,-0.35937 0.14062,-0.82812 0,-0.45313 -0.15625,-0.75 -0.15625,-0.3125 -0.4375,-0.5 -0.29687,-0.23438 -0.73437,-0.3125 -0.4375,-0.0937 -0.98438,-0.0937 -0.51562,0 -1,0.0781 -0.46875,0.0625 -0.8125,0.125 l 0,-4.48437 5.25,0 0,1.01562 -4.10937,0 0,2.32813 q 0.25,-0.0312 0.5,-0.0312 0.26562,-0.0156 0.46875,-0.0156 0.70312,0 1.23437,0.125 0.53125,0.10938 0.98438,0.42188 0.46875,0.3125 0.71875,0.82812 0.26562,0.5 0.26562,1.28125 z m 7.20704,2.76563 -4.73438,0 0,-0.89063 1.82813,0 0,-5.84375 -1.82813,0 0,-0.79687 q 0.375,0 0.79688,-0.0625 0.42187,-0.0625 0.64062,-0.1875 0.26563,-0.14063 0.42188,-0.35938 0.15625,-0.23437 0.17187,-0.60937 l 0.92188,0 0,7.85937 1.78125,0 0,0.89063 z m 8.11328,0 -5.90625,0 0,-1.21875 q 0.625,-0.53125 1.23437,-1.0625 0.625,-0.53125 1.15625,-1.04688 1.125,-1.09375 1.53125,-1.73437 0.42188,-0.64063 0.42188,-1.39063 0,-0.67187 -0.45313,-1.04687 -0.4375,-0.39063 -1.23437,-0.39063 -0.54688,0 -1.17188,0.1875 -0.60937,0.1875 -1.20312,0.57813 l -0.0625,0 0,-1.23438 q 0.42187,-0.20312 1.10937,-0.375 0.70313,-0.17187 1.34375,-0.17187 1.34375,0 2.10938,0.65625 0.76562,0.64062 0.76562,1.75 0,0.5 -0.125,0.9375 -0.125,0.42187 -0.375,0.79687 -0.23437,0.375 -0.54687,0.73438 -0.29688,0.34375 -0.73438,0.76562 -0.625,0.60938 -1.29687,1.1875 -0.67188,0.57813 -1.25,1.07813 l 4.6875,0 0,1 z"
     id="path5011"
     style="fill:#000000;fill-rule:nonzero" />
  <path
     d="m 698.6084,0.9949726 77.48029,0 0,142.2361974 -77.48029,0 z"
     id="path5013"
     style="fill:#000000;fill-opacity:0;fill-rule:nonzero" />
  <path
     d="m 698.6084,0.9949726 77.48029,0 0,142.2361974 -77.48029,0 z"
     id="path5015"
     style="stroke:#f6a800;stroke-width:2;stroke-linecap:butt;stroke-linejoin:round" />
  <path
     d="m 714.62404,15.261223 -0.20312,0 q -0.1875,-0.0625 -0.5,-0.125 -0.29688,-0.0781 -0.64063,-0.0781 -0.82812,0 -1.125,0.29688 -0.28125,0.29687 -0.28125,1.15625 l 0,0.0625 2.17188,0 0,1.90625 -2.07813,0 0,6.875 -2.8125,0 0,-6.875 -1.20312,0 0,-1.90625 1.20312,0 0,-0.23438 q 0,-1.60937 0.84375,-2.40625 0.85938,-0.8125 2.59375,-0.8125 0.625,0 1.125,0.0469 0.51563,0.0312 0.90625,0.10937 l 0,1.98438 z m 5.64844,10.32812 q -1.15625,0 -2.10938,-0.26562 -0.9375,-0.28125 -1.64062,-0.85938 -0.70313,-0.5625 -1.09375,-1.42187 -0.375,-0.875 -0.375,-2.04688 0,-1.21875 0.40625,-2.10937 0.42187,-0.89063 1.15625,-1.48438 0.70312,-0.54687 1.625,-0.79687 0.9375,-0.26563 1.9375,-0.26563 0.90625,0 1.65625,0.20313 0.76562,0.1875 1.42187,0.5 l 0,2.39062 -0.40625,0 q -0.15625,-0.14062 -0.39062,-0.32812 -0.23438,-0.1875 -0.5625,-0.35938 -0.32813,-0.17187 -0.71875,-0.28125 -0.375,-0.125 -0.875,-0.125 -1.125,0 -1.73438,0.71875 -0.60937,0.71875 -0.60937,1.9375 0,1.26563 0.625,1.92188 0.625,0.65625 1.76562,0.65625 0.53125,0 0.95313,-0.10938 0.42187,-0.125 0.70312,-0.29687 0.26563,-0.15625 0.46875,-0.32813 0.20313,-0.17187 0.375,-0.32812 l 0.40625,0 0,2.39062 q -0.67187,0.3125 -1.39062,0.5 -0.71875,0.1875 -1.59375,0.1875 z"
     id="path5017"
     style="fill:#000000;fill-rule:nonzero" />
  <path
     d="m 714.45214,116.51495 -5.90625,0 0,-1.21875 q 0.625,-0.53125 1.23437,-1.0625 0.625,-0.53125 1.15625,-1.04687 1.125,-1.09375 1.53125,-1.73438 0.42188,-0.64062 0.42188,-1.39062 0,-0.67188 -0.45313,-1.04688 -0.4375,-0.39062 -1.23437,-0.39062 -0.54688,0 -1.17188,0.1875 -0.60937,0.1875 -1.20312,0.57812 l -0.0625,0 0,-1.23437 q 0.42187,-0.20313 1.10937,-0.375 0.70313,-0.17188 1.34375,-0.17188 1.34375,0 2.10938,0.65625 0.76562,0.64063 0.76562,1.75 0,0.5 -0.125,0.9375 -0.125,0.42188 -0.375,0.79688 -0.23437,0.375 -0.54687,0.73437 -0.29688,0.34375 -0.73438,0.76563 -0.625,0.60937 -1.29687,1.1875 -0.67188,0.57812 -1.25,1.07812 l 4.6875,0 0,1 z m 7.14453,0 -4.73437,0 0,-0.89062 1.82812,0 0,-5.84375 -1.82812,0 0,-0.79688 q 0.375,0 0.79687,-0.0625 0.42188,-0.0625 0.64063,-0.1875 0.26562,-0.14062 0.42187,-0.35937 0.15625,-0.23438 0.17188,-0.60938 l 0.92187,0 0,7.85938 1.78125,0 0,0.89062 z m 8.01953,0 -1.39062,0 -1.85938,-2.51562 -1.85937,2.51562 -1.28125,0 2.54687,-3.26562 -2.53125,-3.28125 1.39063,0 1.84375,2.46875 1.85937,-2.46875 1.28125,0 -2.57812,3.21875 2.57812,3.32812 z m 7.19531,0 -5.90625,0 0,-1.21875 q 0.625,-0.53125 1.23438,-1.0625 0.625,-0.53125 1.15625,-1.04687 1.125,-1.09375 1.53125,-1.73438 0.42187,-0.64062 0.42187,-1.39062 0,-0.67188 -0.45312,-1.04688 -0.4375,-0.39062 -1.23438,-0.39062 -0.54687,0 -1.17187,0.1875 -0.60938,0.1875 -1.20313,0.57812 l -0.0625,0 0,-1.23437 q 0.42188,-0.20313 1.10938,-0.375 0.70312,-0.17188 1.34375,-0.17188 1.34375,0 2.10937,0.65625 0.76563,0.64063 0.76563,1.75 0,0.5 -0.125,0.9375 -0.125,0.42188 -0.375,0.79688 -0.23438,0.375 -0.54688,0.73437 -0.29687,0.34375 -0.73437,0.76563 -0.625,0.60937 -1.29688,1.1875 -0.67187,0.57812 -1.25,1.07812 l 4.6875,0 0,1 z"
     id="path5019"
     style="fill:#000000;fill-rule:nonzero" />
</svg>
