<?xml version="1.0" encoding="UTF-8" standalone="no"?>
<!-- Created with Inkscape (http://www.inkscape.org/) -->

<svg
   xmlns:dc="http://purl.org/dc/elements/1.1/"
   xmlns:cc="http://creativecommons.org/ns#"
   xmlns:rdf="http://www.w3.org/1999/02/22-rdf-syntax-ns#"
   xmlns:svg="http://www.w3.org/2000/svg"
   xmlns="http://www.w3.org/2000/svg"
   xmlns:xlink="http://www.w3.org/1999/xlink"
   version="1.1"
   width="100%"
   height="100%"
   viewBox="0 0 459.74903 322.33342"
   id="svg7381"
   style="fill:none;stroke:none">
  <metadata
     id="metadata7961">
    <rdf:RDF>
      <cc:Work
         rdf:about="">
        <dc:format>image/svg+xml</dc:format>
        <dc:type
           rdf:resource="http://purl.org/dc/dcmitype/StillImage" />
        <dc:title></dc:title>
      </cc:Work>
    </rdf:RDF>
  </metadata>
  <defs
     id="defs7959">
    <clipPath
       id="gb72c47812_0_170.1">
      <path
         d="m 0,0 775,0 0,442.95663 -775,0 z"
         id="path7515" />
    </clipPath>
  </defs>
  <clipPath
     id="gb72c47812_0_170.0">
    <path
       d="M 0,0 960,0 960,540 0,540 0,0 z"
       id="path7384" />
  </clipPath>
  <path
     d="m 116.777,44.15486 34.58267,0 0,36.7874 -34.58267,0 z"
     id="path7549"
     style="fill:#ffffff;fill-rule:nonzero" />
  <path
     d="m 116.777,44.15486 34.58267,0 0,36.7874 -34.58267,0 z"
     id="path7551"
     style="stroke:#000000;stroke-width:2;stroke-linecap:butt;stroke-linejoin:round" />
  <path
     d="m 136.61326,67.06856 -4.73437,0 0,-0.89063 1.82812,0 0,-5.84375 -1.82812,0 0,-0.79687 q 0.375,0 0.79687,-0.0625 0.42188,-0.0625 0.64063,-0.1875 0.26562,-0.14063 0.42187,-0.35938 0.15625,-0.23437 0.17188,-0.60937 l 0.92187,0 0,7.85937 1.78125,0 0,0.89063 z"
     id="path7553"
     style="fill:#000000;fill-rule:nonzero" />
  <path
     d="m 150.85392,44.15486 34.58269,0 0,36.7874 -34.58269,0 z"
     id="path7555"
     style="fill:#ffffff;fill-rule:nonzero" />
  <path
     d="m 150.85392,44.15486 34.58269,0 0,36.7874 -34.58269,0 z"
     id="path7557"
     style="stroke:#000000;stroke-width:2;stroke-linecap:butt;stroke-linejoin:round" />
  <path
     d="m 171.17457,67.06856 -5.90625,0 0,-1.21875 q 0.625,-0.53125 1.23437,-1.0625 0.625,-0.53125 1.15625,-1.04688 1.125,-1.09375 1.53125,-1.73437 0.42188,-0.64063 0.42188,-1.39063 0,-0.67187 -0.45313,-1.04687 -0.4375,-0.39063 -1.23437,-0.39063 -0.54688,0 -1.17188,0.1875 -0.60937,0.1875 -1.20312,0.57813 l -0.0625,0 0,-1.23438 q 0.42187,-0.20312 1.10937,-0.375 0.70313,-0.17187 1.34375,-0.17187 1.34375,0 2.10938,0.65625 0.76562,0.64062 0.76562,1.75 0,0.5 -0.125,0.9375 -0.125,0.42187 -0.375,0.79687 -0.23437,0.375 -0.54687,0.73438 -0.29688,0.34375 -0.73438,0.76562 -0.625,0.60938 -1.29687,1.1875 -0.67188,0.57813 -1.25,1.07813 l 4.6875,0 0,1 z"
     id="path7559"
     style="fill:#000000;fill-rule:nonzero" />
  <path
     d="m 185.4358,44.15486 34.58267,0 0,36.7874 -34.58267,0 z"
     id="path7561"
     style="fill:#ffffff;fill-rule:nonzero" />
  <path
     d="m 185.4358,44.15486 34.58267,0 0,36.7874 -34.58267,0 z"
     id="path7563"
     style="stroke:#000000;stroke-width:2;stroke-linecap:butt;stroke-linejoin:round" />
  <path
     d="m 204.99081,62.86543 q 0.28125,0.25 0.46875,0.64063 0.1875,0.375 0.1875,0.98437 0,0.59375 -0.21875,1.09375 -0.21875,0.5 -0.60938,0.85938 -0.4375,0.40625 -1.04687,0.60937 -0.59375,0.20313 -1.29688,0.20313 -0.71875,0 -1.42187,-0.1875 -0.70313,-0.17188 -1.15625,-0.375 l 0,-1.21875 0.0781,0 q 0.5,0.32812 1.17188,0.54687 0.67187,0.21875 1.3125,0.21875 0.35937,0 0.76562,-0.125 0.42188,-0.125 0.6875,-0.35937 0.26563,-0.26563 0.39063,-0.57813 0.14062,-0.3125 0.14062,-0.78125 0,-0.46875 -0.15625,-0.76562 -0.14062,-0.3125 -0.40625,-0.5 -0.26562,-0.17188 -0.64062,-0.23438 -0.375,-0.0781 -0.8125,-0.0781 l -0.51563,0 0,-0.96875 0.40625,0 q 0.89063,0 1.42188,-0.375 0.53125,-0.375 0.53125,-1.09375 0,-0.3125 -0.14063,-0.54688 -0.125,-0.23437 -0.375,-0.39062 -0.25,-0.15625 -0.54687,-0.20313 -0.28125,-0.0625 -0.64063,-0.0625 -0.5625,0 -1.1875,0.20313 -0.625,0.1875 -1.17187,0.5625 l -0.0625,0 0,-1.23438 q 0.40625,-0.20312 1.09375,-0.375 0.70312,-0.17187 1.35937,-0.17187 0.64063,0 1.125,0.125 0.48438,0.10937 0.875,0.35937 0.42188,0.28125 0.64063,0.6875 0.21875,0.39063 0.21875,0.9375 0,0.71875 -0.51563,1.26563 -0.51562,0.53125 -1.20312,0.67187 l 0,0.0937 q 0.28125,0.0469 0.64062,0.20313 0.35938,0.14062 0.60938,0.35937 z"
     id="path7565"
     style="fill:#000000;fill-rule:nonzero" />
  <path
     d="m 219.5127,44.15486 34.58269,0 0,36.7874 -34.58269,0 z"
     id="path7567"
     style="fill:#ffffff;fill-rule:nonzero" />
  <path
     d="m 219.5127,44.15486 34.58269,0 0,36.7874 -34.58269,0 z"
     id="path7569"
     style="stroke:#000000;stroke-width:2;stroke-linecap:butt;stroke-linejoin:round" />
  <path
     d="m 240.03648,64.61543 -1.29688,0 0,2.45313 -1.125,0 0,-2.45313 -4.17187,0 0,-1.34375 4.21875,-4.92187 1.07812,0 0,5.32812 1.29688,0 0,0.9375 z m -2.42188,-0.9375 0,-3.9375 -3.375,3.9375 3.375,0 z"
     id="path7571"
     style="fill:#000000;fill-rule:nonzero" />
  <path
     d="m 253.46929,44.15486 34.58269,0 0,36.7874 -34.58269,0 z"
     id="path7573"
     style="fill:#ffffff;fill-rule:nonzero" />
  <path
     d="m 253.46929,44.15486 34.58269,0 0,36.7874 -34.58269,0 z"
     id="path7575"
     style="stroke:#000000;stroke-width:2;stroke-linecap:butt;stroke-linejoin:round" />
  <path
     d="m 273.72744,64.30293 q 0,0.60938 -0.23438,1.17188 -0.21875,0.54687 -0.59375,0.92187 -0.42187,0.40625 -1.01562,0.64063 -0.57813,0.21875 -1.34375,0.21875 -0.71875,0 -1.39063,-0.15625 -0.65625,-0.15625 -1.10937,-0.35938 l 0,-1.23437 0.0781,0 q 0.48438,0.29687 1.125,0.51562 0.65625,0.21875 1.26563,0.21875 0.42187,0 0.8125,-0.10937 0.39062,-0.125 0.6875,-0.42188 0.26562,-0.25 0.39062,-0.59375 0.14063,-0.35937 0.14063,-0.82812 0,-0.45313 -0.15625,-0.75 -0.15625,-0.3125 -0.4375,-0.5 -0.29688,-0.23438 -0.73438,-0.3125 -0.4375,-0.0937 -0.98437,-0.0937 -0.51563,0 -1,0.0781 -0.46875,0.0625 -0.8125,0.125 l 0,-4.48437 5.25,0 0,1.01562 -4.10938,0 0,2.32813 q 0.25,-0.0312 0.5,-0.0312 0.26563,-0.0156 0.46875,-0.0156 0.70313,0 1.23438,0.125 0.53125,0.10938 0.98437,0.42188 0.46875,0.3125 0.71875,0.82812 0.26563,0.5 0.26563,1.28125 z"
     id="path7577"
     style="fill:#000000;fill-rule:nonzero" />
  <path
     d="m 287.54624,44.15486 34.58267,0 0,36.7874 -34.58267,0 z"
     id="path7579"
     style="fill:#ffffff;fill-rule:nonzero" />
  <path
     d="m 287.54624,44.15486 34.58267,0 0,36.7874 -34.58267,0 z"
     id="path7581"
     style="stroke:#000000;stroke-width:2;stroke-linecap:butt;stroke-linejoin:round" />
  <path
     d="m 308.00748,64.24043 q 0,1.32813 -0.875,2.17188 -0.875,0.84375 -2.15625,0.84375 -0.64063,0 -1.17188,-0.20313 -0.53125,-0.20312 -0.92187,-0.59375 -0.51563,-0.48437 -0.79688,-1.28125 -0.26562,-0.8125 -0.26562,-1.9375 0,-1.17187 0.25,-2.0625 0.25,-0.89062 0.79687,-1.59375 0.51563,-0.65625 1.32813,-1.03125 0.8125,-0.375 1.90625,-0.375 0.34375,0 0.57812,0.0312 0.23438,0.0312 0.46875,0.10938 l 0,1.10937 -0.0469,0 q -0.17188,-0.0781 -0.5,-0.15625 -0.32813,-0.0781 -0.67188,-0.0781 -1.26562,0 -2.01562,0.78125 -0.75,0.78125 -0.875,2.125 0.5,-0.29688 0.96875,-0.45313 0.48437,-0.15625 1.10937,-0.15625 0.54688,0 0.96875,0.10938 0.4375,0.0937 0.875,0.40625 0.51563,0.35937 0.78125,0.90625 0.26563,0.54687 0.26563,1.32812 z m -1.1875,0.0469 q 0,-0.54688 -0.17188,-0.90625 -0.15625,-0.35938 -0.53125,-0.625 -0.26562,-0.1875 -0.59375,-0.23438 -0.32812,-0.0625 -0.6875,-0.0625 -0.5,0 -0.92187,0.125 -0.42188,0.10938 -0.875,0.35938 -0.0156,0.125 -0.0312,0.25 0,0.10937 0,0.29687 0,0.92188 0.1875,1.46875 0.20312,0.53125 0.53125,0.84375 0.26562,0.25 0.57812,0.375 0.3125,0.10938 0.6875,0.10938 0.84375,0 1.32813,-0.51563 0.5,-0.51562 0.5,-1.48437 z"
     id="path7583"
     style="fill:#000000;fill-rule:nonzero" />
  <path
     d="m 322.12808,44.15486 34.58267,0 0,36.7874 -34.58267,0 z"
     id="path7585"
     style="fill:#000000;fill-opacity:0;fill-rule:nonzero" />
  <path
     d="m 322.12808,44.15486 34.58267,0 0,36.7874 -34.58267,0 z"
     id="path7587"
     style="stroke:#000000;stroke-width:2;stroke-linecap:butt;stroke-linejoin:round" />
  <path
     d="m 342.47998,59.64668 -3.95313,7.42188 -1.25,0 4.20313,-7.70313 -4.96875,0 0,-1.01562 5.96875,0 0,1.29687 z"
     id="path7589"
     style="fill:#000000;fill-rule:nonzero" />
  <path
     d="m 356.20502,44.15486 34.58267,0 0,36.7874 -34.58267,0 z"
     id="path7591"
     style="fill:#000000;fill-opacity:0;fill-rule:nonzero" />
  <path
     d="m 630.66658,44.15486 34.58264,0 0,36.7874 -34.58264,0 z"
     id="path7639"
     style="fill:#000000;fill-opacity:0;fill-rule:nonzero" />
  <path
     d="m 116.777,100.15486 34.58267,0 0,36.78741 -34.58267,0 z"
     id="path7645"
     style="fill:#ffffff;fill-rule:nonzero" />
  <path
     d="m 116.777,100.15486 34.58267,0 0,36.78741 -34.58267,0 z"
     id="path7647"
     style="stroke:#000000;stroke-width:2;stroke-linecap:butt;stroke-linejoin:round" />
  <path
     d="m 136.61326,123.06857 -4.73437,0 0,-0.89063 1.82812,0 0,-5.84375 -1.82812,0 0,-0.79687 q 0.375,0 0.79687,-0.0625 0.42188,-0.0625 0.64063,-0.1875 0.26562,-0.14063 0.42187,-0.35938 0.15625,-0.23437 0.17188,-0.60937 l 0.92187,0 0,7.85937 1.78125,0 0,0.89063 z"
     id="path7649"
     style="fill:#000000;fill-rule:nonzero" />
  <path
     d="m 116.777,137.38564 34.58267,0 0,36.78738 -34.58267,0 z"
     id="path7651"
     style="fill:#ffffff;fill-rule:nonzero" />
  <path
     d="m 116.777,137.38564 34.58267,0 0,36.78738 -34.58267,0 z"
     id="path7653"
     style="stroke:#000000;stroke-width:2;stroke-linecap:butt;stroke-linejoin:round" />
  <path
     d="m 137.09763,160.29933 -5.90625,0 0,-1.21875 q 0.625,-0.53125 1.23438,-1.0625 0.625,-0.53125 1.15625,-1.04688 1.125,-1.09375 1.53125,-1.73437 0.42187,-0.64063 0.42187,-1.39063 0,-0.67187 -0.45312,-1.04687 -0.4375,-0.39063 -1.23438,-0.39063 -0.54687,0 -1.17187,0.1875 -0.60938,0.1875 -1.20313,0.57813 l -0.0625,0 0,-1.23438 q 0.42188,-0.20312 1.10938,-0.375 0.70312,-0.17187 1.34375,-0.17187 1.34375,0 2.10937,0.65625 0.76563,0.64062 0.76563,1.75 0,0.5 -0.125,0.9375 -0.125,0.42187 -0.375,0.79687 -0.23438,0.375 -0.54688,0.73438 -0.29687,0.34375 -0.73437,0.76562 -0.625,0.60938 -1.29688,1.1875 -0.67187,0.57813 -1.25,1.07813 l 4.6875,0 0,1 z"
     id="path7655"
     style="fill:#000000;fill-rule:nonzero" />
  <path
     d="m 116.777,173.92409 34.58267,0 0,36.78741 -34.58267,0 z"
     id="path7657"
     style="fill:#ffffff;fill-rule:nonzero" />
  <path
     d="m 116.777,173.92409 34.58267,0 0,36.78741 -34.58267,0 z"
     id="path7659"
     style="stroke:#000000;stroke-width:2;stroke-linecap:butt;stroke-linejoin:round" />
  <path
     d="m 136.33201,192.63467 q 0.28125,0.25 0.46875,0.64062 0.1875,0.375 0.1875,0.98438 0,0.59375 -0.21875,1.09375 -0.21875,0.5 -0.60937,0.85937 -0.4375,0.40625 -1.04688,0.60938 -0.59375,0.20312 -1.29687,0.20312 -0.71875,0 -1.42188,-0.1875 -0.70312,-0.17187 -1.15625,-0.375 l 0,-1.21875 0.0781,0 q 0.5,0.32813 1.17187,0.54688 0.67188,0.21875 1.3125,0.21875 0.35938,0 0.76563,-0.125 0.42187,-0.125 0.6875,-0.35938 0.26562,-0.26562 0.39062,-0.57812 0.14063,-0.3125 0.14063,-0.78125 0,-0.46875 -0.15625,-0.76563 -0.14063,-0.3125 -0.40625,-0.5 -0.26563,-0.17187 -0.64063,-0.23437 -0.375,-0.0781 -0.8125,-0.0781 l -0.51562,0 0,-0.96875 0.40625,0 q 0.89062,0 1.42187,-0.375 0.53125,-0.375 0.53125,-1.09375 0,-0.3125 -0.14062,-0.54687 -0.125,-0.23438 -0.375,-0.39063 -0.25,-0.15625 -0.54688,-0.20312 -0.28125,-0.0625 -0.64062,-0.0625 -0.5625,0 -1.1875,0.20312 -0.625,0.1875 -1.17188,0.5625 l -0.0625,0 0,-1.23437 q 0.40625,-0.20313 1.09375,-0.375 0.70313,-0.17188 1.35938,-0.17188 0.64062,0 1.125,0.125 0.48437,0.10938 0.875,0.35938 0.42187,0.28125 0.64062,0.6875 0.21875,0.39062 0.21875,0.9375 0,0.71875 -0.51562,1.26562 -0.51563,0.53125 -1.20313,0.67188 l 0,0.0937 q 0.28125,0.0469 0.64063,0.20312 0.35937,0.14063 0.60937,0.35938 z"
     id="path7661"
     style="fill:#000000;fill-rule:nonzero" />
  <path
     d="m 116.777,211.15487 34.58267,0 0,36.78742 -34.58267,0 z"
     id="path7663"
     style="fill:#ffffff;fill-rule:nonzero" />
  <path
     d="m 116.777,211.15487 34.58267,0 0,36.78742 -34.58267,0 z"
     id="path7665"
     style="stroke:#000000;stroke-width:2;stroke-linecap:butt;stroke-linejoin:round" />
  <path
     d="m 137.30076,231.61543 -1.29687,0 0,2.45313 -1.125,0 0,-2.45313 -4.17188,0 0,-1.34375 4.21875,-4.92187 1.07813,0 0,5.32812 1.29687,0 0,0.9375 z m -2.42187,-0.9375 0,-3.9375 -3.375,3.9375 3.375,0 z"
     id="path7667"
     style="fill:#000000;fill-rule:nonzero" />
  <path
     d="m 116.777,247.3087 34.58267,0 0,36.78738 -34.58267,0 z"
     id="path7669"
     style="fill:#ffffff;fill-rule:nonzero" />
  <path
     d="m 116.777,247.3087 34.58267,0 0,36.78738 -34.58267,0 z"
     id="path7671"
     style="stroke:#000000;stroke-width:2;stroke-linecap:butt;stroke-linejoin:round" />
  <path
     d="m 137.03513,267.45677 q 0,0.60938 -0.23437,1.17188 -0.21875,0.54687 -0.59375,0.92187 -0.42188,0.40625 -1.01563,0.64063 -0.57812,0.21875 -1.34375,0.21875 -0.71875,0 -1.39062,-0.15625 -0.65625,-0.15625 -1.10938,-0.35938 l 0,-1.23437 0.0781,0 q 0.48437,0.29687 1.125,0.51562 0.65625,0.21875 1.26562,0.21875 0.42188,0 0.8125,-0.10937 0.39063,-0.125 0.6875,-0.42188 0.26563,-0.25 0.39063,-0.59375 0.14062,-0.35937 0.14062,-0.82812 0,-0.45313 -0.15625,-0.75 -0.15625,-0.3125 -0.4375,-0.5 -0.29687,-0.23438 -0.73437,-0.3125 -0.4375,-0.0937 -0.98438,-0.0937 -0.51562,0 -1,0.0781 -0.46875,0.0625 -0.8125,0.125 l 0,-4.48437 5.25,0 0,1.01562 -4.10937,0 0,2.32813 q 0.25,-0.0312 0.5,-0.0312 0.26562,-0.0156 0.46875,-0.0156 0.70312,0 1.23437,0.125 0.53125,0.10938 0.98438,0.42188 0.46875,0.3125 0.71875,0.82812 0.26562,0.5 0.26562,1.28125 z"
     id="path7673"
     style="fill:#000000;fill-rule:nonzero" />
  <path
     d="m 116.777,284.53944 34.58267,0 0,36.78742 -34.58267,0 z"
     id="path7675"
     style="fill:#ffffff;fill-rule:nonzero" />
  <path
     d="m 116.777,284.53944 34.58267,0 0,36.78742 -34.58267,0 z"
     id="path7677"
     style="stroke:#000000;stroke-width:2;stroke-linecap:butt;stroke-linejoin:round" />
  <path
     d="m 137.23826,304.62505 q 0,1.32812 -0.875,2.17187 -0.875,0.84375 -2.15625,0.84375 -0.64062,0 -1.17187,-0.20312 -0.53125,-0.20313 -0.92188,-0.59375 -0.51562,-0.48438 -0.79687,-1.28125 -0.26563,-0.8125 -0.26563,-1.9375 0,-1.17188 0.25,-2.0625 0.25,-0.89063 0.79688,-1.59375 0.51562,-0.65625 1.32812,-1.03125 0.8125,-0.375 1.90625,-0.375 0.34375,0 0.57813,0.0312 0.23437,0.0312 0.46875,0.10937 l 0,1.10938 -0.0469,0 q -0.17187,-0.0781 -0.5,-0.15625 -0.32812,-0.0781 -0.67187,-0.0781 -1.26563,0 -2.01563,0.78125 -0.75,0.78125 -0.875,2.125 0.5,-0.29687 0.96875,-0.45312 0.48438,-0.15625 1.10938,-0.15625 0.54687,0 0.96875,0.10937 0.4375,0.0937 0.875,0.40625 0.51562,0.35938 0.78125,0.90625 0.26562,0.54688 0.26562,1.32813 z m -1.1875,0.0469 q 0,-0.54687 -0.17187,-0.90625 -0.15625,-0.35937 -0.53125,-0.625 -0.26563,-0.1875 -0.59375,-0.23437 -0.32813,-0.0625 -0.6875,-0.0625 -0.5,0 -0.92188,0.125 -0.42187,0.10937 -0.875,0.35937 -0.0156,0.125 -0.0312,0.25 0,0.10938 0,0.29688 0,0.92187 0.1875,1.46875 0.20313,0.53125 0.53125,0.84375 0.26563,0.25 0.57813,0.375 0.3125,0.10937 0.6875,0.10937 0.84375,0 1.32812,-0.51562 0.5,-0.51563 0.5,-1.48438 z"
     id="path7679"
     style="fill:#000000;fill-rule:nonzero" />
  <path
     d="m 150.85392,100.15486 34.58269,0 0,36.78741 -34.58269,0 z"
     id="path7681"
     style="fill:#ffffff;fill-rule:nonzero" />
  <path
     d="m 150.85392,100.15486 34.58269,0 0,36.78741 -34.58269,0 z"
     id="path7683"
     style="stroke:#000000;stroke-width:2;stroke-linecap:butt;stroke-linejoin:round" />
  <path
     d="m 171.17457,123.06857 -5.90625,0 0,-1.21875 q 0.625,-0.53125 1.23437,-1.0625 0.625,-0.53125 1.15625,-1.04688 1.125,-1.09375 1.53125,-1.73437 0.42188,-0.64063 0.42188,-1.39063 0,-0.67187 -0.45313,-1.04687 -0.4375,-0.39063 -1.23437,-0.39063 -0.54688,0 -1.17188,0.1875 -0.60937,0.1875 -1.20312,0.57813 l -0.0625,0 0,-1.23438 q 0.42187,-0.20312 1.10937,-0.375 0.70313,-0.17187 1.34375,-0.17187 1.34375,0 2.10938,0.65625 0.76562,0.64062 0.76562,1.75 0,0.5 -0.125,0.9375 -0.125,0.42187 -0.375,0.79687 -0.23437,0.375 -0.54687,0.73438 -0.29688,0.34375 -0.73438,0.76562 -0.625,0.60938 -1.29687,1.1875 -0.67188,0.57813 -1.25,1.07813 l 4.6875,0 0,1 z"
     id="path7685"
     style="fill:#000000;fill-rule:nonzero" />
  <path
     d="m 150.85392,137.38564 34.58269,0 0,36.78738 -34.58269,0 z"
     id="path7687"
     style="fill:#ffffff;fill-rule:nonzero" />
  <path
     d="m 150.85392,137.38564 34.58269,0 0,36.78738 -34.58269,0 z"
     id="path7689"
     style="stroke:#000000;stroke-width:2;stroke-linecap:butt;stroke-linejoin:round" />
  <path
     d="m 170.40894,156.09621 q 0.28125,0.25 0.46875,0.64062 0.1875,0.375 0.1875,0.98438 0,0.59375 -0.21875,1.09375 -0.21875,0.5 -0.60938,0.85937 -0.4375,0.40625 -1.04687,0.60938 -0.59375,0.20312 -1.29688,0.20312 -0.71875,0 -1.42187,-0.1875 -0.70313,-0.17187 -1.15625,-0.375 l 0,-1.21875 0.0781,0 q 0.5,0.32813 1.17188,0.54688 0.67187,0.21875 1.3125,0.21875 0.35937,0 0.76562,-0.125 0.42188,-0.125 0.6875,-0.35938 0.26563,-0.26562 0.39063,-0.57812 0.14062,-0.3125 0.14062,-0.78125 0,-0.46875 -0.15625,-0.76563 -0.14062,-0.3125 -0.40625,-0.5 -0.26562,-0.17187 -0.64062,-0.23437 -0.375,-0.0781 -0.8125,-0.0781 l -0.51563,0 0,-0.96875 0.40625,0 q 0.89063,0 1.42188,-0.375 0.53125,-0.375 0.53125,-1.09375 0,-0.3125 -0.14063,-0.54687 -0.125,-0.23438 -0.375,-0.39063 -0.25,-0.15625 -0.54687,-0.20312 -0.28125,-0.0625 -0.64063,-0.0625 -0.5625,0 -1.1875,0.20312 -0.625,0.1875 -1.17187,0.5625 l -0.0625,0 0,-1.23437 q 0.40625,-0.20313 1.09375,-0.375 0.70312,-0.17188 1.35937,-0.17188 0.64063,0 1.125,0.125 0.48438,0.10938 0.875,0.35938 0.42188,0.28125 0.64063,0.6875 0.21875,0.39062 0.21875,0.9375 0,0.71875 -0.51563,1.26562 -0.51562,0.53125 -1.20312,0.67188 l 0,0.0937 q 0.28125,0.0469 0.64062,0.20312 0.35938,0.14063 0.60938,0.35938 z"
     id="path7691"
     style="fill:#000000;fill-rule:nonzero" />
  <path
     d="m 150.85392,173.92409 34.58269,0 0,36.78741 -34.58269,0 z"
     id="path7693"
     style="fill:#ffffff;fill-rule:nonzero" />
  <path
     d="m 150.85392,173.92409 34.58269,0 0,36.78741 -34.58269,0 z"
     id="path7695"
     style="stroke:#000000;stroke-width:2;stroke-linecap:butt;stroke-linejoin:round" />
  <path
     d="m 171.37769,194.38467 -1.29688,0 0,2.45312 -1.125,0 0,-2.45312 -4.17187,0 0,-1.34375 4.21875,-4.92188 1.07812,0 0,5.32813 1.29688,0 0,0.9375 z m -2.42188,-0.9375 0,-3.9375 -3.375,3.9375 3.375,0 z"
     id="path7697"
     style="fill:#000000;fill-rule:nonzero" />
  <path
     d="m 150.85392,211.15487 34.58269,0 0,36.78742 -34.58269,0 z"
     id="path7699"
     style="fill:#ffffff;fill-rule:nonzero" />
  <path
     d="m 150.85392,211.15487 34.58269,0 0,36.78742 -34.58269,0 z"
     id="path7701"
     style="stroke:#000000;stroke-width:2;stroke-linecap:butt;stroke-linejoin:round" />
  <path
     d="m 171.11207,231.30293 q 0,0.60938 -0.23438,1.17188 -0.21875,0.54687 -0.59375,0.92187 -0.42187,0.40625 -1.01562,0.64063 -0.57813,0.21875 -1.34375,0.21875 -0.71875,0 -1.39063,-0.15625 -0.65625,-0.15625 -1.10937,-0.35938 l 0,-1.23437 0.0781,0 q 0.48438,0.29687 1.125,0.51562 0.65625,0.21875 1.26563,0.21875 0.42187,0 0.8125,-0.10937 0.39062,-0.125 0.6875,-0.42188 0.26562,-0.25 0.39062,-0.59375 0.14063,-0.35937 0.14063,-0.82812 0,-0.45313 -0.15625,-0.75 -0.15625,-0.3125 -0.4375,-0.5 -0.29688,-0.23438 -0.73438,-0.3125 -0.4375,-0.0937 -0.98437,-0.0937 -0.51563,0 -1,0.0781 -0.46875,0.0625 -0.8125,0.125 l 0,-4.48437 5.25,0 0,1.01562 -4.10938,0 0,2.32813 q 0.25,-0.0312 0.5,-0.0312 0.26563,-0.0156 0.46875,-0.0156 0.70313,0 1.23438,0.125 0.53125,0.10938 0.98437,0.42188 0.46875,0.3125 0.71875,0.82812 0.26563,0.5 0.26563,1.28125 z"
     id="path7703"
     style="fill:#000000;fill-rule:nonzero" />
  <path
     d="m 150.85392,284.53944 34.58269,0 0,36.78742 -34.58269,0 z"
     id="path7705"
     style="fill:#ffffff;fill-rule:nonzero" />
  <path
     d="m 150.85392,284.53944 34.58269,0 0,36.78742 -34.58269,0 z"
     id="path7707"
     style="stroke:#000000;stroke-width:2;stroke-linecap:butt;stroke-linejoin:round" />
  <path
     d="m 171.20582,300.0313 -3.95313,7.42187 -1.25,0 4.20313,-7.70312 -4.96875,0 0,-1.01563 5.96875,0 0,1.29688 z"
     id="path7709"
     style="fill:#000000;fill-rule:nonzero" />
  <path
     d="m 186.00776,100.15486 34.58269,0 0,36.78741 -34.58269,0 z"
     id="path7711"
     style="fill:#ffffff;fill-rule:nonzero" />
  <path
     d="m 186.00776,100.15486 34.58269,0 0,36.78741 -34.58269,0 z"
     id="path7713"
     style="stroke:#000000;stroke-width:2;stroke-linecap:butt;stroke-linejoin:round" />
  <path
     d="m 205.56278,118.86543 q 0.28125,0.25 0.46875,0.64063 0.1875,0.375 0.1875,0.98437 0,0.59375 -0.21875,1.09375 -0.21875,0.5 -0.60938,0.85938 -0.4375,0.40625 -1.04687,0.60937 -0.59375,0.20313 -1.29688,0.20313 -0.71875,0 -1.42187,-0.1875 -0.70313,-0.17188 -1.15625,-0.375 l 0,-1.21875 0.0781,0 q 0.5,0.32812 1.17188,0.54687 0.67187,0.21875 1.3125,0.21875 0.35937,0 0.76562,-0.125 0.42188,-0.125 0.6875,-0.35937 0.26563,-0.26563 0.39063,-0.57813 0.14062,-0.3125 0.14062,-0.78125 0,-0.46875 -0.15625,-0.76562 -0.14062,-0.3125 -0.40625,-0.5 -0.26562,-0.17188 -0.64062,-0.23438 -0.375,-0.0781 -0.8125,-0.0781 l -0.51563,0 0,-0.96875 0.40625,0 q 0.89063,0 1.42188,-0.375 0.53125,-0.375 0.53125,-1.09375 0,-0.3125 -0.14063,-0.54688 -0.125,-0.23437 -0.375,-0.39062 -0.25,-0.15625 -0.54687,-0.20313 -0.28125,-0.0625 -0.64063,-0.0625 -0.5625,0 -1.1875,0.20313 -0.625,0.1875 -1.17187,0.5625 l -0.0625,0 0,-1.23438 q 0.40625,-0.20312 1.09375,-0.375 0.70312,-0.17187 1.35937,-0.17187 0.64063,0 1.125,0.125 0.48438,0.10937 0.875,0.35937 0.42188,0.28125 0.64063,0.6875 0.21875,0.39063 0.21875,0.9375 0,0.71875 -0.51563,1.26563 -0.51562,0.53125 -1.20312,0.67187 l 0,0.0937 q 0.28125,0.0469 0.64062,0.20313 0.35938,0.14062 0.60938,0.35937 z"
     id="path7715"
     style="fill:#000000;fill-rule:nonzero" />
  <path
     d="m 186.00776,137.38564 34.58269,0 0,36.78738 -34.58269,0 z"
     id="path7717"
     style="fill:#ffffff;fill-rule:nonzero" />
  <path
     d="m 186.00776,137.38564 34.58269,0 0,36.78738 -34.58269,0 z"
     id="path7719"
     style="stroke:#000000;stroke-width:2;stroke-linecap:butt;stroke-linejoin:round" />
  <path
     d="m 206.53153,157.84621 -1.29688,0 0,2.45312 -1.125,0 0,-2.45312 -4.17187,0 0,-1.34375 4.21875,-4.92188 1.07812,0 0,5.32813 1.29688,0 0,0.9375 z m -2.42188,-0.9375 0,-3.9375 -3.375,3.9375 3.375,0 z"
     id="path7721"
     style="fill:#000000;fill-rule:nonzero" />
  <path
     d="m 186.00776,173.92409 34.58269,0 0,36.78741 -34.58269,0 z"
     id="path7723"
     style="fill:#ffffff;fill-rule:nonzero" />
  <path
     d="m 186.00776,173.92409 34.58269,0 0,36.78741 -34.58269,0 z"
     id="path7725"
     style="stroke:#000000;stroke-width:2;stroke-linecap:butt;stroke-linejoin:round" />
  <path
     d="m 206.26591,194.07217 q 0,0.60937 -0.23438,1.17187 -0.21875,0.54688 -0.59375,0.92188 -0.42187,0.40625 -1.01562,0.64062 -0.57813,0.21875 -1.34375,0.21875 -0.71875,0 -1.39063,-0.15625 -0.65625,-0.15625 -1.10937,-0.35937 l 0,-1.23438 0.0781,0 q 0.48438,0.29688 1.125,0.51563 0.65625,0.21875 1.26563,0.21875 0.42187,0 0.8125,-0.10938 0.39062,-0.125 0.6875,-0.42187 0.26562,-0.25 0.39062,-0.59375 0.14063,-0.35938 0.14063,-0.82813 0,-0.45312 -0.15625,-0.75 -0.15625,-0.3125 -0.4375,-0.5 -0.29688,-0.23437 -0.73438,-0.3125 -0.4375,-0.0937 -0.98437,-0.0937 -0.51563,0 -1,0.0781 -0.46875,0.0625 -0.8125,0.125 l 0,-4.48438 5.25,0 0,1.01563 -4.10938,0 0,2.32812 q 0.25,-0.0312 0.5,-0.0312 0.26563,-0.0156 0.46875,-0.0156 0.70313,0 1.23438,0.125 0.53125,0.10937 0.98437,0.42187 0.46875,0.3125 0.71875,0.82813 0.26563,0.5 0.26563,1.28125 z"
     id="path7727"
     style="fill:#000000;fill-rule:nonzero" />
  <path
     d="m 186.00776,211.15487 34.58269,0 0,36.78742 -34.58269,0 z"
     id="path7729"
     style="fill:#ffffff;fill-rule:nonzero" />
  <path
     d="m 186.00776,211.15487 34.58269,0 0,36.78742 -34.58269,0 z"
     id="path7731"
     style="stroke:#000000;stroke-width:2;stroke-linecap:butt;stroke-linejoin:round" />
  <path
     d="m 206.46903,231.24043 q 0,1.32813 -0.875,2.17188 -0.875,0.84375 -2.15625,0.84375 -0.64063,0 -1.17188,-0.20313 -0.53125,-0.20312 -0.92187,-0.59375 -0.51563,-0.48437 -0.79688,-1.28125 -0.26562,-0.8125 -0.26562,-1.9375 0,-1.17187 0.25,-2.0625 0.25,-0.89062 0.79687,-1.59375 0.51563,-0.65625 1.32813,-1.03125 0.8125,-0.375 1.90625,-0.375 0.34375,0 0.57812,0.0312 0.23438,0.0312 0.46875,0.10938 l 0,1.10937 -0.0469,0 q -0.17188,-0.0781 -0.5,-0.15625 -0.32813,-0.0781 -0.67188,-0.0781 -1.26562,0 -2.01562,0.78125 -0.75,0.78125 -0.875,2.125 0.5,-0.29688 0.96875,-0.45313 0.48437,-0.15625 1.10937,-0.15625 0.54688,0 0.96875,0.10938 0.4375,0.0937 0.875,0.40625 0.51563,0.35937 0.78125,0.90625 0.26563,0.54687 0.26563,1.32812 z m -1.1875,0.0469 q 0,-0.54688 -0.17188,-0.90625 -0.15625,-0.35938 -0.53125,-0.625 -0.26562,-0.1875 -0.59375,-0.23438 -0.32812,-0.0625 -0.6875,-0.0625 -0.5,0 -0.92187,0.125 -0.42188,0.10938 -0.875,0.35938 -0.0156,0.125 -0.0312,0.25 0,0.10937 0,0.29687 0,0.92188 0.1875,1.46875 0.20312,0.53125 0.53125,0.84375 0.26562,0.25 0.57812,0.375 0.3125,0.10938 0.6875,0.10938 0.84375,0 1.32813,-0.51563 0.5,-0.51562 0.5,-1.48437 z"
     id="path7733"
     style="fill:#000000;fill-rule:nonzero" />
  <path
     d="m 186.00776,247.3087 34.58269,0 0,36.78738 -34.58269,0 z"
     id="path7735"
     style="fill:#ffffff;fill-rule:nonzero" />
  <path
     d="m 186.00776,247.3087 34.58269,0 0,36.78738 -34.58269,0 z"
     id="path7737"
     style="stroke:#000000;stroke-width:2;stroke-linecap:butt;stroke-linejoin:round" />
  <path
     d="m 206.35966,262.80052 -3.95313,7.42188 -1.25,0 4.20313,-7.70313 -4.96875,0 0,-1.01562 5.96875,0 0,1.29687 z"
     id="path7739"
     style="fill:#000000;fill-rule:nonzero" />
  <path
     d="m 186.00776,284.53944 34.58269,0 0,36.78742 -34.58269,0 z"
     id="path7741"
     style="fill:#ffffff;fill-rule:nonzero" />
  <path
     d="m 186.00776,284.53944 34.58269,0 0,36.78742 -34.58269,0 z"
     id="path7743"
     style="stroke:#000000;stroke-width:2;stroke-linecap:butt;stroke-linejoin:round" />
  <path
     d="m 206.40653,305.01567 q 0,1.14062 -0.89063,1.89062 -0.875,0.75 -2.21875,0.75 -1.42187,0 -2.26562,-0.73437 -0.82813,-0.73438 -0.82813,-1.875 0,-0.73438 0.42188,-1.3125 0.42187,-0.59375 1.1875,-0.9375 l 0,-0.0312 q -0.70313,-0.375 -1.04688,-0.8125 -0.32812,-0.45313 -0.32812,-1.125 0,-0.98438 0.79687,-1.64063 0.8125,-0.65625 2.0625,-0.65625 1.3125,0 2.09375,0.625 0.78125,0.625 0.78125,1.59375 0,0.59375 -0.375,1.17188 -0.375,0.5625 -1.07812,0.89062 l 0,0.0312 q 0.8125,0.34375 1.25,0.85938 0.4375,0.51562 0.4375,1.3125 z m -1.39063,-4.25 q 0,-0.625 -0.48437,-1 -0.48438,-0.375 -1.23438,-0.375 -0.73437,0 -1.21875,0.35937 -0.46875,0.34375 -0.46875,0.9375 0,0.42188 0.23438,0.73438 0.25,0.3125 0.71875,0.54687 0.21875,0.10938 0.625,0.28125 0.40625,0.15625 0.79687,0.28125 0.57813,-0.39062 0.79688,-0.79687 0.23437,-0.42188 0.23437,-0.96875 z m 0.17188,4.35937 q 0,-0.53125 -0.23438,-0.85937 -0.23437,-0.32813 -0.92187,-0.65625 -0.28125,-0.125 -0.60938,-0.23438 -0.32812,-0.10937 -0.875,-0.3125 -0.53125,0.28125 -0.84375,0.78125 -0.3125,0.48438 -0.3125,1.10938 0,0.79687 0.53125,1.3125 0.54688,0.51562 1.39063,0.51562 0.85937,0 1.35937,-0.4375 0.51563,-0.4375 0.51563,-1.21875 z"
     id="path7745"
     style="fill:#000000;fill-rule:nonzero" />
  <path
     d="m 220.08471,100.15486 34.58267,0 0,36.78741 -34.58267,0 z"
     id="path7747"
     style="fill:#ffffff;fill-rule:nonzero" />
  <path
     d="m 220.08471,100.15486 34.58267,0 0,36.78741 -34.58267,0 z"
     id="path7749"
     style="stroke:#000000;stroke-width:2;stroke-linecap:butt;stroke-linejoin:round" />
  <path
     d="m 240.60847,120.61543 -1.29688,0 0,2.45313 -1.125,0 0,-2.45313 -4.17187,0 0,-1.34375 4.21875,-4.92187 1.07812,0 0,5.32812 1.29688,0 0,0.9375 z m -2.42188,-0.9375 0,-3.9375 -3.375,3.9375 3.375,0 z"
     id="path7751"
     style="fill:#000000;fill-rule:nonzero" />
  <path
     d="m 220.08471,137.38564 34.58267,0 0,36.78738 -34.58267,0 z"
     id="path7753"
     style="fill:#ffffff;fill-rule:nonzero" />
  <path
     d="m 220.08471,137.38564 34.58267,0 0,36.78738 -34.58267,0 z"
     id="path7755"
     style="stroke:#000000;stroke-width:2;stroke-linecap:butt;stroke-linejoin:round" />
  <path
     d="m 240.34284,157.53371 q 0,0.60937 -0.23438,1.17187 -0.21875,0.54688 -0.59375,0.92188 -0.42187,0.40625 -1.01562,0.64062 -0.57813,0.21875 -1.34375,0.21875 -0.71875,0 -1.39063,-0.15625 -0.65625,-0.15625 -1.10937,-0.35937 l 0,-1.23438 0.0781,0 q 0.48438,0.29688 1.125,0.51563 0.65625,0.21875 1.26563,0.21875 0.42187,0 0.8125,-0.10938 0.39062,-0.125 0.6875,-0.42187 0.26562,-0.25 0.39062,-0.59375 0.14063,-0.35938 0.14063,-0.82813 0,-0.45312 -0.15625,-0.75 -0.15625,-0.3125 -0.4375,-0.5 -0.29688,-0.23437 -0.73438,-0.3125 -0.4375,-0.0937 -0.98437,-0.0937 -0.51563,0 -1,0.0781 -0.46875,0.0625 -0.8125,0.125 l 0,-4.48438 5.25,0 0,1.01563 -4.10938,0 0,2.32812 q 0.25,-0.0312 0.5,-0.0312 0.26563,-0.0156 0.46875,-0.0156 0.70313,0 1.23438,0.125 0.53125,0.10937 0.98437,0.42187 0.46875,0.3125 0.71875,0.82813 0.26563,0.5 0.26563,1.28125 z"
     id="path7757"
     style="fill:#000000;fill-rule:nonzero" />
  <path
     d="m 220.08471,173.92409 34.58267,0 0,36.78741 -34.58267,0 z"
     id="path7759"
     style="fill:#ffffff;fill-rule:nonzero" />
  <path
     d="m 220.08471,173.92409 34.58267,0 0,36.78741 -34.58267,0 z"
     id="path7761"
     style="stroke:#000000;stroke-width:2;stroke-linecap:butt;stroke-linejoin:round" />
  <path
     d="m 240.54597,194.00967 q 0,1.32812 -0.875,2.17187 -0.875,0.84375 -2.15625,0.84375 -0.64063,0 -1.17188,-0.20312 -0.53125,-0.20313 -0.92187,-0.59375 -0.51563,-0.48438 -0.79688,-1.28125 -0.26562,-0.8125 -0.26562,-1.9375 0,-1.17188 0.25,-2.0625 0.25,-0.89063 0.79687,-1.59375 0.51563,-0.65625 1.32813,-1.03125 0.8125,-0.375 1.90625,-0.375 0.34375,0 0.57812,0.0312 0.23438,0.0312 0.46875,0.10937 l 0,1.10938 -0.0469,0 q -0.17188,-0.0781 -0.5,-0.15625 -0.32813,-0.0781 -0.67188,-0.0781 -1.26562,0 -2.01562,0.78125 -0.75,0.78125 -0.875,2.125 0.5,-0.29687 0.96875,-0.45312 0.48437,-0.15625 1.10937,-0.15625 0.54688,0 0.96875,0.10937 0.4375,0.0937 0.875,0.40625 0.51563,0.35938 0.78125,0.90625 0.26563,0.54688 0.26563,1.32813 z m -1.1875,0.0469 q 0,-0.54687 -0.17188,-0.90625 -0.15625,-0.35937 -0.53125,-0.625 -0.26562,-0.1875 -0.59375,-0.23437 -0.32812,-0.0625 -0.6875,-0.0625 -0.5,0 -0.92187,0.125 -0.42188,0.10937 -0.875,0.35937 -0.0156,0.125 -0.0312,0.25 0,0.10938 0,0.29688 0,0.92187 0.1875,1.46875 0.20312,0.53125 0.53125,0.84375 0.26562,0.25 0.57812,0.375 0.3125,0.10937 0.6875,0.10937 0.84375,0 1.32813,-0.51562 0.5,-0.51563 0.5,-1.48438 z"
     id="path7763"
     style="fill:#000000;fill-rule:nonzero" />
  <path
     d="m 220.08471,211.15487 34.58267,0 0,36.78742 -34.58267,0 z"
     id="path7765"
     style="fill:#ffffff;fill-rule:nonzero" />
  <path
     d="m 220.08471,211.15487 34.58267,0 0,36.78742 -34.58267,0 z"
     id="path7767"
     style="stroke:#000000;stroke-width:2;stroke-linecap:butt;stroke-linejoin:round" />
  <path
     d="m 240.43659,226.64667 -3.95313,7.42187 -1.25,0 4.20313,-7.70312 -4.96875,0 0,-1.01563 5.96875,0 0,1.29688 z"
     id="path7769"
     style="fill:#000000;fill-rule:nonzero" />
  <path
     d="m 220.08471,247.3087 34.58267,0 0,36.78738 -34.58267,0 z"
     id="path7771"
     style="fill:#ffffff;fill-rule:nonzero" />
  <path
     d="m 220.08471,247.3087 34.58267,0 0,36.78738 -34.58267,0 z"
     id="path7773"
     style="stroke:#000000;stroke-width:2;stroke-linecap:butt;stroke-linejoin:round" />
  <path
     d="m 240.48347,267.7849 q 0,1.14062 -0.89063,1.89062 -0.875,0.75 -2.21875,0.75 -1.42187,0 -2.26562,-0.73437 -0.82813,-0.73438 -0.82813,-1.875 0,-0.73438 0.42188,-1.3125 0.42187,-0.59375 1.1875,-0.9375 l 0,-0.0312 q -0.70313,-0.375 -1.04688,-0.8125 -0.32812,-0.45313 -0.32812,-1.125 0,-0.98438 0.79687,-1.64063 0.8125,-0.65625 2.0625,-0.65625 1.3125,0 2.09375,0.625 0.78125,0.625 0.78125,1.59375 0,0.59375 -0.375,1.17188 -0.375,0.5625 -1.07812,0.89062 l 0,0.0312 q 0.8125,0.34375 1.25,0.85938 0.4375,0.51562 0.4375,1.3125 z m -1.39063,-4.25 q 0,-0.625 -0.48437,-1 -0.48438,-0.375 -1.23438,-0.375 -0.73437,0 -1.21875,0.35937 -0.46875,0.34375 -0.46875,0.9375 0,0.42188 0.23438,0.73438 0.25,0.3125 0.71875,0.54687 0.21875,0.10938 0.625,0.28125 0.40625,0.15625 0.79687,0.28125 0.57813,-0.39062 0.79688,-0.79687 0.23437,-0.42188 0.23437,-0.96875 z m 0.17188,4.35937 q 0,-0.53125 -0.23438,-0.85937 -0.23437,-0.32813 -0.92187,-0.65625 -0.28125,-0.125 -0.60938,-0.23438 -0.32812,-0.10937 -0.875,-0.3125 -0.53125,0.28125 -0.84375,0.78125 -0.3125,0.48438 -0.3125,1.10938 0,0.79687 0.53125,1.3125 0.54688,0.51562 1.39063,0.51562 0.85937,0 1.35937,-0.4375 0.51563,-0.4375 0.51563,-1.21875 z"
     id="path7775"
     style="fill:#000000;fill-rule:nonzero" />
  <path
     d="m 220.08471,284.53944 34.58267,0 0,36.78742 -34.58267,0 z"
     id="path7777"
     style="fill:#ffffff;fill-rule:nonzero" />
  <path
     d="m 220.08471,284.53944 34.58267,0 0,36.78742 -34.58267,0 z"
     id="path7779"
     style="stroke:#000000;stroke-width:2;stroke-linecap:butt;stroke-linejoin:round" />
  <path
     d="m 240.40534,302.56255 q 0,1.14062 -0.26563,2.07812 -0.26562,0.9375 -0.78125,1.59375 -0.54687,0.65625 -1.34375,1.03125 -0.79687,0.35938 -1.89062,0.35938 -0.29688,0 -0.57813,-0.0312 -0.26562,-0.0312 -0.46875,-0.10938 l 0,-1.10937 0.0625,0 q 0.15625,0.0781 0.46875,0.15625 0.3125,0.0781 0.70313,0.0781 1.28125,0 2.01562,-0.76562 0.75,-0.78125 0.85938,-2.14063 -0.54688,0.32813 -1.03125,0.46875 -0.46875,0.14063 -1.04688,0.14063 -0.53125,0 -0.96875,-0.10938 -0.4375,-0.10937 -0.875,-0.40625 -0.51562,-0.35937 -0.78125,-0.90625 -0.26562,-0.5625 -0.26562,-1.32812 0,-1.32813 0.875,-2.17188 0.89062,-0.84375 2.15625,-0.84375 0.625,0 1.15625,0.20313 0.54687,0.1875 0.95312,0.59375 0.5,0.48437 0.76563,1.25 0.28125,0.76562 0.28125,1.96875 z m -1.1875,-0.25 q 0,-0.90625 -0.1875,-1.45313 -0.1875,-0.5625 -0.51563,-0.85937 -0.28125,-0.26563 -0.59375,-0.375 -0.3125,-0.125 -0.6875,-0.125 -0.84375,0 -1.32812,0.53125 -0.48438,0.53125 -0.48438,1.48437 0,0.5625 0.15625,0.92188 0.15625,0.34375 0.53125,0.60937 0.26563,0.17188 0.57813,0.23438 0.3125,0.0625 0.70312,0.0625 0.45313,0 0.92188,-0.125 0.46875,-0.125 0.875,-0.35938 0.0156,-0.125 0.0156,-0.23437 0.0156,-0.125 0.0156,-0.3125 z"
     id="path7781"
     style="fill:#000000;fill-rule:nonzero" />
  <path
     d="m 255.23853,100.15486 34.58267,0 0,36.78741 -34.58267,0 z"
     id="path7783"
     style="fill:#ffffff;fill-rule:nonzero" />
  <path
     d="m 255.23853,100.15486 34.58267,0 0,36.78741 -34.58267,0 z"
     id="path7785"
     style="stroke:#000000;stroke-width:2;stroke-linecap:butt;stroke-linejoin:round" />
  <path
     d="m 275.49666,120.30293 q 0,0.60938 -0.23438,1.17188 -0.21875,0.54687 -0.59375,0.92187 -0.42187,0.40625 -1.01562,0.64063 -0.57813,0.21875 -1.34375,0.21875 -0.71875,0 -1.39063,-0.15625 -0.65625,-0.15625 -1.10937,-0.35938 l 0,-1.23437 0.0781,0 q 0.48438,0.29687 1.125,0.51562 0.65625,0.21875 1.26563,0.21875 0.42187,0 0.8125,-0.10937 0.39062,-0.125 0.6875,-0.42188 0.26562,-0.25 0.39062,-0.59375 0.14063,-0.35937 0.14063,-0.82812 0,-0.45313 -0.15625,-0.75 -0.15625,-0.3125 -0.4375,-0.5 -0.29688,-0.23438 -0.73438,-0.3125 -0.4375,-0.0937 -0.98437,-0.0937 -0.51563,0 -1,0.0781 -0.46875,0.0625 -0.8125,0.125 l 0,-4.48437 5.25,0 0,1.01562 -4.10938,0 0,2.32813 q 0.25,-0.0312 0.5,-0.0312 0.26563,-0.0156 0.46875,-0.0156 0.70313,0 1.23438,0.125 0.53125,0.10938 0.98437,0.42188 0.46875,0.3125 0.71875,0.82812 0.26563,0.5 0.26563,1.28125 z"
     id="path7787"
     style="fill:#000000;fill-rule:nonzero" />
  <path
     d="m 255.23853,137.38564 34.58267,0 0,36.78738 -34.58267,0 z"
     id="path7789"
     style="fill:#ffffff;fill-rule:nonzero" />
  <path
     d="m 255.23853,137.38564 34.58267,0 0,36.78738 -34.58267,0 z"
     id="path7791"
     style="stroke:#000000;stroke-width:2;stroke-linecap:butt;stroke-linejoin:round" />
  <path
     d="m 275.69979,157.47121 q 0,1.32812 -0.875,2.17187 -0.875,0.84375 -2.15625,0.84375 -0.64063,0 -1.17188,-0.20312 -0.53125,-0.20313 -0.92187,-0.59375 -0.51563,-0.48438 -0.79688,-1.28125 -0.26562,-0.8125 -0.26562,-1.9375 0,-1.17188 0.25,-2.0625 0.25,-0.89063 0.79687,-1.59375 0.51563,-0.65625 1.32813,-1.03125 0.8125,-0.375 1.90625,-0.375 0.34375,0 0.57812,0.0312 0.23438,0.0312 0.46875,0.10937 l 0,1.10938 -0.0469,0 q -0.17188,-0.0781 -0.5,-0.15625 -0.32813,-0.0781 -0.67188,-0.0781 -1.26562,0 -2.01562,0.78125 -0.75,0.78125 -0.875,2.125 0.5,-0.29687 0.96875,-0.45312 0.48437,-0.15625 1.10937,-0.15625 0.54688,0 0.96875,0.10937 0.4375,0.0937 0.875,0.40625 0.51563,0.35938 0.78125,0.90625 0.26563,0.54688 0.26563,1.32813 z m -1.1875,0.0469 q 0,-0.54687 -0.17188,-0.90625 -0.15625,-0.35937 -0.53125,-0.625 -0.26562,-0.1875 -0.59375,-0.23437 -0.32812,-0.0625 -0.6875,-0.0625 -0.5,0 -0.92187,0.125 -0.42188,0.10937 -0.875,0.35937 -0.0156,0.125 -0.0312,0.25 0,0.10938 0,0.29688 0,0.92187 0.1875,1.46875 0.20312,0.53125 0.53125,0.84375 0.26562,0.25 0.57812,0.375 0.3125,0.10937 0.6875,0.10937 0.84375,0 1.32813,-0.51562 0.5,-0.51563 0.5,-1.48438 z"
     id="path7793"
     style="fill:#000000;fill-rule:nonzero" />
  <path
     d="m 255.23853,173.92409 34.58267,0 0,36.78741 -34.58267,0 z"
     id="path7795"
     style="fill:#ffffff;fill-rule:nonzero" />
  <path
     d="m 255.23853,173.92409 34.58267,0 0,36.78741 -34.58267,0 z"
     id="path7797"
     style="stroke:#000000;stroke-width:2;stroke-linecap:butt;stroke-linejoin:round" />
  <path
     d="m 275.59041,189.41591 -3.95313,7.42187 -1.25,0 4.20313,-7.70312 -4.96875,0 0,-1.01563 5.96875,0 0,1.29688 z"
     id="path7799"
     style="fill:#000000;fill-rule:nonzero" />
  <path
     d="m 255.23853,211.15487 34.58267,0 0,36.78742 -34.58267,0 z"
     id="path7801"
     style="fill:#ffffff;fill-rule:nonzero" />
  <path
     d="m 255.23853,211.15487 34.58267,0 0,36.78742 -34.58267,0 z"
     id="path7803"
     style="stroke:#000000;stroke-width:2;stroke-linecap:butt;stroke-linejoin:round" />
  <path
     d="m 275.63729,231.63107 q 0,1.14062 -0.89063,1.89062 -0.875,0.75 -2.21875,0.75 -1.42187,0 -2.26562,-0.73437 -0.82813,-0.73438 -0.82813,-1.875 0,-0.73438 0.42188,-1.3125 0.42187,-0.59375 1.1875,-0.9375 l 0,-0.0312 q -0.70313,-0.375 -1.04688,-0.8125 -0.32812,-0.45313 -0.32812,-1.125 0,-0.98438 0.79687,-1.64063 0.8125,-0.65625 2.0625,-0.65625 1.3125,0 2.09375,0.625 0.78125,0.625 0.78125,1.59375 0,0.59375 -0.375,1.17188 -0.375,0.5625 -1.07812,0.89062 l 0,0.0312 q 0.8125,0.34375 1.25,0.85938 0.4375,0.51562 0.4375,1.3125 z m -1.39063,-4.25 q 0,-0.625 -0.48437,-1 -0.48438,-0.375 -1.23438,-0.375 -0.73437,0 -1.21875,0.35937 -0.46875,0.34375 -0.46875,0.9375 0,0.42188 0.23438,0.73438 0.25,0.3125 0.71875,0.54687 0.21875,0.10938 0.625,0.28125 0.40625,0.15625 0.79687,0.28125 0.57813,-0.39062 0.79688,-0.79687 0.23437,-0.42188 0.23437,-0.96875 z m 0.17188,4.35937 q 0,-0.53125 -0.23438,-0.85937 -0.23437,-0.32813 -0.92187,-0.65625 -0.28125,-0.125 -0.60938,-0.23438 -0.32812,-0.10937 -0.875,-0.3125 -0.53125,0.28125 -0.84375,0.78125 -0.3125,0.48438 -0.3125,1.10938 0,0.79687 0.53125,1.3125 0.54688,0.51562 1.39063,0.51562 0.85937,0 1.35937,-0.4375 0.51563,-0.4375 0.51563,-1.21875 z"
     id="path7805"
     style="fill:#000000;fill-rule:nonzero" />
  <path
     d="m 255.23853,247.3087 34.58267,0 0,36.78738 -34.58267,0 z"
     id="path7807"
     style="fill:#ffffff;fill-rule:nonzero" />
  <path
     d="m 255.23853,247.3087 34.58267,0 0,36.78738 -34.58267,0 z"
     id="path7809"
     style="stroke:#000000;stroke-width:2;stroke-linecap:butt;stroke-linejoin:round" />
  <path
     d="m 275.55916,265.33177 q 0,1.14063 -0.26563,2.07813 -0.26562,0.9375 -0.78125,1.59375 -0.54687,0.65625 -1.34375,1.03125 -0.79687,0.35937 -1.89062,0.35937 -0.29688,0 -0.57813,-0.0312 -0.26562,-0.0312 -0.46875,-0.10937 l 0,-1.10938 0.0625,0 q 0.15625,0.0781 0.46875,0.15625 0.3125,0.0781 0.70313,0.0781 1.28125,0 2.01562,-0.76563 0.75,-0.78125 0.85938,-2.14062 -0.54688,0.32812 -1.03125,0.46875 -0.46875,0.14062 -1.04688,0.14062 -0.53125,0 -0.96875,-0.10937 -0.4375,-0.10938 -0.875,-0.40625 -0.51562,-0.35938 -0.78125,-0.90625 -0.26562,-0.5625 -0.26562,-1.32813 0,-1.32812 0.875,-2.17187 0.89062,-0.84375 2.15625,-0.84375 0.625,0 1.15625,0.20312 0.54687,0.1875 0.95312,0.59375 0.5,0.48438 0.76563,1.25 0.28125,0.76563 0.28125,1.96875 z m -1.1875,-0.25 q 0,-0.90625 -0.1875,-1.45312 -0.1875,-0.5625 -0.51563,-0.85938 -0.28125,-0.26562 -0.59375,-0.375 -0.3125,-0.125 -0.6875,-0.125 -0.84375,0 -1.32812,0.53125 -0.48438,0.53125 -0.48438,1.48438 0,0.5625 0.15625,0.92187 0.15625,0.34375 0.53125,0.60938 0.26563,0.17187 0.57813,0.23437 0.3125,0.0625 0.70312,0.0625 0.45313,0 0.92188,-0.125 0.46875,-0.125 0.875,-0.35937 0.0156,-0.125 0.0156,-0.23438 0.0156,-0.125 0.0156,-0.3125 z"
     id="path7811"
     style="fill:#000000;fill-rule:nonzero" />
  <path
     d="m 255.23853,284.53944 34.58267,0 0,36.78742 -34.58267,0 z"
     id="path7813"
     style="fill:#ffffff;fill-rule:nonzero" />
  <path
     d="m 255.23853,284.53944 34.58267,0 0,36.78742 -34.58267,0 z"
     id="path7815"
     style="stroke:#000000;stroke-width:2;stroke-linecap:butt;stroke-linejoin:round" />
  <path
     d="m 271.26034,307.45317 -4.73438,0 0,-0.89063 1.82813,0 0,-5.84375 -1.82813,0 0,-0.79687 q 0.375,0 0.79688,-0.0625 0.42187,-0.0625 0.64062,-0.1875 0.26563,-0.14063 0.42188,-0.35938 0.15625,-0.23437 0.17187,-0.60937 l 0.92188,0 0,7.85937 1.78125,0 0,0.89063 z m 8.1133,-4.35938 q 0,2.34375 -0.73438,3.45313 -0.73437,1.09375 -2.28126,1.09375 -1.57813,0 -2.3125,-1.10938 -0.71875,-1.125 -0.71875,-3.4375 0,-2.32812 0.73437,-3.4375 0.73438,-1.10937 2.29688,-1.10937 1.56251,0 2.28126,1.14062 0.73438,1.125 0.73438,3.40625 z m -1.54688,2.65625 q 0.20313,-0.48437 0.28125,-1.125 0.0781,-0.64062 0.0781,-1.53125 0,-0.89062 -0.0781,-1.54687 -0.0781,-0.65625 -0.28125,-1.125 -0.20312,-0.45313 -0.5625,-0.67188 -0.35937,-0.23437 -0.90626,-0.23437 -0.5625,0 -0.92188,0.23437 -0.35937,0.21875 -0.5625,0.6875 -0.20312,0.4375 -0.28125,1.14063 -0.0625,0.6875 -0.0625,1.51562 0,0.92188 0.0625,1.54688 0.0625,0.60937 0.26563,1.09375 0.20312,0.45312 0.54687,0.70312 0.35938,0.23438 0.95313,0.23438 0.54689,0 0.90626,-0.23438 0.35938,-0.23437 0.5625,-0.6875 z"
     id="path7817"
     style="fill:#000000;fill-rule:nonzero" />
  <path
     d="m 289.31548,100.15486 34.58267,0 0,36.78741 -34.58267,0 z"
     id="path7819"
     style="fill:#ffffff;fill-rule:nonzero" />
  <path
     d="m 289.31548,100.15486 34.58267,0 0,36.78741 -34.58267,0 z"
     id="path7821"
     style="stroke:#000000;stroke-width:2;stroke-linecap:butt;stroke-linejoin:round" />
  <path
     d="m 309.77674,120.24043 q 0,1.32813 -0.875,2.17188 -0.875,0.84375 -2.15625,0.84375 -0.64062,0 -1.17187,-0.20313 -0.53125,-0.20312 -0.92188,-0.59375 -0.51562,-0.48437 -0.79687,-1.28125 -0.26563,-0.8125 -0.26563,-1.9375 0,-1.17187 0.25,-2.0625 0.25,-0.89062 0.79688,-1.59375 0.51562,-0.65625 1.32812,-1.03125 0.8125,-0.375 1.90625,-0.375 0.34375,0 0.57813,0.0312 0.23437,0.0312 0.46875,0.10938 l 0,1.10937 -0.0469,0 q -0.17187,-0.0781 -0.5,-0.15625 -0.32812,-0.0781 -0.67187,-0.0781 -1.26563,0 -2.01563,0.78125 -0.75,0.78125 -0.875,2.125 0.5,-0.29688 0.96875,-0.45313 0.48438,-0.15625 1.10938,-0.15625 0.54687,0 0.96875,0.10938 0.4375,0.0937 0.875,0.40625 0.51562,0.35937 0.78125,0.90625 0.26562,0.54687 0.26562,1.32812 z m -1.1875,0.0469 q 0,-0.54688 -0.17187,-0.90625 -0.15625,-0.35938 -0.53125,-0.625 -0.26563,-0.1875 -0.59375,-0.23438 -0.32813,-0.0625 -0.6875,-0.0625 -0.5,0 -0.92188,0.125 -0.42187,0.10938 -0.875,0.35938 -0.0156,0.125 -0.0312,0.25 0,0.10937 0,0.29687 0,0.92188 0.1875,1.46875 0.20313,0.53125 0.53125,0.84375 0.26563,0.25 0.57813,0.375 0.3125,0.10938 0.6875,0.10938 0.84375,0 1.32812,-0.51563 0.5,-0.51562 0.5,-1.48437 z"
     id="path7823"
     style="fill:#000000;fill-rule:nonzero" />
  <path
     d="m 289.31548,137.38564 34.58267,0 0,36.78738 -34.58267,0 z"
     id="path7825"
     style="fill:#ffffff;fill-rule:nonzero" />
  <path
     d="m 289.31548,137.38564 34.58267,0 0,36.78738 -34.58267,0 z"
     id="path7827"
     style="stroke:#000000;stroke-width:2;stroke-linecap:butt;stroke-linejoin:round" />
  <path
     d="m 309.66738,152.87747 -3.95313,7.42188 -1.25,0 4.20313,-7.70313 -4.96875,0 0,-1.01562 5.96875,0 0,1.29687 z"
     id="path7829"
     style="fill:#000000;fill-rule:nonzero" />
  <path
     d="m 289.31548,173.92409 34.58267,0 0,36.78741 -34.58267,0 z"
     id="path7831"
     style="fill:#ffffff;fill-rule:nonzero" />
  <path
     d="m 289.31548,173.92409 34.58267,0 0,36.78741 -34.58267,0 z"
     id="path7833"
     style="stroke:#000000;stroke-width:2;stroke-linecap:butt;stroke-linejoin:round" />
  <path
     d="m 309.71424,194.40027 q 0,1.14062 -0.89062,1.89062 -0.875,0.75 -2.21875,0.75 -1.42188,0 -2.26563,-0.73437 -0.82812,-0.73438 -0.82812,-1.875 0,-0.73438 0.42187,-1.3125 0.42188,-0.59375 1.1875,-0.9375 l 0,-0.0312 q -0.70312,-0.375 -1.04687,-0.8125 -0.32813,-0.45313 -0.32813,-1.125 0,-0.98438 0.79688,-1.64063 0.8125,-0.65625 2.0625,-0.65625 1.3125,0 2.09375,0.625 0.78125,0.625 0.78125,1.59375 0,0.59375 -0.375,1.17188 -0.375,0.5625 -1.07813,0.89062 l 0,0.0312 q 0.8125,0.34375 1.25,0.85938 0.4375,0.51562 0.4375,1.3125 z m -1.39062,-4.25 q 0,-0.625 -0.48438,-1 -0.48437,-0.375 -1.23437,-0.375 -0.73438,0 -1.21875,0.35937 -0.46875,0.34375 -0.46875,0.9375 0,0.42188 0.23437,0.73438 0.25,0.3125 0.71875,0.54687 0.21875,0.10938 0.625,0.28125 0.40625,0.15625 0.79688,0.28125 0.57812,-0.39062 0.79687,-0.79687 0.23438,-0.42188 0.23438,-0.96875 z m 0.17187,4.35937 q 0,-0.53125 -0.23437,-0.85937 -0.23438,-0.32813 -0.92188,-0.65625 -0.28125,-0.125 -0.60937,-0.23438 -0.32813,-0.10937 -0.875,-0.3125 -0.53125,0.28125 -0.84375,0.78125 -0.3125,0.48438 -0.3125,1.10938 0,0.79687 0.53125,1.3125 0.54687,0.51562 1.39062,0.51562 0.85938,0 1.35938,-0.4375 0.51562,-0.4375 0.51562,-1.21875 z"
     id="path7835"
     style="fill:#000000;fill-rule:nonzero" />
  <path
     d="m 289.31548,211.15487 34.58267,0 0,36.78742 -34.58267,0 z"
     id="path7837"
     style="fill:#ffffff;fill-rule:nonzero" />
  <path
     d="m 289.31548,211.15487 34.58267,0 0,36.78742 -34.58267,0 z"
     id="path7839"
     style="stroke:#000000;stroke-width:2;stroke-linecap:butt;stroke-linejoin:round" />
  <path
     d="m 309.63611,229.17793 q 0,1.14063 -0.26562,2.07813 -0.26563,0.9375 -0.78125,1.59375 -0.54688,0.65625 -1.34375,1.03125 -0.79688,0.35937 -1.89063,0.35937 -0.29687,0 -0.57812,-0.0312 -0.26563,-0.0312 -0.46875,-0.10937 l 0,-1.10938 0.0625,0 q 0.15625,0.0781 0.46875,0.15625 0.3125,0.0781 0.70312,0.0781 1.28125,0 2.01563,-0.76563 0.75,-0.78125 0.85937,-2.14062 -0.54687,0.32812 -1.03125,0.46875 -0.46875,0.14062 -1.04687,0.14062 -0.53125,0 -0.96875,-0.10937 -0.4375,-0.10938 -0.875,-0.40625 -0.51563,-0.35938 -0.78125,-0.90625 -0.26563,-0.5625 -0.26563,-1.32813 0,-1.32812 0.875,-2.17187 0.89063,-0.84375 2.15625,-0.84375 0.625,0 1.15625,0.20312 0.54688,0.1875 0.95313,0.59375 0.5,0.48438 0.76562,1.25 0.28125,0.76563 0.28125,1.96875 z m -1.1875,-0.25 q 0,-0.90625 -0.1875,-1.45312 -0.1875,-0.5625 -0.51562,-0.85938 -0.28125,-0.26562 -0.59375,-0.375 -0.3125,-0.125 -0.6875,-0.125 -0.84375,0 -1.32813,0.53125 -0.48437,0.53125 -0.48437,1.48438 0,0.5625 0.15625,0.92187 0.15625,0.34375 0.53125,0.60938 0.26562,0.17187 0.57812,0.23437 0.3125,0.0625 0.70313,0.0625 0.45312,0 0.92187,-0.125 0.46875,-0.125 0.875,-0.35937 0.0156,-0.125 0.0156,-0.23438 0.0156,-0.125 0.0156,-0.3125 z"
     id="path7841"
     style="fill:#000000;fill-rule:nonzero" />
  <path
     d="m 289.31548,247.3087 34.58267,0 0,36.78738 -34.58267,0 z"
     id="path7843"
     style="fill:#ffffff;fill-rule:nonzero" />
  <path
     d="m 289.31548,247.3087 34.58267,0 0,36.78738 -34.58267,0 z"
     id="path7845"
     style="stroke:#000000;stroke-width:2;stroke-linecap:butt;stroke-linejoin:round" />
  <path
     d="m 305.33728,270.2224 -4.73437,0 0,-0.89063 1.82812,0 0,-5.84375 -1.82812,0 0,-0.79687 q 0.375,0 0.79687,-0.0625 0.42188,-0.0625 0.64063,-0.1875 0.26562,-0.14063 0.42187,-0.35938 0.15625,-0.23437 0.17188,-0.60937 l 0.92187,0 0,7.85937 1.78125,0 0,0.89063 z m 8.11328,-4.35938 q 0,2.34375 -0.73437,3.45313 -0.73438,1.09375 -2.28125,1.09375 -1.57813,0 -2.3125,-1.10938 -0.71875,-1.125 -0.71875,-3.4375 0,-2.32812 0.73437,-3.4375 0.73438,-1.10937 2.29688,-1.10937 1.5625,0 2.28125,1.14062 0.73437,1.125 0.73437,3.40625 z m -1.54687,2.65625 q 0.20312,-0.48437 0.28125,-1.125 0.0781,-0.64062 0.0781,-1.53125 0,-0.89062 -0.0781,-1.54687 -0.0781,-0.65625 -0.28125,-1.125 -0.20313,-0.45313 -0.5625,-0.67188 -0.35938,-0.23437 -0.90625,-0.23437 -0.5625,0 -0.92188,0.23437 -0.35937,0.21875 -0.5625,0.6875 -0.20312,0.4375 -0.28125,1.14063 -0.0625,0.6875 -0.0625,1.51562 0,0.92188 0.0625,1.54688 0.0625,0.60937 0.26563,1.09375 0.20312,0.45312 0.54687,0.70312 0.35938,0.23438 0.95313,0.23438 0.54687,0 0.90625,-0.23438 0.35937,-0.23437 0.5625,-0.6875 z"
     id="path7847"
     style="fill:#000000;fill-rule:nonzero" />
  <path
     d="m 289.31548,284.53944 34.58267,0 0,36.78742 -34.58267,0 z"
     id="path7849"
     style="fill:#ffffff;fill-rule:nonzero" />
  <path
     d="m 289.31548,284.53944 34.58267,0 0,36.78742 -34.58267,0 z"
     id="path7851"
     style="stroke:#000000;stroke-width:2;stroke-linecap:butt;stroke-linejoin:round" />
  <path
     d="m 305.33728,307.45317 -4.73437,0 0,-0.89063 1.82812,0 0,-5.84375 -1.82812,0 0,-0.79687 q 0.375,0 0.79687,-0.0625 0.42188,-0.0625 0.64063,-0.1875 0.26562,-0.14063 0.42187,-0.35938 0.15625,-0.23437 0.17188,-0.60937 l 0.92187,0 0,7.85937 1.78125,0 0,0.89063 z m 7.62891,0 -4.73438,0 0,-0.89063 1.82813,0 0,-5.84375 -1.82813,0 0,-0.79687 q 0.375,0 0.79688,-0.0625 0.42187,-0.0625 0.64062,-0.1875 0.26563,-0.14063 0.42188,-0.35938 0.15625,-0.23437 0.17187,-0.60937 l 0.92188,0 0,7.85937 1.78125,0 0,0.89063 z"
     id="path7853"
     style="fill:#000000;fill-rule:nonzero" />
  <path
     d="m 150.85392,247.3087 34.58269,0 0,36.78738 -34.58269,0 z"
     id="path7855"
     style="fill:#ffffff;fill-rule:nonzero" />
  <path
     d="m 150.85392,247.3087 34.58269,0 0,36.78738 -34.58269,0 z"
     id="path7857"
     style="stroke:#000000;stroke-width:2;stroke-linecap:butt;stroke-linejoin:round" />
  <path
     d="m 171.31519,267.39427 q 0,1.32813 -0.875,2.17188 -0.875,0.84375 -2.15625,0.84375 -0.64063,0 -1.17188,-0.20313 -0.53125,-0.20312 -0.92187,-0.59375 -0.51563,-0.48437 -0.79688,-1.28125 -0.26562,-0.8125 -0.26562,-1.9375 0,-1.17187 0.25,-2.0625 0.25,-0.89062 0.79687,-1.59375 0.51563,-0.65625 1.32813,-1.03125 0.8125,-0.375 1.90625,-0.375 0.34375,0 0.57812,0.0312 0.23438,0.0312 0.46875,0.10938 l 0,1.10937 -0.0469,0 q -0.17188,-0.0781 -0.5,-0.15625 -0.32813,-0.0781 -0.67188,-0.0781 -1.26562,0 -2.01562,0.78125 -0.75,0.78125 -0.875,2.125 0.5,-0.29688 0.96875,-0.45313 0.48437,-0.15625 1.10937,-0.15625 0.54688,0 0.96875,0.10938 0.4375,0.0937 0.875,0.40625 0.51563,0.35937 0.78125,0.90625 0.26563,0.54687 0.26563,1.32812 z m -1.1875,0.0469 q 0,-0.54688 -0.17188,-0.90625 -0.15625,-0.35938 -0.53125,-0.625 -0.26562,-0.1875 -0.59375,-0.23438 -0.32812,-0.0625 -0.6875,-0.0625 -0.5,0 -0.92187,0.125 -0.42188,0.10938 -0.875,0.35938 -0.0156,0.125 -0.0312,0.25 0,0.10937 0,0.29687 0,0.92188 0.1875,1.46875 0.20312,0.53125 0.53125,0.84375 0.26562,0.25 0.57812,0.375 0.3125,0.10938 0.6875,0.10938 0.84375,0 1.32813,-0.51563 0.5,-0.51562 0.5,-1.48437 z"
     id="path7859"
     style="fill:#000000;fill-rule:nonzero" />
  <path
     d="m 355.82158,44.15486 67.4646,0 0,36.7874 -67.4646,0 z"
     id="path7861"
     style="fill:#000000;fill-opacity:0;fill-rule:nonzero" />
  <path
     d="m 356.70286,44.15486 67.4646,0 0,36.7874 -67.4646,0 z"
     id="path7863"
     style="stroke:#000000;stroke-width:2;stroke-linecap:butt;stroke-linejoin:round" />
  <path
     d="m 386.77796,67.06856 -1.40625,0 0,-1.67188 1.40625,0 0,1.67188 z m 4.36523,0 -1.40625,0 0,-1.67188 1.40625,0 0,1.67188 z m 4.36524,0 -1.40625,0 0,-1.67188 1.40625,0 0,1.67188 z"
     id="path7865"
     style="fill:#000000;fill-rule:nonzero" />
  <path
     d="m 424.16321,44.15486 34.58264,0 0,36.7874 -34.58264,0 z"
     id="path7867"
     style="fill:#000000;fill-opacity:0;fill-rule:nonzero" />
  <path
     d="m 424.16321,44.15486 34.58264,0 0,36.7874 -34.58264,0 z"
     id="path7869"
     style="stroke:#000000;stroke-width:2;stroke-linecap:butt;stroke-linejoin:round" />
  <path
     d="m 444.22016,67.06856 -1.10938,0 0,-3.73438 q 0,-0.4375 -0.0625,-0.82812 -0.0469,-0.40625 -0.1875,-0.625 -0.14062,-0.25 -0.42187,-0.35938 -0.26563,-0.125 -0.70313,-0.125 -0.45312,0 -0.95312,0.21875 -0.48438,0.21875 -0.9375,0.5625 l 0,4.89063 -1.10938,0 0,-6.54688 1.10938,0 0,0.73438 q 0.51562,-0.4375 1.0625,-0.67188 0.54687,-0.25 1.14062,-0.25 1.04688,0 1.60938,0.64063 0.5625,0.64062 0.5625,1.84375 l 0,4.25 z"
     id="path7871"
     style="fill:#000000;fill-rule:nonzero" />
  <path
     d="m 116.77659,0 162.07874,0 0,36.7874 -162.07874,0 z"
     id="path7877"
     style="fill:#000000;fill-opacity:0;fill-rule:nonzero" />
  <path
     d="m 116.777,44.15486 34.58267,0 0,36.7874 -34.58267,0 z"
     id="path7881"
     style="fill:#f6a800;fill-rule:nonzero" />
  <path
     d="m 116.777,44.15486 34.58267,0 0,36.7874 -34.58267,0 z"
     id="path7883"
     style="stroke:#000000;stroke-width:2;stroke-linecap:butt;stroke-linejoin:round" />
  <path
     d="m 136.61326,67.06856 -4.73437,0 0,-0.89063 1.82812,0 0,-5.84375 -1.82812,0 0,-0.79687 q 0.375,0 0.79687,-0.0625 0.42188,-0.0625 0.64063,-0.1875 0.26562,-0.14063 0.42187,-0.35938 0.15625,-0.23437 0.17188,-0.60937 l 0.92187,0 0,7.85937 1.78125,0 0,0.89063 z"
     id="path7885"
     style="fill:#ffffff;fill-rule:nonzero" />
  <path
     d="m 116.777,100.15486 34.58267,0 0,36.78741 -34.58267,0 z"
     id="path7887"
     style="fill:#f6a800;fill-rule:nonzero" />
  <path
     d="m 116.777,100.15486 34.58267,0 0,36.78741 -34.58267,0 z"
     id="path7889"
     style="stroke:#000000;stroke-width:2;stroke-linecap:butt;stroke-linejoin:round" />
  <path
     d="m 136.61326,123.06857 -4.73437,0 0,-0.89063 1.82812,0 0,-5.84375 -1.82812,0 0,-0.79687 q 0.375,0 0.79687,-0.0625 0.42188,-0.0625 0.64063,-0.1875 0.26562,-0.14063 0.42187,-0.35938 0.15625,-0.23437 0.17188,-0.60937 l 0.92187,0 0,7.85937 1.78125,0 0,0.89063 z"
     id="path7891"
     style="fill:#ffffff;fill-rule:nonzero" />
  <path
     d="m 150.85392,44.15486 34.58269,0 0,36.7874 -34.58269,0 z"
     id="path7893"
     style="fill:#f6a800;fill-rule:nonzero" />
  <path
     d="m 150.85392,44.15486 34.58269,0 0,36.7874 -34.58269,0 z"
     id="path7895"
     style="stroke:#000000;stroke-width:2;stroke-linecap:butt;stroke-linejoin:round" />
  <path
     d="m 171.17457,67.06856 -5.90625,0 0,-1.21875 q 0.625,-0.53125 1.23437,-1.0625 0.625,-0.53125 1.15625,-1.04688 1.125,-1.09375 1.53125,-1.73437 0.42188,-0.64063 0.42188,-1.39063 0,-0.67187 -0.45313,-1.04687 -0.4375,-0.39063 -1.23437,-0.39063 -0.54688,0 -1.17188,0.1875 -0.60937,0.1875 -1.20312,0.57813 l -0.0625,0 0,-1.23438 q 0.42187,-0.20312 1.10937,-0.375 0.70313,-0.17187 1.34375,-0.17187 1.34375,0 2.10938,0.65625 0.76562,0.64062 0.76562,1.75 0,0.5 -0.125,0.9375 -0.125,0.42187 -0.375,0.79687 -0.23437,0.375 -0.54687,0.73438 -0.29688,0.34375 -0.73438,0.76562 -0.625,0.60938 -1.29687,1.1875 -0.67188,0.57813 -1.25,1.07813 l 4.6875,0 0,1 z"
     id="path7897"
     style="fill:#ffffff;fill-rule:nonzero" />
  <path
     d="m 150.85392,100.15486 34.58269,0 0,36.78741 -34.58269,0 z"
     id="path7899"
     style="fill:#f6a800;fill-rule:nonzero" />
  <path
     d="m 150.85392,100.15486 34.58269,0 0,36.78741 -34.58269,0 z"
     id="path7901"
     style="stroke:#000000;stroke-width:2;stroke-linecap:butt;stroke-linejoin:round" />
  <path
     d="m 171.17457,123.06857 -5.90625,0 0,-1.21875 q 0.625,-0.53125 1.23437,-1.0625 0.625,-0.53125 1.15625,-1.04688 1.125,-1.09375 1.53125,-1.73437 0.42188,-0.64063 0.42188,-1.39063 0,-0.67187 -0.45313,-1.04687 -0.4375,-0.39063 -1.23437,-0.39063 -0.54688,0 -1.17188,0.1875 -0.60937,0.1875 -1.20312,0.57813 l -0.0625,0 0,-1.23438 q 0.42187,-0.20312 1.10937,-0.375 0.70313,-0.17187 1.34375,-0.17187 1.34375,0 2.10938,0.65625 0.76562,0.64062 0.76562,1.75 0,0.5 -0.125,0.9375 -0.125,0.42187 -0.375,0.79687 -0.23437,0.375 -0.54687,0.73438 -0.29688,0.34375 -0.73438,0.76562 -0.625,0.60938 -1.29687,1.1875 -0.67188,0.57813 -1.25,1.07813 l 4.6875,0 0,1 z"
     id="path7903"
     style="fill:#ffffff;fill-rule:nonzero" />
  <path
     d="m 185.4358,44.15486 34.58267,0 0,36.7874 -34.58267,0 z"
     id="path7905"
     style="fill:#f6a800;fill-rule:nonzero" />
  <path
     d="m 185.4358,44.15486 34.58267,0 0,36.7874 -34.58267,0 z"
     id="path7907"
     style="stroke:#000000;stroke-width:2;stroke-linecap:butt;stroke-linejoin:round" />
  <path
     d="m 204.99081,62.86543 q 0.28125,0.25 0.46875,0.64063 0.1875,0.375 0.1875,0.98437 0,0.59375 -0.21875,1.09375 -0.21875,0.5 -0.60938,0.85938 -0.4375,0.40625 -1.04687,0.60937 -0.59375,0.20313 -1.29688,0.20313 -0.71875,0 -1.42187,-0.1875 -0.70313,-0.17188 -1.15625,-0.375 l 0,-1.21875 0.0781,0 q 0.5,0.32812 1.17188,0.54687 0.67187,0.21875 1.3125,0.21875 0.35937,0 0.76562,-0.125 0.42188,-0.125 0.6875,-0.35937 0.26563,-0.26563 0.39063,-0.57813 0.14062,-0.3125 0.14062,-0.78125 0,-0.46875 -0.15625,-0.76562 -0.14062,-0.3125 -0.40625,-0.5 -0.26562,-0.17188 -0.64062,-0.23438 -0.375,-0.0781 -0.8125,-0.0781 l -0.51563,0 0,-0.96875 0.40625,0 q 0.89063,0 1.42188,-0.375 0.53125,-0.375 0.53125,-1.09375 0,-0.3125 -0.14063,-0.54688 -0.125,-0.23437 -0.375,-0.39062 -0.25,-0.15625 -0.54687,-0.20313 -0.28125,-0.0625 -0.64063,-0.0625 -0.5625,0 -1.1875,0.20313 -0.625,0.1875 -1.17187,0.5625 l -0.0625,0 0,-1.23438 q 0.40625,-0.20312 1.09375,-0.375 0.70312,-0.17187 1.35937,-0.17187 0.64063,0 1.125,0.125 0.48438,0.10937 0.875,0.35937 0.42188,0.28125 0.64063,0.6875 0.21875,0.39063 0.21875,0.9375 0,0.71875 -0.51563,1.26563 -0.51562,0.53125 -1.20312,0.67187 l 0,0.0937 q 0.28125,0.0469 0.64062,0.20313 0.35938,0.14062 0.60938,0.35937 z"
     id="path7909"
     style="fill:#ffffff;fill-rule:nonzero" />
  <path
     d="m 186.00776,100.15486 34.58269,0 0,36.78741 -34.58269,0 z"
     id="path7911"
     style="fill:#f6a800;fill-rule:nonzero" />
  <path
     d="m 186.00776,100.15486 34.58269,0 0,36.78741 -34.58269,0 z"
     id="path7913"
     style="stroke:#000000;stroke-width:2;stroke-linecap:butt;stroke-linejoin:round" />
  <path
     d="m 205.56278,118.86543 q 0.28125,0.25 0.46875,0.64063 0.1875,0.375 0.1875,0.98437 0,0.59375 -0.21875,1.09375 -0.21875,0.5 -0.60938,0.85938 -0.4375,0.40625 -1.04687,0.60937 -0.59375,0.20313 -1.29688,0.20313 -0.71875,0 -1.42187,-0.1875 -0.70313,-0.17188 -1.15625,-0.375 l 0,-1.21875 0.0781,0 q 0.5,0.32812 1.17188,0.54687 0.67187,0.21875 1.3125,0.21875 0.35937,0 0.76562,-0.125 0.42188,-0.125 0.6875,-0.35937 0.26563,-0.26563 0.39063,-0.57813 0.14062,-0.3125 0.14062,-0.78125 0,-0.46875 -0.15625,-0.76562 -0.14062,-0.3125 -0.40625,-0.5 -0.26562,-0.17188 -0.64062,-0.23438 -0.375,-0.0781 -0.8125,-0.0781 l -0.51563,0 0,-0.96875 0.40625,0 q 0.89063,0 1.42188,-0.375 0.53125,-0.375 0.53125,-1.09375 0,-0.3125 -0.14063,-0.54688 -0.125,-0.23437 -0.375,-0.39062 -0.25,-0.15625 -0.54687,-0.20313 -0.28125,-0.0625 -0.64063,-0.0625 -0.5625,0 -1.1875,0.20313 -0.625,0.1875 -1.17187,0.5625 l -0.0625,0 0,-1.23438 q 0.40625,-0.20312 1.09375,-0.375 0.70312,-0.17187 1.35937,-0.17187 0.64063,0 1.125,0.125 0.48438,0.10937 0.875,0.35937 0.42188,0.28125 0.64063,0.6875 0.21875,0.39063 0.21875,0.9375 0,0.71875 -0.51563,1.26563 -0.51562,0.53125 -1.20312,0.67187 l 0,0.0937 q 0.28125,0.0469 0.64062,0.20313 0.35938,0.14062 0.60938,0.35937 z"
     id="path7915"
     style="fill:#ffffff;fill-rule:nonzero" />
  <path
     d="m 219.5127,44.15486 34.58269,0 0,36.7874 -34.58269,0 z"
     id="path7917"
     style="fill:#f6a800;fill-rule:nonzero" />
  <path
     d="m 219.5127,44.15486 34.58269,0 0,36.7874 -34.58269,0 z"
     id="path7919"
     style="stroke:#000000;stroke-width:2;stroke-linecap:butt;stroke-linejoin:round" />
  <path
     d="m 240.03648,64.61543 -1.29688,0 0,2.45313 -1.125,0 0,-2.45313 -4.17187,0 0,-1.34375 4.21875,-4.92187 1.07812,0 0,5.32812 1.29688,0 0,0.9375 z m -2.42188,-0.9375 0,-3.9375 -3.375,3.9375 3.375,0 z"
     id="path7921"
     style="fill:#ffffff;fill-rule:nonzero" />
  <path
     d="m 220.08471,100.15486 34.58267,0 0,36.78741 -34.58267,0 z"
     id="path7923"
     style="fill:#f6a800;fill-rule:nonzero" />
  <path
     d="m 220.08471,100.15486 34.58267,0 0,36.78741 -34.58267,0 z"
     id="path7925"
     style="stroke:#000000;stroke-width:2;stroke-linecap:butt;stroke-linejoin:round" />
  <path
     d="m 240.60847,120.61543 -1.29688,0 0,2.45313 -1.125,0 0,-2.45313 -4.17187,0 0,-1.34375 4.21875,-4.92187 1.07812,0 0,5.32812 1.29688,0 0,0.9375 z m -2.42188,-0.9375 0,-3.9375 -3.375,3.9375 3.375,0 z"
     id="path7927"
     style="fill:#ffffff;fill-rule:nonzero" />
  <path
     d="m 253.46929,44.15486 34.58269,0 0,36.7874 -34.58269,0 z"
     id="path7929"
     style="fill:#f6a800;fill-rule:nonzero" />
  <path
     d="m 253.46929,44.15486 34.58269,0 0,36.7874 -34.58269,0 z"
     id="path7931"
     style="stroke:#000000;stroke-width:2;stroke-linecap:butt;stroke-linejoin:round" />
  <path
     d="m 273.72744,64.30293 q 0,0.60938 -0.23438,1.17188 -0.21875,0.54687 -0.59375,0.92187 -0.42187,0.40625 -1.01562,0.64063 -0.57813,0.21875 -1.34375,0.21875 -0.71875,0 -1.39063,-0.15625 -0.65625,-0.15625 -1.10937,-0.35938 l 0,-1.23437 0.0781,0 q 0.48438,0.29687 1.125,0.51562 0.65625,0.21875 1.26563,0.21875 0.42187,0 0.8125,-0.10937 0.39062,-0.125 0.6875,-0.42188 0.26562,-0.25 0.39062,-0.59375 0.14063,-0.35937 0.14063,-0.82812 0,-0.45313 -0.15625,-0.75 -0.15625,-0.3125 -0.4375,-0.5 -0.29688,-0.23438 -0.73438,-0.3125 -0.4375,-0.0937 -0.98437,-0.0937 -0.51563,0 -1,0.0781 -0.46875,0.0625 -0.8125,0.125 l 0,-4.48437 5.25,0 0,1.01562 -4.10938,0 0,2.32813 q 0.25,-0.0312 0.5,-0.0312 0.26563,-0.0156 0.46875,-0.0156 0.70313,0 1.23438,0.125 0.53125,0.10938 0.98437,0.42188 0.46875,0.3125 0.71875,0.82812 0.26563,0.5 0.26563,1.28125 z"
     id="path7933"
     style="fill:#ffffff;fill-rule:nonzero" />
  <path
     d="m 255.23853,100.15486 34.58267,0 0,36.78741 -34.58267,0 z"
     id="path7935"
     style="fill:#f6a800;fill-rule:nonzero" />
  <path
     d="m 255.23853,100.15486 34.58267,0 0,36.78741 -34.58267,0 z"
     id="path7937"
     style="stroke:#000000;stroke-width:2;stroke-linecap:butt;stroke-linejoin:round" />
  <path
     d="m 275.49666,120.30293 q 0,0.60938 -0.23438,1.17188 -0.21875,0.54687 -0.59375,0.92187 -0.42187,0.40625 -1.01562,0.64063 -0.57813,0.21875 -1.34375,0.21875 -0.71875,0 -1.39063,-0.15625 -0.65625,-0.15625 -1.10937,-0.35938 l 0,-1.23437 0.0781,0 q 0.48438,0.29687 1.125,0.51562 0.65625,0.21875 1.26563,0.21875 0.42187,0 0.8125,-0.10937 0.39062,-0.125 0.6875,-0.42188 0.26562,-0.25 0.39062,-0.59375 0.14063,-0.35937 0.14063,-0.82812 0,-0.45313 -0.15625,-0.75 -0.15625,-0.3125 -0.4375,-0.5 -0.29688,-0.23438 -0.73438,-0.3125 -0.4375,-0.0937 -0.98437,-0.0937 -0.51563,0 -1,0.0781 -0.46875,0.0625 -0.8125,0.125 l 0,-4.48437 5.25,0 0,1.01562 -4.10938,0 0,2.32813 q 0.25,-0.0312 0.5,-0.0312 0.26563,-0.0156 0.46875,-0.0156 0.70313,0 1.23438,0.125 0.53125,0.10938 0.98437,0.42188 0.46875,0.3125 0.71875,0.82812 0.26563,0.5 0.26563,1.28125 z"
     id="path7939"
     style="fill:#ffffff;fill-rule:nonzero" />
  <path
     d="m 287.54624,44.15486 34.58267,0 0,36.7874 -34.58267,0 z"
     id="path7941"
     style="fill:#f6a800;fill-rule:nonzero" />
  <path
     d="m 287.54624,44.15486 34.58267,0 0,36.7874 -34.58267,0 z"
     id="path7943"
     style="stroke:#000000;stroke-width:2;stroke-linecap:butt;stroke-linejoin:round" />
  <path
     d="m 308.00748,64.24043 q 0,1.32813 -0.875,2.17188 -0.875,0.84375 -2.15625,0.84375 -0.64063,0 -1.17188,-0.20313 -0.53125,-0.20312 -0.92187,-0.59375 -0.51563,-0.48437 -0.79688,-1.28125 -0.26562,-0.8125 -0.26562,-1.9375 0,-1.17187 0.25,-2.0625 0.25,-0.89062 0.79687,-1.59375 0.51563,-0.65625 1.32813,-1.03125 0.8125,-0.375 1.90625,-0.375 0.34375,0 0.57812,0.0312 0.23438,0.0312 0.46875,0.10938 l 0,1.10937 -0.0469,0 q -0.17188,-0.0781 -0.5,-0.15625 -0.32813,-0.0781 -0.67188,-0.0781 -1.26562,0 -2.01562,0.78125 -0.75,0.78125 -0.875,2.125 0.5,-0.29688 0.96875,-0.45313 0.48437,-0.15625 1.10937,-0.15625 0.54688,0 0.96875,0.10938 0.4375,0.0937 0.875,0.40625 0.51563,0.35937 0.78125,0.90625 0.26563,0.54687 0.26563,1.32812 z m -1.1875,0.0469 q 0,-0.54688 -0.17188,-0.90625 -0.15625,-0.35938 -0.53125,-0.625 -0.26562,-0.1875 -0.59375,-0.23438 -0.32812,-0.0625 -0.6875,-0.0625 -0.5,0 -0.92187,0.125 -0.42188,0.10938 -0.875,0.35938 -0.0156,0.125 -0.0312,0.25 0,0.10937 0,0.29687 0,0.92188 0.1875,1.46875 0.20312,0.53125 0.53125,0.84375 0.26562,0.25 0.57812,0.375 0.3125,0.10938 0.6875,0.10938 0.84375,0 1.32813,-0.51563 0.5,-0.51562 0.5,-1.48437 z"
     id="path7945"
     style="fill:#ffffff;fill-rule:nonzero" />
  <path
     d="m 289.31548,100.15486 34.58267,0 0,36.78741 -34.58267,0 z"
     id="path7947"
     style="fill:#f6a800;fill-rule:nonzero" />
  <path
     d="m 289.31548,100.15486 34.58267,0 0,36.78741 -34.58267,0 z"
     id="path7949"
     style="stroke:#000000;stroke-width:2;stroke-linecap:butt;stroke-linejoin:round" />
  <path
     d="m 309.77674,120.24043 q 0,1.32813 -0.875,2.17188 -0.875,0.84375 -2.15625,0.84375 -0.64062,0 -1.17187,-0.20313 -0.53125,-0.20312 -0.92188,-0.59375 -0.51562,-0.48437 -0.79687,-1.28125 -0.26563,-0.8125 -0.26563,-1.9375 0,-1.17187 0.25,-2.0625 0.25,-0.89062 0.79688,-1.59375 0.51562,-0.65625 1.32812,-1.03125 0.8125,-0.375 1.90625,-0.375 0.34375,0 0.57813,0.0312 0.23437,0.0312 0.46875,0.10938 l 0,1.10937 -0.0469,0 q -0.17187,-0.0781 -0.5,-0.15625 -0.32812,-0.0781 -0.67187,-0.0781 -1.26563,0 -2.01563,0.78125 -0.75,0.78125 -0.875,2.125 0.5,-0.29688 0.96875,-0.45313 0.48438,-0.15625 1.10938,-0.15625 0.54687,0 0.96875,0.10938 0.4375,0.0937 0.875,0.40625 0.51562,0.35937 0.78125,0.90625 0.26562,0.54687 0.26562,1.32812 z m -1.1875,0.0469 q 0,-0.54688 -0.17187,-0.90625 -0.15625,-0.35938 -0.53125,-0.625 -0.26563,-0.1875 -0.59375,-0.23438 -0.32813,-0.0625 -0.6875,-0.0625 -0.5,0 -0.92188,0.125 -0.42187,0.10938 -0.875,0.35938 -0.0156,0.125 -0.0312,0.25 0,0.10937 0,0.29687 0,0.92188 0.1875,1.46875 0.20313,0.53125 0.53125,0.84375 0.26563,0.25 0.57813,0.375 0.3125,0.10938 0.6875,0.10938 0.84375,0 1.32812,-0.51563 0.5,-0.51562 0.5,-1.48437 z"
     id="path7951"
     style="fill:#ffffff;fill-rule:nonzero" />
  <path
     d="m 293.72448,184.01051 123.59058,0 0,42.48819 -123.59058,0 z"
     id="path7953"
     style="fill:#000000;fill-opacity:0;fill-rule:nonzero" />
  <path
     d="m 351.86256,209.77461 -1.40625,0 0,-1.67188 1.40625,0 0,1.67188 z m 4.36523,0 -1.40625,0 0,-1.67188 1.40625,0 0,1.67188 z m 4.36524,0 -1.40625,0 0,-1.67188 1.40625,0 0,1.67188 z"
     id="path7955"
     style="fill:#000000;fill-rule:nonzero" />
  <path
     d="m 115.61862,320.60479 c -7.44472,0.0659 -13.48826,-0.94424 -13.49864,-2.25607 l -0.8351,-105.5456 c -0.0104,-1.31184 -6.053918,-2.32194 -13.498618,-2.25608 l 0,0 c 7.44471,-0.0659 13.471408,-1.18269 13.461028,-2.49455 l -0.82866,-104.73239 0,0 c -0.0104,-1.31184 6.01634,-2.42869 13.46106,-2.49453"
     id="path5751-4"
     style="fill:none;stroke:#000000;stroke-width:3;stroke-linecap:butt;stroke-linejoin:round" />
  <g
     transform="matrix(2,0,0,2,-447.52026,-62.666671)"
     id="g12062"
     style="fill:none;stroke:none">
    <defs
       id="defs12064">
      <g
         id="g12066">
        <symbol
           id="textext-e409a8cc-0"
           style="overflow:visible">
          <path
             d=""
             id="path12069"
             style="stroke:none" />
        </symbol>
        <symbol
           id="textext-e409a8cc-1"
           style="overflow:visible">
          <path
             d="m 5.796875,-6.78125 -5.46875,0 0,0.3125 0.234375,0 c 0.765625,0 0.796875,0.109375 0.796875,0.46875 l 0,5.21875 c 0,0.359375 -0.03125,0.46875 -0.796875,0.46875 l -0.234375,0 0,0.3125 c 0.34375,-0.03125 1.125,-0.03125 1.515625,-0.03125 0.40625,0 1.3125,0 1.671875,0.03125 l 0,-0.3125 -0.328125,0 C 2.25,-0.3125 2.25,-0.4375 2.25,-0.78125 l 0,-2.453125 0.84375,0 c 0.96875,0 1.0625,0.3125 1.0625,1.15625 l 0.25,0 0,-2.640625 -0.25,0 c 0,0.84375 -0.09375,1.171875 -1.0625,1.171875 l -0.84375,0 0,-2.53125 c 0,-0.328125 0.015625,-0.390625 0.484375,-0.390625 l 1.1875,0 c 1.5,0 1.75,0.5625 1.90625,1.9375 l 0.25,0 z m 0,0"
             id="path12072"
             style="stroke:none" />
        </symbol>
        <symbol
           id="textext-e409a8cc-2"
           style="overflow:visible">
          <path
             d="m 1.671875,-3.3125 0,-1.09375 -1.390625,0.109375 0,0.3125 c 0.703125,0 0.78125,0.0625 0.78125,0.5625 l 0,2.671875 c 0,0.4375 -0.109375,0.4375 -0.78125,0.4375 l 0,0.3125 c 0.390625,-0.015625 0.859375,-0.03125 1.140625,-0.03125 0.390625,0 0.859375,0 1.265625,0.03125 l 0,-0.3125 -0.21875,0 c -0.734375,0 -0.75,-0.109375 -0.75,-0.46875 l 0,-1.53125 c 0,-0.984375 0.421875,-1.875 1.171875,-1.875 0.0625,0 0.09375,0 0.109375,0.015625 -0.03125,0 -0.234375,0.125 -0.234375,0.390625 0,0.265625 0.21875,0.421875 0.4375,0.421875 0.171875,0 0.421875,-0.125 0.421875,-0.4375 0,-0.3125 -0.3125,-0.609375 -0.734375,-0.609375 -0.734375,0 -1.09375,0.671875 -1.21875,1.09375 z m 0,0"
             id="path12075"
             style="stroke:none" />
        </symbol>
        <symbol
           id="textext-e409a8cc-3"
           style="overflow:visible">
          <path
             d="m 3.3125,-0.75 c 0.046875,0.390625 0.3125,0.8125 0.78125,0.8125 0.21875,0 0.828125,-0.140625 0.828125,-0.953125 l 0,-0.5625 -0.25,0 0,0.5625 c 0,0.578125 -0.25,0.640625 -0.359375,0.640625 -0.328125,0 -0.375,-0.453125 -0.375,-0.5 l 0,-1.984375 c 0,-0.421875 0,-0.8125 -0.359375,-1.1875 C 3.1875,-4.3125 2.6875,-4.46875 2.21875,-4.46875 c -0.828125,0 -1.515625,0.46875 -1.515625,1.125 0,0.296875 0.203125,0.46875 0.46875,0.46875 0.28125,0 0.453125,-0.203125 0.453125,-0.453125 0,-0.125 -0.046875,-0.453125 -0.515625,-0.453125 C 1.390625,-4.140625 1.875,-4.25 2.1875,-4.25 c 0.5,0 1.0625,0.390625 1.0625,1.28125 l 0,0.359375 c -0.515625,0.03125 -1.203125,0.0625 -1.828125,0.359375 -0.75,0.34375 -1,0.859375 -1,1.296875 0,0.8125 0.96875,1.0625 1.59375,1.0625 0.65625,0 1.109375,-0.40625 1.296875,-0.859375 z M 3.25,-2.390625 l 0,1 c 0,0.9375 -0.71875,1.28125 -1.171875,1.28125 -0.484375,0 -0.890625,-0.34375 -0.890625,-0.84375 0,-0.546875 0.421875,-1.375 2.0625,-1.4375 z m 0,0"
             id="path12078"
             style="stroke:none" />
        </symbol>
        <symbol
           id="textext-e409a8cc-4"
           style="overflow:visible">
          <path
             d="m 1.09375,-3.421875 0,2.671875 c 0,0.4375 -0.109375,0.4375 -0.78125,0.4375 l 0,0.3125 c 0.359375,-0.015625 0.859375,-0.03125 1.140625,-0.03125 0.25,0 0.765625,0.015625 1.109375,0.03125 l 0,-0.3125 c -0.671875,0 -0.78125,0 -0.78125,-0.4375 l 0,-1.84375 C 1.78125,-3.625 2.5,-4.1875 3.125,-4.1875 c 0.640625,0 0.75,0.53125 0.75,1.109375 l 0,2.328125 c 0,0.4375 -0.109375,0.4375 -0.78125,0.4375 l 0,0.3125 c 0.34375,-0.015625 0.859375,-0.03125 1.125,-0.03125 0.25,0 0.78125,0.015625 1.109375,0.03125 l 0,-0.3125 c -0.65625,0 -0.765625,0 -0.765625,-0.4375 l 0,-1.84375 c 0,-1.03125 0.703125,-1.59375 1.34375,-1.59375 0.625,0 0.734375,0.53125 0.734375,1.109375 l 0,2.328125 c 0,0.4375 -0.109375,0.4375 -0.78125,0.4375 l 0,0.3125 c 0.34375,-0.015625 0.859375,-0.03125 1.125,-0.03125 0.265625,0 0.78125,0.015625 1.125,0.03125 l 0,-0.3125 c -0.515625,0 -0.765625,0 -0.78125,-0.296875 l 0,-1.90625 c 0,-0.859375 0,-1.15625 -0.3125,-1.515625 -0.140625,-0.171875 -0.46875,-0.375 -1.046875,-0.375 -0.828125,0 -1.28125,0.59375 -1.4375,0.984375 C 4.390625,-4.296875 3.65625,-4.40625 3.203125,-4.40625 2.46875,-4.40625 2,-3.984375 1.71875,-3.359375 l 0,-1.046875 -1.40625,0.109375 0,0.3125 c 0.703125,0 0.78125,0.0625 0.78125,0.5625 z m 0,0"
             id="path12081"
             style="stroke:none" />
        </symbol>
        <symbol
           id="textext-e409a8cc-5"
           style="overflow:visible">
          <path
             d="M 1.109375,-2.515625 C 1.171875,-4 2.015625,-4.25 2.359375,-4.25 c 1.015625,0 1.125,1.34375 1.125,1.734375 z m 0,0.21875 2.78125,0 c 0.21875,0 0.25,0 0.25,-0.21875 0,-0.984375 -0.546875,-1.953125 -1.78125,-1.953125 -1.15625,0 -2.078125,1.03125 -2.078125,2.28125 0,1.328125 1.046875,2.296875 2.1875,2.296875 C 3.6875,0.109375 4.140625,-1 4.140625,-1.1875 4.140625,-1.28125 4.0625,-1.3125 4,-1.3125 c -0.078125,0 -0.109375,0.0625 -0.125,0.140625 -0.34375,1.03125 -1.25,1.03125 -1.34375,1.03125 -0.5,0 -0.890625,-0.296875 -1.125,-0.671875 -0.296875,-0.46875 -0.296875,-1.125 -0.296875,-1.484375 z m 0,0"
             id="path12084"
             style="stroke:none" />
        </symbol>
      </g>
    </defs>
    <g
       id="textext-e409a8cc-6">
      <g
         id="g12087"
         style="fill:#000000;fill-opacity:1">
        <use
           id="use12089"
           x="223.43201"
           y="134.765"
           width="657.72559"
           height="404.53275"
           xlink:href="#textext-e409a8cc-1" />
      </g>
      <g
         id="g12091"
         style="fill:#000000;fill-opacity:1">
        <use
           id="use12093"
           x="229.10869"
           y="134.765"
           width="657.72559"
           height="404.53275"
           xlink:href="#textext-e409a8cc-2" />
        <use
           id="use12095"
           x="233.01105"
           y="134.765"
           width="657.72559"
           height="404.53275"
           xlink:href="#textext-e409a8cc-3" />
        <use
           id="use12097"
           x="237.99234"
           y="134.765"
           width="657.72559"
           height="404.53275"
           xlink:href="#textext-e409a8cc-4" />
        <use
           id="use12099"
           x="246.29417"
           y="134.765"
           width="657.72559"
           height="404.53275"
           xlink:href="#textext-e409a8cc-5" />
      </g>
    </g>
  </g>
  <g
     transform="matrix(2,0,0,2,-447.98901,-45.145167)"
     id="g13263"
     style="fill:none;stroke:none">
    <defs
       id="defs13265">
      <g
         id="g13267">
        <symbol
           id="textext-677241f8-0"
           style="overflow:visible">
          <path
             d=""
             id="path13270"
             style="stroke:none" />
        </symbol>
        <symbol
           id="textext-677241f8-1"
           style="overflow:visible">
          <path
             d="m 3.484375,-3.875 -1.28125,-0.296875 c -0.625,-0.15625 -1,-0.6875 -1,-1.265625 0,-0.703125 0.53125,-1.3125 1.3125,-1.3125 1.65625,0 1.875,1.640625 1.9375,2.078125 0.015625,0.0625 0.015625,0.125 0.125,0.125 0.125,0 0.125,-0.046875 0.125,-0.234375 l 0,-2 c 0,-0.171875 0,-0.25 -0.109375,-0.25 -0.0625,0 -0.078125,0.015625 -0.140625,0.140625 l -0.359375,0.5625 C 3.796875,-6.625 3.390625,-7.03125 2.5,-7.03125 c -1.109375,0 -1.9375,0.875 -1.9375,1.9375 0,0.828125 0.53125,1.5625 1.296875,1.828125 0.109375,0.03125 0.625,0.15625 1.328125,0.328125 0.265625,0.0625 0.5625,0.140625 0.84375,0.5 0.203125,0.265625 0.3125,0.59375 0.3125,0.921875 0,0.703125 -0.5,1.421875 -1.34375,1.421875 -0.28125,0 -1.046875,-0.046875 -1.578125,-0.53125 C 0.84375,-1.171875 0.8125,-1.796875 0.8125,-2.15625 0.796875,-2.265625 0.71875,-2.265625 0.6875,-2.265625 c -0.125,0 -0.125,0.078125 -0.125,0.25 l 0,2 c 0,0.171875 0,0.234375 0.109375,0.234375 0.0625,0 0.078125,-0.015625 0.140625,-0.125 0,-0.015625 0.03125,-0.046875 0.359375,-0.578125 0.3125,0.34375 0.953125,0.703125 1.84375,0.703125 1.15625,0 1.953125,-0.96875 1.953125,-2.078125 0,-0.984375 -0.65625,-1.8125 -1.484375,-2.015625 z m 0,0"
             id="path13273"
             style="stroke:none" />
        </symbol>
        <symbol
           id="textext-677241f8-2"
           style="overflow:visible">
          <path
             d="M 1.109375,-2.515625 C 1.171875,-4 2.015625,-4.25 2.359375,-4.25 c 1.015625,0 1.125,1.34375 1.125,1.734375 z m 0,0.21875 2.78125,0 c 0.21875,0 0.25,0 0.25,-0.21875 0,-0.984375 -0.546875,-1.953125 -1.78125,-1.953125 -1.15625,0 -2.078125,1.03125 -2.078125,2.28125 0,1.328125 1.046875,2.296875 2.1875,2.296875 C 3.6875,0.109375 4.140625,-1 4.140625,-1.1875 4.140625,-1.28125 4.0625,-1.3125 4,-1.3125 c -0.078125,0 -0.109375,0.0625 -0.125,0.140625 -0.34375,1.03125 -1.25,1.03125 -1.34375,1.03125 -0.5,0 -0.890625,-0.296875 -1.125,-0.671875 -0.296875,-0.46875 -0.296875,-1.125 -0.296875,-1.484375 z m 0,0"
             id="path13276"
             style="stroke:none" />
        </symbol>
        <symbol
           id="textext-677241f8-3"
           style="overflow:visible">
          <path
             d="m 3.78125,-0.609375 0,1.78125 C 3.78125,1.625 3.671875,1.625 3.015625,1.625 l 0,0.3125 C 3.34375,1.921875 3.875,1.90625 4.125,1.90625 c 0.265625,0 0.78125,0.015625 1.125,0.03125 l 0,-0.3125 c -0.671875,0 -0.78125,0 -0.78125,-0.453125 l 0,-5.578125 -0.21875,0 L 3.875,-3.5 C 3.75,-3.78125 3.34375,-4.40625 2.546875,-4.40625 c -1.15625,0 -2.203125,0.96875 -2.203125,2.265625 0,1.25 0.96875,2.25 2.125,2.25 0.6875,0 1.09375,-0.421875 1.3125,-0.71875 z m 0.03125,-2.15625 0,1.40625 C 3.8125,-1.03125 3.640625,-0.75 3.421875,-0.515625 3.296875,-0.375 2.96875,-0.109375 2.5,-0.109375 1.78125,-0.109375 1.171875,-1 1.171875,-2.140625 c 0,-1.1875 0.6875,-2.015625 1.4375,-2.015625 0.796875,0 1.203125,0.859375 1.203125,1.390625 z m 0,0"
             id="path13279"
             style="stroke:none" />
        </symbol>
        <symbol
           id="textext-677241f8-4"
           style="overflow:visible">
          <path
             d="m 3.890625,-0.78125 0,0.890625 L 5.328125,0 l 0,-0.3125 C 4.640625,-0.3125 4.5625,-0.375 4.5625,-0.875 l 0,-3.53125 -1.46875,0.109375 0,0.3125 c 0.6875,0 0.78125,0.0625 0.78125,0.5625 l 0,1.765625 c 0,0.875 -0.484375,1.546875 -1.21875,1.546875 -0.828125,0 -0.875,-0.46875 -0.875,-0.984375 l 0,-3.3125 -1.46875,0.109375 0,0.3125 c 0.78125,0 0.78125,0.03125 0.78125,0.90625 l 0,1.5 c 0,0.78125 0,1.6875 1.515625,1.6875 0.5625,0 1,-0.28125 1.28125,-0.890625 z m 0,0"
             id="path13282"
             style="stroke:none" />
        </symbol>
        <symbol
           id="textext-677241f8-5"
           style="overflow:visible">
          <path
             d="m 1.09375,-3.421875 0,2.671875 c 0,0.4375 -0.109375,0.4375 -0.78125,0.4375 l 0,0.3125 c 0.359375,-0.015625 0.859375,-0.03125 1.140625,-0.03125 0.25,0 0.765625,0.015625 1.109375,0.03125 l 0,-0.3125 c -0.671875,0 -0.78125,0 -0.78125,-0.4375 l 0,-1.84375 C 1.78125,-3.625 2.5,-4.1875 3.125,-4.1875 c 0.640625,0 0.75,0.53125 0.75,1.109375 l 0,2.328125 c 0,0.4375 -0.109375,0.4375 -0.78125,0.4375 l 0,0.3125 c 0.34375,-0.015625 0.859375,-0.03125 1.125,-0.03125 0.25,0 0.78125,0.015625 1.109375,0.03125 l 0,-0.3125 c -0.515625,0 -0.765625,0 -0.765625,-0.296875 l 0,-1.90625 c 0,-0.859375 0,-1.15625 -0.3125,-1.515625 -0.140625,-0.171875 -0.46875,-0.375 -1.046875,-0.375 C 2.46875,-4.40625 2,-3.984375 1.71875,-3.359375 l 0,-1.046875 -1.40625,0.109375 0,0.3125 c 0.703125,0 0.78125,0.0625 0.78125,0.5625 z m 0,0"
             id="path13285"
             style="stroke:none" />
        </symbol>
        <symbol
           id="textext-677241f8-6"
           style="overflow:visible">
          <path
             d="m 1.171875,-2.171875 c 0,-1.625 0.8125,-2.046875 1.34375,-2.046875 0.09375,0 0.71875,0.015625 1.0625,0.375 -0.40625,0.03125 -0.46875,0.328125 -0.46875,0.453125 0,0.265625 0.1875,0.453125 0.453125,0.453125 0.265625,0 0.46875,-0.15625 0.46875,-0.46875 0,-0.671875 -0.765625,-1.0625 -1.53125,-1.0625 -1.25,0 -2.15625,1.078125 -2.15625,2.3125 0,1.28125 0.984375,2.265625 2.140625,2.265625 1.328125,0 1.65625,-1.203125 1.65625,-1.296875 0,-0.09375 -0.109375,-0.09375 -0.140625,-0.09375 -0.078125,0 -0.109375,0.03125 -0.125,0.09375 -0.28125,0.921875 -0.9375,1.046875 -1.296875,1.046875 -0.53125,0 -1.40625,-0.421875 -1.40625,-2.03125 z m 0,0"
             id="path13288"
             style="stroke:none" />
        </symbol>
        <symbol
           id="textext-677241f8-7"
           style="overflow:visible">
          <path
             d="m 2.078125,-1.9375 c 0.21875,0.046875 1.03125,0.203125 1.03125,0.921875 0,0.5 -0.34375,0.90625 -1.125,0.90625 -0.84375,0 -1.203125,-0.5625 -1.390625,-1.421875 C 0.5625,-1.65625 0.5625,-1.6875 0.453125,-1.6875 c -0.125,0 -0.125,0.0625 -0.125,0.234375 l 0,1.328125 c 0,0.171875 0,0.234375 0.109375,0.234375 0.046875,0 0.0625,-0.015625 0.25,-0.203125 0.015625,-0.015625 0.015625,-0.03125 0.203125,-0.21875 0.4375,0.40625 0.890625,0.421875 1.09375,0.421875 1.140625,0 1.609375,-0.671875 1.609375,-1.390625 0,-0.515625 -0.296875,-0.828125 -0.421875,-0.9375 C 2.84375,-2.546875 2.453125,-2.625 2.03125,-2.703125 1.46875,-2.8125 0.8125,-2.9375 0.8125,-3.515625 c 0,-0.359375 0.25,-0.765625 1.109375,-0.765625 1.09375,0 1.15625,0.90625 1.171875,1.203125 0,0.09375 0.09375,0.09375 0.109375,0.09375 0.140625,0 0.140625,-0.046875 0.140625,-0.234375 l 0,-1.015625 c 0,-0.15625 0,-0.234375 -0.109375,-0.234375 -0.046875,0 -0.078125,0 -0.203125,0.125 -0.03125,0.03125 -0.125,0.125 -0.171875,0.15625 -0.375,-0.28125 -0.78125,-0.28125 -0.9375,-0.28125 -1.21875,0 -1.59375,0.671875 -1.59375,1.234375 0,0.34375 0.15625,0.625 0.421875,0.84375 0.328125,0.25 0.609375,0.3125 1.328125,0.453125 z m 0,0"
             id="path13291"
             style="stroke:none" />
        </symbol>
      </g>
    </defs>
    <g
       id="textext-677241f8-8">
      <g
         id="g13294"
         style="fill:#000000;fill-opacity:1">
        <use
           id="use13296"
           x="223.43201"
           y="134.765"
           width="657.72559"
           height="404.53275"
           xlink:href="#textext-677241f8-1" />
        <use
           id="use13298"
           x="228.96722"
           y="134.765"
           width="657.72559"
           height="404.53275"
           xlink:href="#textext-677241f8-2" />
        <use
           id="use13300"
           x="233.39461"
           y="134.765"
           width="657.72559"
           height="404.53275"
           xlink:href="#textext-677241f8-3" />
        <use
           id="use13302"
           x="238.65286"
           y="134.765"
           width="657.72559"
           height="404.53275"
           xlink:href="#textext-677241f8-4" />
        <use
           id="use13304"
           x="244.18808"
           y="134.765"
           width="657.72559"
           height="404.53275"
           xlink:href="#textext-677241f8-2" />
        <use
           id="use13306"
           x="248.61546"
           y="134.765"
           width="657.72559"
           height="404.53275"
           xlink:href="#textext-677241f8-5" />
        <use
           id="use13308"
           x="254.15068"
           y="134.765"
           width="657.72559"
           height="404.53275"
           xlink:href="#textext-677241f8-6" />
        <use
           id="use13310"
           x="258.57806"
           y="134.765"
           width="657.72559"
           height="404.53275"
           xlink:href="#textext-677241f8-2" />
        <use
           id="use13312"
           x="263.00543"
           y="134.765"
           width="657.72559"
           height="404.53275"
           xlink:href="#textext-677241f8-7" />
      </g>
    </g>
  </g>
  <g
     transform="matrix(2,0,0,2,-330.88079,-230.04647)"
     id="g7730"
     style="fill:none;stroke:none">
    <defs
       id="defs7732">
      <g
         id="g7734">
        <symbol
           id="textext-f0595d9e-0"
           style="overflow:visible">
          <path
             d=""
             id="path7737-2"
             style="stroke:none" />
        </symbol>
        <symbol
           id="textext-f0595d9e-1"
           style="overflow:visible">
          <path
             d="M 6.1875,-5.828125 C 6.328125,-6.203125 6.59375,-6.484375 7.28125,-6.5 l 0,-0.3125 c -0.3125,0.03125 -0.71875,0.03125 -0.96875,0.03125 -0.296875,0 -0.875,-0.015625 -1.140625,-0.03125 l 0,0.3125 C 5.6875,-6.484375 5.90625,-6.234375 5.90625,-6 c 0,0.078125 -0.03125,0.140625 -0.046875,0.203125 L 4.03125,-1 2.125,-6.03125 C 2.0625,-6.171875 2.0625,-6.1875 2.0625,-6.203125 2.0625,-6.5 2.625,-6.5 2.875,-6.5 l 0,-0.3125 c -0.359375,0.03125 -1.046875,0.03125 -1.421875,0.03125 -0.46875,0 -0.90625,-0.015625 -1.265625,-0.03125 l 0,0.3125 c 0.65625,0 0.84375,0 0.984375,0.375 L 3.484375,0 c 0.0625,0.1875 0.109375,0.21875 0.25,0.21875 0.15625,0 0.1875,-0.046875 0.234375,-0.1875 z m 0,0"
             id="path7740"
             style="stroke:none" />
        </symbol>
        <symbol
           id="textext-f0595d9e-2"
           style="overflow:visible">
          <path
             d="M 1.765625,-4.40625 0.375,-4.296875 l 0,0.3125 c 0.640625,0 0.734375,0.0625 0.734375,0.546875 l 0,2.6875 c 0,0.4375 -0.109375,0.4375 -0.78125,0.4375 l 0,0.3125 C 0.640625,-0.015625 1.1875,-0.03125 1.421875,-0.03125 1.78125,-0.03125 2.125,-0.015625 2.46875,0 l 0,-0.3125 c -0.671875,0 -0.703125,-0.046875 -0.703125,-0.4375 z m 0.03125,-1.734375 c 0,-0.3125 -0.234375,-0.53125 -0.515625,-0.53125 -0.3125,0 -0.53125,0.265625 -0.53125,0.53125 0,0.265625 0.21875,0.53125 0.53125,0.53125 0.28125,0 0.515625,-0.21875 0.515625,-0.53125 z m 0,0"
             id="path7743-0"
             style="stroke:none" />
        </symbol>
        <symbol
           id="textext-f0595d9e-3"
           style="overflow:visible">
          <path
             d="m 3.78125,-0.546875 0,0.65625 L 5.25,0 l 0,-0.3125 c -0.6875,0 -0.78125,-0.0625 -0.78125,-0.5625 l 0,-6.046875 -1.421875,0.109375 0,0.3125 c 0.6875,0 0.765625,0.0625 0.765625,0.5625 l 0,2.15625 c -0.28125,-0.359375 -0.71875,-0.625 -1.25,-0.625 -1.171875,0 -2.21875,0.984375 -2.21875,2.265625 0,1.265625 0.96875,2.25 2.109375,2.25 0.640625,0 1.078125,-0.34375 1.328125,-0.65625 z m 0,-2.671875 0,2.046875 c 0,0.171875 0,0.1875 -0.109375,0.359375 C 3.375,-0.328125 2.9375,-0.109375 2.5,-0.109375 2.046875,-0.109375 1.6875,-0.375 1.453125,-0.75 1.203125,-1.15625 1.171875,-1.71875 1.171875,-2.140625 1.171875,-2.5 1.1875,-3.09375 1.46875,-3.546875 1.6875,-3.859375 2.0625,-4.1875 2.609375,-4.1875 c 0.34375,0 0.765625,0.15625 1.0625,0.59375 0.109375,0.171875 0.109375,0.1875 0.109375,0.375 z m 0,0"
             id="path7746"
             style="stroke:none" />
        </symbol>
        <symbol
           id="textext-f0595d9e-4"
           style="overflow:visible">
          <path
             d="M 1.109375,-2.515625 C 1.171875,-4 2.015625,-4.25 2.359375,-4.25 c 1.015625,0 1.125,1.34375 1.125,1.734375 z m 0,0.21875 2.78125,0 c 0.21875,0 0.25,0 0.25,-0.21875 0,-0.984375 -0.546875,-1.953125 -1.78125,-1.953125 -1.15625,0 -2.078125,1.03125 -2.078125,2.28125 0,1.328125 1.046875,2.296875 2.1875,2.296875 C 3.6875,0.109375 4.140625,-1 4.140625,-1.1875 4.140625,-1.28125 4.0625,-1.3125 4,-1.3125 c -0.078125,0 -0.109375,0.0625 -0.125,0.140625 -0.34375,1.03125 -1.25,1.03125 -1.34375,1.03125 -0.5,0 -0.890625,-0.296875 -1.125,-0.671875 -0.296875,-0.46875 -0.296875,-1.125 -0.296875,-1.484375 z m 0,0"
             id="path7749-1"
             style="stroke:none" />
        </symbol>
        <symbol
           id="textext-f0595d9e-5"
           style="overflow:visible">
          <path
             d="M 4.6875,-2.140625 C 4.6875,-3.40625 3.703125,-4.46875 2.5,-4.46875 c -1.25,0 -2.21875,1.09375 -2.21875,2.328125 0,1.296875 1.03125,2.25 2.203125,2.25 1.203125,0 2.203125,-0.984375 2.203125,-2.25 z m -2.1875,2 c -0.4375,0 -0.875,-0.203125 -1.140625,-0.671875 -0.25,-0.4375 -0.25,-1.046875 -0.25,-1.40625 0,-0.390625 0,-0.921875 0.234375,-1.359375 C 1.609375,-4.03125 2.078125,-4.25 2.484375,-4.25 c 0.4375,0 0.859375,0.21875 1.125,0.65625 0.265625,0.421875 0.265625,1 0.265625,1.375 0,0.359375 0,0.90625 -0.21875,1.34375 C 3.421875,-0.421875 2.984375,-0.140625 2.5,-0.140625 z m 0,0"
             id="path7752"
             style="stroke:none" />
        </symbol>
        <symbol
           id="textext-f0595d9e-6"
           style="overflow:visible">
          <path
             d="m 1.75,-4.296875 0,-1.15625 c 0,-0.875 0.46875,-1.359375 0.90625,-1.359375 0.03125,0 0.1875,0 0.328125,0.078125 C 2.875,-6.703125 2.6875,-6.5625 2.6875,-6.3125 c 0,0.21875 0.15625,0.421875 0.4375,0.421875 0.28125,0 0.4375,-0.203125 0.4375,-0.4375 0,-0.375 -0.375,-0.703125 -0.90625,-0.703125 -0.6875,0 -1.546875,0.53125 -1.546875,1.59375 l 0,1.140625 -0.78125,0 0,0.3125 0.78125,0 0,3.234375 c 0,0.4375 -0.109375,0.4375 -0.765625,0.4375 l 0,0.3125 c 0.390625,-0.015625 0.859375,-0.03125 1.125,-0.03125 0.40625,0 0.875,0 1.265625,0.03125 l 0,-0.3125 -0.203125,0 c -0.734375,0 -0.75,-0.109375 -0.75,-0.46875 l 0,-3.203125 1.125,0 0,-0.3125 z m 0,0"
             id="path7755-3"
             style="stroke:none" />
        </symbol>
        <symbol
           id="textext-f0595d9e-7"
           style="overflow:visible">
          <path
             d="m 1.671875,-3.3125 0,-1.09375 -1.390625,0.109375 0,0.3125 c 0.703125,0 0.78125,0.0625 0.78125,0.5625 l 0,2.671875 c 0,0.4375 -0.109375,0.4375 -0.78125,0.4375 l 0,0.3125 c 0.390625,-0.015625 0.859375,-0.03125 1.140625,-0.03125 0.390625,0 0.859375,0 1.265625,0.03125 l 0,-0.3125 -0.21875,0 c -0.734375,0 -0.75,-0.109375 -0.75,-0.46875 l 0,-1.53125 c 0,-0.984375 0.421875,-1.875 1.171875,-1.875 0.0625,0 0.09375,0 0.109375,0.015625 -0.03125,0 -0.234375,0.125 -0.234375,0.390625 0,0.265625 0.21875,0.421875 0.4375,0.421875 0.171875,0 0.421875,-0.125 0.421875,-0.4375 0,-0.3125 -0.3125,-0.609375 -0.734375,-0.609375 -0.734375,0 -1.09375,0.671875 -1.21875,1.09375 z m 0,0"
             id="path7758"
             style="stroke:none" />
        </symbol>
        <symbol
           id="textext-f0595d9e-8"
           style="overflow:visible">
          <path
             d="m 3.3125,-0.75 c 0.046875,0.390625 0.3125,0.8125 0.78125,0.8125 0.21875,0 0.828125,-0.140625 0.828125,-0.953125 l 0,-0.5625 -0.25,0 0,0.5625 c 0,0.578125 -0.25,0.640625 -0.359375,0.640625 -0.328125,0 -0.375,-0.453125 -0.375,-0.5 l 0,-1.984375 c 0,-0.421875 0,-0.8125 -0.359375,-1.1875 C 3.1875,-4.3125 2.6875,-4.46875 2.21875,-4.46875 c -0.828125,0 -1.515625,0.46875 -1.515625,1.125 0,0.296875 0.203125,0.46875 0.46875,0.46875 0.28125,0 0.453125,-0.203125 0.453125,-0.453125 0,-0.125 -0.046875,-0.453125 -0.515625,-0.453125 C 1.390625,-4.140625 1.875,-4.25 2.1875,-4.25 c 0.5,0 1.0625,0.390625 1.0625,1.28125 l 0,0.359375 c -0.515625,0.03125 -1.203125,0.0625 -1.828125,0.359375 -0.75,0.34375 -1,0.859375 -1,1.296875 0,0.8125 0.96875,1.0625 1.59375,1.0625 0.65625,0 1.109375,-0.40625 1.296875,-0.859375 z M 3.25,-2.390625 l 0,1 c 0,0.9375 -0.71875,1.28125 -1.171875,1.28125 -0.484375,0 -0.890625,-0.34375 -0.890625,-0.84375 0,-0.546875 0.421875,-1.375 2.0625,-1.4375 z m 0,0"
             id="path7761-6"
             style="stroke:none" />
        </symbol>
        <symbol
           id="textext-f0595d9e-9"
           style="overflow:visible">
          <path
             d="m 1.09375,-3.421875 0,2.671875 c 0,0.4375 -0.109375,0.4375 -0.78125,0.4375 l 0,0.3125 c 0.359375,-0.015625 0.859375,-0.03125 1.140625,-0.03125 0.25,0 0.765625,0.015625 1.109375,0.03125 l 0,-0.3125 c -0.671875,0 -0.78125,0 -0.78125,-0.4375 l 0,-1.84375 C 1.78125,-3.625 2.5,-4.1875 3.125,-4.1875 c 0.640625,0 0.75,0.53125 0.75,1.109375 l 0,2.328125 c 0,0.4375 -0.109375,0.4375 -0.78125,0.4375 l 0,0.3125 c 0.34375,-0.015625 0.859375,-0.03125 1.125,-0.03125 0.25,0 0.78125,0.015625 1.109375,0.03125 l 0,-0.3125 c -0.65625,0 -0.765625,0 -0.765625,-0.4375 l 0,-1.84375 c 0,-1.03125 0.703125,-1.59375 1.34375,-1.59375 0.625,0 0.734375,0.53125 0.734375,1.109375 l 0,2.328125 c 0,0.4375 -0.109375,0.4375 -0.78125,0.4375 l 0,0.3125 c 0.34375,-0.015625 0.859375,-0.03125 1.125,-0.03125 0.265625,0 0.78125,0.015625 1.125,0.03125 l 0,-0.3125 c -0.515625,0 -0.765625,0 -0.78125,-0.296875 l 0,-1.90625 c 0,-0.859375 0,-1.15625 -0.3125,-1.515625 -0.140625,-0.171875 -0.46875,-0.375 -1.046875,-0.375 -0.828125,0 -1.28125,0.59375 -1.4375,0.984375 C 4.390625,-4.296875 3.65625,-4.40625 3.203125,-4.40625 2.46875,-4.40625 2,-3.984375 1.71875,-3.359375 l 0,-1.046875 -1.40625,0.109375 0,0.3125 c 0.703125,0 0.78125,0.0625 0.78125,0.5625 z m 0,0"
             id="path7764"
             style="stroke:none" />
        </symbol>
        <symbol
           id="textext-f0595d9e-10"
           style="overflow:visible">
          <path
             d="m 2.078125,-1.9375 c 0.21875,0.046875 1.03125,0.203125 1.03125,0.921875 0,0.5 -0.34375,0.90625 -1.125,0.90625 -0.84375,0 -1.203125,-0.5625 -1.390625,-1.421875 C 0.5625,-1.65625 0.5625,-1.6875 0.453125,-1.6875 c -0.125,0 -0.125,0.0625 -0.125,0.234375 l 0,1.328125 c 0,0.171875 0,0.234375 0.109375,0.234375 0.046875,0 0.0625,-0.015625 0.25,-0.203125 0.015625,-0.015625 0.015625,-0.03125 0.203125,-0.21875 0.4375,0.40625 0.890625,0.421875 1.09375,0.421875 1.140625,0 1.609375,-0.671875 1.609375,-1.390625 0,-0.515625 -0.296875,-0.828125 -0.421875,-0.9375 C 2.84375,-2.546875 2.453125,-2.625 2.03125,-2.703125 1.46875,-2.8125 0.8125,-2.9375 0.8125,-3.515625 c 0,-0.359375 0.25,-0.765625 1.109375,-0.765625 1.09375,0 1.15625,0.90625 1.171875,1.203125 0,0.09375 0.09375,0.09375 0.109375,0.09375 0.140625,0 0.140625,-0.046875 0.140625,-0.234375 l 0,-1.015625 c 0,-0.15625 0,-0.234375 -0.109375,-0.234375 -0.046875,0 -0.078125,0 -0.203125,0.125 -0.03125,0.03125 -0.125,0.125 -0.171875,0.15625 -0.375,-0.28125 -0.78125,-0.28125 -0.9375,-0.28125 -1.21875,0 -1.59375,0.671875 -1.59375,1.234375 0,0.34375 0.15625,0.625 0.421875,0.84375 0.328125,0.25 0.609375,0.3125 1.328125,0.453125 z m 0,0"
             id="path7767-3"
             style="stroke:none" />
        </symbol>
      </g>
    </defs>
    <g
       id="textext-f0595d9e-11">
      <g
         id="g7770"
         style="fill:#000000;fill-opacity:1">
        <use
           id="use7772"
           x="223.43201"
           y="134.765"
           width="960"
           height="540"
           xlink:href="#textext-f0595d9e-1" />
        <use
           id="use7774"
           x="230.90395"
           y="134.765"
           width="960"
           height="540"
           xlink:href="#textext-f0595d9e-2" />
        <use
           id="use7776"
           x="233.67155"
           y="134.765"
           width="960"
           height="540"
           xlink:href="#textext-f0595d9e-3" />
        <use
           id="use7778"
           x="239.20679"
           y="134.765"
           width="960"
           height="540"
           xlink:href="#textext-f0595d9e-4" />
        <use
           id="use7780"
           x="243.63416"
           y="134.765"
           width="960"
           height="540"
           xlink:href="#textext-f0595d9e-5" />
      </g>
      <g
         id="g7782"
         style="fill:#000000;fill-opacity:1">
        <use
           id="use7784"
           x="251.933"
           y="134.765"
           width="960"
           height="540"
           xlink:href="#textext-f0595d9e-6" />
        <use
           id="use7786"
           x="254.97757"
           y="134.765"
           width="960"
           height="540"
           xlink:href="#textext-f0595d9e-7" />
        <use
           id="use7788"
           x="258.87991"
           y="134.765"
           width="960"
           height="540"
           xlink:href="#textext-f0595d9e-8" />
        <use
           id="use7790"
           x="263.86124"
           y="134.765"
           width="960"
           height="540"
           xlink:href="#textext-f0595d9e-9" />
        <use
           id="use7792"
           x="272.16306"
           y="134.765"
           width="960"
           height="540"
           xlink:href="#textext-f0595d9e-4" />
        <use
           id="use7794"
           x="276.59045"
           y="134.765"
           width="960"
           height="540"
           xlink:href="#textext-f0595d9e-10" />
      </g>
    </g>
  </g>
</svg>
