<?xml version="1.0" encoding="UTF-8" standalone="no"?>
<!-- Created with Inkscape (http://www.inkscape.org/) -->

<svg
   xmlns:dc="http://purl.org/dc/elements/1.1/"
   xmlns:cc="http://creativecommons.org/ns#"
   xmlns:rdf="http://www.w3.org/1999/02/22-rdf-syntax-ns#"
   xmlns:svg="http://www.w3.org/2000/svg"
   xmlns="http://www.w3.org/2000/svg"
   xmlns:xlink="http://www.w3.org/1999/xlink"
   version="1.1"
   width="100%"
   height="100%"
   viewBox="0 0 460.78641 294.76013"
   id="svg17762"
   style="fill:none;stroke:none">
  <metadata
     id="metadata18342">
    <rdf:RDF>
      <cc:Work
         rdf:about="">
        <dc:format>image/svg+xml</dc:format>
        <dc:type
           rdf:resource="http://purl.org/dc/dcmitype/StillImage" />
        <dc:title></dc:title>
      </cc:Work>
    </rdf:RDF>
  </metadata>
  <defs
     id="defs18340">
    <clipPath
       id="gb72c47812_0_439.1">
      <path
         d="m 0,0 775,0 0,442.95663 -775,0 z"
         id="path17896" />
    </clipPath>
  </defs>
  <clipPath
     id="gb72c47812_0_439.0">
    <path
       d="M 0,0 960,0 960,540 0,540 0,0 z"
       id="path17765" />
  </clipPath>
  <path
     d="m 118.34563,72.581566 34.58267,0 0,36.787414 -34.58267,0 z"
     id="path18026"
     style="fill:#ffffff;fill-rule:nonzero" />
  <path
     d="m 118.34563,72.581566 34.58267,0 0,36.787414 -34.58267,0 z"
     id="path18028"
     style="stroke:#000000;stroke-width:2;stroke-linecap:butt;stroke-linejoin:round" />
  <path
     d="m 138.18189,95.495276 -4.73437,0 0,-0.89063 1.82812,0 0,-5.84375 -1.82812,0 0,-0.79687 q 0.375,0 0.79687,-0.0625 0.42188,-0.0625 0.64063,-0.1875 0.26562,-0.14063 0.42187,-0.35938 0.15625,-0.23437 0.17188,-0.60937 l 0.92187,0 0,7.85937 1.78125,0 0,0.89063 z"
     id="path18030"
     style="fill:#000000;fill-rule:nonzero" />
  <path
     d="m 118.34563,109.81235 34.58267,0 0,36.78738 -34.58267,0 z"
     id="path18032"
     style="fill:#ffffff;fill-rule:nonzero" />
  <path
     d="m 118.34563,109.81235 34.58267,0 0,36.78738 -34.58267,0 z"
     id="path18034"
     style="stroke:#000000;stroke-width:2;stroke-linecap:butt;stroke-linejoin:round" />
  <path
     d="m 138.66626,132.72604 -5.90625,0 0,-1.21875 q 0.625,-0.53125 1.23438,-1.0625 0.625,-0.53125 1.15625,-1.04688 1.125,-1.09375 1.53125,-1.73437 0.42187,-0.64063 0.42187,-1.39063 0,-0.67187 -0.45312,-1.04687 -0.4375,-0.39063 -1.23438,-0.39063 -0.54687,0 -1.17187,0.1875 -0.60938,0.1875 -1.20313,0.57813 l -0.0625,0 0,-1.23438 q 0.42188,-0.20312 1.10938,-0.375 0.70312,-0.17187 1.34375,-0.17187 1.34375,0 2.10937,0.65625 0.76563,0.64062 0.76563,1.75 0,0.5 -0.125,0.9375 -0.125,0.42187 -0.375,0.79687 -0.23438,0.375 -0.54688,0.73438 -0.29687,0.34375 -0.73437,0.76562 -0.625,0.60938 -1.29688,1.1875 -0.67187,0.57813 -1.25,1.07813 l 4.6875,0 0,1 z"
     id="path18036"
     style="fill:#000000;fill-rule:nonzero" />
  <path
     d="m 118.34563,146.3508 34.58267,0 0,36.78741 -34.58267,0 z"
     id="path18038"
     style="fill:#ffffff;fill-rule:nonzero" />
  <path
     d="m 118.34563,146.3508 34.58267,0 0,36.78741 -34.58267,0 z"
     id="path18040"
     style="stroke:#000000;stroke-width:2;stroke-linecap:butt;stroke-linejoin:round" />
  <path
     d="m 137.90064,165.06138 q 0.28125,0.25 0.46875,0.64062 0.1875,0.375 0.1875,0.98438 0,0.59375 -0.21875,1.09375 -0.21875,0.5 -0.60937,0.85937 -0.4375,0.40625 -1.04688,0.60938 -0.59375,0.20312 -1.29687,0.20312 -0.71875,0 -1.42188,-0.1875 -0.70312,-0.17187 -1.15625,-0.375 l 0,-1.21875 0.0781,0 q 0.5,0.32813 1.17187,0.54688 0.67188,0.21875 1.3125,0.21875 0.35938,0 0.76563,-0.125 0.42187,-0.125 0.6875,-0.35938 0.26562,-0.26562 0.39062,-0.57812 0.14063,-0.3125 0.14063,-0.78125 0,-0.46875 -0.15625,-0.76563 -0.14063,-0.3125 -0.40625,-0.5 -0.26563,-0.17187 -0.64063,-0.23437 -0.375,-0.0781 -0.8125,-0.0781 l -0.51562,0 0,-0.96875 0.40625,0 q 0.89062,0 1.42187,-0.375 0.53125,-0.375 0.53125,-1.09375 0,-0.3125 -0.14062,-0.54687 -0.125,-0.23438 -0.375,-0.39063 -0.25,-0.15625 -0.54688,-0.20312 -0.28125,-0.0625 -0.64062,-0.0625 -0.5625,0 -1.1875,0.20312 -0.625,0.1875 -1.17188,0.5625 l -0.0625,0 0,-1.23437 q 0.40625,-0.20313 1.09375,-0.375 0.70313,-0.17188 1.35938,-0.17188 0.64062,0 1.125,0.125 0.48437,0.10938 0.875,0.35938 0.42187,0.28125 0.64062,0.6875 0.21875,0.39062 0.21875,0.9375 0,0.71875 -0.51562,1.26562 -0.51563,0.53125 -1.20313,0.67188 l 0,0.0937 q 0.28125,0.0469 0.64063,0.20312 0.35937,0.14063 0.60937,0.35938 z"
     id="path18042"
     style="fill:#000000;fill-rule:nonzero" />
  <path
     d="m 118.34563,183.58158 34.58267,0 0,36.78742 -34.58267,0 z"
     id="path18044"
     style="fill:#ffffff;fill-rule:nonzero" />
  <path
     d="m 118.34563,183.58158 34.58267,0 0,36.78742 -34.58267,0 z"
     id="path18046"
     style="stroke:#000000;stroke-width:2;stroke-linecap:butt;stroke-linejoin:round" />
  <path
     d="m 138.86939,204.04214 -1.29687,0 0,2.45313 -1.125,0 0,-2.45313 -4.17188,0 0,-1.34375 4.21875,-4.92187 1.07813,0 0,5.32812 1.29687,0 0,0.9375 z m -2.42187,-0.9375 0,-3.9375 -3.375,3.9375 3.375,0 z"
     id="path18048"
     style="fill:#000000;fill-rule:nonzero" />
  <path
     d="m 118.34563,219.73541 34.58267,0 0,36.78738 -34.58267,0 z"
     id="path18050"
     style="fill:#ffffff;fill-rule:nonzero" />
  <path
     d="m 118.34563,219.73541 34.58267,0 0,36.78738 -34.58267,0 z"
     id="path18052"
     style="stroke:#000000;stroke-width:2;stroke-linecap:butt;stroke-linejoin:round" />
  <path
     d="m 138.60376,239.88348 q 0,0.60938 -0.23437,1.17188 -0.21875,0.54687 -0.59375,0.92187 -0.42188,0.40625 -1.01563,0.64063 -0.57812,0.21875 -1.34375,0.21875 -0.71875,0 -1.39062,-0.15625 -0.65625,-0.15625 -1.10938,-0.35938 l 0,-1.23437 0.0781,0 q 0.48437,0.29687 1.125,0.51562 0.65625,0.21875 1.26562,0.21875 0.42188,0 0.8125,-0.10937 0.39063,-0.125 0.6875,-0.42188 0.26563,-0.25 0.39063,-0.59375 0.14062,-0.35937 0.14062,-0.82812 0,-0.45313 -0.15625,-0.75 -0.15625,-0.3125 -0.4375,-0.5 -0.29687,-0.23438 -0.73437,-0.3125 -0.4375,-0.0937 -0.98438,-0.0937 -0.51562,0 -1,0.0781 -0.46875,0.0625 -0.8125,0.125 l 0,-4.48437 5.25,0 0,1.01562 -4.10937,0 0,2.32813 q 0.25,-0.0312 0.5,-0.0312 0.26562,-0.0156 0.46875,-0.0156 0.70312,0 1.23437,0.125 0.53125,0.10938 0.98438,0.42188 0.46875,0.3125 0.71875,0.82812 0.26562,0.5 0.26562,1.28125 z"
     id="path18054"
     style="fill:#000000;fill-rule:nonzero" />
  <path
     d="m 118.34563,256.96615 34.58267,0 0,36.78742 -34.58267,0 z"
     id="path18056"
     style="fill:#ffffff;fill-rule:nonzero" />
  <path
     d="m 118.34563,256.96615 34.58267,0 0,36.78742 -34.58267,0 z"
     id="path18058"
     style="stroke:#000000;stroke-width:2;stroke-linecap:butt;stroke-linejoin:round" />
  <path
     d="m 138.80689,277.05176 q 0,1.32812 -0.875,2.17187 -0.875,0.84375 -2.15625,0.84375 -0.64062,0 -1.17187,-0.20312 -0.53125,-0.20313 -0.92188,-0.59375 -0.51562,-0.48438 -0.79687,-1.28125 -0.26563,-0.8125 -0.26563,-1.9375 0,-1.17188 0.25,-2.0625 0.25,-0.89063 0.79688,-1.59375 0.51562,-0.65625 1.32812,-1.03125 0.8125,-0.375 1.90625,-0.375 0.34375,0 0.57813,0.0312 0.23437,0.0312 0.46875,0.10937 l 0,1.10938 -0.0469,0 q -0.17187,-0.0781 -0.5,-0.15625 -0.32812,-0.0781 -0.67187,-0.0781 -1.26563,0 -2.01563,0.78125 -0.75,0.78125 -0.875,2.125 0.5,-0.29687 0.96875,-0.45312 0.48438,-0.15625 1.10938,-0.15625 0.54687,0 0.96875,0.10937 0.4375,0.0937 0.875,0.40625 0.51562,0.35938 0.78125,0.90625 0.26562,0.54688 0.26562,1.32813 z m -1.1875,0.0469 q 0,-0.54687 -0.17187,-0.90625 -0.15625,-0.35937 -0.53125,-0.625 -0.26563,-0.1875 -0.59375,-0.23437 -0.32813,-0.0625 -0.6875,-0.0625 -0.5,0 -0.92188,0.125 -0.42187,0.10937 -0.875,0.35937 -0.0156,0.125 -0.0312,0.25 0,0.10938 0,0.29688 0,0.92187 0.1875,1.46875 0.20313,0.53125 0.53125,0.84375 0.26563,0.25 0.57813,0.375 0.3125,0.10937 0.6875,0.10937 0.84375,0 1.32812,-0.51562 0.5,-0.51563 0.5,-1.48438 z"
     id="path18060"
     style="fill:#000000;fill-rule:nonzero" />
  <path
     d="m 152.42255,72.581566 34.58269,0 0,36.787414 -34.58269,0 z"
     id="path18062"
     style="fill:#ffffff;fill-rule:nonzero" />
  <path
     d="m 152.42255,72.581566 34.58269,0 0,36.787414 -34.58269,0 z"
     id="path18064"
     style="stroke:#000000;stroke-width:2;stroke-linecap:butt;stroke-linejoin:round" />
  <path
     d="m 172.7432,95.495276 -5.90625,0 0,-1.21875 q 0.625,-0.53125 1.23437,-1.0625 0.625,-0.53125 1.15625,-1.04688 1.125,-1.09375 1.53125,-1.73437 0.42188,-0.64063 0.42188,-1.39063 0,-0.67187 -0.45313,-1.04687 -0.4375,-0.39063 -1.23437,-0.39063 -0.54688,0 -1.17188,0.1875 -0.60937,0.1875 -1.20312,0.57813 l -0.0625,0 0,-1.23438 q 0.42187,-0.20312 1.10937,-0.375 0.70313,-0.17187 1.34375,-0.17187 1.34375,0 2.10938,0.65625 0.76562,0.64062 0.76562,1.75 0,0.5 -0.125,0.9375 -0.125,0.42187 -0.375,0.79687 -0.23437,0.375 -0.54687,0.73438 -0.29688,0.34375 -0.73438,0.76562 -0.625,0.60938 -1.29687,1.1875 -0.67188,0.57813 -1.25,1.07813 l 4.6875,0 0,1 z"
     id="path18066"
     style="fill:#000000;fill-rule:nonzero" />
  <path
     d="m 152.42255,109.81235 34.58269,0 0,36.78738 -34.58269,0 z"
     id="path18068"
     style="fill:#ffffff;fill-rule:nonzero" />
  <path
     d="m 152.42255,109.81235 34.58269,0 0,36.78738 -34.58269,0 z"
     id="path18070"
     style="stroke:#000000;stroke-width:2;stroke-linecap:butt;stroke-linejoin:round" />
  <path
     d="m 171.97757,128.52292 q 0.28125,0.25 0.46875,0.64062 0.1875,0.375 0.1875,0.98438 0,0.59375 -0.21875,1.09375 -0.21875,0.5 -0.60938,0.85937 -0.4375,0.40625 -1.04687,0.60938 -0.59375,0.20312 -1.29688,0.20312 -0.71875,0 -1.42187,-0.1875 -0.70313,-0.17187 -1.15625,-0.375 l 0,-1.21875 0.0781,0 q 0.5,0.32813 1.17188,0.54688 0.67187,0.21875 1.3125,0.21875 0.35937,0 0.76562,-0.125 0.42188,-0.125 0.6875,-0.35938 0.26563,-0.26562 0.39063,-0.57812 0.14062,-0.3125 0.14062,-0.78125 0,-0.46875 -0.15625,-0.76563 -0.14062,-0.3125 -0.40625,-0.5 -0.26562,-0.17187 -0.64062,-0.23437 -0.375,-0.0781 -0.8125,-0.0781 l -0.51563,0 0,-0.96875 0.40625,0 q 0.89063,0 1.42188,-0.375 0.53125,-0.375 0.53125,-1.09375 0,-0.3125 -0.14063,-0.54687 -0.125,-0.23438 -0.375,-0.39063 -0.25,-0.15625 -0.54687,-0.20312 -0.28125,-0.0625 -0.64063,-0.0625 -0.5625,0 -1.1875,0.20312 -0.625,0.1875 -1.17187,0.5625 l -0.0625,0 0,-1.23437 q 0.40625,-0.20313 1.09375,-0.375 0.70312,-0.17188 1.35937,-0.17188 0.64063,0 1.125,0.125 0.48438,0.10938 0.875,0.35938 0.42188,0.28125 0.64063,0.6875 0.21875,0.39062 0.21875,0.9375 0,0.71875 -0.51563,1.26562 -0.51562,0.53125 -1.20312,0.67188 l 0,0.0937 q 0.28125,0.0469 0.64062,0.20312 0.35938,0.14063 0.60938,0.35938 z"
     id="path18072"
     style="fill:#000000;fill-rule:nonzero" />
  <path
     d="m 152.42255,146.3508 34.58269,0 0,36.78741 -34.58269,0 z"
     id="path18074"
     style="fill:#ffffff;fill-rule:nonzero" />
  <path
     d="m 152.42255,146.3508 34.58269,0 0,36.78741 -34.58269,0 z"
     id="path18076"
     style="stroke:#000000;stroke-width:2;stroke-linecap:butt;stroke-linejoin:round" />
  <path
     d="m 172.94632,166.81138 -1.29688,0 0,2.45312 -1.125,0 0,-2.45312 -4.17187,0 0,-1.34375 4.21875,-4.92188 1.07812,0 0,5.32813 1.29688,0 0,0.9375 z m -2.42188,-0.9375 0,-3.9375 -3.375,3.9375 3.375,0 z"
     id="path18078"
     style="fill:#000000;fill-rule:nonzero" />
  <path
     d="m 152.42255,183.58158 34.58269,0 0,36.78742 -34.58269,0 z"
     id="path18080"
     style="fill:#ffffff;fill-rule:nonzero" />
  <path
     d="m 152.42255,183.58158 34.58269,0 0,36.78742 -34.58269,0 z"
     id="path18082"
     style="stroke:#000000;stroke-width:2;stroke-linecap:butt;stroke-linejoin:round" />
  <path
     d="m 172.6807,203.72964 q 0,0.60938 -0.23438,1.17188 -0.21875,0.54687 -0.59375,0.92187 -0.42187,0.40625 -1.01562,0.64063 -0.57813,0.21875 -1.34375,0.21875 -0.71875,0 -1.39063,-0.15625 -0.65625,-0.15625 -1.10937,-0.35938 l 0,-1.23437 0.0781,0 q 0.48438,0.29687 1.125,0.51562 0.65625,0.21875 1.26563,0.21875 0.42187,0 0.8125,-0.10937 0.39062,-0.125 0.6875,-0.42188 0.26562,-0.25 0.39062,-0.59375 0.14063,-0.35937 0.14063,-0.82812 0,-0.45313 -0.15625,-0.75 -0.15625,-0.3125 -0.4375,-0.5 -0.29688,-0.23438 -0.73438,-0.3125 -0.4375,-0.0937 -0.98437,-0.0937 -0.51563,0 -1,0.0781 -0.46875,0.0625 -0.8125,0.125 l 0,-4.48437 5.25,0 0,1.01562 -4.10938,0 0,2.32813 q 0.25,-0.0312 0.5,-0.0312 0.26563,-0.0156 0.46875,-0.0156 0.70313,0 1.23438,0.125 0.53125,0.10938 0.98437,0.42188 0.46875,0.3125 0.71875,0.82812 0.26563,0.5 0.26563,1.28125 z"
     id="path18084"
     style="fill:#000000;fill-rule:nonzero" />
  <path
     d="m 152.42255,256.96615 34.58269,0 0,36.78742 -34.58269,0 z"
     id="path18086"
     style="fill:#ffffff;fill-rule:nonzero" />
  <path
     d="m 152.42255,256.96615 34.58269,0 0,36.78742 -34.58269,0 z"
     id="path18088"
     style="stroke:#000000;stroke-width:2;stroke-linecap:butt;stroke-linejoin:round" />
  <path
     d="m 172.77445,272.45801 -3.95313,7.42187 -1.25,0 4.20313,-7.70312 -4.96875,0 0,-1.01563 5.96875,0 0,1.29688 z"
     id="path18090"
     style="fill:#000000;fill-rule:nonzero" />
  <path
     d="m 187.57639,72.581566 34.58269,0 0,36.787414 -34.58269,0 z"
     id="path18092"
     style="fill:#ffffff;fill-rule:nonzero" />
  <path
     d="m 187.57639,72.581566 34.58269,0 0,36.787414 -34.58269,0 z"
     id="path18094"
     style="stroke:#000000;stroke-width:2;stroke-linecap:butt;stroke-linejoin:round" />
  <path
     d="m 207.13141,91.292136 q 0.28125,0.25 0.46875,0.64063 0.1875,0.375 0.1875,0.98437 0,0.59375 -0.21875,1.09375 -0.21875,0.5 -0.60938,0.85938 -0.4375,0.40625 -1.04687,0.60937 -0.59375,0.20313 -1.29688,0.20313 -0.71875,0 -1.42187,-0.1875 -0.70313,-0.17188 -1.15625,-0.375 l 0,-1.21875 0.0781,0 q 0.5,0.32812 1.17188,0.54687 0.67187,0.21875 1.3125,0.21875 0.35937,0 0.76562,-0.125 0.42188,-0.125 0.6875,-0.35937 0.26563,-0.26563 0.39063,-0.57813 0.14062,-0.3125 0.14062,-0.78125 0,-0.46875 -0.15625,-0.76562 -0.14062,-0.3125 -0.40625,-0.5 -0.26562,-0.17188 -0.64062,-0.23438 -0.375,-0.0781 -0.8125,-0.0781 l -0.51563,0 0,-0.96875 0.40625,0 q 0.89063,0 1.42188,-0.375 0.53125,-0.375 0.53125,-1.09375 0,-0.3125 -0.14063,-0.54688 -0.125,-0.23437 -0.375,-0.39062 -0.25,-0.15625 -0.54687,-0.20313 -0.28125,-0.0625 -0.64063,-0.0625 -0.5625,0 -1.1875,0.20313 -0.625,0.1875 -1.17187,0.5625 l -0.0625,0 0,-1.23438 q 0.40625,-0.20312 1.09375,-0.375 0.70312,-0.17187 1.35937,-0.17187 0.64063,0 1.125,0.125 0.48438,0.10937 0.875,0.35937 0.42188,0.28125 0.64063,0.6875 0.21875,0.39063 0.21875,0.9375 0,0.71875 -0.51563,1.26563 -0.51562,0.53125 -1.20312,0.67187 l 0,0.0937 q 0.28125,0.0469 0.64062,0.20313 0.35938,0.14062 0.60938,0.35937 z"
     id="path18096"
     style="fill:#000000;fill-rule:nonzero" />
  <path
     d="m 187.57639,109.81235 34.58269,0 0,36.78738 -34.58269,0 z"
     id="path18098"
     style="fill:#ffffff;fill-rule:nonzero" />
  <path
     d="m 187.57639,109.81235 34.58269,0 0,36.78738 -34.58269,0 z"
     id="path18100"
     style="stroke:#000000;stroke-width:2;stroke-linecap:butt;stroke-linejoin:round" />
  <path
     d="m 208.10016,130.27292 -1.29688,0 0,2.45312 -1.125,0 0,-2.45312 -4.17187,0 0,-1.34375 4.21875,-4.92188 1.07812,0 0,5.32813 1.29688,0 0,0.9375 z m -2.42188,-0.9375 0,-3.9375 -3.375,3.9375 3.375,0 z"
     id="path18102"
     style="fill:#000000;fill-rule:nonzero" />
  <path
     d="m 187.57639,146.3508 34.58269,0 0,36.78741 -34.58269,0 z"
     id="path18104"
     style="fill:#ffffff;fill-rule:nonzero" />
  <path
     d="m 187.57639,146.3508 34.58269,0 0,36.78741 -34.58269,0 z"
     id="path18106"
     style="stroke:#000000;stroke-width:2;stroke-linecap:butt;stroke-linejoin:round" />
  <path
     d="m 207.83454,166.49888 q 0,0.60937 -0.23438,1.17187 -0.21875,0.54688 -0.59375,0.92188 -0.42187,0.40625 -1.01562,0.64062 -0.57813,0.21875 -1.34375,0.21875 -0.71875,0 -1.39063,-0.15625 -0.65625,-0.15625 -1.10937,-0.35937 l 0,-1.23438 0.0781,0 q 0.48438,0.29688 1.125,0.51563 0.65625,0.21875 1.26563,0.21875 0.42187,0 0.8125,-0.10938 0.39062,-0.125 0.6875,-0.42187 0.26562,-0.25 0.39062,-0.59375 0.14063,-0.35938 0.14063,-0.82813 0,-0.45312 -0.15625,-0.75 -0.15625,-0.3125 -0.4375,-0.5 -0.29688,-0.23437 -0.73438,-0.3125 -0.4375,-0.0937 -0.98437,-0.0937 -0.51563,0 -1,0.0781 -0.46875,0.0625 -0.8125,0.125 l 0,-4.48438 5.25,0 0,1.01563 -4.10938,0 0,2.32812 q 0.25,-0.0312 0.5,-0.0312 0.26563,-0.0156 0.46875,-0.0156 0.70313,0 1.23438,0.125 0.53125,0.10937 0.98437,0.42187 0.46875,0.3125 0.71875,0.82813 0.26563,0.5 0.26563,1.28125 z"
     id="path18108"
     style="fill:#000000;fill-rule:nonzero" />
  <path
     d="m 187.57639,183.58158 34.58269,0 0,36.78742 -34.58269,0 z"
     id="path18110"
     style="fill:#ffffff;fill-rule:nonzero" />
  <path
     d="m 187.57639,183.58158 34.58269,0 0,36.78742 -34.58269,0 z"
     id="path18112"
     style="stroke:#000000;stroke-width:2;stroke-linecap:butt;stroke-linejoin:round" />
  <path
     d="m 208.03766,203.66714 q 0,1.32813 -0.875,2.17188 -0.875,0.84375 -2.15625,0.84375 -0.64063,0 -1.17188,-0.20313 -0.53125,-0.20312 -0.92187,-0.59375 -0.51563,-0.48437 -0.79688,-1.28125 -0.26562,-0.8125 -0.26562,-1.9375 0,-1.17187 0.25,-2.0625 0.25,-0.89062 0.79687,-1.59375 0.51563,-0.65625 1.32813,-1.03125 0.8125,-0.375 1.90625,-0.375 0.34375,0 0.57812,0.0312 0.23438,0.0312 0.46875,0.10938 l 0,1.10937 -0.0469,0 q -0.17188,-0.0781 -0.5,-0.15625 -0.32813,-0.0781 -0.67188,-0.0781 -1.26562,0 -2.01562,0.78125 -0.75,0.78125 -0.875,2.125 0.5,-0.29688 0.96875,-0.45313 0.48437,-0.15625 1.10937,-0.15625 0.54688,0 0.96875,0.10938 0.4375,0.0937 0.875,0.40625 0.51563,0.35937 0.78125,0.90625 0.26563,0.54687 0.26563,1.32812 z m -1.1875,0.0469 q 0,-0.54688 -0.17188,-0.90625 -0.15625,-0.35938 -0.53125,-0.625 -0.26562,-0.1875 -0.59375,-0.23438 -0.32812,-0.0625 -0.6875,-0.0625 -0.5,0 -0.92187,0.125 -0.42188,0.10938 -0.875,0.35938 -0.0156,0.125 -0.0312,0.25 0,0.10937 0,0.29687 0,0.92188 0.1875,1.46875 0.20312,0.53125 0.53125,0.84375 0.26562,0.25 0.57812,0.375 0.3125,0.10938 0.6875,0.10938 0.84375,0 1.32813,-0.51563 0.5,-0.51562 0.5,-1.48437 z"
     id="path18114"
     style="fill:#000000;fill-rule:nonzero" />
  <path
     d="m 187.57639,219.73541 34.58269,0 0,36.78738 -34.58269,0 z"
     id="path18116"
     style="fill:#ffffff;fill-rule:nonzero" />
  <path
     d="m 187.57639,219.73541 34.58269,0 0,36.78738 -34.58269,0 z"
     id="path18118"
     style="stroke:#000000;stroke-width:2;stroke-linecap:butt;stroke-linejoin:round" />
  <path
     d="m 207.92829,235.22723 -3.95313,7.42188 -1.25,0 4.20313,-7.70313 -4.96875,0 0,-1.01562 5.96875,0 0,1.29687 z"
     id="path18120"
     style="fill:#000000;fill-rule:nonzero" />
  <path
     d="m 187.57639,256.96615 34.58269,0 0,36.78742 -34.58269,0 z"
     id="path18122"
     style="fill:#ffffff;fill-rule:nonzero" />
  <path
     d="m 187.57639,256.96615 34.58269,0 0,36.78742 -34.58269,0 z"
     id="path18124"
     style="stroke:#000000;stroke-width:2;stroke-linecap:butt;stroke-linejoin:round" />
  <path
     d="m 207.97516,277.44238 q 0,1.14062 -0.89063,1.89062 -0.875,0.75 -2.21875,0.75 -1.42187,0 -2.26562,-0.73437 -0.82813,-0.73438 -0.82813,-1.875 0,-0.73438 0.42188,-1.3125 0.42187,-0.59375 1.1875,-0.9375 l 0,-0.0312 q -0.70313,-0.375 -1.04688,-0.8125 -0.32812,-0.45313 -0.32812,-1.125 0,-0.98438 0.79687,-1.64063 0.8125,-0.65625 2.0625,-0.65625 1.3125,0 2.09375,0.625 0.78125,0.625 0.78125,1.59375 0,0.59375 -0.375,1.17188 -0.375,0.5625 -1.07812,0.89062 l 0,0.0312 q 0.8125,0.34375 1.25,0.85938 0.4375,0.51562 0.4375,1.3125 z m -1.39063,-4.25 q 0,-0.625 -0.48437,-1 -0.48438,-0.375 -1.23438,-0.375 -0.73437,0 -1.21875,0.35937 -0.46875,0.34375 -0.46875,0.9375 0,0.42188 0.23438,0.73438 0.25,0.3125 0.71875,0.54687 0.21875,0.10938 0.625,0.28125 0.40625,0.15625 0.79687,0.28125 0.57813,-0.39062 0.79688,-0.79687 0.23437,-0.42188 0.23437,-0.96875 z m 0.17188,4.35937 q 0,-0.53125 -0.23438,-0.85937 -0.23437,-0.32813 -0.92187,-0.65625 -0.28125,-0.125 -0.60938,-0.23438 -0.32812,-0.10937 -0.875,-0.3125 -0.53125,0.28125 -0.84375,0.78125 -0.3125,0.48438 -0.3125,1.10938 0,0.79687 0.53125,1.3125 0.54688,0.51562 1.39063,0.51562 0.85937,0 1.35937,-0.4375 0.51563,-0.4375 0.51563,-1.21875 z"
     id="path18126"
     style="fill:#000000;fill-rule:nonzero" />
  <path
     d="m 221.65334,72.581566 34.58267,0 0,36.787414 -34.58267,0 z"
     id="path18128"
     style="fill:#ffffff;fill-rule:nonzero" />
  <path
     d="m 221.65334,72.581566 34.58267,0 0,36.787414 -34.58267,0 z"
     id="path18130"
     style="stroke:#000000;stroke-width:2;stroke-linecap:butt;stroke-linejoin:round" />
  <path
     d="m 242.1771,93.042136 -1.29688,0 0,2.45313 -1.125,0 0,-2.45313 -4.17187,0 0,-1.34375 4.21875,-4.92187 1.07812,0 0,5.32812 1.29688,0 0,0.9375 z m -2.42188,-0.9375 0,-3.9375 -3.375,3.9375 3.375,0 z"
     id="path18132"
     style="fill:#000000;fill-rule:nonzero" />
  <path
     d="m 221.65334,109.81235 34.58267,0 0,36.78738 -34.58267,0 z"
     id="path18134"
     style="fill:#ffffff;fill-rule:nonzero" />
  <path
     d="m 221.65334,109.81235 34.58267,0 0,36.78738 -34.58267,0 z"
     id="path18136"
     style="stroke:#000000;stroke-width:2;stroke-linecap:butt;stroke-linejoin:round" />
  <path
     d="m 241.91147,129.96042 q 0,0.60937 -0.23438,1.17187 -0.21875,0.54688 -0.59375,0.92188 -0.42187,0.40625 -1.01562,0.64062 -0.57813,0.21875 -1.34375,0.21875 -0.71875,0 -1.39063,-0.15625 -0.65625,-0.15625 -1.10937,-0.35937 l 0,-1.23438 0.0781,0 q 0.48438,0.29688 1.125,0.51563 0.65625,0.21875 1.26563,0.21875 0.42187,0 0.8125,-0.10938 0.39062,-0.125 0.6875,-0.42187 0.26562,-0.25 0.39062,-0.59375 0.14063,-0.35938 0.14063,-0.82813 0,-0.45312 -0.15625,-0.75 -0.15625,-0.3125 -0.4375,-0.5 -0.29688,-0.23437 -0.73438,-0.3125 -0.4375,-0.0937 -0.98437,-0.0937 -0.51563,0 -1,0.0781 -0.46875,0.0625 -0.8125,0.125 l 0,-4.48438 5.25,0 0,1.01563 -4.10938,0 0,2.32812 q 0.25,-0.0312 0.5,-0.0312 0.26563,-0.0156 0.46875,-0.0156 0.70313,0 1.23438,0.125 0.53125,0.10937 0.98437,0.42187 0.46875,0.3125 0.71875,0.82813 0.26563,0.5 0.26563,1.28125 z"
     id="path18138"
     style="fill:#000000;fill-rule:nonzero" />
  <path
     d="m 221.65334,146.3508 34.58267,0 0,36.78741 -34.58267,0 z"
     id="path18140"
     style="fill:#ffffff;fill-rule:nonzero" />
  <path
     d="m 221.65334,146.3508 34.58267,0 0,36.78741 -34.58267,0 z"
     id="path18142"
     style="stroke:#000000;stroke-width:2;stroke-linecap:butt;stroke-linejoin:round" />
  <path
     d="m 242.1146,166.43638 q 0,1.32812 -0.875,2.17187 -0.875,0.84375 -2.15625,0.84375 -0.64063,0 -1.17188,-0.20312 -0.53125,-0.20313 -0.92187,-0.59375 -0.51563,-0.48438 -0.79688,-1.28125 -0.26562,-0.8125 -0.26562,-1.9375 0,-1.17188 0.25,-2.0625 0.25,-0.89063 0.79687,-1.59375 0.51563,-0.65625 1.32813,-1.03125 0.8125,-0.375 1.90625,-0.375 0.34375,0 0.57812,0.0312 0.23438,0.0312 0.46875,0.10937 l 0,1.10938 -0.0469,0 q -0.17188,-0.0781 -0.5,-0.15625 -0.32813,-0.0781 -0.67188,-0.0781 -1.26562,0 -2.01562,0.78125 -0.75,0.78125 -0.875,2.125 0.5,-0.29687 0.96875,-0.45312 0.48437,-0.15625 1.10937,-0.15625 0.54688,0 0.96875,0.10937 0.4375,0.0937 0.875,0.40625 0.51563,0.35938 0.78125,0.90625 0.26563,0.54688 0.26563,1.32813 z m -1.1875,0.0469 q 0,-0.54687 -0.17188,-0.90625 -0.15625,-0.35937 -0.53125,-0.625 -0.26562,-0.1875 -0.59375,-0.23437 -0.32812,-0.0625 -0.6875,-0.0625 -0.5,0 -0.92187,0.125 -0.42188,0.10937 -0.875,0.35937 -0.0156,0.125 -0.0312,0.25 0,0.10938 0,0.29688 0,0.92187 0.1875,1.46875 0.20312,0.53125 0.53125,0.84375 0.26562,0.25 0.57812,0.375 0.3125,0.10937 0.6875,0.10937 0.84375,0 1.32813,-0.51562 0.5,-0.51563 0.5,-1.48438 z"
     id="path18144"
     style="fill:#000000;fill-rule:nonzero" />
  <path
     d="m 221.65334,183.58158 34.58267,0 0,36.78742 -34.58267,0 z"
     id="path18146"
     style="fill:#ffffff;fill-rule:nonzero" />
  <path
     d="m 221.65334,183.58158 34.58267,0 0,36.78742 -34.58267,0 z"
     id="path18148"
     style="stroke:#000000;stroke-width:2;stroke-linecap:butt;stroke-linejoin:round" />
  <path
     d="m 242.00522,199.07338 -3.95313,7.42187 -1.25,0 4.20313,-7.70312 -4.96875,0 0,-1.01563 5.96875,0 0,1.29688 z"
     id="path18150"
     style="fill:#000000;fill-rule:nonzero" />
  <path
     d="m 221.65334,219.73541 34.58267,0 0,36.78738 -34.58267,0 z"
     id="path18152"
     style="fill:#ffffff;fill-rule:nonzero" />
  <path
     d="m 221.65334,219.73541 34.58267,0 0,36.78738 -34.58267,0 z"
     id="path18154"
     style="stroke:#000000;stroke-width:2;stroke-linecap:butt;stroke-linejoin:round" />
  <path
     d="m 242.0521,240.21161 q 0,1.14062 -0.89063,1.89062 -0.875,0.75 -2.21875,0.75 -1.42187,0 -2.26562,-0.73437 -0.82813,-0.73438 -0.82813,-1.875 0,-0.73438 0.42188,-1.3125 0.42187,-0.59375 1.1875,-0.9375 l 0,-0.0312 q -0.70313,-0.375 -1.04688,-0.8125 -0.32812,-0.45313 -0.32812,-1.125 0,-0.98438 0.79687,-1.64063 0.8125,-0.65625 2.0625,-0.65625 1.3125,0 2.09375,0.625 0.78125,0.625 0.78125,1.59375 0,0.59375 -0.375,1.17188 -0.375,0.5625 -1.07812,0.89062 l 0,0.0312 q 0.8125,0.34375 1.25,0.85938 0.4375,0.51562 0.4375,1.3125 z m -1.39063,-4.25 q 0,-0.625 -0.48437,-1 -0.48438,-0.375 -1.23438,-0.375 -0.73437,0 -1.21875,0.35937 -0.46875,0.34375 -0.46875,0.9375 0,0.42188 0.23438,0.73438 0.25,0.3125 0.71875,0.54687 0.21875,0.10938 0.625,0.28125 0.40625,0.15625 0.79687,0.28125 0.57813,-0.39062 0.79688,-0.79687 0.23437,-0.42188 0.23437,-0.96875 z m 0.17188,4.35937 q 0,-0.53125 -0.23438,-0.85937 -0.23437,-0.32813 -0.92187,-0.65625 -0.28125,-0.125 -0.60938,-0.23438 -0.32812,-0.10937 -0.875,-0.3125 -0.53125,0.28125 -0.84375,0.78125 -0.3125,0.48438 -0.3125,1.10938 0,0.79687 0.53125,1.3125 0.54688,0.51562 1.39063,0.51562 0.85937,0 1.35937,-0.4375 0.51563,-0.4375 0.51563,-1.21875 z"
     id="path18156"
     style="fill:#000000;fill-rule:nonzero" />
  <path
     d="m 221.65334,256.96615 34.58267,0 0,36.78742 -34.58267,0 z"
     id="path18158"
     style="fill:#ffffff;fill-rule:nonzero" />
  <path
     d="m 221.65334,256.96615 34.58267,0 0,36.78742 -34.58267,0 z"
     id="path18160"
     style="stroke:#000000;stroke-width:2;stroke-linecap:butt;stroke-linejoin:round" />
  <path
     d="m 241.97397,274.98926 q 0,1.14062 -0.26563,2.07812 -0.26562,0.9375 -0.78125,1.59375 -0.54687,0.65625 -1.34375,1.03125 -0.79687,0.35938 -1.89062,0.35938 -0.29688,0 -0.57813,-0.0312 -0.26562,-0.0312 -0.46875,-0.10938 l 0,-1.10937 0.0625,0 q 0.15625,0.0781 0.46875,0.15625 0.3125,0.0781 0.70313,0.0781 1.28125,0 2.01562,-0.76562 0.75,-0.78125 0.85938,-2.14063 -0.54688,0.32813 -1.03125,0.46875 -0.46875,0.14063 -1.04688,0.14063 -0.53125,0 -0.96875,-0.10938 -0.4375,-0.10937 -0.875,-0.40625 -0.51562,-0.35937 -0.78125,-0.90625 -0.26562,-0.5625 -0.26562,-1.32812 0,-1.32813 0.875,-2.17188 0.89062,-0.84375 2.15625,-0.84375 0.625,0 1.15625,0.20313 0.54687,0.1875 0.95312,0.59375 0.5,0.48437 0.76563,1.25 0.28125,0.76562 0.28125,1.96875 z m -1.1875,-0.25 q 0,-0.90625 -0.1875,-1.45313 -0.1875,-0.5625 -0.51563,-0.85937 -0.28125,-0.26563 -0.59375,-0.375 -0.3125,-0.125 -0.6875,-0.125 -0.84375,0 -1.32812,0.53125 -0.48438,0.53125 -0.48438,1.48437 0,0.5625 0.15625,0.92188 0.15625,0.34375 0.53125,0.60937 0.26563,0.17188 0.57813,0.23438 0.3125,0.0625 0.70312,0.0625 0.45313,0 0.92188,-0.125 0.46875,-0.125 0.875,-0.35938 0.0156,-0.125 0.0156,-0.23437 0.0156,-0.125 0.0156,-0.3125 z"
     id="path18162"
     style="fill:#000000;fill-rule:nonzero" />
  <path
     d="m 256.80716,72.581566 34.58267,0 0,36.787414 -34.58267,0 z"
     id="path18164"
     style="fill:#ffffff;fill-rule:nonzero" />
  <path
     d="m 256.80716,72.581566 34.58267,0 0,36.787414 -34.58267,0 z"
     id="path18166"
     style="stroke:#000000;stroke-width:2;stroke-linecap:butt;stroke-linejoin:round" />
  <path
     d="m 277.06529,92.729636 q 0,0.60938 -0.23438,1.17188 -0.21875,0.54687 -0.59375,0.92187 -0.42187,0.40625 -1.01562,0.64063 -0.57813,0.21875 -1.34375,0.21875 -0.71875,0 -1.39063,-0.15625 -0.65625,-0.15625 -1.10937,-0.35938 l 0,-1.23437 0.0781,0 q 0.48438,0.29687 1.125,0.51562 0.65625,0.21875 1.26563,0.21875 0.42187,0 0.8125,-0.10937 0.39062,-0.125 0.6875,-0.42188 0.26562,-0.25 0.39062,-0.59375 0.14063,-0.35937 0.14063,-0.82812 0,-0.45313 -0.15625,-0.75 -0.15625,-0.3125 -0.4375,-0.5 -0.29688,-0.23438 -0.73438,-0.3125 -0.4375,-0.0937 -0.98437,-0.0937 -0.51563,0 -1,0.0781 -0.46875,0.0625 -0.8125,0.125 l 0,-4.48437 5.25,0 0,1.01562 -4.10938,0 0,2.32813 q 0.25,-0.0312 0.5,-0.0312 0.26563,-0.0156 0.46875,-0.0156 0.70313,0 1.23438,0.125 0.53125,0.10938 0.98437,0.42188 0.46875,0.3125 0.71875,0.82812 0.26563,0.5 0.26563,1.28125 z"
     id="path18168"
     style="fill:#000000;fill-rule:nonzero" />
  <path
     d="m 256.80716,109.81235 34.58267,0 0,36.78738 -34.58267,0 z"
     id="path18170"
     style="fill:#ffffff;fill-rule:nonzero" />
  <path
     d="m 256.80716,109.81235 34.58267,0 0,36.78738 -34.58267,0 z"
     id="path18172"
     style="stroke:#000000;stroke-width:2;stroke-linecap:butt;stroke-linejoin:round" />
  <path
     d="m 277.26842,129.89792 q 0,1.32812 -0.875,2.17187 -0.875,0.84375 -2.15625,0.84375 -0.64063,0 -1.17188,-0.20312 -0.53125,-0.20313 -0.92187,-0.59375 -0.51563,-0.48438 -0.79688,-1.28125 -0.26562,-0.8125 -0.26562,-1.9375 0,-1.17188 0.25,-2.0625 0.25,-0.89063 0.79687,-1.59375 0.51563,-0.65625 1.32813,-1.03125 0.8125,-0.375 1.90625,-0.375 0.34375,0 0.57812,0.0312 0.23438,0.0312 0.46875,0.10937 l 0,1.10938 -0.0469,0 q -0.17188,-0.0781 -0.5,-0.15625 -0.32813,-0.0781 -0.67188,-0.0781 -1.26562,0 -2.01562,0.78125 -0.75,0.78125 -0.875,2.125 0.5,-0.29687 0.96875,-0.45312 0.48437,-0.15625 1.10937,-0.15625 0.54688,0 0.96875,0.10937 0.4375,0.0937 0.875,0.40625 0.51563,0.35938 0.78125,0.90625 0.26563,0.54688 0.26563,1.32813 z m -1.1875,0.0469 q 0,-0.54687 -0.17188,-0.90625 -0.15625,-0.35937 -0.53125,-0.625 -0.26562,-0.1875 -0.59375,-0.23437 -0.32812,-0.0625 -0.6875,-0.0625 -0.5,0 -0.92187,0.125 -0.42188,0.10937 -0.875,0.35937 -0.0156,0.125 -0.0312,0.25 0,0.10938 0,0.29688 0,0.92187 0.1875,1.46875 0.20312,0.53125 0.53125,0.84375 0.26562,0.25 0.57812,0.375 0.3125,0.10937 0.6875,0.10937 0.84375,0 1.32813,-0.51562 0.5,-0.51563 0.5,-1.48438 z"
     id="path18174"
     style="fill:#000000;fill-rule:nonzero" />
  <path
     d="m 256.80716,146.3508 34.58267,0 0,36.78741 -34.58267,0 z"
     id="path18176"
     style="fill:#ffffff;fill-rule:nonzero" />
  <path
     d="m 256.80716,146.3508 34.58267,0 0,36.78741 -34.58267,0 z"
     id="path18178"
     style="stroke:#000000;stroke-width:2;stroke-linecap:butt;stroke-linejoin:round" />
  <path
     d="m 277.15904,161.84262 -3.95313,7.42187 -1.25,0 4.20313,-7.70312 -4.96875,0 0,-1.01563 5.96875,0 0,1.29688 z"
     id="path18180"
     style="fill:#000000;fill-rule:nonzero" />
  <path
     d="m 256.80716,183.58158 34.58267,0 0,36.78742 -34.58267,0 z"
     id="path18182"
     style="fill:#ffffff;fill-rule:nonzero" />
  <path
     d="m 256.80716,183.58158 34.58267,0 0,36.78742 -34.58267,0 z"
     id="path18184"
     style="stroke:#000000;stroke-width:2;stroke-linecap:butt;stroke-linejoin:round" />
  <path
     d="m 277.20592,204.05778 q 0,1.14062 -0.89063,1.89062 -0.875,0.75 -2.21875,0.75 -1.42187,0 -2.26562,-0.73437 -0.82813,-0.73438 -0.82813,-1.875 0,-0.73438 0.42188,-1.3125 0.42187,-0.59375 1.1875,-0.9375 l 0,-0.0312 q -0.70313,-0.375 -1.04688,-0.8125 -0.32812,-0.45313 -0.32812,-1.125 0,-0.98438 0.79687,-1.64063 0.8125,-0.65625 2.0625,-0.65625 1.3125,0 2.09375,0.625 0.78125,0.625 0.78125,1.59375 0,0.59375 -0.375,1.17188 -0.375,0.5625 -1.07812,0.89062 l 0,0.0312 q 0.8125,0.34375 1.25,0.85938 0.4375,0.51562 0.4375,1.3125 z m -1.39063,-4.25 q 0,-0.625 -0.48437,-1 -0.48438,-0.375 -1.23438,-0.375 -0.73437,0 -1.21875,0.35937 -0.46875,0.34375 -0.46875,0.9375 0,0.42188 0.23438,0.73438 0.25,0.3125 0.71875,0.54687 0.21875,0.10938 0.625,0.28125 0.40625,0.15625 0.79687,0.28125 0.57813,-0.39062 0.79688,-0.79687 0.23437,-0.42188 0.23437,-0.96875 z m 0.17188,4.35937 q 0,-0.53125 -0.23438,-0.85937 -0.23437,-0.32813 -0.92187,-0.65625 -0.28125,-0.125 -0.60938,-0.23438 -0.32812,-0.10937 -0.875,-0.3125 -0.53125,0.28125 -0.84375,0.78125 -0.3125,0.48438 -0.3125,1.10938 0,0.79687 0.53125,1.3125 0.54688,0.51562 1.39063,0.51562 0.85937,0 1.35937,-0.4375 0.51563,-0.4375 0.51563,-1.21875 z"
     id="path18186"
     style="fill:#000000;fill-rule:nonzero" />
  <path
     d="m 256.80716,219.73541 34.58267,0 0,36.78738 -34.58267,0 z"
     id="path18188"
     style="fill:#ffffff;fill-rule:nonzero" />
  <path
     d="m 256.80716,219.73541 34.58267,0 0,36.78738 -34.58267,0 z"
     id="path18190"
     style="stroke:#000000;stroke-width:2;stroke-linecap:butt;stroke-linejoin:round" />
  <path
     d="m 277.12779,237.75848 q 0,1.14063 -0.26563,2.07813 -0.26562,0.9375 -0.78125,1.59375 -0.54687,0.65625 -1.34375,1.03125 -0.79687,0.35937 -1.89062,0.35937 -0.29688,0 -0.57813,-0.0312 -0.26562,-0.0312 -0.46875,-0.10937 l 0,-1.10938 0.0625,0 q 0.15625,0.0781 0.46875,0.15625 0.3125,0.0781 0.70313,0.0781 1.28125,0 2.01562,-0.76563 0.75,-0.78125 0.85938,-2.14062 -0.54688,0.32812 -1.03125,0.46875 -0.46875,0.14062 -1.04688,0.14062 -0.53125,0 -0.96875,-0.10937 -0.4375,-0.10938 -0.875,-0.40625 -0.51562,-0.35938 -0.78125,-0.90625 -0.26562,-0.5625 -0.26562,-1.32813 0,-1.32812 0.875,-2.17187 0.89062,-0.84375 2.15625,-0.84375 0.625,0 1.15625,0.20312 0.54687,0.1875 0.95312,0.59375 0.5,0.48438 0.76563,1.25 0.28125,0.76563 0.28125,1.96875 z m -1.1875,-0.25 q 0,-0.90625 -0.1875,-1.45312 -0.1875,-0.5625 -0.51563,-0.85938 -0.28125,-0.26562 -0.59375,-0.375 -0.3125,-0.125 -0.6875,-0.125 -0.84375,0 -1.32812,0.53125 -0.48438,0.53125 -0.48438,1.48438 0,0.5625 0.15625,0.92187 0.15625,0.34375 0.53125,0.60938 0.26563,0.17187 0.57813,0.23437 0.3125,0.0625 0.70312,0.0625 0.45313,0 0.92188,-0.125 0.46875,-0.125 0.875,-0.35937 0.0156,-0.125 0.0156,-0.23438 0.0156,-0.125 0.0156,-0.3125 z"
     id="path18192"
     style="fill:#000000;fill-rule:nonzero" />
  <path
     d="m 256.80716,256.96615 34.58267,0 0,36.78742 -34.58267,0 z"
     id="path18194"
     style="fill:#ffffff;fill-rule:nonzero" />
  <path
     d="m 256.80716,256.96615 34.58267,0 0,36.78742 -34.58267,0 z"
     id="path18196"
     style="stroke:#000000;stroke-width:2;stroke-linecap:butt;stroke-linejoin:round" />
  <path
     d="m 272.82897,279.87988 -4.73438,0 0,-0.89063 1.82813,0 0,-5.84375 -1.82813,0 0,-0.79687 q 0.375,0 0.79688,-0.0625 0.42187,-0.0625 0.64062,-0.1875 0.26563,-0.14063 0.42188,-0.35938 0.15625,-0.23437 0.17187,-0.60937 l 0.92188,0 0,7.85937 1.78125,0 0,0.89063 z m 8.1133,-4.35938 q 0,2.34375 -0.73438,3.45313 -0.73437,1.09375 -2.28126,1.09375 -1.57813,0 -2.3125,-1.10938 -0.71875,-1.125 -0.71875,-3.4375 0,-2.32812 0.73437,-3.4375 0.73438,-1.10937 2.29688,-1.10937 1.56251,0 2.28126,1.14062 0.73438,1.125 0.73438,3.40625 z m -1.54688,2.65625 q 0.20313,-0.48437 0.28125,-1.125 0.0781,-0.64062 0.0781,-1.53125 0,-0.89062 -0.0781,-1.54687 -0.0781,-0.65625 -0.28125,-1.125 -0.20312,-0.45313 -0.5625,-0.67188 -0.35937,-0.23437 -0.90626,-0.23437 -0.5625,0 -0.92188,0.23437 -0.35937,0.21875 -0.5625,0.6875 -0.20312,0.4375 -0.28125,1.14063 -0.0625,0.6875 -0.0625,1.51562 0,0.92188 0.0625,1.54688 0.0625,0.60937 0.26563,1.09375 0.20312,0.45312 0.54687,0.70312 0.35938,0.23438 0.95313,0.23438 0.54689,0 0.90626,-0.23438 0.35938,-0.23437 0.5625,-0.6875 z"
     id="path18198"
     style="fill:#000000;fill-rule:nonzero" />
  <path
     d="m 290.88411,72.581566 34.58267,0 0,36.787414 -34.58267,0 z"
     id="path18200"
     style="fill:#ffffff;fill-rule:nonzero" />
  <path
     d="m 290.88411,72.581566 34.58267,0 0,36.787414 -34.58267,0 z"
     id="path18202"
     style="stroke:#000000;stroke-width:2;stroke-linecap:butt;stroke-linejoin:round" />
  <path
     d="m 311.34537,92.667136 q 0,1.32813 -0.875,2.17188 -0.875,0.84375 -2.15625,0.84375 -0.64062,0 -1.17187,-0.20313 -0.53125,-0.20312 -0.92188,-0.59375 -0.51562,-0.48437 -0.79687,-1.28125 -0.26563,-0.8125 -0.26563,-1.9375 0,-1.17187 0.25,-2.0625 0.25,-0.89062 0.79688,-1.59375 0.51562,-0.65625 1.32812,-1.03125 0.8125,-0.375 1.90625,-0.375 0.34375,0 0.57813,0.0312 0.23437,0.0312 0.46875,0.10938 l 0,1.10937 -0.0469,0 q -0.17187,-0.0781 -0.5,-0.15625 -0.32812,-0.0781 -0.67187,-0.0781 -1.26563,0 -2.01563,0.78125 -0.75,0.78125 -0.875,2.125 0.5,-0.29688 0.96875,-0.45313 0.48438,-0.15625 1.10938,-0.15625 0.54687,0 0.96875,0.10938 0.4375,0.0937 0.875,0.40625 0.51562,0.35937 0.78125,0.90625 0.26562,0.54687 0.26562,1.32812 z m -1.1875,0.0469 q 0,-0.54688 -0.17187,-0.90625 -0.15625,-0.35938 -0.53125,-0.625 -0.26563,-0.1875 -0.59375,-0.23438 -0.32813,-0.0625 -0.6875,-0.0625 -0.5,0 -0.92188,0.125 -0.42187,0.10938 -0.875,0.35938 -0.0156,0.125 -0.0312,0.25 0,0.10937 0,0.29687 0,0.92188 0.1875,1.46875 0.20313,0.53125 0.53125,0.84375 0.26563,0.25 0.57813,0.375 0.3125,0.10938 0.6875,0.10938 0.84375,0 1.32812,-0.51563 0.5,-0.51562 0.5,-1.48437 z"
     id="path18204"
     style="fill:#000000;fill-rule:nonzero" />
  <path
     d="m 290.88411,109.81235 34.58267,0 0,36.78738 -34.58267,0 z"
     id="path18206"
     style="fill:#ffffff;fill-rule:nonzero" />
  <path
     d="m 290.88411,109.81235 34.58267,0 0,36.78738 -34.58267,0 z"
     id="path18208"
     style="stroke:#000000;stroke-width:2;stroke-linecap:butt;stroke-linejoin:round" />
  <path
     d="m 311.23601,125.30418 -3.95313,7.42188 -1.25,0 4.20313,-7.70313 -4.96875,0 0,-1.01562 5.96875,0 0,1.29687 z"
     id="path18210"
     style="fill:#000000;fill-rule:nonzero" />
  <path
     d="m 290.88411,146.3508 34.58267,0 0,36.78741 -34.58267,0 z"
     id="path18212"
     style="fill:#ffffff;fill-rule:nonzero" />
  <path
     d="m 290.88411,146.3508 34.58267,0 0,36.78741 -34.58267,0 z"
     id="path18214"
     style="stroke:#000000;stroke-width:2;stroke-linecap:butt;stroke-linejoin:round" />
  <path
     d="m 311.28287,166.82698 q 0,1.14062 -0.89062,1.89062 -0.875,0.75 -2.21875,0.75 -1.42188,0 -2.26563,-0.73437 -0.82812,-0.73438 -0.82812,-1.875 0,-0.73438 0.42187,-1.3125 0.42188,-0.59375 1.1875,-0.9375 l 0,-0.0312 q -0.70312,-0.375 -1.04687,-0.8125 -0.32813,-0.45313 -0.32813,-1.125 0,-0.98438 0.79688,-1.64063 0.8125,-0.65625 2.0625,-0.65625 1.3125,0 2.09375,0.625 0.78125,0.625 0.78125,1.59375 0,0.59375 -0.375,1.17188 -0.375,0.5625 -1.07813,0.89062 l 0,0.0312 q 0.8125,0.34375 1.25,0.85938 0.4375,0.51562 0.4375,1.3125 z m -1.39062,-4.25 q 0,-0.625 -0.48438,-1 -0.48437,-0.375 -1.23437,-0.375 -0.73438,0 -1.21875,0.35937 -0.46875,0.34375 -0.46875,0.9375 0,0.42188 0.23437,0.73438 0.25,0.3125 0.71875,0.54687 0.21875,0.10938 0.625,0.28125 0.40625,0.15625 0.79688,0.28125 0.57812,-0.39062 0.79687,-0.79687 0.23438,-0.42188 0.23438,-0.96875 z m 0.17187,4.35937 q 0,-0.53125 -0.23437,-0.85937 -0.23438,-0.32813 -0.92188,-0.65625 -0.28125,-0.125 -0.60937,-0.23438 -0.32813,-0.10937 -0.875,-0.3125 -0.53125,0.28125 -0.84375,0.78125 -0.3125,0.48438 -0.3125,1.10938 0,0.79687 0.53125,1.3125 0.54687,0.51562 1.39062,0.51562 0.85938,0 1.35938,-0.4375 0.51562,-0.4375 0.51562,-1.21875 z"
     id="path18216"
     style="fill:#000000;fill-rule:nonzero" />
  <path
     d="m 290.88411,183.58158 34.58267,0 0,36.78742 -34.58267,0 z"
     id="path18218"
     style="fill:#ffffff;fill-rule:nonzero" />
  <path
     d="m 290.88411,183.58158 34.58267,0 0,36.78742 -34.58267,0 z"
     id="path18220"
     style="stroke:#000000;stroke-width:2;stroke-linecap:butt;stroke-linejoin:round" />
  <path
     d="m 311.20474,201.60464 q 0,1.14063 -0.26562,2.07813 -0.26563,0.9375 -0.78125,1.59375 -0.54688,0.65625 -1.34375,1.03125 -0.79688,0.35937 -1.89063,0.35937 -0.29687,0 -0.57812,-0.0312 -0.26563,-0.0312 -0.46875,-0.10937 l 0,-1.10938 0.0625,0 q 0.15625,0.0781 0.46875,0.15625 0.3125,0.0781 0.70312,0.0781 1.28125,0 2.01563,-0.76563 0.75,-0.78125 0.85937,-2.14062 -0.54687,0.32812 -1.03125,0.46875 -0.46875,0.14062 -1.04687,0.14062 -0.53125,0 -0.96875,-0.10937 -0.4375,-0.10938 -0.875,-0.40625 -0.51563,-0.35938 -0.78125,-0.90625 -0.26563,-0.5625 -0.26563,-1.32813 0,-1.32812 0.875,-2.17187 0.89063,-0.84375 2.15625,-0.84375 0.625,0 1.15625,0.20312 0.54688,0.1875 0.95313,0.59375 0.5,0.48438 0.76562,1.25 0.28125,0.76563 0.28125,1.96875 z m -1.1875,-0.25 q 0,-0.90625 -0.1875,-1.45312 -0.1875,-0.5625 -0.51562,-0.85938 -0.28125,-0.26562 -0.59375,-0.375 -0.3125,-0.125 -0.6875,-0.125 -0.84375,0 -1.32813,0.53125 -0.48437,0.53125 -0.48437,1.48438 0,0.5625 0.15625,0.92187 0.15625,0.34375 0.53125,0.60938 0.26562,0.17187 0.57812,0.23437 0.3125,0.0625 0.70313,0.0625 0.45312,0 0.92187,-0.125 0.46875,-0.125 0.875,-0.35937 0.0156,-0.125 0.0156,-0.23438 0.0156,-0.125 0.0156,-0.3125 z"
     id="path18222"
     style="fill:#000000;fill-rule:nonzero" />
  <path
     d="m 290.88411,219.73541 34.58267,0 0,36.78738 -34.58267,0 z"
     id="path18224"
     style="fill:#ffffff;fill-rule:nonzero" />
  <path
     d="m 290.88411,219.73541 34.58267,0 0,36.78738 -34.58267,0 z"
     id="path18226"
     style="stroke:#000000;stroke-width:2;stroke-linecap:butt;stroke-linejoin:round" />
  <path
     d="m 306.90591,242.64911 -4.73437,0 0,-0.89063 1.82812,0 0,-5.84375 -1.82812,0 0,-0.79687 q 0.375,0 0.79687,-0.0625 0.42188,-0.0625 0.64063,-0.1875 0.26562,-0.14063 0.42187,-0.35938 0.15625,-0.23437 0.17188,-0.60937 l 0.92187,0 0,7.85937 1.78125,0 0,0.89063 z m 8.11328,-4.35938 q 0,2.34375 -0.73437,3.45313 -0.73438,1.09375 -2.28125,1.09375 -1.57813,0 -2.3125,-1.10938 -0.71875,-1.125 -0.71875,-3.4375 0,-2.32812 0.73437,-3.4375 0.73438,-1.10937 2.29688,-1.10937 1.5625,0 2.28125,1.14062 0.73437,1.125 0.73437,3.40625 z m -1.54687,2.65625 q 0.20312,-0.48437 0.28125,-1.125 0.0781,-0.64062 0.0781,-1.53125 0,-0.89062 -0.0781,-1.54687 -0.0781,-0.65625 -0.28125,-1.125 -0.20313,-0.45313 -0.5625,-0.67188 -0.35938,-0.23437 -0.90625,-0.23437 -0.5625,0 -0.92188,0.23437 -0.35937,0.21875 -0.5625,0.6875 -0.20312,0.4375 -0.28125,1.14063 -0.0625,0.6875 -0.0625,1.51562 0,0.92188 0.0625,1.54688 0.0625,0.60937 0.26563,1.09375 0.20312,0.45312 0.54687,0.70312 0.35938,0.23438 0.95313,0.23438 0.54687,0 0.90625,-0.23438 0.35937,-0.23437 0.5625,-0.6875 z"
     id="path18228"
     style="fill:#000000;fill-rule:nonzero" />
  <path
     d="m 290.88411,256.96615 34.58267,0 0,36.78742 -34.58267,0 z"
     id="path18230"
     style="fill:#ffffff;fill-rule:nonzero" />
  <path
     d="m 290.88411,256.96615 34.58267,0 0,36.78742 -34.58267,0 z"
     id="path18232"
     style="stroke:#000000;stroke-width:2;stroke-linecap:butt;stroke-linejoin:round" />
  <path
     d="m 306.90591,279.87988 -4.73437,0 0,-0.89063 1.82812,0 0,-5.84375 -1.82812,0 0,-0.79687 q 0.375,0 0.79687,-0.0625 0.42188,-0.0625 0.64063,-0.1875 0.26562,-0.14063 0.42187,-0.35938 0.15625,-0.23437 0.17188,-0.60937 l 0.92187,0 0,7.85937 1.78125,0 0,0.89063 z m 7.62891,0 -4.73438,0 0,-0.89063 1.82813,0 0,-5.84375 -1.82813,0 0,-0.79687 q 0.375,0 0.79688,-0.0625 0.42187,-0.0625 0.64062,-0.1875 0.26563,-0.14063 0.42188,-0.35938 0.15625,-0.23437 0.17187,-0.60937 l 0.92188,0 0,7.85937 1.78125,0 0,0.89063 z"
     id="path18234"
     style="fill:#000000;fill-rule:nonzero" />
  <path
     d="m 152.42255,219.73541 34.58269,0 0,36.78738 -34.58269,0 z"
     id="path18236"
     style="fill:#ffffff;fill-rule:nonzero" />
  <path
     d="m 152.42255,219.73541 34.58269,0 0,36.78738 -34.58269,0 z"
     id="path18238"
     style="stroke:#000000;stroke-width:2;stroke-linecap:butt;stroke-linejoin:round" />
  <path
     d="m 172.88382,239.82098 q 0,1.32813 -0.875,2.17188 -0.875,0.84375 -2.15625,0.84375 -0.64063,0 -1.17188,-0.20313 -0.53125,-0.20312 -0.92187,-0.59375 -0.51563,-0.48437 -0.79688,-1.28125 -0.26562,-0.8125 -0.26562,-1.9375 0,-1.17187 0.25,-2.0625 0.25,-0.89062 0.79687,-1.59375 0.51563,-0.65625 1.32813,-1.03125 0.8125,-0.375 1.90625,-0.375 0.34375,0 0.57812,0.0312 0.23438,0.0312 0.46875,0.10938 l 0,1.10937 -0.0469,0 q -0.17188,-0.0781 -0.5,-0.15625 -0.32813,-0.0781 -0.67188,-0.0781 -1.26562,0 -2.01562,0.78125 -0.75,0.78125 -0.875,2.125 0.5,-0.29688 0.96875,-0.45313 0.48437,-0.15625 1.10937,-0.15625 0.54688,0 0.96875,0.10938 0.4375,0.0937 0.875,0.40625 0.51563,0.35937 0.78125,0.90625 0.26563,0.54687 0.26563,1.32812 z m -1.1875,0.0469 q 0,-0.54688 -0.17188,-0.90625 -0.15625,-0.35938 -0.53125,-0.625 -0.26562,-0.1875 -0.59375,-0.23438 -0.32812,-0.0625 -0.6875,-0.0625 -0.5,0 -0.92187,0.125 -0.42188,0.10938 -0.875,0.35938 -0.0156,0.125 -0.0312,0.25 0,0.10937 0,0.29687 0,0.92188 0.1875,1.46875 0.20312,0.53125 0.53125,0.84375 0.26562,0.25 0.57812,0.375 0.3125,0.10938 0.6875,0.10938 0.84375,0 1.32813,-0.51563 0.5,-0.51562 0.5,-1.48437 z"
     id="path18240"
     style="fill:#000000;fill-rule:nonzero" />
  <path
     d="m 117.21669,43.900066 162.07874,0 0,36.7874 -162.07874,0 z"
     id="path18258"
     style="fill:#000000;fill-opacity:0;fill-rule:nonzero" />
  <path
     d="m 118.34563,256.96615 34.58267,0 0,36.78742 -34.58267,0 z"
     id="path18268"
     style="fill:#f6a800;fill-rule:nonzero" />
  <path
     d="m 118.34563,256.96615 34.58267,0 0,36.78742 -34.58267,0 z"
     id="path18270"
     style="stroke:#000000;stroke-width:2;stroke-linecap:butt;stroke-linejoin:round" />
  <path
     d="m 138.80689,277.05176 q 0,1.32812 -0.875,2.17187 -0.875,0.84375 -2.15625,0.84375 -0.64062,0 -1.17187,-0.20312 -0.53125,-0.20313 -0.92188,-0.59375 -0.51562,-0.48438 -0.79687,-1.28125 -0.26563,-0.8125 -0.26563,-1.9375 0,-1.17188 0.25,-2.0625 0.25,-0.89063 0.79688,-1.59375 0.51562,-0.65625 1.32812,-1.03125 0.8125,-0.375 1.90625,-0.375 0.34375,0 0.57813,0.0312 0.23437,0.0312 0.46875,0.10937 l 0,1.10938 -0.0469,0 q -0.17187,-0.0781 -0.5,-0.15625 -0.32812,-0.0781 -0.67187,-0.0781 -1.26563,0 -2.01563,0.78125 -0.75,0.78125 -0.875,2.125 0.5,-0.29687 0.96875,-0.45312 0.48438,-0.15625 1.10938,-0.15625 0.54687,0 0.96875,0.10937 0.4375,0.0937 0.875,0.40625 0.51562,0.35938 0.78125,0.90625 0.26562,0.54688 0.26562,1.32813 z m -1.1875,0.0469 q 0,-0.54687 -0.17187,-0.90625 -0.15625,-0.35937 -0.53125,-0.625 -0.26563,-0.1875 -0.59375,-0.23437 -0.32813,-0.0625 -0.6875,-0.0625 -0.5,0 -0.92188,0.125 -0.42187,0.10937 -0.875,0.35937 -0.0156,0.125 -0.0312,0.25 0,0.10938 0,0.29688 0,0.92187 0.1875,1.46875 0.20313,0.53125 0.53125,0.84375 0.26563,0.25 0.57813,0.375 0.3125,0.10937 0.6875,0.10937 0.84375,0 1.32812,-0.51562 0.5,-0.51563 0.5,-1.48438 z"
     id="path18272"
     style="fill:#ffffff;fill-rule:nonzero" />
  <path
     d="m 152.42255,256.96615 34.58269,0 0,36.78742 -34.58269,0 z"
     id="path18280"
     style="fill:#f6a800;fill-rule:nonzero" />
  <path
     d="m 152.42255,256.96615 34.58269,0 0,36.78742 -34.58269,0 z"
     id="path18282"
     style="stroke:#000000;stroke-width:2;stroke-linecap:butt;stroke-linejoin:round" />
  <path
     d="m 172.77445,272.45801 -3.95313,7.42187 -1.25,0 4.20313,-7.70312 -4.96875,0 0,-1.01563 5.96875,0 0,1.29688 z"
     id="path18284"
     style="fill:#ffffff;fill-rule:nonzero" />
  <path
     d="m 187.57639,256.96615 34.58269,0 0,36.78742 -34.58269,0 z"
     id="path18292"
     style="fill:#f6a800;fill-rule:nonzero" />
  <path
     d="m 187.57639,256.96615 34.58269,0 0,36.78742 -34.58269,0 z"
     id="path18294"
     style="stroke:#000000;stroke-width:2;stroke-linecap:butt;stroke-linejoin:round" />
  <path
     d="m 207.97516,277.44238 q 0,1.14062 -0.89063,1.89062 -0.875,0.75 -2.21875,0.75 -1.42187,0 -2.26562,-0.73437 -0.82813,-0.73438 -0.82813,-1.875 0,-0.73438 0.42188,-1.3125 0.42187,-0.59375 1.1875,-0.9375 l 0,-0.0312 q -0.70313,-0.375 -1.04688,-0.8125 -0.32812,-0.45313 -0.32812,-1.125 0,-0.98438 0.79687,-1.64063 0.8125,-0.65625 2.0625,-0.65625 1.3125,0 2.09375,0.625 0.78125,0.625 0.78125,1.59375 0,0.59375 -0.375,1.17188 -0.375,0.5625 -1.07812,0.89062 l 0,0.0312 q 0.8125,0.34375 1.25,0.85938 0.4375,0.51562 0.4375,1.3125 z m -1.39063,-4.25 q 0,-0.625 -0.48437,-1 -0.48438,-0.375 -1.23438,-0.375 -0.73437,0 -1.21875,0.35937 -0.46875,0.34375 -0.46875,0.9375 0,0.42188 0.23438,0.73438 0.25,0.3125 0.71875,0.54687 0.21875,0.10938 0.625,0.28125 0.40625,0.15625 0.79687,0.28125 0.57813,-0.39062 0.79688,-0.79687 0.23437,-0.42188 0.23437,-0.96875 z m 0.17188,4.35937 q 0,-0.53125 -0.23438,-0.85937 -0.23437,-0.32813 -0.92187,-0.65625 -0.28125,-0.125 -0.60938,-0.23438 -0.32812,-0.10937 -0.875,-0.3125 -0.53125,0.28125 -0.84375,0.78125 -0.3125,0.48438 -0.3125,1.10938 0,0.79687 0.53125,1.3125 0.54688,0.51562 1.39063,0.51562 0.85937,0 1.35937,-0.4375 0.51563,-0.4375 0.51563,-1.21875 z"
     id="path18296"
     style="fill:#ffffff;fill-rule:nonzero" />
  <path
     d="m 221.65334,256.96615 34.58267,0 0,36.78742 -34.58267,0 z"
     id="path18304"
     style="fill:#f6a800;fill-rule:nonzero" />
  <path
     d="m 221.65334,256.96615 34.58267,0 0,36.78742 -34.58267,0 z"
     id="path18306"
     style="stroke:#000000;stroke-width:2;stroke-linecap:butt;stroke-linejoin:round" />
  <path
     d="m 241.97397,274.98926 q 0,1.14062 -0.26563,2.07812 -0.26562,0.9375 -0.78125,1.59375 -0.54687,0.65625 -1.34375,1.03125 -0.79687,0.35938 -1.89062,0.35938 -0.29688,0 -0.57813,-0.0312 -0.26562,-0.0312 -0.46875,-0.10938 l 0,-1.10937 0.0625,0 q 0.15625,0.0781 0.46875,0.15625 0.3125,0.0781 0.70313,0.0781 1.28125,0 2.01562,-0.76562 0.75,-0.78125 0.85938,-2.14063 -0.54688,0.32813 -1.03125,0.46875 -0.46875,0.14063 -1.04688,0.14063 -0.53125,0 -0.96875,-0.10938 -0.4375,-0.10937 -0.875,-0.40625 -0.51562,-0.35937 -0.78125,-0.90625 -0.26562,-0.5625 -0.26562,-1.32812 0,-1.32813 0.875,-2.17188 0.89062,-0.84375 2.15625,-0.84375 0.625,0 1.15625,0.20313 0.54687,0.1875 0.95312,0.59375 0.5,0.48437 0.76563,1.25 0.28125,0.76562 0.28125,1.96875 z m -1.1875,-0.25 q 0,-0.90625 -0.1875,-1.45313 -0.1875,-0.5625 -0.51563,-0.85937 -0.28125,-0.26563 -0.59375,-0.375 -0.3125,-0.125 -0.6875,-0.125 -0.84375,0 -1.32812,0.53125 -0.48438,0.53125 -0.48438,1.48437 0,0.5625 0.15625,0.92188 0.15625,0.34375 0.53125,0.60937 0.26563,0.17188 0.57813,0.23438 0.3125,0.0625 0.70312,0.0625 0.45313,0 0.92188,-0.125 0.46875,-0.125 0.875,-0.35938 0.0156,-0.125 0.0156,-0.23437 0.0156,-0.125 0.0156,-0.3125 z"
     id="path18308"
     style="fill:#ffffff;fill-rule:nonzero" />
  <path
     d="m 256.80716,256.96615 34.58267,0 0,36.78742 -34.58267,0 z"
     id="path18316"
     style="fill:#f6a800;fill-rule:nonzero" />
  <path
     d="m 256.80716,256.96615 34.58267,0 0,36.78742 -34.58267,0 z"
     id="path18318"
     style="stroke:#000000;stroke-width:2;stroke-linecap:butt;stroke-linejoin:round" />
  <path
     d="m 272.82897,279.87988 -4.73438,0 0,-0.89063 1.82813,0 0,-5.84375 -1.82813,0 0,-0.79687 q 0.375,0 0.79688,-0.0625 0.42187,-0.0625 0.64062,-0.1875 0.26563,-0.14063 0.42188,-0.35938 0.15625,-0.23437 0.17187,-0.60937 l 0.92188,0 0,7.85937 1.78125,0 0,0.89063 z m 8.1133,-4.35938 q 0,2.34375 -0.73438,3.45313 -0.73437,1.09375 -2.28126,1.09375 -1.57813,0 -2.3125,-1.10938 -0.71875,-1.125 -0.71875,-3.4375 0,-2.32812 0.73437,-3.4375 0.73438,-1.10937 2.29688,-1.10937 1.56251,0 2.28126,1.14062 0.73438,1.125 0.73438,3.40625 z m -1.54688,2.65625 q 0.20313,-0.48437 0.28125,-1.125 0.0781,-0.64062 0.0781,-1.53125 0,-0.89062 -0.0781,-1.54687 -0.0781,-0.65625 -0.28125,-1.125 -0.20312,-0.45313 -0.5625,-0.67188 -0.35937,-0.23437 -0.90626,-0.23437 -0.5625,0 -0.92188,0.23437 -0.35937,0.21875 -0.5625,0.6875 -0.20312,0.4375 -0.28125,1.14063 -0.0625,0.6875 -0.0625,1.51562 0,0.92188 0.0625,1.54688 0.0625,0.60937 0.26563,1.09375 0.20312,0.45312 0.54687,0.70312 0.35938,0.23438 0.95313,0.23438 0.54689,0 0.90626,-0.23438 0.35938,-0.23437 0.5625,-0.6875 z"
     id="path18320"
     style="fill:#ffffff;fill-rule:nonzero" />
  <path
     d="m 290.88411,256.96615 34.58267,0 0,36.78742 -34.58267,0 z"
     id="path18328"
     style="fill:#f6a800;fill-rule:nonzero" />
  <path
     d="m 290.88411,256.96615 34.58267,0 0,36.78742 -34.58267,0 z"
     id="path18330"
     style="stroke:#000000;stroke-width:2;stroke-linecap:butt;stroke-linejoin:round" />
  <path
     d="m 306.90591,279.87988 -4.73437,0 0,-0.89063 1.82812,0 0,-5.84375 -1.82812,0 0,-0.79687 q 0.375,0 0.79687,-0.0625 0.42188,-0.0625 0.64063,-0.1875 0.26562,-0.14063 0.42187,-0.35938 0.15625,-0.23437 0.17188,-0.60937 l 0.92187,0 0,7.85937 1.78125,0 0,0.89063 z m 7.62891,0 -4.73438,0 0,-0.89063 1.82813,0 0,-5.84375 -1.82813,0 0,-0.79687 q 0.375,0 0.79688,-0.0625 0.42187,-0.0625 0.64062,-0.1875 0.26563,-0.14063 0.42188,-0.35938 0.15625,-0.23437 0.17187,-0.60937 l 0.92188,0 0,7.85937 1.78125,0 0,0.89063 z"
     id="path18332"
     style="fill:#ffffff;fill-rule:nonzero" />
  <path
     d="m 295.29311,156.43722 123.59058,0 0,42.48819 -123.59058,0 z"
     id="path18334"
     style="fill:#000000;fill-opacity:0;fill-rule:nonzero" />
  <path
     d="m 353.43119,182.20132 -1.40625,0 0,-1.67188 1.40625,0 0,1.67188 z m 4.36523,0 -1.40625,0 0,-1.67188 1.40625,0 0,1.67188 z m 4.36524,0 -1.40625,0 0,-1.67188 1.40625,0 0,1.67188 z"
     id="path18336"
     style="fill:#000000;fill-rule:nonzero" />
  <path
     d="m 117.82295,18.733836 34.58267,0 0,36.7874 -34.58267,0 z"
     id="path7549"
     style="fill:#ffffff;fill-rule:nonzero;stroke:none" />
  <path
     d="m 117.82295,18.733836 34.58267,0 0,36.7874 -34.58267,0 z"
     id="path7551"
     style="fill:none;stroke:#000000;stroke-width:2;stroke-linecap:butt;stroke-linejoin:round" />
  <path
     d="m 137.65921,41.647536 -4.73437,0 0,-0.89063 1.82812,0 0,-5.84375 -1.82812,0 0,-0.79687 q 0.375,0 0.79687,-0.0625 0.42188,-0.0625 0.64063,-0.1875 0.26562,-0.14063 0.42187,-0.35938 0.15625,-0.23437 0.17188,-0.60937 l 0.92187,0 0,7.85937 1.78125,0 0,0.89063 z"
     id="path7553"
     style="fill:#000000;fill-rule:nonzero;stroke:none" />
  <path
     d="m 151.89987,18.733836 34.58269,0 0,36.7874 -34.58269,0 z"
     id="path7555"
     style="fill:#ffffff;fill-rule:nonzero;stroke:none" />
  <path
     d="m 151.89987,18.733836 34.58269,0 0,36.7874 -34.58269,0 z"
     id="path7557"
     style="fill:none;stroke:#000000;stroke-width:2;stroke-linecap:butt;stroke-linejoin:round" />
  <path
     d="m 172.22052,41.647536 -5.90625,0 0,-1.21875 q 0.625,-0.53125 1.23437,-1.0625 0.625,-0.53125 1.15625,-1.04688 1.125,-1.09375 1.53125,-1.73437 0.42188,-0.64063 0.42188,-1.39063 0,-0.67187 -0.45313,-1.04687 -0.4375,-0.39063 -1.23437,-0.39063 -0.54688,0 -1.17188,0.1875 -0.60937,0.1875 -1.20312,0.57813 l -0.0625,0 0,-1.23438 q 0.42187,-0.20312 1.10937,-0.375 0.70313,-0.17187 1.34375,-0.17187 1.34375,0 2.10938,0.65625 0.76562,0.64062 0.76562,1.75 0,0.5 -0.125,0.9375 -0.125,0.42187 -0.375,0.79687 -0.23437,0.375 -0.54687,0.73438 -0.29688,0.34375 -0.73438,0.76562 -0.625,0.60938 -1.29687,1.1875 -0.67188,0.57813 -1.25,1.07813 l 4.6875,0 0,1 z"
     id="path7559"
     style="fill:#000000;fill-rule:nonzero;stroke:none" />
  <path
     d="m 186.48175,18.733836 34.58267,0 0,36.7874 -34.58267,0 z"
     id="path7561"
     style="fill:#ffffff;fill-rule:nonzero;stroke:none" />
  <path
     d="m 186.48175,18.733836 34.58267,0 0,36.7874 -34.58267,0 z"
     id="path7563"
     style="fill:none;stroke:#000000;stroke-width:2;stroke-linecap:butt;stroke-linejoin:round" />
  <path
     d="m 206.03676,37.444406 q 0.28125,0.25 0.46875,0.64063 0.1875,0.375 0.1875,0.98437 0,0.59375 -0.21875,1.09375 -0.21875,0.5 -0.60938,0.85938 -0.4375,0.40625 -1.04687,0.60937 -0.59375,0.20313 -1.29688,0.20313 -0.71875,0 -1.42187,-0.1875 -0.70313,-0.17188 -1.15625,-0.375 l 0,-1.21875 0.0781,0 q 0.5,0.32812 1.17188,0.54687 0.67187,0.21875 1.3125,0.21875 0.35937,0 0.76562,-0.125 0.42188,-0.125 0.6875,-0.35937 0.26563,-0.26563 0.39063,-0.57813 0.14062,-0.3125 0.14062,-0.78125 0,-0.46875 -0.15625,-0.76562 -0.14062,-0.3125 -0.40625,-0.5 -0.26562,-0.17188 -0.64062,-0.23438 -0.375,-0.0781 -0.8125,-0.0781 l -0.51563,0 0,-0.96875 0.40625,0 q 0.89063,0 1.42188,-0.375 0.53125,-0.375 0.53125,-1.09375 0,-0.3125 -0.14063,-0.54688 -0.125,-0.23437 -0.375,-0.39062 -0.25,-0.15625 -0.54687,-0.20313 -0.28125,-0.0625 -0.64063,-0.0625 -0.5625,0 -1.1875,0.20313 -0.625,0.1875 -1.17187,0.5625 l -0.0625,0 0,-1.23438 q 0.40625,-0.20312 1.09375,-0.375 0.70312,-0.17187 1.35937,-0.17187 0.64063,0 1.125,0.125 0.48438,0.10937 0.875,0.35937 0.42188,0.28125 0.64063,0.6875 0.21875,0.39063 0.21875,0.9375 0,0.71875 -0.51563,1.26563 -0.51562,0.53125 -1.20312,0.67187 l 0,0.0937 q 0.28125,0.0469 0.64062,0.20313 0.35938,0.14062 0.60938,0.35937 z"
     id="path7565"
     style="fill:#000000;fill-rule:nonzero;stroke:none" />
  <path
     d="m 220.55865,18.733836 34.58269,0 0,36.7874 -34.58269,0 z"
     id="path7567"
     style="fill:#ffffff;fill-rule:nonzero;stroke:none" />
  <path
     d="m 220.55865,18.733836 34.58269,0 0,36.7874 -34.58269,0 z"
     id="path7569"
     style="fill:none;stroke:#000000;stroke-width:2;stroke-linecap:butt;stroke-linejoin:round" />
  <path
     d="m 241.08243,39.194406 -1.29688,0 0,2.45313 -1.125,0 0,-2.45313 -4.17187,0 0,-1.34375 4.21875,-4.92187 1.07812,0 0,5.32812 1.29688,0 0,0.9375 z m -2.42188,-0.9375 0,-3.9375 -3.375,3.9375 3.375,0 z"
     id="path7571"
     style="fill:#000000;fill-rule:nonzero;stroke:none" />
  <path
     d="m 254.51524,18.733836 34.58269,0 0,36.7874 -34.58269,0 z"
     id="path7573"
     style="fill:#ffffff;fill-rule:nonzero;stroke:none" />
  <path
     d="m 254.51524,18.733836 34.58269,0 0,36.7874 -34.58269,0 z"
     id="path7575"
     style="fill:none;stroke:#000000;stroke-width:2;stroke-linecap:butt;stroke-linejoin:round" />
  <path
     d="m 274.77339,38.881906 q 0,0.60938 -0.23438,1.17188 -0.21875,0.54687 -0.59375,0.92187 -0.42187,0.40625 -1.01562,0.64063 -0.57813,0.21875 -1.34375,0.21875 -0.71875,0 -1.39063,-0.15625 -0.65625,-0.15625 -1.10937,-0.35938 l 0,-1.23437 0.0781,0 q 0.48438,0.29687 1.125,0.51562 0.65625,0.21875 1.26563,0.21875 0.42187,0 0.8125,-0.10937 0.39062,-0.125 0.6875,-0.42188 0.26562,-0.25 0.39062,-0.59375 0.14063,-0.35937 0.14063,-0.82812 0,-0.45313 -0.15625,-0.75 -0.15625,-0.3125 -0.4375,-0.5 -0.29688,-0.23438 -0.73438,-0.3125 -0.4375,-0.0937 -0.98437,-0.0937 -0.51563,0 -1,0.0781 -0.46875,0.0625 -0.8125,0.125 l 0,-4.48437 5.25,0 0,1.01562 -4.10938,0 0,2.32813 q 0.25,-0.0312 0.5,-0.0312 0.26563,-0.0156 0.46875,-0.0156 0.70313,0 1.23438,0.125 0.53125,0.10938 0.98437,0.42188 0.46875,0.3125 0.71875,0.82812 0.26563,0.5 0.26563,1.28125 z"
     id="path7577"
     style="fill:#000000;fill-rule:nonzero;stroke:none" />
  <path
     d="m 288.59219,18.733836 34.58267,0 0,36.7874 -34.58267,0 z"
     id="path7579"
     style="fill:#ffffff;fill-rule:nonzero;stroke:none" />
  <path
     d="m 288.59219,18.733836 34.58267,0 0,36.7874 -34.58267,0 z"
     id="path7581"
     style="fill:none;stroke:#000000;stroke-width:2;stroke-linecap:butt;stroke-linejoin:round" />
  <path
     d="m 309.05343,38.819406 q 0,1.32813 -0.875,2.17188 -0.875,0.84375 -2.15625,0.84375 -0.64063,0 -1.17188,-0.20313 -0.53125,-0.20312 -0.92187,-0.59375 -0.51563,-0.48437 -0.79688,-1.28125 -0.26562,-0.8125 -0.26562,-1.9375 0,-1.17187 0.25,-2.0625 0.25,-0.89062 0.79687,-1.59375 0.51563,-0.65625 1.32813,-1.03125 0.8125,-0.375 1.90625,-0.375 0.34375,0 0.57812,0.0312 0.23438,0.0312 0.46875,0.10938 l 0,1.10937 -0.0469,0 q -0.17188,-0.0781 -0.5,-0.15625 -0.32813,-0.0781 -0.67188,-0.0781 -1.26562,0 -2.01562,0.78125 -0.75,0.78125 -0.875,2.125 0.5,-0.29688 0.96875,-0.45313 0.48437,-0.15625 1.10937,-0.15625 0.54688,0 0.96875,0.10938 0.4375,0.0937 0.875,0.40625 0.51563,0.35937 0.78125,0.90625 0.26563,0.54687 0.26563,1.32812 z m -1.1875,0.0469 q 0,-0.54688 -0.17188,-0.90625 -0.15625,-0.35938 -0.53125,-0.625 -0.26562,-0.1875 -0.59375,-0.23438 -0.32812,-0.0625 -0.6875,-0.0625 -0.5,0 -0.92187,0.125 -0.42188,0.10938 -0.875,0.35938 -0.0156,0.125 -0.0312,0.25 0,0.10937 0,0.29687 0,0.92188 0.1875,1.46875 0.20312,0.53125 0.53125,0.84375 0.26562,0.25 0.57812,0.375 0.3125,0.10938 0.6875,0.10938 0.84375,0 1.32813,-0.51563 0.5,-0.51562 0.5,-1.48437 z"
     id="path7583"
     style="fill:#000000;fill-rule:nonzero;stroke:none" />
  <path
     d="m 323.17403,18.733836 34.58267,0 0,36.7874 -34.58267,0 z"
     id="path7585"
     style="fill:#000000;fill-opacity:0;fill-rule:nonzero;stroke:none" />
  <path
     d="m 323.17403,18.733836 34.58267,0 0,36.7874 -34.58267,0 z"
     id="path7587"
     style="fill:none;stroke:#000000;stroke-width:2;stroke-linecap:butt;stroke-linejoin:round" />
  <path
     d="m 343.52593,34.225656 -3.95313,7.42188 -1.25,0 4.20313,-7.70313 -4.96875,0 0,-1.01562 5.96875,0 0,1.29687 z"
     id="path7589"
     style="fill:#000000;fill-rule:nonzero;stroke:none" />
  <path
     d="m 357.25097,18.733836 34.58267,0 0,36.7874 -34.58267,0 z"
     id="path7591"
     style="fill:#000000;fill-opacity:0;fill-rule:nonzero;stroke:none" />
  <path
     d="m 356.86753,18.733836 67.4646,0 0,36.7874 -67.4646,0 z"
     id="path7861"
     style="fill:#000000;fill-opacity:0;fill-rule:nonzero;stroke:none" />
  <path
     d="m 357.74881,18.733836 67.4646,0 0,36.7874 -67.4646,0 z"
     id="path7863"
     style="fill:none;stroke:#000000;stroke-width:2;stroke-linecap:butt;stroke-linejoin:round" />
  <path
     d="m 387.82391,41.647536 -1.40625,0 0,-1.67188 1.40625,0 0,1.67188 z m 4.36523,0 -1.40625,0 0,-1.67188 1.40625,0 0,1.67188 z m 4.36524,0 -1.40625,0 0,-1.67188 1.40625,0 0,1.67188 z"
     id="path7865"
     style="fill:#000000;fill-rule:nonzero;stroke:none" />
  <path
     d="m 425.20916,18.733836 34.58264,0 0,36.7874 -34.58264,0 z"
     id="path7867"
     style="fill:#000000;fill-opacity:0;fill-rule:nonzero;stroke:none" />
  <path
     d="m 425.20916,18.733836 34.58264,0 0,36.7874 -34.58264,0 z"
     id="path7869"
     style="fill:none;stroke:#000000;stroke-width:2;stroke-linecap:butt;stroke-linejoin:round" />
  <path
     d="m 445.26611,41.647536 -1.10938,0 0,-3.73438 q 0,-0.4375 -0.0625,-0.82812 -0.0469,-0.40625 -0.1875,-0.625 -0.14062,-0.25 -0.42187,-0.35938 -0.26563,-0.125 -0.70313,-0.125 -0.45312,0 -0.95312,0.21875 -0.48438,0.21875 -0.9375,0.5625 l 0,4.89063 -1.10938,0 0,-6.54688 1.10938,0 0,0.73438 q 0.51562,-0.4375 1.0625,-0.67188 0.54687,-0.25 1.14062,-0.25 1.04688,0 1.60938,0.64063 0.5625,0.64062 0.5625,1.84375 l 0,4.25 z"
     id="path7871"
     style="fill:#000000;fill-rule:nonzero;stroke:none" />
  <path
     d="m 117.82295,18.733836 34.58267,0 0,36.7874 -34.58267,0 z"
     id="path7881"
     style="fill:#f6a800;fill-rule:nonzero;stroke:none" />
  <path
     d="m 117.82295,18.733836 34.58267,0 0,36.7874 -34.58267,0 z"
     id="path7883"
     style="fill:none;stroke:#000000;stroke-width:2;stroke-linecap:butt;stroke-linejoin:round" />
  <path
     d="m 137.65921,41.647536 -4.73437,0 0,-0.89063 1.82812,0 0,-5.84375 -1.82812,0 0,-0.79687 q 0.375,0 0.79687,-0.0625 0.42188,-0.0625 0.64063,-0.1875 0.26562,-0.14063 0.42187,-0.35938 0.15625,-0.23437 0.17188,-0.60937 l 0.92187,0 0,7.85937 1.78125,0 0,0.89063 z"
     id="path7885"
     style="fill:#ffffff;fill-rule:nonzero;stroke:none" />
  <path
     d="m 151.89987,18.733836 34.58269,0 0,36.7874 -34.58269,0 z"
     id="path7893"
     style="fill:#f6a800;fill-rule:nonzero;stroke:none" />
  <path
     d="m 151.89987,18.733836 34.58269,0 0,36.7874 -34.58269,0 z"
     id="path7895"
     style="fill:none;stroke:#000000;stroke-width:2;stroke-linecap:butt;stroke-linejoin:round" />
  <path
     d="m 172.22052,41.647536 -5.90625,0 0,-1.21875 q 0.625,-0.53125 1.23437,-1.0625 0.625,-0.53125 1.15625,-1.04688 1.125,-1.09375 1.53125,-1.73437 0.42188,-0.64063 0.42188,-1.39063 0,-0.67187 -0.45313,-1.04687 -0.4375,-0.39063 -1.23437,-0.39063 -0.54688,0 -1.17188,0.1875 -0.60937,0.1875 -1.20312,0.57813 l -0.0625,0 0,-1.23438 q 0.42187,-0.20312 1.10937,-0.375 0.70313,-0.17187 1.34375,-0.17187 1.34375,0 2.10938,0.65625 0.76562,0.64062 0.76562,1.75 0,0.5 -0.125,0.9375 -0.125,0.42187 -0.375,0.79687 -0.23437,0.375 -0.54687,0.73438 -0.29688,0.34375 -0.73438,0.76562 -0.625,0.60938 -1.29687,1.1875 -0.67188,0.57813 -1.25,1.07813 l 4.6875,0 0,1 z"
     id="path7897"
     style="fill:#ffffff;fill-rule:nonzero;stroke:none" />
  <path
     d="m 186.48175,18.733836 34.58267,0 0,36.7874 -34.58267,0 z"
     id="path7905"
     style="fill:#f6a800;fill-rule:nonzero;stroke:none" />
  <path
     d="m 186.48175,18.733836 34.58267,0 0,36.7874 -34.58267,0 z"
     id="path7907"
     style="fill:none;stroke:#000000;stroke-width:2;stroke-linecap:butt;stroke-linejoin:round" />
  <path
     d="m 206.03676,37.444406 q 0.28125,0.25 0.46875,0.64063 0.1875,0.375 0.1875,0.98437 0,0.59375 -0.21875,1.09375 -0.21875,0.5 -0.60938,0.85938 -0.4375,0.40625 -1.04687,0.60937 -0.59375,0.20313 -1.29688,0.20313 -0.71875,0 -1.42187,-0.1875 -0.70313,-0.17188 -1.15625,-0.375 l 0,-1.21875 0.0781,0 q 0.5,0.32812 1.17188,0.54687 0.67187,0.21875 1.3125,0.21875 0.35937,0 0.76562,-0.125 0.42188,-0.125 0.6875,-0.35937 0.26563,-0.26563 0.39063,-0.57813 0.14062,-0.3125 0.14062,-0.78125 0,-0.46875 -0.15625,-0.76562 -0.14062,-0.3125 -0.40625,-0.5 -0.26562,-0.17188 -0.64062,-0.23438 -0.375,-0.0781 -0.8125,-0.0781 l -0.51563,0 0,-0.96875 0.40625,0 q 0.89063,0 1.42188,-0.375 0.53125,-0.375 0.53125,-1.09375 0,-0.3125 -0.14063,-0.54688 -0.125,-0.23437 -0.375,-0.39062 -0.25,-0.15625 -0.54687,-0.20313 -0.28125,-0.0625 -0.64063,-0.0625 -0.5625,0 -1.1875,0.20313 -0.625,0.1875 -1.17187,0.5625 l -0.0625,0 0,-1.23438 q 0.40625,-0.20312 1.09375,-0.375 0.70312,-0.17187 1.35937,-0.17187 0.64063,0 1.125,0.125 0.48438,0.10937 0.875,0.35937 0.42188,0.28125 0.64063,0.6875 0.21875,0.39063 0.21875,0.9375 0,0.71875 -0.51563,1.26563 -0.51562,0.53125 -1.20312,0.67187 l 0,0.0937 q 0.28125,0.0469 0.64062,0.20313 0.35938,0.14062 0.60938,0.35937 z"
     id="path7909"
     style="fill:#ffffff;fill-rule:nonzero;stroke:none" />
  <path
     d="m 220.55865,18.733836 34.58269,0 0,36.7874 -34.58269,0 z"
     id="path7917"
     style="fill:#f6a800;fill-rule:nonzero;stroke:none" />
  <path
     d="m 220.55865,18.733836 34.58269,0 0,36.7874 -34.58269,0 z"
     id="path7919"
     style="fill:none;stroke:#000000;stroke-width:2;stroke-linecap:butt;stroke-linejoin:round" />
  <path
     d="m 241.08243,39.194406 -1.29688,0 0,2.45313 -1.125,0 0,-2.45313 -4.17187,0 0,-1.34375 4.21875,-4.92187 1.07812,0 0,5.32812 1.29688,0 0,0.9375 z m -2.42188,-0.9375 0,-3.9375 -3.375,3.9375 3.375,0 z"
     id="path7921"
     style="fill:#ffffff;fill-rule:nonzero;stroke:none" />
  <path
     d="m 254.51524,18.733836 34.58269,0 0,36.7874 -34.58269,0 z"
     id="path7929"
     style="fill:#f6a800;fill-rule:nonzero;stroke:none" />
  <path
     d="m 254.51524,18.733836 34.58269,0 0,36.7874 -34.58269,0 z"
     id="path7931"
     style="fill:none;stroke:#000000;stroke-width:2;stroke-linecap:butt;stroke-linejoin:round" />
  <path
     d="m 274.77339,38.881906 q 0,0.60938 -0.23438,1.17188 -0.21875,0.54687 -0.59375,0.92187 -0.42187,0.40625 -1.01562,0.64063 -0.57813,0.21875 -1.34375,0.21875 -0.71875,0 -1.39063,-0.15625 -0.65625,-0.15625 -1.10937,-0.35938 l 0,-1.23437 0.0781,0 q 0.48438,0.29687 1.125,0.51562 0.65625,0.21875 1.26563,0.21875 0.42187,0 0.8125,-0.10937 0.39062,-0.125 0.6875,-0.42188 0.26562,-0.25 0.39062,-0.59375 0.14063,-0.35937 0.14063,-0.82812 0,-0.45313 -0.15625,-0.75 -0.15625,-0.3125 -0.4375,-0.5 -0.29688,-0.23438 -0.73438,-0.3125 -0.4375,-0.0937 -0.98437,-0.0937 -0.51563,0 -1,0.0781 -0.46875,0.0625 -0.8125,0.125 l 0,-4.48437 5.25,0 0,1.01562 -4.10938,0 0,2.32813 q 0.25,-0.0312 0.5,-0.0312 0.26563,-0.0156 0.46875,-0.0156 0.70313,0 1.23438,0.125 0.53125,0.10938 0.98437,0.42188 0.46875,0.3125 0.71875,0.82812 0.26563,0.5 0.26563,1.28125 z"
     id="path7933"
     style="fill:#ffffff;fill-rule:nonzero;stroke:none" />
  <path
     d="m 288.59219,18.733836 34.58267,0 0,36.7874 -34.58267,0 z"
     id="path7941"
     style="fill:#f6a800;fill-rule:nonzero;stroke:none" />
  <path
     d="m 288.59219,18.733836 34.58267,0 0,36.7874 -34.58267,0 z"
     id="path7943"
     style="fill:none;stroke:#000000;stroke-width:2;stroke-linecap:butt;stroke-linejoin:round" />
  <path
     d="m 309.05343,38.819406 q 0,1.32813 -0.875,2.17188 -0.875,0.84375 -2.15625,0.84375 -0.64063,0 -1.17188,-0.20313 -0.53125,-0.20312 -0.92187,-0.59375 -0.51563,-0.48437 -0.79688,-1.28125 -0.26562,-0.8125 -0.26562,-1.9375 0,-1.17187 0.25,-2.0625 0.25,-0.89062 0.79687,-1.59375 0.51563,-0.65625 1.32813,-1.03125 0.8125,-0.375 1.90625,-0.375 0.34375,0 0.57812,0.0312 0.23438,0.0312 0.46875,0.10938 l 0,1.10937 -0.0469,0 q -0.17188,-0.0781 -0.5,-0.15625 -0.32813,-0.0781 -0.67188,-0.0781 -1.26562,0 -2.01562,0.78125 -0.75,0.78125 -0.875,2.125 0.5,-0.29688 0.96875,-0.45313 0.48437,-0.15625 1.10937,-0.15625 0.54688,0 0.96875,0.10938 0.4375,0.0937 0.875,0.40625 0.51563,0.35937 0.78125,0.90625 0.26563,0.54687 0.26563,1.32812 z m -1.1875,0.0469 q 0,-0.54688 -0.17188,-0.90625 -0.15625,-0.35938 -0.53125,-0.625 -0.26562,-0.1875 -0.59375,-0.23438 -0.32812,-0.0625 -0.6875,-0.0625 -0.5,0 -0.92187,0.125 -0.42188,0.10938 -0.875,0.35938 -0.0156,0.125 -0.0312,0.25 0,0.10937 0,0.29687 0,0.92188 0.1875,1.46875 0.20312,0.53125 0.53125,0.84375 0.26562,0.25 0.57812,0.375 0.3125,0.10938 0.6875,0.10938 0.84375,0 1.32813,-0.51563 0.5,-0.51562 0.5,-1.48437 z"
     id="path7945"
     style="fill:#ffffff;fill-rule:nonzero;stroke:none" />
  <g
     transform="matrix(2,0,0,2,-329.83484,-255.4675)"
     id="g7730"
     style="fill:none;stroke:none">
    <defs
       id="defs7732">
      <g
         id="g7734">
        <symbol
           id="textext-f0595d9e-0"
           style="overflow:visible">
          <path
             d=""
             id="path7737-2"
             style="stroke:none" />
        </symbol>
        <symbol
           id="textext-f0595d9e-1"
           style="overflow:visible">
          <path
             d="M 6.1875,-5.828125 C 6.328125,-6.203125 6.59375,-6.484375 7.28125,-6.5 l 0,-0.3125 c -0.3125,0.03125 -0.71875,0.03125 -0.96875,0.03125 -0.296875,0 -0.875,-0.015625 -1.140625,-0.03125 l 0,0.3125 C 5.6875,-6.484375 5.90625,-6.234375 5.90625,-6 c 0,0.078125 -0.03125,0.140625 -0.046875,0.203125 L 4.03125,-1 2.125,-6.03125 C 2.0625,-6.171875 2.0625,-6.1875 2.0625,-6.203125 2.0625,-6.5 2.625,-6.5 2.875,-6.5 l 0,-0.3125 c -0.359375,0.03125 -1.046875,0.03125 -1.421875,0.03125 -0.46875,0 -0.90625,-0.015625 -1.265625,-0.03125 l 0,0.3125 c 0.65625,0 0.84375,0 0.984375,0.375 L 3.484375,0 c 0.0625,0.1875 0.109375,0.21875 0.25,0.21875 0.15625,0 0.1875,-0.046875 0.234375,-0.1875 z m 0,0"
             id="path7740"
             style="stroke:none" />
        </symbol>
        <symbol
           id="textext-f0595d9e-2"
           style="overflow:visible">
          <path
             d="M 1.765625,-4.40625 0.375,-4.296875 l 0,0.3125 c 0.640625,0 0.734375,0.0625 0.734375,0.546875 l 0,2.6875 c 0,0.4375 -0.109375,0.4375 -0.78125,0.4375 l 0,0.3125 C 0.640625,-0.015625 1.1875,-0.03125 1.421875,-0.03125 1.78125,-0.03125 2.125,-0.015625 2.46875,0 l 0,-0.3125 c -0.671875,0 -0.703125,-0.046875 -0.703125,-0.4375 z m 0.03125,-1.734375 c 0,-0.3125 -0.234375,-0.53125 -0.515625,-0.53125 -0.3125,0 -0.53125,0.265625 -0.53125,0.53125 0,0.265625 0.21875,0.53125 0.53125,0.53125 0.28125,0 0.515625,-0.21875 0.515625,-0.53125 z m 0,0"
             id="path7743-0"
             style="stroke:none" />
        </symbol>
        <symbol
           id="textext-f0595d9e-3"
           style="overflow:visible">
          <path
             d="m 3.78125,-0.546875 0,0.65625 L 5.25,0 l 0,-0.3125 c -0.6875,0 -0.78125,-0.0625 -0.78125,-0.5625 l 0,-6.046875 -1.421875,0.109375 0,0.3125 c 0.6875,0 0.765625,0.0625 0.765625,0.5625 l 0,2.15625 c -0.28125,-0.359375 -0.71875,-0.625 -1.25,-0.625 -1.171875,0 -2.21875,0.984375 -2.21875,2.265625 0,1.265625 0.96875,2.25 2.109375,2.25 0.640625,0 1.078125,-0.34375 1.328125,-0.65625 z m 0,-2.671875 0,2.046875 c 0,0.171875 0,0.1875 -0.109375,0.359375 C 3.375,-0.328125 2.9375,-0.109375 2.5,-0.109375 2.046875,-0.109375 1.6875,-0.375 1.453125,-0.75 1.203125,-1.15625 1.171875,-1.71875 1.171875,-2.140625 1.171875,-2.5 1.1875,-3.09375 1.46875,-3.546875 1.6875,-3.859375 2.0625,-4.1875 2.609375,-4.1875 c 0.34375,0 0.765625,0.15625 1.0625,0.59375 0.109375,0.171875 0.109375,0.1875 0.109375,0.375 z m 0,0"
             id="path7746"
             style="stroke:none" />
        </symbol>
        <symbol
           id="textext-f0595d9e-4"
           style="overflow:visible">
          <path
             d="M 1.109375,-2.515625 C 1.171875,-4 2.015625,-4.25 2.359375,-4.25 c 1.015625,0 1.125,1.34375 1.125,1.734375 z m 0,0.21875 2.78125,0 c 0.21875,0 0.25,0 0.25,-0.21875 0,-0.984375 -0.546875,-1.953125 -1.78125,-1.953125 -1.15625,0 -2.078125,1.03125 -2.078125,2.28125 0,1.328125 1.046875,2.296875 2.1875,2.296875 C 3.6875,0.109375 4.140625,-1 4.140625,-1.1875 4.140625,-1.28125 4.0625,-1.3125 4,-1.3125 c -0.078125,0 -0.109375,0.0625 -0.125,0.140625 -0.34375,1.03125 -1.25,1.03125 -1.34375,1.03125 -0.5,0 -0.890625,-0.296875 -1.125,-0.671875 -0.296875,-0.46875 -0.296875,-1.125 -0.296875,-1.484375 z m 0,0"
             id="path7749-1"
             style="stroke:none" />
        </symbol>
        <symbol
           id="textext-f0595d9e-5"
           style="overflow:visible">
          <path
             d="M 4.6875,-2.140625 C 4.6875,-3.40625 3.703125,-4.46875 2.5,-4.46875 c -1.25,0 -2.21875,1.09375 -2.21875,2.328125 0,1.296875 1.03125,2.25 2.203125,2.25 1.203125,0 2.203125,-0.984375 2.203125,-2.25 z m -2.1875,2 c -0.4375,0 -0.875,-0.203125 -1.140625,-0.671875 -0.25,-0.4375 -0.25,-1.046875 -0.25,-1.40625 0,-0.390625 0,-0.921875 0.234375,-1.359375 C 1.609375,-4.03125 2.078125,-4.25 2.484375,-4.25 c 0.4375,0 0.859375,0.21875 1.125,0.65625 0.265625,0.421875 0.265625,1 0.265625,1.375 0,0.359375 0,0.90625 -0.21875,1.34375 C 3.421875,-0.421875 2.984375,-0.140625 2.5,-0.140625 z m 0,0"
             id="path7752"
             style="stroke:none" />
        </symbol>
        <symbol
           id="textext-f0595d9e-6"
           style="overflow:visible">
          <path
             d="m 1.75,-4.296875 0,-1.15625 c 0,-0.875 0.46875,-1.359375 0.90625,-1.359375 0.03125,0 0.1875,0 0.328125,0.078125 C 2.875,-6.703125 2.6875,-6.5625 2.6875,-6.3125 c 0,0.21875 0.15625,0.421875 0.4375,0.421875 0.28125,0 0.4375,-0.203125 0.4375,-0.4375 0,-0.375 -0.375,-0.703125 -0.90625,-0.703125 -0.6875,0 -1.546875,0.53125 -1.546875,1.59375 l 0,1.140625 -0.78125,0 0,0.3125 0.78125,0 0,3.234375 c 0,0.4375 -0.109375,0.4375 -0.765625,0.4375 l 0,0.3125 c 0.390625,-0.015625 0.859375,-0.03125 1.125,-0.03125 0.40625,0 0.875,0 1.265625,0.03125 l 0,-0.3125 -0.203125,0 c -0.734375,0 -0.75,-0.109375 -0.75,-0.46875 l 0,-3.203125 1.125,0 0,-0.3125 z m 0,0"
             id="path7755-3"
             style="stroke:none" />
        </symbol>
        <symbol
           id="textext-f0595d9e-7"
           style="overflow:visible">
          <path
             d="m 1.671875,-3.3125 0,-1.09375 -1.390625,0.109375 0,0.3125 c 0.703125,0 0.78125,0.0625 0.78125,0.5625 l 0,2.671875 c 0,0.4375 -0.109375,0.4375 -0.78125,0.4375 l 0,0.3125 c 0.390625,-0.015625 0.859375,-0.03125 1.140625,-0.03125 0.390625,0 0.859375,0 1.265625,0.03125 l 0,-0.3125 -0.21875,0 c -0.734375,0 -0.75,-0.109375 -0.75,-0.46875 l 0,-1.53125 c 0,-0.984375 0.421875,-1.875 1.171875,-1.875 0.0625,0 0.09375,0 0.109375,0.015625 -0.03125,0 -0.234375,0.125 -0.234375,0.390625 0,0.265625 0.21875,0.421875 0.4375,0.421875 0.171875,0 0.421875,-0.125 0.421875,-0.4375 0,-0.3125 -0.3125,-0.609375 -0.734375,-0.609375 -0.734375,0 -1.09375,0.671875 -1.21875,1.09375 z m 0,0"
             id="path7758"
             style="stroke:none" />
        </symbol>
        <symbol
           id="textext-f0595d9e-8"
           style="overflow:visible">
          <path
             d="m 3.3125,-0.75 c 0.046875,0.390625 0.3125,0.8125 0.78125,0.8125 0.21875,0 0.828125,-0.140625 0.828125,-0.953125 l 0,-0.5625 -0.25,0 0,0.5625 c 0,0.578125 -0.25,0.640625 -0.359375,0.640625 -0.328125,0 -0.375,-0.453125 -0.375,-0.5 l 0,-1.984375 c 0,-0.421875 0,-0.8125 -0.359375,-1.1875 C 3.1875,-4.3125 2.6875,-4.46875 2.21875,-4.46875 c -0.828125,0 -1.515625,0.46875 -1.515625,1.125 0,0.296875 0.203125,0.46875 0.46875,0.46875 0.28125,0 0.453125,-0.203125 0.453125,-0.453125 0,-0.125 -0.046875,-0.453125 -0.515625,-0.453125 C 1.390625,-4.140625 1.875,-4.25 2.1875,-4.25 c 0.5,0 1.0625,0.390625 1.0625,1.28125 l 0,0.359375 c -0.515625,0.03125 -1.203125,0.0625 -1.828125,0.359375 -0.75,0.34375 -1,0.859375 -1,1.296875 0,0.8125 0.96875,1.0625 1.59375,1.0625 0.65625,0 1.109375,-0.40625 1.296875,-0.859375 z M 3.25,-2.390625 l 0,1 c 0,0.9375 -0.71875,1.28125 -1.171875,1.28125 -0.484375,0 -0.890625,-0.34375 -0.890625,-0.84375 0,-0.546875 0.421875,-1.375 2.0625,-1.4375 z m 0,0"
             id="path7761-6"
             style="stroke:none" />
        </symbol>
        <symbol
           id="textext-f0595d9e-9"
           style="overflow:visible">
          <path
             d="m 1.09375,-3.421875 0,2.671875 c 0,0.4375 -0.109375,0.4375 -0.78125,0.4375 l 0,0.3125 c 0.359375,-0.015625 0.859375,-0.03125 1.140625,-0.03125 0.25,0 0.765625,0.015625 1.109375,0.03125 l 0,-0.3125 c -0.671875,0 -0.78125,0 -0.78125,-0.4375 l 0,-1.84375 C 1.78125,-3.625 2.5,-4.1875 3.125,-4.1875 c 0.640625,0 0.75,0.53125 0.75,1.109375 l 0,2.328125 c 0,0.4375 -0.109375,0.4375 -0.78125,0.4375 l 0,0.3125 c 0.34375,-0.015625 0.859375,-0.03125 1.125,-0.03125 0.25,0 0.78125,0.015625 1.109375,0.03125 l 0,-0.3125 c -0.65625,0 -0.765625,0 -0.765625,-0.4375 l 0,-1.84375 c 0,-1.03125 0.703125,-1.59375 1.34375,-1.59375 0.625,0 0.734375,0.53125 0.734375,1.109375 l 0,2.328125 c 0,0.4375 -0.109375,0.4375 -0.78125,0.4375 l 0,0.3125 c 0.34375,-0.015625 0.859375,-0.03125 1.125,-0.03125 0.265625,0 0.78125,0.015625 1.125,0.03125 l 0,-0.3125 c -0.515625,0 -0.765625,0 -0.78125,-0.296875 l 0,-1.90625 c 0,-0.859375 0,-1.15625 -0.3125,-1.515625 -0.140625,-0.171875 -0.46875,-0.375 -1.046875,-0.375 -0.828125,0 -1.28125,0.59375 -1.4375,0.984375 C 4.390625,-4.296875 3.65625,-4.40625 3.203125,-4.40625 2.46875,-4.40625 2,-3.984375 1.71875,-3.359375 l 0,-1.046875 -1.40625,0.109375 0,0.3125 c 0.703125,0 0.78125,0.0625 0.78125,0.5625 z m 0,0"
             id="path7764"
             style="stroke:none" />
        </symbol>
        <symbol
           id="textext-f0595d9e-10"
           style="overflow:visible">
          <path
             d="m 2.078125,-1.9375 c 0.21875,0.046875 1.03125,0.203125 1.03125,0.921875 0,0.5 -0.34375,0.90625 -1.125,0.90625 -0.84375,0 -1.203125,-0.5625 -1.390625,-1.421875 C 0.5625,-1.65625 0.5625,-1.6875 0.453125,-1.6875 c -0.125,0 -0.125,0.0625 -0.125,0.234375 l 0,1.328125 c 0,0.171875 0,0.234375 0.109375,0.234375 0.046875,0 0.0625,-0.015625 0.25,-0.203125 0.015625,-0.015625 0.015625,-0.03125 0.203125,-0.21875 0.4375,0.40625 0.890625,0.421875 1.09375,0.421875 1.140625,0 1.609375,-0.671875 1.609375,-1.390625 0,-0.515625 -0.296875,-0.828125 -0.421875,-0.9375 C 2.84375,-2.546875 2.453125,-2.625 2.03125,-2.703125 1.46875,-2.8125 0.8125,-2.9375 0.8125,-3.515625 c 0,-0.359375 0.25,-0.765625 1.109375,-0.765625 1.09375,0 1.15625,0.90625 1.171875,1.203125 0,0.09375 0.09375,0.09375 0.109375,0.09375 0.140625,0 0.140625,-0.046875 0.140625,-0.234375 l 0,-1.015625 c 0,-0.15625 0,-0.234375 -0.109375,-0.234375 -0.046875,0 -0.078125,0 -0.203125,0.125 -0.03125,0.03125 -0.125,0.125 -0.171875,0.15625 -0.375,-0.28125 -0.78125,-0.28125 -0.9375,-0.28125 -1.21875,0 -1.59375,0.671875 -1.59375,1.234375 0,0.34375 0.15625,0.625 0.421875,0.84375 0.328125,0.25 0.609375,0.3125 1.328125,0.453125 z m 0,0"
             id="path7767-3"
             style="stroke:none" />
        </symbol>
      </g>
    </defs>
    <g
       id="textext-f0595d9e-11">
      <g
         id="g7770"
         style="fill:#000000;fill-opacity:1">
        <use
           id="use7772"
           x="223.43201"
           y="134.765"
           width="960"
           height="540"
           xlink:href="#textext-f0595d9e-1" />
        <use
           id="use7774"
           x="230.90395"
           y="134.765"
           width="960"
           height="540"
           xlink:href="#textext-f0595d9e-2" />
        <use
           id="use7776"
           x="233.67155"
           y="134.765"
           width="960"
           height="540"
           xlink:href="#textext-f0595d9e-3" />
        <use
           id="use7778"
           x="239.20679"
           y="134.765"
           width="960"
           height="540"
           xlink:href="#textext-f0595d9e-4" />
        <use
           id="use7780"
           x="243.63416"
           y="134.765"
           width="960"
           height="540"
           xlink:href="#textext-f0595d9e-5" />
      </g>
      <g
         id="g7782"
         style="fill:#000000;fill-opacity:1">
        <use
           id="use7784"
           x="251.933"
           y="134.765"
           width="960"
           height="540"
           xlink:href="#textext-f0595d9e-6" />
        <use
           id="use7786"
           x="254.97757"
           y="134.765"
           width="960"
           height="540"
           xlink:href="#textext-f0595d9e-7" />
        <use
           id="use7788"
           x="258.87991"
           y="134.765"
           width="960"
           height="540"
           xlink:href="#textext-f0595d9e-8" />
        <use
           id="use7790"
           x="263.86124"
           y="134.765"
           width="960"
           height="540"
           xlink:href="#textext-f0595d9e-9" />
        <use
           id="use7792"
           x="272.16306"
           y="134.765"
           width="960"
           height="540"
           xlink:href="#textext-f0595d9e-4" />
        <use
           id="use7794"
           x="276.59045"
           y="134.765"
           width="960"
           height="540"
           xlink:href="#textext-f0595d9e-10" />
      </g>
    </g>
  </g>
  <path
     d="m 115.6186,293.0946 c -7.44472,0.0659 -13.48826,-0.94424 -13.49864,-2.25607 l -0.8351,-105.5456 c -0.0104,-1.31184 -6.053918,-2.32194 -13.498618,-2.25608 l 0,0 c 7.44471,-0.0659 13.471408,-1.18269 13.461028,-2.49455 l -0.82866,-104.732394 0,0 c -0.0104,-1.31184 6.01634,-2.42869 13.46106,-2.49453"
     id="path5751-4"
     style="fill:none;stroke:#000000;stroke-width:3;stroke-linecap:butt;stroke-linejoin:round" />
  <g
     transform="matrix(2,0,0,2,-447.52026,-90.176864)"
     id="g12062"
     style="fill:none;stroke:none">
    <defs
       id="defs12064">
      <g
         id="g12066">
        <symbol
           id="textext-e409a8cc-0"
           style="overflow:visible">
          <path
             d=""
             id="path12069"
             style="stroke:none" />
        </symbol>
        <symbol
           id="textext-e409a8cc-1"
           style="overflow:visible">
          <path
             d="m 5.796875,-6.78125 -5.46875,0 0,0.3125 0.234375,0 c 0.765625,0 0.796875,0.109375 0.796875,0.46875 l 0,5.21875 c 0,0.359375 -0.03125,0.46875 -0.796875,0.46875 l -0.234375,0 0,0.3125 c 0.34375,-0.03125 1.125,-0.03125 1.515625,-0.03125 0.40625,0 1.3125,0 1.671875,0.03125 l 0,-0.3125 -0.328125,0 C 2.25,-0.3125 2.25,-0.4375 2.25,-0.78125 l 0,-2.453125 0.84375,0 c 0.96875,0 1.0625,0.3125 1.0625,1.15625 l 0.25,0 0,-2.640625 -0.25,0 c 0,0.84375 -0.09375,1.171875 -1.0625,1.171875 l -0.84375,0 0,-2.53125 c 0,-0.328125 0.015625,-0.390625 0.484375,-0.390625 l 1.1875,0 c 1.5,0 1.75,0.5625 1.90625,1.9375 l 0.25,0 z m 0,0"
             id="path12072"
             style="stroke:none" />
        </symbol>
        <symbol
           id="textext-e409a8cc-2"
           style="overflow:visible">
          <path
             d="m 1.671875,-3.3125 0,-1.09375 -1.390625,0.109375 0,0.3125 c 0.703125,0 0.78125,0.0625 0.78125,0.5625 l 0,2.671875 c 0,0.4375 -0.109375,0.4375 -0.78125,0.4375 l 0,0.3125 c 0.390625,-0.015625 0.859375,-0.03125 1.140625,-0.03125 0.390625,0 0.859375,0 1.265625,0.03125 l 0,-0.3125 -0.21875,0 c -0.734375,0 -0.75,-0.109375 -0.75,-0.46875 l 0,-1.53125 c 0,-0.984375 0.421875,-1.875 1.171875,-1.875 0.0625,0 0.09375,0 0.109375,0.015625 -0.03125,0 -0.234375,0.125 -0.234375,0.390625 0,0.265625 0.21875,0.421875 0.4375,0.421875 0.171875,0 0.421875,-0.125 0.421875,-0.4375 0,-0.3125 -0.3125,-0.609375 -0.734375,-0.609375 -0.734375,0 -1.09375,0.671875 -1.21875,1.09375 z m 0,0"
             id="path12075"
             style="stroke:none" />
        </symbol>
        <symbol
           id="textext-e409a8cc-3"
           style="overflow:visible">
          <path
             d="m 3.3125,-0.75 c 0.046875,0.390625 0.3125,0.8125 0.78125,0.8125 0.21875,0 0.828125,-0.140625 0.828125,-0.953125 l 0,-0.5625 -0.25,0 0,0.5625 c 0,0.578125 -0.25,0.640625 -0.359375,0.640625 -0.328125,0 -0.375,-0.453125 -0.375,-0.5 l 0,-1.984375 c 0,-0.421875 0,-0.8125 -0.359375,-1.1875 C 3.1875,-4.3125 2.6875,-4.46875 2.21875,-4.46875 c -0.828125,0 -1.515625,0.46875 -1.515625,1.125 0,0.296875 0.203125,0.46875 0.46875,0.46875 0.28125,0 0.453125,-0.203125 0.453125,-0.453125 0,-0.125 -0.046875,-0.453125 -0.515625,-0.453125 C 1.390625,-4.140625 1.875,-4.25 2.1875,-4.25 c 0.5,0 1.0625,0.390625 1.0625,1.28125 l 0,0.359375 c -0.515625,0.03125 -1.203125,0.0625 -1.828125,0.359375 -0.75,0.34375 -1,0.859375 -1,1.296875 0,0.8125 0.96875,1.0625 1.59375,1.0625 0.65625,0 1.109375,-0.40625 1.296875,-0.859375 z M 3.25,-2.390625 l 0,1 c 0,0.9375 -0.71875,1.28125 -1.171875,1.28125 -0.484375,0 -0.890625,-0.34375 -0.890625,-0.84375 0,-0.546875 0.421875,-1.375 2.0625,-1.4375 z m 0,0"
             id="path12078"
             style="stroke:none" />
        </symbol>
        <symbol
           id="textext-e409a8cc-4"
           style="overflow:visible">
          <path
             d="m 1.09375,-3.421875 0,2.671875 c 0,0.4375 -0.109375,0.4375 -0.78125,0.4375 l 0,0.3125 c 0.359375,-0.015625 0.859375,-0.03125 1.140625,-0.03125 0.25,0 0.765625,0.015625 1.109375,0.03125 l 0,-0.3125 c -0.671875,0 -0.78125,0 -0.78125,-0.4375 l 0,-1.84375 C 1.78125,-3.625 2.5,-4.1875 3.125,-4.1875 c 0.640625,0 0.75,0.53125 0.75,1.109375 l 0,2.328125 c 0,0.4375 -0.109375,0.4375 -0.78125,0.4375 l 0,0.3125 c 0.34375,-0.015625 0.859375,-0.03125 1.125,-0.03125 0.25,0 0.78125,0.015625 1.109375,0.03125 l 0,-0.3125 c -0.65625,0 -0.765625,0 -0.765625,-0.4375 l 0,-1.84375 c 0,-1.03125 0.703125,-1.59375 1.34375,-1.59375 0.625,0 0.734375,0.53125 0.734375,1.109375 l 0,2.328125 c 0,0.4375 -0.109375,0.4375 -0.78125,0.4375 l 0,0.3125 c 0.34375,-0.015625 0.859375,-0.03125 1.125,-0.03125 0.265625,0 0.78125,0.015625 1.125,0.03125 l 0,-0.3125 c -0.515625,0 -0.765625,0 -0.78125,-0.296875 l 0,-1.90625 c 0,-0.859375 0,-1.15625 -0.3125,-1.515625 -0.140625,-0.171875 -0.46875,-0.375 -1.046875,-0.375 -0.828125,0 -1.28125,0.59375 -1.4375,0.984375 C 4.390625,-4.296875 3.65625,-4.40625 3.203125,-4.40625 2.46875,-4.40625 2,-3.984375 1.71875,-3.359375 l 0,-1.046875 -1.40625,0.109375 0,0.3125 c 0.703125,0 0.78125,0.0625 0.78125,0.5625 z m 0,0"
             id="path12081"
             style="stroke:none" />
        </symbol>
        <symbol
           id="textext-e409a8cc-5"
           style="overflow:visible">
          <path
             d="M 1.109375,-2.515625 C 1.171875,-4 2.015625,-4.25 2.359375,-4.25 c 1.015625,0 1.125,1.34375 1.125,1.734375 z m 0,0.21875 2.78125,0 c 0.21875,0 0.25,0 0.25,-0.21875 0,-0.984375 -0.546875,-1.953125 -1.78125,-1.953125 -1.15625,0 -2.078125,1.03125 -2.078125,2.28125 0,1.328125 1.046875,2.296875 2.1875,2.296875 C 3.6875,0.109375 4.140625,-1 4.140625,-1.1875 4.140625,-1.28125 4.0625,-1.3125 4,-1.3125 c -0.078125,0 -0.109375,0.0625 -0.125,0.140625 -0.34375,1.03125 -1.25,1.03125 -1.34375,1.03125 -0.5,0 -0.890625,-0.296875 -1.125,-0.671875 -0.296875,-0.46875 -0.296875,-1.125 -0.296875,-1.484375 z m 0,0"
             id="path12084"
             style="stroke:none" />
        </symbol>
      </g>
    </defs>
    <g
       id="textext-e409a8cc-6">
      <g
         id="g12087"
         style="fill:#000000;fill-opacity:1">
        <use
           id="use12089"
           x="223.43201"
           y="134.765"
           width="657.72559"
           height="404.53275"
           xlink:href="#textext-e409a8cc-1" />
      </g>
      <g
         id="g12091"
         style="fill:#000000;fill-opacity:1">
        <use
           id="use12093"
           x="229.10869"
           y="134.765"
           width="657.72559"
           height="404.53275"
           xlink:href="#textext-e409a8cc-2" />
        <use
           id="use12095"
           x="233.01105"
           y="134.765"
           width="657.72559"
           height="404.53275"
           xlink:href="#textext-e409a8cc-3" />
        <use
           id="use12097"
           x="237.99234"
           y="134.765"
           width="657.72559"
           height="404.53275"
           xlink:href="#textext-e409a8cc-4" />
        <use
           id="use12099"
           x="246.29417"
           y="134.765"
           width="657.72559"
           height="404.53275"
           xlink:href="#textext-e409a8cc-5" />
      </g>
    </g>
  </g>
  <g
     transform="matrix(2,0,0,2,-447.98901,-72.655364)"
     id="g13263"
     style="fill:none;stroke:none">
    <defs
       id="defs13265">
      <g
         id="g13267">
        <symbol
           id="textext-677241f8-0"
           style="overflow:visible">
          <path
             d=""
             id="path13270"
             style="stroke:none" />
        </symbol>
        <symbol
           id="textext-677241f8-1"
           style="overflow:visible">
          <path
             d="m 3.484375,-3.875 -1.28125,-0.296875 c -0.625,-0.15625 -1,-0.6875 -1,-1.265625 0,-0.703125 0.53125,-1.3125 1.3125,-1.3125 1.65625,0 1.875,1.640625 1.9375,2.078125 0.015625,0.0625 0.015625,0.125 0.125,0.125 0.125,0 0.125,-0.046875 0.125,-0.234375 l 0,-2 c 0,-0.171875 0,-0.25 -0.109375,-0.25 -0.0625,0 -0.078125,0.015625 -0.140625,0.140625 l -0.359375,0.5625 C 3.796875,-6.625 3.390625,-7.03125 2.5,-7.03125 c -1.109375,0 -1.9375,0.875 -1.9375,1.9375 0,0.828125 0.53125,1.5625 1.296875,1.828125 0.109375,0.03125 0.625,0.15625 1.328125,0.328125 0.265625,0.0625 0.5625,0.140625 0.84375,0.5 0.203125,0.265625 0.3125,0.59375 0.3125,0.921875 0,0.703125 -0.5,1.421875 -1.34375,1.421875 -0.28125,0 -1.046875,-0.046875 -1.578125,-0.53125 C 0.84375,-1.171875 0.8125,-1.796875 0.8125,-2.15625 0.796875,-2.265625 0.71875,-2.265625 0.6875,-2.265625 c -0.125,0 -0.125,0.078125 -0.125,0.25 l 0,2 c 0,0.171875 0,0.234375 0.109375,0.234375 0.0625,0 0.078125,-0.015625 0.140625,-0.125 0,-0.015625 0.03125,-0.046875 0.359375,-0.578125 0.3125,0.34375 0.953125,0.703125 1.84375,0.703125 1.15625,0 1.953125,-0.96875 1.953125,-2.078125 0,-0.984375 -0.65625,-1.8125 -1.484375,-2.015625 z m 0,0"
             id="path13273"
             style="stroke:none" />
        </symbol>
        <symbol
           id="textext-677241f8-2"
           style="overflow:visible">
          <path
             d="M 1.109375,-2.515625 C 1.171875,-4 2.015625,-4.25 2.359375,-4.25 c 1.015625,0 1.125,1.34375 1.125,1.734375 z m 0,0.21875 2.78125,0 c 0.21875,0 0.25,0 0.25,-0.21875 0,-0.984375 -0.546875,-1.953125 -1.78125,-1.953125 -1.15625,0 -2.078125,1.03125 -2.078125,2.28125 0,1.328125 1.046875,2.296875 2.1875,2.296875 C 3.6875,0.109375 4.140625,-1 4.140625,-1.1875 4.140625,-1.28125 4.0625,-1.3125 4,-1.3125 c -0.078125,0 -0.109375,0.0625 -0.125,0.140625 -0.34375,1.03125 -1.25,1.03125 -1.34375,1.03125 -0.5,0 -0.890625,-0.296875 -1.125,-0.671875 -0.296875,-0.46875 -0.296875,-1.125 -0.296875,-1.484375 z m 0,0"
             id="path13276"
             style="stroke:none" />
        </symbol>
        <symbol
           id="textext-677241f8-3"
           style="overflow:visible">
          <path
             d="m 3.78125,-0.609375 0,1.78125 C 3.78125,1.625 3.671875,1.625 3.015625,1.625 l 0,0.3125 C 3.34375,1.921875 3.875,1.90625 4.125,1.90625 c 0.265625,0 0.78125,0.015625 1.125,0.03125 l 0,-0.3125 c -0.671875,0 -0.78125,0 -0.78125,-0.453125 l 0,-5.578125 -0.21875,0 L 3.875,-3.5 C 3.75,-3.78125 3.34375,-4.40625 2.546875,-4.40625 c -1.15625,0 -2.203125,0.96875 -2.203125,2.265625 0,1.25 0.96875,2.25 2.125,2.25 0.6875,0 1.09375,-0.421875 1.3125,-0.71875 z m 0.03125,-2.15625 0,1.40625 C 3.8125,-1.03125 3.640625,-0.75 3.421875,-0.515625 3.296875,-0.375 2.96875,-0.109375 2.5,-0.109375 1.78125,-0.109375 1.171875,-1 1.171875,-2.140625 c 0,-1.1875 0.6875,-2.015625 1.4375,-2.015625 0.796875,0 1.203125,0.859375 1.203125,1.390625 z m 0,0"
             id="path13279"
             style="stroke:none" />
        </symbol>
        <symbol
           id="textext-677241f8-4"
           style="overflow:visible">
          <path
             d="m 3.890625,-0.78125 0,0.890625 L 5.328125,0 l 0,-0.3125 C 4.640625,-0.3125 4.5625,-0.375 4.5625,-0.875 l 0,-3.53125 -1.46875,0.109375 0,0.3125 c 0.6875,0 0.78125,0.0625 0.78125,0.5625 l 0,1.765625 c 0,0.875 -0.484375,1.546875 -1.21875,1.546875 -0.828125,0 -0.875,-0.46875 -0.875,-0.984375 l 0,-3.3125 -1.46875,0.109375 0,0.3125 c 0.78125,0 0.78125,0.03125 0.78125,0.90625 l 0,1.5 c 0,0.78125 0,1.6875 1.515625,1.6875 0.5625,0 1,-0.28125 1.28125,-0.890625 z m 0,0"
             id="path13282"
             style="stroke:none" />
        </symbol>
        <symbol
           id="textext-677241f8-5"
           style="overflow:visible">
          <path
             d="m 1.09375,-3.421875 0,2.671875 c 0,0.4375 -0.109375,0.4375 -0.78125,0.4375 l 0,0.3125 c 0.359375,-0.015625 0.859375,-0.03125 1.140625,-0.03125 0.25,0 0.765625,0.015625 1.109375,0.03125 l 0,-0.3125 c -0.671875,0 -0.78125,0 -0.78125,-0.4375 l 0,-1.84375 C 1.78125,-3.625 2.5,-4.1875 3.125,-4.1875 c 0.640625,0 0.75,0.53125 0.75,1.109375 l 0,2.328125 c 0,0.4375 -0.109375,0.4375 -0.78125,0.4375 l 0,0.3125 c 0.34375,-0.015625 0.859375,-0.03125 1.125,-0.03125 0.25,0 0.78125,0.015625 1.109375,0.03125 l 0,-0.3125 c -0.515625,0 -0.765625,0 -0.765625,-0.296875 l 0,-1.90625 c 0,-0.859375 0,-1.15625 -0.3125,-1.515625 -0.140625,-0.171875 -0.46875,-0.375 -1.046875,-0.375 C 2.46875,-4.40625 2,-3.984375 1.71875,-3.359375 l 0,-1.046875 -1.40625,0.109375 0,0.3125 c 0.703125,0 0.78125,0.0625 0.78125,0.5625 z m 0,0"
             id="path13285"
             style="stroke:none" />
        </symbol>
        <symbol
           id="textext-677241f8-6"
           style="overflow:visible">
          <path
             d="m 1.171875,-2.171875 c 0,-1.625 0.8125,-2.046875 1.34375,-2.046875 0.09375,0 0.71875,0.015625 1.0625,0.375 -0.40625,0.03125 -0.46875,0.328125 -0.46875,0.453125 0,0.265625 0.1875,0.453125 0.453125,0.453125 0.265625,0 0.46875,-0.15625 0.46875,-0.46875 0,-0.671875 -0.765625,-1.0625 -1.53125,-1.0625 -1.25,0 -2.15625,1.078125 -2.15625,2.3125 0,1.28125 0.984375,2.265625 2.140625,2.265625 1.328125,0 1.65625,-1.203125 1.65625,-1.296875 0,-0.09375 -0.109375,-0.09375 -0.140625,-0.09375 -0.078125,0 -0.109375,0.03125 -0.125,0.09375 -0.28125,0.921875 -0.9375,1.046875 -1.296875,1.046875 -0.53125,0 -1.40625,-0.421875 -1.40625,-2.03125 z m 0,0"
             id="path13288"
             style="stroke:none" />
        </symbol>
        <symbol
           id="textext-677241f8-7"
           style="overflow:visible">
          <path
             d="m 2.078125,-1.9375 c 0.21875,0.046875 1.03125,0.203125 1.03125,0.921875 0,0.5 -0.34375,0.90625 -1.125,0.90625 -0.84375,0 -1.203125,-0.5625 -1.390625,-1.421875 C 0.5625,-1.65625 0.5625,-1.6875 0.453125,-1.6875 c -0.125,0 -0.125,0.0625 -0.125,0.234375 l 0,1.328125 c 0,0.171875 0,0.234375 0.109375,0.234375 0.046875,0 0.0625,-0.015625 0.25,-0.203125 0.015625,-0.015625 0.015625,-0.03125 0.203125,-0.21875 0.4375,0.40625 0.890625,0.421875 1.09375,0.421875 1.140625,0 1.609375,-0.671875 1.609375,-1.390625 0,-0.515625 -0.296875,-0.828125 -0.421875,-0.9375 C 2.84375,-2.546875 2.453125,-2.625 2.03125,-2.703125 1.46875,-2.8125 0.8125,-2.9375 0.8125,-3.515625 c 0,-0.359375 0.25,-0.765625 1.109375,-0.765625 1.09375,0 1.15625,0.90625 1.171875,1.203125 0,0.09375 0.09375,0.09375 0.109375,0.09375 0.140625,0 0.140625,-0.046875 0.140625,-0.234375 l 0,-1.015625 c 0,-0.15625 0,-0.234375 -0.109375,-0.234375 -0.046875,0 -0.078125,0 -0.203125,0.125 -0.03125,0.03125 -0.125,0.125 -0.171875,0.15625 -0.375,-0.28125 -0.78125,-0.28125 -0.9375,-0.28125 -1.21875,0 -1.59375,0.671875 -1.59375,1.234375 0,0.34375 0.15625,0.625 0.421875,0.84375 0.328125,0.25 0.609375,0.3125 1.328125,0.453125 z m 0,0"
             id="path13291"
             style="stroke:none" />
        </symbol>
      </g>
    </defs>
    <g
       id="textext-677241f8-8">
      <g
         id="g13294"
         style="fill:#000000;fill-opacity:1">
        <use
           id="use13296"
           x="223.43201"
           y="134.765"
           width="657.72559"
           height="404.53275"
           xlink:href="#textext-677241f8-1" />
        <use
           id="use13298"
           x="228.96722"
           y="134.765"
           width="657.72559"
           height="404.53275"
           xlink:href="#textext-677241f8-2" />
        <use
           id="use13300"
           x="233.39461"
           y="134.765"
           width="657.72559"
           height="404.53275"
           xlink:href="#textext-677241f8-3" />
        <use
           id="use13302"
           x="238.65286"
           y="134.765"
           width="657.72559"
           height="404.53275"
           xlink:href="#textext-677241f8-4" />
        <use
           id="use13304"
           x="244.18808"
           y="134.765"
           width="657.72559"
           height="404.53275"
           xlink:href="#textext-677241f8-2" />
        <use
           id="use13306"
           x="248.61546"
           y="134.765"
           width="657.72559"
           height="404.53275"
           xlink:href="#textext-677241f8-5" />
        <use
           id="use13308"
           x="254.15068"
           y="134.765"
           width="657.72559"
           height="404.53275"
           xlink:href="#textext-677241f8-6" />
        <use
           id="use13310"
           x="258.57806"
           y="134.765"
           width="657.72559"
           height="404.53275"
           xlink:href="#textext-677241f8-2" />
        <use
           id="use13312"
           x="263.00543"
           y="134.765"
           width="657.72559"
           height="404.53275"
           xlink:href="#textext-677241f8-7" />
      </g>
    </g>
  </g>
</svg>
